<svg width="24" height="24" viewBox="0 0 24 24" fill="none" xmlns="http://www.w3.org/2000/svg">
<path d="M16.77 2.5H18.6704C19.6763 2.50008 20.3628 2.76461 20.7993 3.20117C21.2358 3.63781 21.4995 4.32415 21.4995 5.33008V7.23047C21.4994 8.23635 21.2359 8.92282 20.7993 9.35938C20.3628 9.79593 19.6763 10.0595 18.6704 10.0596H16.77C15.7641 10.0596 15.0778 9.79584 14.6411 9.35938C14.2046 8.92282 13.94 8.23635 13.9399 7.23047V5.33008C13.9399 4.32394 14.2045 3.6378 14.6411 3.20117C15.0777 2.76455 15.7639 2.5 16.77 2.5Z" fill="#3082AA" stroke="#3082AA"/>
<path d="M5.33984 13.93H7.24023C8.24639 13.93 8.93215 14.1942 9.36719 14.6312C9.80224 15.0682 10.0642 15.7566 10.0596 16.7679V18.6702C10.0595 19.6761 9.7959 20.3625 9.35938 20.7991C8.92282 21.2357 8.23635 21.5002 7.23047 21.5003H5.33008C4.32395 21.5003 3.63769 21.2357 3.20117 20.7982C2.76459 20.3605 2.50008 19.6718 2.5 18.6605V16.7601C2.5 15.7539 2.76465 15.0677 3.20215 14.6312C3.63982 14.1946 4.32841 13.93 5.33984 13.93Z" fill="#3082AA" stroke="#3082AA"/>
<path d="M6.29 10.58C8.6593 10.58 10.58 8.6593 10.58 6.29C10.58 3.9207 8.6593 2 6.29 2C3.9207 2 2 3.9207 2 6.29C2 8.6593 3.9207 10.58 6.29 10.58Z" fill="#3082AA"/>
<path d="M17.7099 22C20.0792 22 21.9999 20.0793 21.9999 17.71C21.9999 15.3407 20.0792 13.42 17.7099 13.42C15.3406 13.42 13.4199 15.3407 13.4199 17.71C13.4199 20.0793 15.3406 22 17.7099 22Z" fill="#3082AA"/>
</svg>
