<svg width="98" height="30" viewBox="0 0 98 30" fill="none" xmlns="http://www.w3.org/2000/svg">
<path d="M1.38 5.6H2.68V18H1.38V5.6ZM7.40203 17.68C7.40203 18.4533 7.28203 19.1533 7.04203 19.78C6.80203 20.42 6.4687 20.9667 6.04203 21.42C5.61536 21.8733 5.11536 22.22 4.54203 22.46C3.9687 22.7133 3.34203 22.84 2.66203 22.84H1.48203L1.38203 21.48H2.36203C3.0287 21.48 3.60203 21.3733 4.08203 21.16C4.56203 20.9467 4.95536 20.66 5.26203 20.3C5.5687 19.9533 5.79536 19.5533 5.94203 19.1C6.0887 18.6467 6.16203 18.1733 6.16203 17.68V12.28H7.44203V15.1C7.44203 15.5667 7.59536 15.94 7.90203 16.22C8.22203 16.4867 8.63536 16.62 9.14203 16.62H9.36203C9.65536 16.62 9.80203 16.8467 9.80203 17.3C9.80203 17.7667 9.65536 18 9.36203 18H9.14203C8.82203 18 8.50203 17.94 8.18203 17.82C7.87536 17.7 7.61536 17.4933 7.40203 17.2V17.68ZM9.35547 18C9.18214 18 9.0688 17.9467 9.01547 17.84C8.9488 17.7333 8.91547 17.5667 8.91547 17.34C8.91547 17.1 8.9488 16.92 9.01547 16.8C9.0688 16.68 9.18214 16.62 9.35547 16.62H13.9155C14.4355 16.62 14.8488 16.48 15.1555 16.2C15.4621 15.92 15.6155 15.5333 15.6155 15.04V12.28H16.9355V15.04C16.9355 15.9867 16.6688 16.72 16.1355 17.24C15.6021 17.7467 14.8888 18 13.9955 18H9.35547ZM14.4755 21.74H12.9555V20.32H14.4755V21.74ZM11.8755 21.74H10.3355V20.32H11.8755V21.74ZM15.9483 21.48H16.3283C16.9816 21.48 17.5416 21.3733 18.0083 21.16C18.4749 20.9467 18.8549 20.66 19.1483 20.3C19.4549 19.9533 19.6816 19.5533 19.8283 19.1C19.9749 18.6467 20.0483 18.1733 20.0483 17.68V12.28H21.3483V17.68C21.3483 18.4533 21.2216 19.1533 20.9683 19.78C20.7283 20.42 20.3949 20.9667 19.9683 21.42C19.5416 21.8733 19.0349 22.22 18.4483 22.46C17.8749 22.7133 17.2483 22.84 16.5683 22.84H16.0483L15.9483 21.48ZM32.7873 21.48C33.3473 21.48 33.8673 21.4067 34.3473 21.26C34.8273 21.1133 35.2407 20.9067 35.5873 20.64C35.9473 20.3867 36.2273 20.08 36.4273 19.72C36.6407 19.3733 36.7473 19 36.7473 18.6C36.7473 18.24 36.6473 17.94 36.4473 17.7C36.2473 17.4467 35.854 17.32 35.2673 17.32H31.7873V13.86C31.7873 12.8467 32.0807 12.0267 32.6673 11.4C33.254 10.76 34.0673 10.44 35.1073 10.44H37.4073L37.5073 11.82H35.0273C34.774 11.82 34.5273 11.8667 34.2873 11.96C34.0607 12.04 33.854 12.1667 33.6673 12.34C33.494 12.5 33.3473 12.7067 33.2273 12.96C33.1207 13.2 33.0673 13.4867 33.0673 13.82V15.94H35.5073C36.0007 15.94 36.4073 16.0067 36.7273 16.14C37.0607 16.26 37.3207 16.4333 37.5073 16.66C37.7073 16.8733 37.8407 17.1267 37.9073 17.42C37.9873 17.7133 38.0273 18.0267 38.0273 18.36C38.0273 18.9867 37.894 19.5733 37.6273 20.12C37.3607 20.6667 37.0007 21.14 36.5473 21.54C36.094 21.94 35.554 22.2533 34.9273 22.48C34.314 22.72 33.6607 22.84 32.9673 22.84H31.2673C29.774 22.84 28.614 22.38 27.7873 21.46C26.9607 20.54 26.5473 19.28 26.5473 17.68V14.18H27.8273V17.64C27.8273 18.2133 27.894 18.7333 28.0273 19.2C28.174 19.6667 28.394 20.0667 28.6873 20.4C28.994 20.7467 29.374 21.0133 29.8273 21.2C30.2807 21.3867 30.8273 21.48 31.4673 21.48H32.7873ZM43.083 18C42.7363 18 42.403 17.9533 42.083 17.86C41.763 17.7533 41.4763 17.58 41.223 17.34C40.983 17.1 40.7896 16.7867 40.643 16.4C40.4963 16 40.423 15.5067 40.423 14.92V5.6H41.723V14.68C41.723 15.24 41.843 15.7067 42.083 16.08C42.3363 16.44 42.743 16.62 43.303 16.62H43.643C43.9363 16.62 44.083 16.8467 44.083 17.3C44.083 17.7667 43.9363 18 43.643 18H43.083ZM48.8123 11.6C48.1457 11.6 47.6123 11.8133 47.2123 12.24C46.8257 12.6667 46.6323 13.1867 46.6323 13.8C46.6323 14.1467 46.7057 14.4533 46.8523 14.72C46.999 14.9867 47.1857 15.2267 47.4123 15.44C47.639 15.6533 47.8857 15.84 48.1523 16C48.4323 16.16 48.7057 16.3 48.9723 16.42C49.1723 16.3 49.3923 16.1667 49.6323 16.02C49.8723 15.86 50.0923 15.6733 50.2923 15.46C50.4923 15.2467 50.659 15.0067 50.7923 14.74C50.9257 14.4733 50.9923 14.18 50.9923 13.86C50.9923 13.18 50.799 12.6333 50.4123 12.22C50.0257 11.8067 49.4923 11.6 48.8123 11.6ZM43.6523 18C43.479 18 43.3657 17.9467 43.3123 17.84C43.2457 17.7333 43.2123 17.5667 43.2123 17.34C43.2123 17.1 43.2457 16.92 43.3123 16.8C43.3657 16.68 43.479 16.62 43.6523 16.62H47.4923C46.8657 16.2733 46.359 15.8533 45.9723 15.36C45.599 14.8667 45.4123 14.2867 45.4123 13.62C45.4123 13.18 45.4923 12.76 45.6523 12.36C45.8123 11.9467 46.0457 11.5867 46.3523 11.28C46.659 10.9733 47.0257 10.7267 47.4523 10.54C47.8923 10.3533 48.3923 10.26 48.9523 10.26C49.499 10.26 49.9723 10.3533 50.3723 10.54C50.7857 10.7267 51.1257 10.98 51.3923 11.3C51.6723 11.6067 51.879 11.9533 52.0123 12.34C52.1457 12.7267 52.2123 13.12 52.2123 13.52C52.2123 14.7467 51.5857 15.78 50.3323 16.62H53.8723C54.3923 16.62 54.7923 16.5 55.0723 16.26C55.3657 16.02 55.5123 15.7067 55.5123 15.32C55.5123 15.1333 55.4657 14.9333 55.3723 14.72C55.2923 14.4933 55.1457 14.26 54.9323 14.02L51.3123 9.82L52.2723 8.92L55.9523 13.2C56.299 13.6267 56.5457 14.0267 56.6923 14.4C56.839 14.7733 56.9123 15.14 56.9123 15.5C56.9123 16.22 56.6523 16.82 56.1323 17.3C55.6257 17.7667 54.9057 18 53.9723 18H51.7723C51.159 18 50.6123 17.9867 50.1323 17.96C49.6657 17.92 49.2923 17.8333 49.0123 17.7C48.8257 17.78 48.5923 17.84 48.3123 17.88C48.0457 17.92 47.7657 17.9533 47.4723 17.98C47.1923 17.9933 46.9123 18 46.6323 18C46.3657 18 46.139 18 45.9523 18H43.6523ZM65.4897 21.48C66.1697 21.48 66.7364 21.4133 67.1897 21.28C67.6564 21.1467 68.0364 20.9667 68.3297 20.74C68.623 20.5267 68.8297 20.28 68.9497 20C69.083 19.7333 69.1497 19.4533 69.1497 19.16C69.1497 18.84 69.063 18.5667 68.8897 18.34C68.7297 18.1133 68.4497 18 68.0497 18H64.7097L64.8097 16.62H71.9097C72.203 16.62 72.3497 16.8467 72.3497 17.3C72.3497 17.7667 72.203 18 71.9097 18H69.9497C70.123 18.1467 70.2364 18.3267 70.2897 18.54C70.3564 18.7533 70.3897 18.9933 70.3897 19.26C70.3897 19.62 70.3097 20.0067 70.1497 20.42C70.003 20.8333 69.743 21.22 69.3697 21.58C69.0097 21.94 68.523 22.24 67.9097 22.48C67.3097 22.72 66.563 22.84 65.6697 22.84H63.6697C62.1764 22.84 61.0164 22.38 60.1897 21.46C59.363 20.54 58.9497 19.28 58.9497 17.68V14.18H60.2297V17.64C60.2297 18.2133 60.2964 18.7333 60.4297 19.2C60.5764 19.6667 60.7964 20.0667 61.0897 20.4C61.3964 20.7467 61.7764 21.0133 62.2297 21.2C62.683 21.3867 63.2297 21.48 63.8697 21.48H65.4897ZM73.8141 16.62V14.58C73.8141 14.1 73.8674 13.62 73.9741 13.14C74.0807 12.6467 74.2541 12.2067 74.4941 11.82C74.7474 11.42 75.0807 11.0933 75.4941 10.84C75.9207 10.5867 76.4541 10.46 77.0941 10.46C77.5874 10.46 78.0207 10.54 78.3941 10.7C78.7807 10.86 79.1007 11.08 79.3541 11.36C79.6074 11.64 79.7941 11.9733 79.9141 12.36C80.0474 12.7333 80.1141 13.14 80.1141 13.58C80.1141 14.1933 79.9807 14.76 79.7141 15.28C79.4474 15.8 79.0807 16.2533 78.6141 16.64C78.1607 17.0267 77.6207 17.34 76.9941 17.58C76.3807 17.8067 75.7274 17.9333 75.0341 17.96V19.46C75.0341 20.18 75.1674 20.68 75.4341 20.96C75.7007 21.2533 76.0474 21.4267 76.4741 21.48L78.3741 18.98C78.8141 18.42 79.2007 17.9867 79.5341 17.68C79.8674 17.36 80.1874 17.12 80.4941 16.96C80.8141 16.8 81.1407 16.7067 81.4741 16.68C81.8074 16.64 82.1941 16.62 82.6341 16.62C82.8074 16.62 82.9207 16.68 82.9741 16.8C83.0407 16.9067 83.0741 17.0733 83.0741 17.3C83.0741 17.54 83.0407 17.72 82.9741 17.84C82.9207 17.9467 82.8074 18 82.6341 18C82.2341 18 81.8807 18.0133 81.5741 18.04C81.2807 18.0667 80.9941 18.1467 80.7141 18.28C80.4341 18.4267 80.1474 18.64 79.8541 18.92C79.5607 19.2133 79.2207 19.62 78.8341 20.14L76.8341 22.84C76.4074 22.84 76.0074 22.78 75.6341 22.66C75.2741 22.54 74.9607 22.3467 74.6941 22.08C74.4274 21.8133 74.2141 21.4733 74.0541 21.06C73.8941 20.6467 73.8141 20.14 73.8141 19.54V18H71.9141C71.7407 18 71.6274 17.9467 71.5741 17.84C71.5074 17.7333 71.4741 17.5667 71.4741 17.34C71.4741 17.1 71.5074 16.92 71.5741 16.8C71.6274 16.68 71.7407 16.62 71.9141 16.62H73.8141ZM75.0341 16.66C75.6741 16.6467 76.2341 16.5533 76.7141 16.38C77.2074 16.2067 77.6141 15.9867 77.9341 15.72C78.2541 15.4533 78.4941 15.1533 78.6541 14.82C78.8141 14.4867 78.8941 14.1533 78.8941 13.82C78.8941 13.22 78.7407 12.7333 78.4341 12.36C78.1407 11.9867 77.6807 11.8 77.0541 11.8C76.4141 11.8 75.9141 12.0333 75.5541 12.5C75.2074 12.9667 75.0341 13.64 75.0341 14.52V16.66ZM84.3567 5.18L90.3567 2.74L90.5967 3.72L84.3967 6.22L84.3567 5.18ZM87.9167 16.62C88.5167 16.62 88.9301 16.5 89.1567 16.26C89.3834 16.0067 89.4967 15.7067 89.4967 15.36C89.4967 15.1333 89.4567 14.88 89.3767 14.6C89.2967 14.32 89.0767 14 88.7167 13.64L84.3967 9.34V7.92L91.0167 5.3L91.3567 6.6L85.6767 8.82L89.2967 12.44C89.6167 12.7733 89.8767 13.0733 90.0767 13.34C90.2901 13.6067 90.4567 13.86 90.5767 14.1C90.6967 14.34 90.7767 14.5733 90.8167 14.8C90.8567 15.0267 90.8767 15.2667 90.8767 15.52C90.8767 15.9467 90.8034 16.32 90.6567 16.64C90.5234 16.9467 90.3301 17.2 90.0767 17.4C89.8234 17.6 89.5234 17.7533 89.1767 17.86C88.8301 17.9533 88.4501 18 88.0367 18H82.6367C82.4634 18 82.3501 17.9467 82.2967 17.84C82.2301 17.7333 82.1967 17.5667 82.1967 17.34C82.1967 17.1 82.2301 16.92 82.2967 16.8C82.3501 16.68 82.4634 16.62 82.6367 16.62H87.9167ZM94.6417 8.34H95.9417V18H94.6417V8.34ZM94.3017 6.14C94.0484 6.14 93.8417 6.16667 93.6817 6.22C93.5351 6.27333 93.4084 6.43333 93.3017 6.7L92.8817 7.6L92.0217 7.22L92.5417 6.06C92.6617 5.82 92.7751 5.62667 92.8817 5.48C92.9884 5.32 93.1084 5.2 93.2417 5.12C93.3617 5.04 93.5017 4.98667 93.6617 4.96C93.8351 4.93333 94.0351 4.92 94.2617 4.92H97.9417L97.8817 6.14H94.3017Z" fill="#142738"/>
</svg>
