<svg width="144" height="14" viewBox="0 0 144 14" fill="none" xmlns="http://www.w3.org/2000/svg">
<path d="M5.42875 9.744C5.42875 10.32 5.33275 10.8587 5.14075 11.36C4.94875 11.8613 4.68208 12.2987 4.34075 12.672C4.01008 13.0453 3.61008 13.3387 3.14075 13.552C2.68208 13.7653 2.18075 13.872 1.63675 13.872H0.62875L0.54875 12.128H1.22075C1.70075 12.128 2.11142 12.0587 2.45275 11.92C2.78342 11.792 3.05542 11.616 3.26875 11.392C3.48208 11.168 3.63675 10.912 3.73275 10.624C3.82875 10.336 3.87675 10.0427 3.87675 9.744V5.312H5.50875V7.216C5.50875 7.55733 5.61008 7.81333 5.81275 7.984C6.02608 8.15467 6.29275 8.24 6.61275 8.24H6.78875C7.02342 8.24 7.14075 8.52267 7.14075 9.088C7.14075 9.696 7.02342 10 6.78875 10H6.61275C6.39942 10 6.18608 9.968 5.97275 9.904C5.75942 9.82933 5.57808 9.68533 5.42875 9.472V9.744ZM9.42125 8.24C9.55992 8.24 9.65058 8.31467 9.69325 8.464C9.74658 8.60267 9.77325 8.81067 9.77325 9.088C9.77325 9.39733 9.74658 9.62667 9.69325 9.776C9.65058 9.92533 9.55992 10 9.42125 10H6.78125C6.64258 10 6.55192 9.93067 6.50925 9.792C6.45592 9.64267 6.42925 9.42933 6.42925 9.152C6.42925 8.84267 6.45592 8.61333 6.50925 8.464C6.55192 8.31467 6.64258 8.24 6.78125 8.24H9.42125ZM12.0619 8.24C12.2005 8.24 12.2912 8.31467 12.3339 8.464C12.3872 8.60267 12.4139 8.81067 12.4139 9.088C12.4139 9.39733 12.3872 9.62667 12.3339 9.776C12.2912 9.92533 12.2005 10 12.0619 10H9.42188C9.28321 10 9.19254 9.93067 9.14987 9.792C9.09654 9.64267 9.06987 9.42933 9.06987 9.152C9.06987 8.84267 9.09654 8.61333 9.14987 8.464C9.19254 8.31467 9.28321 8.24 9.42188 8.24H12.0619ZM14.7025 8.24C14.8412 8.24 14.9318 8.31467 14.9745 8.464C15.0278 8.60267 15.0545 8.81067 15.0545 9.088C15.0545 9.39733 15.0278 9.62667 14.9745 9.776C14.9318 9.92533 14.8412 10 14.7025 10H12.0625C11.9238 10 11.8332 9.93067 11.7905 9.792C11.7372 9.64267 11.7105 9.42933 11.7105 9.152C11.7105 8.84267 11.7372 8.61333 11.7905 8.464C11.8332 8.31467 11.9238 8.24 12.0625 8.24H14.7025ZM17.3431 8.24C17.4818 8.24 17.5725 8.31467 17.6151 8.464C17.6685 8.60267 17.6951 8.81067 17.6951 9.088C17.6951 9.39733 17.6685 9.62667 17.6151 9.776C17.5725 9.92533 17.4818 10 17.3431 10H14.7031C14.5645 10 14.4738 9.93067 14.4311 9.792C14.3778 9.64267 14.3511 9.42933 14.3511 9.152C14.3511 8.84267 14.3778 8.61333 14.4311 8.464C14.4738 8.31467 14.5645 8.24 14.7031 8.24H17.3431ZM19.9838 8.24C20.1224 8.24 20.2131 8.31467 20.2558 8.464C20.3091 8.60267 20.3358 8.81067 20.3358 9.088C20.3358 9.39733 20.3091 9.62667 20.2558 9.776C20.2131 9.92533 20.1224 10 19.9838 10H17.3438C17.2051 10 17.1144 9.93067 17.0717 9.792C17.0184 9.64267 16.9917 9.42933 16.9917 9.152C16.9917 8.84267 17.0184 8.61333 17.0717 8.464C17.1144 8.31467 17.2051 8.24 17.3438 8.24H19.9838ZM22.6244 8.24C22.763 8.24 22.8537 8.31467 22.8964 8.464C22.9497 8.60267 22.9764 8.81067 22.9764 9.088C22.9764 9.39733 22.9497 9.62667 22.8964 9.776C22.8537 9.92533 22.763 10 22.6244 10H19.9844C19.8457 10 19.755 9.93067 19.7124 9.792C19.659 9.64267 19.6324 9.42933 19.6324 9.152C19.6324 8.84267 19.659 8.61333 19.7124 8.464C19.755 8.31467 19.8457 8.24 19.9844 8.24H22.6244ZM25.265 8.24C25.4037 8.24 25.4943 8.31467 25.537 8.464C25.5903 8.60267 25.617 8.81067 25.617 9.088C25.617 9.39733 25.5903 9.62667 25.537 9.776C25.4943 9.92533 25.4037 10 25.265 10H22.625C22.4863 10 22.3957 9.93067 22.353 9.792C22.2997 9.64267 22.273 9.42933 22.273 9.152C22.273 8.84267 22.2997 8.61333 22.353 8.464C22.3957 8.31467 22.4863 8.24 22.625 8.24H25.265ZM27.9056 8.24C28.0443 8.24 28.135 8.31467 28.1776 8.464C28.231 8.60267 28.2576 8.81067 28.2576 9.088C28.2576 9.39733 28.231 9.62667 28.1776 9.776C28.135 9.92533 28.0443 10 27.9056 10H25.2656C25.127 10 25.0363 9.93067 24.9936 9.792C24.9403 9.64267 24.9136 9.42933 24.9136 9.152C24.9136 8.84267 24.9403 8.61333 24.9936 8.464C25.0363 8.31467 25.127 8.24 25.2656 8.24H27.9056ZM30.5463 8.24C30.6849 8.24 30.7756 8.31467 30.8183 8.464C30.8716 8.60267 30.8983 8.81067 30.8983 9.088C30.8983 9.39733 30.8716 9.62667 30.8183 9.776C30.7756 9.92533 30.6849 10 30.5463 10H27.9062C27.7676 10 27.6769 9.93067 27.6342 9.792C27.5809 9.64267 27.5542 9.42933 27.5542 9.152C27.5542 8.84267 27.5809 8.61333 27.6342 8.464C27.6769 8.31467 27.7676 8.24 27.9062 8.24H30.5463ZM33.1869 8.24C33.3255 8.24 33.4162 8.31467 33.4589 8.464C33.5122 8.60267 33.5389 8.81067 33.5389 9.088C33.5389 9.39733 33.5122 9.62667 33.4589 9.776C33.4162 9.92533 33.3255 10 33.1869 10H30.5469C30.4082 10 30.3175 9.93067 30.2749 9.792C30.2215 9.64267 30.1949 9.42933 30.1949 9.152C30.1949 8.84267 30.2215 8.61333 30.2749 8.464C30.3175 8.31467 30.4082 8.24 30.5469 8.24H33.1869ZM35.8275 8.24C35.9662 8.24 36.0568 8.31467 36.0995 8.464C36.1528 8.60267 36.1795 8.81067 36.1795 9.088C36.1795 9.39733 36.1528 9.62667 36.0995 9.776C36.0568 9.92533 35.9662 10 35.8275 10H33.1875C33.0488 10 32.9582 9.93067 32.9155 9.792C32.8622 9.64267 32.8355 9.42933 32.8355 9.152C32.8355 8.84267 32.8622 8.61333 32.9155 8.464C32.9582 8.31467 33.0488 8.24 33.1875 8.24H35.8275ZM38.4681 8.24C38.6068 8.24 38.6975 8.31467 38.7401 8.464C38.7935 8.60267 38.8201 8.81067 38.8201 9.088C38.8201 9.39733 38.7935 9.62667 38.7401 9.776C38.6975 9.92533 38.6068 10 38.4681 10H35.8281C35.6895 10 35.5988 9.93067 35.5561 9.792C35.5028 9.64267 35.4761 9.42933 35.4761 9.152C35.4761 8.84267 35.5028 8.61333 35.5561 8.464C35.5988 8.31467 35.6895 8.24 35.8281 8.24H38.4681ZM41.1088 8.24C41.2474 8.24 41.3381 8.31467 41.3808 8.464C41.4341 8.60267 41.4608 8.81067 41.4608 9.088C41.4608 9.39733 41.4341 9.62667 41.3808 9.776C41.3381 9.92533 41.2474 10 41.1088 10H38.4688C38.3301 10 38.2394 9.93067 38.1967 9.792C38.1434 9.64267 38.1167 9.42933 38.1167 9.152C38.1167 8.84267 38.1434 8.61333 38.1967 8.464C38.2394 8.31467 38.3301 8.24 38.4688 8.24H41.1088ZM43.7494 8.24C43.888 8.24 43.9787 8.31467 44.0214 8.464C44.0747 8.60267 44.1014 8.81067 44.1014 9.088C44.1014 9.39733 44.0747 9.62667 44.0214 9.776C43.9787 9.92533 43.888 10 43.7494 10H41.1094C40.9707 10 40.88 9.93067 40.8374 9.792C40.784 9.64267 40.7574 9.42933 40.7574 9.152C40.7574 8.84267 40.784 8.61333 40.8374 8.464C40.88 8.31467 40.9707 8.24 41.1094 8.24H43.7494ZM46.39 8.24C46.5287 8.24 46.6193 8.31467 46.662 8.464C46.7153 8.60267 46.742 8.81067 46.742 9.088C46.742 9.39733 46.7153 9.62667 46.662 9.776C46.6193 9.92533 46.5287 10 46.39 10H43.75C43.6113 10 43.5207 9.93067 43.478 9.792C43.4247 9.64267 43.398 9.42933 43.398 9.152C43.398 8.84267 43.4247 8.61333 43.478 8.464C43.5207 8.31467 43.6113 8.24 43.75 8.24H46.39ZM49.0306 8.24C49.1693 8.24 49.26 8.31467 49.3026 8.464C49.356 8.60267 49.3826 8.81067 49.3826 9.088C49.3826 9.39733 49.356 9.62667 49.3026 9.776C49.26 9.92533 49.1693 10 49.0306 10H46.3906C46.252 10 46.1613 9.93067 46.1186 9.792C46.0653 9.64267 46.0386 9.42933 46.0386 9.152C46.0386 8.84267 46.0653 8.61333 46.1186 8.464C46.1613 8.31467 46.252 8.24 46.3906 8.24H49.0306ZM51.6713 8.24C51.8099 8.24 51.9006 8.31467 51.9433 8.464C51.9966 8.60267 52.0233 8.81067 52.0233 9.088C52.0233 9.39733 51.9966 9.62667 51.9433 9.776C51.9006 9.92533 51.8099 10 51.6713 10H49.0312C48.8926 10 48.8019 9.93067 48.7592 9.792C48.7059 9.64267 48.6792 9.42933 48.6792 9.152C48.6792 8.84267 48.7059 8.61333 48.7592 8.464C48.8019 8.31467 48.8926 8.24 49.0312 8.24H51.6713ZM54.3119 8.24C54.4505 8.24 54.5412 8.31467 54.5839 8.464C54.6372 8.60267 54.6639 8.81067 54.6639 9.088C54.6639 9.39733 54.6372 9.62667 54.5839 9.776C54.5412 9.92533 54.4505 10 54.3119 10H51.6719C51.5332 10 51.4425 9.93067 51.3999 9.792C51.3465 9.64267 51.3199 9.42933 51.3199 9.152C51.3199 8.84267 51.3465 8.61333 51.3999 8.464C51.4425 8.31467 51.5332 8.24 51.6719 8.24H54.3119ZM56.6005 8.24C56.2272 7.89867 55.9605 7.56267 55.8005 7.232C55.6405 6.89067 55.5605 6.52267 55.5605 6.128C55.5605 5.776 55.6245 5.43467 55.7525 5.104C55.8912 4.77333 56.0832 4.48533 56.3285 4.24C56.5845 3.984 56.8885 3.78133 57.2405 3.632C57.6032 3.472 58.0032 3.392 58.4405 3.392C58.8778 3.392 59.2618 3.472 59.5925 3.632C59.9232 3.792 60.1952 4 60.4085 4.256C60.6325 4.512 60.7978 4.8 60.9045 5.12C61.0218 5.42933 61.0805 5.73867 61.0805 6.048C61.0805 6.51733 60.9952 6.928 60.8245 7.28C60.6645 7.62133 60.4298 7.94133 60.1205 8.24H62.3445C62.5792 8.24 62.6965 8.52267 62.6965 9.088C62.6965 9.696 62.5792 10 62.3445 10H60.7285C60.2485 10 59.8112 9.97867 59.4165 9.936C59.0325 9.89333 58.7338 9.81333 58.5205 9.696C58.3712 9.77067 58.1845 9.82933 57.9605 9.872C57.7472 9.91467 57.5232 9.94667 57.2885 9.968C57.0645 9.97867 56.8405 9.98933 56.6165 10C56.4032 10 56.2218 10 56.0725 10H54.3125C54.1738 10 54.0832 9.93067 54.0405 9.792C53.9872 9.64267 53.9605 9.42933 53.9605 9.152C53.9605 8.84267 53.9872 8.61333 54.0405 8.464C54.0832 8.31467 54.1738 8.24 54.3125 8.24H56.6005ZM58.3285 5.168C57.9765 5.168 57.6885 5.28533 57.4645 5.52C57.2405 5.75467 57.1285 6.048 57.1285 6.4C57.1285 6.74133 57.2512 7.05067 57.4965 7.328C57.7525 7.59467 58.0565 7.81867 58.4085 8C58.7178 7.81867 58.9792 7.59467 59.1925 7.328C59.4165 7.06133 59.5285 6.75733 59.5285 6.416C59.5285 6.04267 59.4165 5.744 59.1925 5.52C58.9792 5.28533 58.6912 5.168 58.3285 5.168ZM59.3045 2.144H57.4965V0.511999H59.3045V2.144ZM63.0478 8.24C63.7838 8.24 64.1518 7.89333 64.1518 7.2V5.312H65.7678V7.2C65.7678 7.57333 65.8798 7.84 66.1038 8C66.3384 8.16 66.6051 8.24 66.9038 8.24C67.7038 8.24 68.1038 7.89333 68.1038 7.2V5.312H69.7358V7.2C69.7358 7.57333 69.8318 7.84 70.0238 8C70.2264 8.16 70.4611 8.24 70.7278 8.24C71.0478 8.24 71.2931 8.15467 71.4638 7.984C71.6451 7.80267 71.7358 7.54133 71.7358 7.2V5.312H73.3678V7.312C73.3678 8.19733 73.1384 8.86933 72.6798 9.328C72.2318 9.776 71.6024 10 70.7917 10C70.4291 10 70.0824 9.936 69.7518 9.808C69.4211 9.66933 69.1331 9.39733 68.8878 8.992C68.6318 9.39733 68.3278 9.66933 67.9758 9.808C67.6344 9.936 67.2771 10 66.9038 10C66.4984 10 66.1251 9.936 65.7838 9.808C65.4531 9.66933 65.1651 9.39733 64.9198 8.992C64.6638 9.39733 64.3758 9.66933 64.0558 9.808C63.7358 9.936 63.3944 10 63.0318 10H62.3438C62.2051 10 62.1144 9.93067 62.0717 9.792C62.0184 9.64267 61.9917 9.42933 61.9917 9.152C61.9917 8.84267 62.0184 8.61333 62.0717 8.464C62.1144 8.31467 62.2051 8.24 62.3438 8.24H63.0478ZM82.1335 12.128C82.9975 12.128 83.6695 11.9787 84.1495 11.68C84.6402 11.3813 84.8855 10.992 84.8855 10.512C84.8855 10.288 84.8268 10.112 84.7095 9.984C84.5922 9.84533 84.3842 9.776 84.0855 9.776H81.3335V6.72C81.3335 6.304 81.3975 5.92533 81.5255 5.584C81.6535 5.232 81.8348 4.93333 82.0695 4.688C82.3148 4.432 82.6082 4.23467 82.9495 4.096C83.2908 3.95733 83.6748 3.888 84.1015 3.888H85.9415L86.0215 5.648H84.0695C83.7602 5.648 83.4988 5.744 83.2855 5.936C83.0722 6.11733 82.9655 6.39467 82.9655 6.768V8.032H84.3735C84.7895 8.032 85.1308 8.08533 85.3975 8.192C85.6748 8.29867 85.8935 8.448 86.0535 8.64C86.2135 8.832 86.3255 9.06133 86.3895 9.328C86.4642 9.59467 86.5015 9.89333 86.5015 10.224C86.5015 10.736 86.3948 11.216 86.1815 11.664C85.9788 12.112 85.6908 12.496 85.3175 12.816C84.9442 13.1467 84.5015 13.4027 83.9895 13.584C83.4882 13.776 82.9442 13.872 82.3575 13.872H80.9655C79.7708 13.872 78.8428 13.504 78.1815 12.768C77.5202 12.032 77.1895 11.024 77.1895 9.744V6.88H78.8055V9.68C78.8055 10.0533 78.8482 10.3893 78.9335 10.688C79.0188 10.9867 79.1522 11.2427 79.3335 11.456C79.5255 11.6693 79.7708 11.8347 80.0695 11.952C80.3788 12.0693 80.7522 12.128 81.1895 12.128H82.1335ZM90.498 10C90.1993 10 89.9113 9.96267 89.634 9.888C89.3673 9.80267 89.1327 9.664 88.93 9.472C88.7273 9.28 88.5673 9.02933 88.45 8.72C88.3327 8.4 88.274 8.00533 88.274 7.536V0.0799999H89.906V7.136C89.906 7.47733 89.9807 7.74933 90.13 7.952C90.29 8.144 90.5247 8.24 90.834 8.24H91.202C91.4367 8.24 91.554 8.52267 91.554 9.088C91.554 9.696 91.4367 10 91.202 10H90.498ZM93.8431 8.24C93.9818 8.24 94.0725 8.31467 94.1151 8.464C94.1685 8.60267 94.1951 8.81067 94.1951 9.088C94.1951 9.39733 94.1685 9.62667 94.1151 9.776C94.0725 9.92533 93.9818 10 93.8431 10H91.2031C91.0645 10 90.9738 9.93067 90.9311 9.792C90.8778 9.64267 90.8511 9.42933 90.8511 9.152C90.8511 8.84267 90.8778 8.61333 90.9311 8.464C90.9738 8.31467 91.0645 8.24 91.2031 8.24H93.8431ZM96.4838 8.24C96.6224 8.24 96.7131 8.31467 96.7558 8.464C96.8091 8.60267 96.8358 8.81067 96.8358 9.088C96.8358 9.39733 96.8091 9.62667 96.7558 9.776C96.7131 9.92533 96.6224 10 96.4838 10H93.8438C93.7051 10 93.6144 9.93067 93.5717 9.792C93.5184 9.64267 93.4917 9.42933 93.4917 9.152C93.4917 8.84267 93.5184 8.61333 93.5717 8.464C93.6144 8.31467 93.7051 8.24 93.8438 8.24H96.4838ZM96.6284 8.24C96.991 8.24 97.2737 8.17067 97.4764 8.032C97.679 7.88267 97.7804 7.64267 97.7804 7.312V6.96C97.7804 6.53333 97.839 6.13867 97.9564 5.776C98.0844 5.41333 98.2657 5.104 98.5004 4.848C98.735 4.592 99.0177 4.39467 99.3484 4.256C99.6897 4.10667 100.068 4.032 100.484 4.032C100.922 4.032 101.306 4.10667 101.636 4.256C101.978 4.39467 102.26 4.59733 102.484 4.864C102.708 5.12 102.879 5.424 102.996 5.776C103.114 6.128 103.172 6.512 103.172 6.928V7.232C103.172 7.616 103.284 7.88267 103.508 8.032C103.743 8.17067 103.988 8.24 104.244 8.24H104.468C104.607 8.24 104.698 8.31467 104.74 8.464C104.794 8.60267 104.82 8.81067 104.82 9.088C104.82 9.39733 104.794 9.62667 104.74 9.776C104.698 9.92533 104.607 10 104.468 10H104.244C103.935 10 103.62 9.936 103.3 9.808C102.98 9.66933 102.703 9.38133 102.468 8.944C102.18 9.38133 101.855 9.66933 101.492 9.808C101.14 9.936 100.778 10 100.404 10C99.9777 10 99.5777 9.92 99.2044 9.76C98.8417 9.58933 98.559 9.32267 98.3564 8.96C98.1537 9.376 97.8924 9.65333 97.5724 9.792C97.2524 9.93067 96.9377 10 96.6284 10H96.4844C96.3457 10 96.255 9.93067 96.2124 9.792C96.159 9.64267 96.1324 9.42933 96.1324 9.152C96.1324 8.84267 96.159 8.61333 96.2124 8.464C96.255 8.31467 96.3457 8.24 96.4844 8.24H96.6284ZM101.604 7.088C101.604 6.72533 101.519 6.42133 101.348 6.176C101.188 5.93067 100.895 5.808 100.468 5.808C100.063 5.808 99.7697 5.93067 99.5884 6.176C99.4177 6.41067 99.3324 6.72 99.3324 7.104C99.3324 7.47733 99.4337 7.76 99.6364 7.952C99.839 8.144 100.116 8.24 100.468 8.24C101.226 8.24 101.604 7.856 101.604 7.088ZM107.109 8.24C107.247 8.24 107.338 8.31467 107.381 8.464C107.434 8.60267 107.461 8.81067 107.461 9.088C107.461 9.39733 107.434 9.62667 107.381 9.776C107.338 9.92533 107.247 10 107.109 10H104.469C104.33 10 104.239 9.93067 104.197 9.792C104.143 9.64267 104.117 9.42933 104.117 9.152C104.117 8.84267 104.143 8.61333 104.197 8.464C104.239 8.31467 104.33 8.24 104.469 8.24H107.109ZM109.749 8.24C109.888 8.24 109.979 8.31467 110.021 8.464C110.075 8.60267 110.101 8.81067 110.101 9.088C110.101 9.39733 110.075 9.62667 110.021 9.776C109.979 9.92533 109.888 10 109.749 10H107.109C106.971 10 106.88 9.93067 106.837 9.792C106.784 9.64267 106.757 9.42933 106.757 9.152C106.757 8.84267 106.784 8.61333 106.837 8.464C106.88 8.31467 106.971 8.24 107.109 8.24H109.749ZM112.39 8.24C112.529 8.24 112.619 8.31467 112.662 8.464C112.715 8.60267 112.742 8.81067 112.742 9.088C112.742 9.39733 112.715 9.62667 112.662 9.776C112.619 9.92533 112.529 10 112.39 10H109.75C109.611 10 109.521 9.93067 109.478 9.792C109.425 9.64267 109.398 9.42933 109.398 9.152C109.398 8.84267 109.425 8.61333 109.478 8.464C109.521 8.31467 109.611 8.24 109.75 8.24H112.39ZM113.511 8.24C114.225 8.24 114.583 7.89333 114.583 7.2V5.312H116.231V7.2C116.231 7.57333 116.343 7.84 116.567 8C116.801 8.16 117.073 8.24 117.383 8.24H117.799C118.044 8.24 118.167 8.52267 118.167 9.088C118.167 9.696 118.044 10 117.799 10H117.335C116.929 10 116.561 9.936 116.231 9.808C115.9 9.66933 115.612 9.39733 115.367 8.992C115.1 9.39733 114.812 9.66933 114.503 9.808C114.193 9.936 113.863 10 113.511 10H112.391C112.252 10 112.161 9.93067 112.119 9.792C112.065 9.64267 112.039 9.42933 112.039 9.152C112.039 8.84267 112.065 8.61333 112.119 8.464C112.161 8.31467 112.252 8.24 112.391 8.24H113.511ZM116.167 3.44H114.359V1.808H116.167V3.44ZM120.437 8.24C120.576 8.24 120.666 8.31467 120.709 8.464C120.762 8.60267 120.789 8.81067 120.789 9.088C120.789 9.39733 120.762 9.62667 120.709 9.776C120.666 9.92533 120.576 10 120.437 10H117.797C117.658 10 117.568 9.93067 117.525 9.792C117.472 9.64267 117.445 9.42933 117.445 9.152C117.445 8.84267 117.472 8.61333 117.525 8.464C117.568 8.31467 117.658 8.24 117.797 8.24H120.437ZM123.078 8.24C123.216 8.24 123.307 8.31467 123.35 8.464C123.403 8.60267 123.43 8.81067 123.43 9.088C123.43 9.39733 123.403 9.62667 123.35 9.776C123.307 9.92533 123.216 10 123.078 10H120.438C120.299 10 120.208 9.93067 120.165 9.792C120.112 9.64267 120.085 9.42933 120.085 9.152C120.085 8.84267 120.112 8.61333 120.165 8.464C120.208 8.31467 120.299 8.24 120.438 8.24H123.078ZM125.718 8.24C125.857 8.24 125.947 8.31467 125.99 8.464C126.043 8.60267 126.07 8.81067 126.07 9.088C126.07 9.39733 126.043 9.62667 125.99 9.776C125.947 9.92533 125.857 10 125.718 10H123.078C122.939 10 122.849 9.93067 122.806 9.792C122.753 9.64267 122.726 9.42933 122.726 9.152C122.726 8.84267 122.753 8.61333 122.806 8.464C122.849 8.31467 122.939 8.24 123.078 8.24H125.718ZM129.671 5.2C129.308 5.2 129.015 5.31733 128.791 5.552C128.577 5.78667 128.471 6.08 128.471 6.432C128.471 6.784 128.593 7.104 128.839 7.392C129.095 7.66933 129.393 7.89867 129.735 8.08C130.055 7.89867 130.321 7.66933 130.535 7.392C130.748 7.11467 130.855 6.80533 130.855 6.464C130.855 6.09067 130.743 5.78667 130.519 5.552C130.305 5.31733 130.023 5.2 129.671 5.2ZM125.719 10C125.58 10 125.489 9.93067 125.447 9.792C125.393 9.64267 125.367 9.42933 125.367 9.152C125.367 8.84267 125.393 8.61333 125.447 8.464C125.489 8.31467 125.58 8.24 125.719 8.24H128.007C127.313 7.632 126.967 6.944 126.967 6.176C126.967 5.824 127.031 5.488 127.159 5.168C127.287 4.848 127.473 4.56533 127.719 4.32C127.964 4.064 128.257 3.86667 128.599 3.728C128.951 3.57867 129.351 3.504 129.799 3.504C130.236 3.504 130.615 3.57867 130.935 3.728C131.265 3.87733 131.532 4.07467 131.735 4.32C131.948 4.56533 132.103 4.84267 132.199 5.152C132.305 5.46133 132.359 5.776 132.359 6.096C132.359 6.53333 132.273 6.928 132.103 7.28C131.943 7.62133 131.708 7.94133 131.399 8.24H133.639C134.151 8.24 134.407 8.04267 134.407 7.648C134.407 7.56267 134.385 7.46667 134.343 7.36C134.3 7.25333 134.22 7.12533 134.103 6.976L131.447 3.744L132.647 2.608L135.351 5.936C135.66 6.30933 135.873 6.66133 135.991 6.992C136.119 7.312 136.183 7.62667 136.183 7.936C136.183 8.224 136.129 8.496 136.023 8.752C135.927 8.99733 135.777 9.216 135.575 9.408C135.372 9.58933 135.116 9.73333 134.807 9.84C134.508 9.94667 134.161 10 133.767 10H132.007C131.516 10 131.079 9.97867 130.695 9.936C130.321 9.89333 130.028 9.81333 129.815 9.696C129.655 9.77067 129.463 9.82933 129.239 9.872C129.025 9.91467 128.801 9.94667 128.567 9.968C128.343 9.97867 128.119 9.98933 127.895 10C127.681 10 127.5 10 127.351 10H125.719ZM137.962 0.0799999H139.594V10H137.962V0.0799999ZM143.665 9.744C143.665 10.32 143.564 10.8587 143.361 11.36C143.169 11.8613 142.897 12.2987 142.545 12.672C142.204 13.0453 141.793 13.3387 141.313 13.552C140.844 13.7653 140.337 13.872 139.793 13.872H138.785L138.705 12.128H139.377C139.857 12.128 140.268 12.0587 140.609 11.92C140.94 11.792 141.212 11.616 141.425 11.392C141.638 11.168 141.793 10.912 141.889 10.624C141.985 10.336 142.033 10.0427 142.033 9.744V5.312H143.665V9.744Z" fill="#64656F"/>
</svg>
