<svg width="156" height="14" viewBox="0 0 156 14" fill="none" xmlns="http://www.w3.org/2000/svg">
<path d="M5.75 12.128C6.21933 12.128 6.60867 12.096 6.918 12.032C7.238 11.968 7.48867 11.8773 7.67 11.76C7.862 11.6427 7.99533 11.4987 8.07 11.328C8.15533 11.168 8.198 10.992 8.198 10.8C8.198 10.5867 8.13933 10.4 8.022 10.24C7.90467 10.08 7.70733 10 7.43 10H5.126L5.222 8.24H10.774C11.0087 8.24 11.126 8.52267 11.126 9.088C11.126 9.696 11.0087 10 10.774 10H9.398C9.53667 10.1067 9.62733 10.2453 9.67 10.416C9.72333 10.5867 9.75 10.7947 9.75 11.04C9.75 11.328 9.686 11.6373 9.558 11.968C9.43 12.2987 9.21667 12.6027 8.918 12.88C8.63 13.168 8.24067 13.4027 7.75 13.584C7.27 13.776 6.678 13.872 5.974 13.872H4.278C3.08333 13.872 2.15533 13.504 1.494 12.768C0.832667 12.032 0.502 11.024 0.502 9.744V6.88H2.118V9.68C2.118 10.0533 2.16067 10.3893 2.246 10.688C2.33133 10.9867 2.46467 11.2427 2.646 11.456C2.838 11.6693 3.08333 11.8347 3.382 11.952C3.69133 12.0693 4.06467 12.128 4.502 12.128H5.75ZM13.4213 8.24C13.5599 8.24 13.6506 8.31467 13.6933 8.464C13.7466 8.60267 13.7733 8.81067 13.7733 9.088C13.7733 9.39733 13.7466 9.62667 13.6933 9.776C13.6506 9.92533 13.5599 10 13.4213 10H10.7812C10.6426 10 10.5519 9.93067 10.5092 9.792C10.4559 9.64267 10.4292 9.42933 10.4292 9.152C10.4292 8.84267 10.4559 8.61333 10.5092 8.464C10.5519 8.31467 10.6426 8.24 10.7812 8.24H13.4213ZM16.0619 8.24C16.2005 8.24 16.2912 8.31467 16.3339 8.464C16.3872 8.60267 16.4139 8.81067 16.4139 9.088C16.4139 9.39733 16.3872 9.62667 16.3339 9.776C16.2912 9.92533 16.2005 10 16.0619 10H13.4219C13.2832 10 13.1925 9.93067 13.1499 9.792C13.0965 9.64267 13.0699 9.42933 13.0699 9.152C13.0699 8.84267 13.0965 8.61333 13.1499 8.464C13.1925 8.31467 13.2832 8.24 13.4219 8.24H16.0619ZM17.5025 8.24C17.6732 8.24 17.8225 8.24533 17.9505 8.256C18.0785 8.256 18.1958 8.26133 18.3025 8.272C18.4198 8.28267 18.5318 8.29867 18.6385 8.32C18.7452 8.34133 18.8625 8.368 18.9905 8.4C18.6172 8.24 18.3185 8.07467 18.0945 7.904C17.8812 7.72267 17.7158 7.53067 17.5985 7.328C17.4812 7.12533 17.4012 6.90667 17.3585 6.672C17.3265 6.42667 17.3105 6.16 17.3105 5.872C17.3105 5.584 17.3638 5.28533 17.4705 4.976C17.5878 4.66667 17.7585 4.38933 17.9825 4.144C18.2065 3.89867 18.4838 3.696 18.8145 3.536C19.1558 3.376 19.5452 3.296 19.9825 3.296C20.3985 3.296 20.7718 3.34933 21.1025 3.456C21.4438 3.56267 21.7372 3.73867 21.9825 3.984C22.2278 4.22933 22.4145 4.55467 22.5425 4.96C22.6812 5.35467 22.7505 5.84533 22.7505 6.432V7.248C22.7505 8.112 22.4998 8.78933 21.9985 9.28C21.5078 9.76 20.7292 10 19.6625 10H16.0625C15.9238 10 15.8332 9.93067 15.7905 9.792C15.7372 9.64267 15.7105 9.42933 15.7105 9.152C15.7105 8.84267 15.7372 8.61333 15.7905 8.464C15.8332 8.31467 15.9238 8.24 16.0625 8.24H17.5025ZM19.9185 5.056C19.5452 5.056 19.2678 5.17867 19.0865 5.424C18.9052 5.65867 18.8145 5.90933 18.8145 6.176C18.8145 6.32533 18.8305 6.46933 18.8625 6.608C18.9052 6.736 18.9958 6.86933 19.1345 7.008C19.2732 7.14667 19.4812 7.296 19.7585 7.456C20.0358 7.616 20.4198 7.79733 20.9105 8C20.9958 7.89333 21.0598 7.74933 21.1025 7.568C21.1558 7.376 21.1825 7.18933 21.1825 7.008V6.592C21.1825 6.144 21.0918 5.776 20.9105 5.488C20.7292 5.2 20.3985 5.056 19.9185 5.056ZM21.8705 1.904H20.2065V0.335999H21.8705V1.904ZM19.5825 1.904H17.9185V0.335999H19.5825V1.904ZM25.8978 12.128C26.3031 12.128 26.6498 12.0693 26.9378 11.952C27.2364 11.8453 27.4818 11.696 27.6738 11.504C27.8658 11.312 28.0151 11.0827 28.1218 10.816C28.2284 10.56 28.2924 10.288 28.3138 10H27.2258C26.6711 10 26.2178 9.94133 25.8658 9.824C25.5138 9.70667 25.2364 9.536 25.0338 9.312C24.8311 9.07733 24.6871 8.79467 24.6018 8.464C24.5271 8.13333 24.4898 7.76 24.4898 7.344C24.4898 6.928 24.5484 6.53867 24.6658 6.176C24.7831 5.80267 24.9538 5.47733 25.1778 5.2C25.4124 4.92267 25.7004 4.704 26.0418 4.544C26.3831 4.37333 26.7778 4.288 27.2258 4.288C27.5884 4.288 27.9298 4.34667 28.2498 4.464C28.5804 4.58133 28.8684 4.768 29.1138 5.024C29.3591 5.28 29.5511 5.61067 29.6898 6.016C29.8391 6.42133 29.9138 6.91733 29.9138 7.504V8.24H31.2098C31.4444 8.24 31.5618 8.52267 31.5618 9.088C31.5618 9.696 31.4444 10 31.2098 10H29.8818C29.8604 10.5227 29.7538 11.0187 29.5618 11.488C29.3698 11.9573 29.1031 12.368 28.7618 12.72C28.4311 13.072 28.0311 13.3493 27.5618 13.552C27.0924 13.7653 26.5644 13.872 25.9778 13.872H24.3618L24.2658 12.128H25.8978ZM26.0578 7.232C26.0578 7.60533 26.1378 7.86667 26.2978 8.016C26.4684 8.16533 26.7991 8.24 27.2898 8.24H28.3458V7.488C28.3458 6.93333 28.2391 6.544 28.0258 6.32C27.8231 6.096 27.5351 5.984 27.1618 5.984C26.8098 5.984 26.5378 6.09067 26.3458 6.304C26.1538 6.51733 26.0578 6.82667 26.0578 7.232ZM33.8431 8.24C33.9818 8.24 34.0725 8.31467 34.1151 8.464C34.1685 8.60267 34.1951 8.81067 34.1951 9.088C34.1951 9.39733 34.1685 9.62667 34.1151 9.776C34.0725 9.92533 33.9818 10 33.8431 10H31.2031C31.0645 10 30.9738 9.93067 30.9311 9.792C30.8778 9.64267 30.8511 9.42933 30.8511 9.152C30.8511 8.84267 30.8778 8.61333 30.9311 8.464C30.9738 8.31467 31.0645 8.24 31.2031 8.24H33.8431ZM36.4838 8.24C36.6224 8.24 36.7131 8.31467 36.7558 8.464C36.8091 8.60267 36.8358 8.81067 36.8358 9.088C36.8358 9.39733 36.8091 9.62667 36.7558 9.776C36.7131 9.92533 36.6224 10 36.4838 10H33.8438C33.7051 10 33.6144 9.93067 33.5717 9.792C33.5184 9.64267 33.4917 9.42933 33.4917 9.152C33.4917 8.84267 33.5184 8.61333 33.5717 8.464C33.6144 8.31467 33.7051 8.24 33.8438 8.24H36.4838ZM39.1244 8.24C39.263 8.24 39.3537 8.31467 39.3964 8.464C39.4497 8.60267 39.4764 8.81067 39.4764 9.088C39.4764 9.39733 39.4497 9.62667 39.3964 9.776C39.3537 9.92533 39.263 10 39.1244 10H36.4844C36.3457 10 36.255 9.93067 36.2124 9.792C36.159 9.64267 36.1324 9.42933 36.1324 9.152C36.1324 8.84267 36.159 8.61333 36.2124 8.464C36.255 8.31467 36.3457 8.24 36.4844 8.24H39.1244ZM41.765 8.24C41.9037 8.24 41.9943 8.31467 42.037 8.464C42.0903 8.60267 42.117 8.81067 42.117 9.088C42.117 9.39733 42.0903 9.62667 42.037 9.776C41.9943 9.92533 41.9037 10 41.765 10H39.125C38.9863 10 38.8957 9.93067 38.853 9.792C38.7997 9.64267 38.773 9.42933 38.773 9.152C38.773 8.84267 38.7997 8.61333 38.853 8.464C38.8957 8.31467 38.9863 8.24 39.125 8.24H41.765ZM44.0536 8.24C43.6803 7.89867 43.4136 7.56267 43.2536 7.232C43.0936 6.89067 43.0136 6.52267 43.0136 6.128C43.0136 5.776 43.0776 5.43467 43.2056 5.104C43.3443 4.77333 43.5363 4.48533 43.7816 4.24C44.0376 3.984 44.3416 3.78133 44.6936 3.632C45.0563 3.472 45.4563 3.392 45.8936 3.392C46.331 3.392 46.715 3.472 47.0456 3.632C47.3763 3.792 47.6483 4 47.8616 4.256C48.0856 4.512 48.251 4.8 48.3576 5.12C48.475 5.42933 48.5336 5.73867 48.5336 6.048C48.5336 6.51733 48.4483 6.928 48.2776 7.28C48.1176 7.62133 47.883 7.94133 47.5736 8.24H49.7976C50.0323 8.24 50.1496 8.52267 50.1496 9.088C50.1496 9.696 50.0323 10 49.7976 10H48.1816C47.7016 10 47.2643 9.97867 46.8696 9.936C46.4856 9.89333 46.187 9.81333 45.9736 9.696C45.8243 9.77067 45.6376 9.82933 45.4136 9.872C45.2003 9.91467 44.9763 9.94667 44.7416 9.968C44.5176 9.97867 44.2936 9.98933 44.0696 10C43.8563 10 43.675 10 43.5256 10H41.7656C41.627 10 41.5363 9.93067 41.4936 9.792C41.4403 9.64267 41.4136 9.42933 41.4136 9.152C41.4136 8.84267 41.4403 8.61333 41.4936 8.464C41.5363 8.31467 41.627 8.24 41.7656 8.24H44.0536ZM45.7816 5.168C45.4296 5.168 45.1416 5.28533 44.9176 5.52C44.6936 5.75467 44.5816 6.048 44.5816 6.4C44.5816 6.74133 44.7043 7.05067 44.9496 7.328C45.2056 7.59467 45.5096 7.81867 45.8616 8C46.171 7.81867 46.4323 7.59467 46.6456 7.328C46.8696 7.06133 46.9816 6.75733 46.9816 6.416C46.9816 6.04267 46.8696 5.744 46.6456 5.52C46.4323 5.28533 46.1443 5.168 45.7816 5.168ZM47.7816 2.096H46.1176V0.528H47.7816V2.096ZM45.4936 2.096H43.8296V0.528H45.4936V2.096ZM52.4369 8.24C52.5755 8.24 52.6662 8.31467 52.7089 8.464C52.7622 8.60267 52.7889 8.81067 52.7889 9.088C52.7889 9.39733 52.7622 9.62667 52.7089 9.776C52.6662 9.92533 52.5755 10 52.4369 10H49.7969C49.6582 10 49.5675 9.93067 49.5249 9.792C49.4715 9.64267 49.4449 9.42933 49.4449 9.152C49.4449 8.84267 49.4715 8.61333 49.5249 8.464C49.5675 8.31467 49.6582 8.24 49.7969 8.24H52.4369ZM55.0775 8.24C55.2162 8.24 55.3068 8.31467 55.3495 8.464C55.4028 8.60267 55.4295 8.81067 55.4295 9.088C55.4295 9.39733 55.4028 9.62667 55.3495 9.776C55.3068 9.92533 55.2162 10 55.0775 10H52.4375C52.2988 10 52.2082 9.93067 52.1655 9.792C52.1122 9.64267 52.0855 9.42933 52.0855 9.152C52.0855 8.84267 52.1122 8.61333 52.1655 8.464C52.2082 8.31467 52.2988 8.24 52.4375 8.24H55.0775ZM57.7181 8.24C57.8568 8.24 57.9475 8.31467 57.9901 8.464C58.0435 8.60267 58.0701 8.81067 58.0701 9.088C58.0701 9.39733 58.0435 9.62667 57.9901 9.776C57.9475 9.92533 57.8568 10 57.7181 10H55.0781C54.9395 10 54.8488 9.93067 54.8061 9.792C54.7528 9.64267 54.7261 9.42933 54.7261 9.152C54.7261 8.84267 54.7528 8.61333 54.8061 8.464C54.8488 8.31467 54.9395 8.24 55.0781 8.24H57.7181ZM60.3588 8.24C60.4974 8.24 60.5881 8.31467 60.6308 8.464C60.6841 8.60267 60.7108 8.81067 60.7108 9.088C60.7108 9.39733 60.6841 9.62667 60.6308 9.776C60.5881 9.92533 60.4974 10 60.3588 10H57.7188C57.5801 10 57.4894 9.93067 57.4467 9.792C57.3934 9.64267 57.3667 9.42933 57.3667 9.152C57.3667 8.84267 57.3934 8.61333 57.4467 8.464C57.4894 8.31467 57.5801 8.24 57.7188 8.24H60.3588ZM62.9994 8.24C63.138 8.24 63.2287 8.31467 63.2714 8.464C63.3247 8.60267 63.3514 8.81067 63.3514 9.088C63.3514 9.39733 63.3247 9.62667 63.2714 9.776C63.2287 9.92533 63.138 10 62.9994 10H60.3594C60.2207 10 60.13 9.93067 60.0874 9.792C60.034 9.64267 60.0074 9.42933 60.0074 9.152C60.0074 8.84267 60.034 8.61333 60.0874 8.464C60.13 8.31467 60.2207 8.24 60.3594 8.24H62.9994ZM67.592 9.104C67.304 9.27467 67.0213 9.41867 66.744 9.536C66.4667 9.64267 66.1733 9.73333 65.864 9.808C65.5547 9.872 65.2133 9.92 64.84 9.952C64.4773 9.984 64.056 10 63.576 10H63C62.8613 10 62.7707 9.93067 62.728 9.792C62.6747 9.64267 62.648 9.42933 62.648 9.152C62.648 8.84267 62.6747 8.61333 62.728 8.464C62.7707 8.31467 62.8613 8.24 63 8.24H63.64C64.0347 8.24 64.392 8.23467 64.712 8.224C65.032 8.20267 65.32 8.17067 65.576 8.128C65.8427 8.08533 66.0933 8.02667 66.328 7.952C66.5627 7.86667 66.7973 7.75467 67.032 7.616L69.064 6.448C68.9893 6.30933 68.9147 6.18667 68.84 6.08C68.776 5.97333 68.6907 5.888 68.584 5.824C68.488 5.74933 68.3653 5.696 68.216 5.664C68.0667 5.62133 67.8747 5.6 67.64 5.6H64.248L64.344 3.84H67.896C68.1947 3.84 68.488 3.88267 68.776 3.968C69.0747 4.05333 69.352 4.21867 69.608 4.464C69.8747 4.69867 70.1147 5.03467 70.328 5.472C70.552 5.89867 70.7387 6.464 70.888 7.168L67.592 9.104ZM77.1085 10C76.6712 10 76.2925 9.936 75.9725 9.808C75.6632 9.66933 75.4072 9.488 75.2045 9.264C75.0125 9.04 74.8685 8.77867 74.7725 8.48C74.6872 8.18133 74.6445 7.86667 74.6445 7.536V5.264H76.2765V7.12C76.2765 7.472 76.3512 7.74933 76.5005 7.952C76.6605 8.144 76.9858 8.24 77.4765 8.24H82.5005C82.8845 8.24 83.1565 8.15467 83.3165 7.984C83.4872 7.80267 83.5725 7.54133 83.5725 7.2V5.312H85.2045V7.584C85.2045 7.98933 85.1352 8.34667 84.9965 8.656C84.8578 8.95467 84.6712 9.20533 84.4365 9.408C84.2125 9.6 83.9512 9.74933 83.6525 9.856C83.3645 9.952 83.0658 10 82.7565 10H77.1085ZM81.8925 4.016H80.2285V2.448H81.8925V4.016ZM79.6045 4.016H77.9405V2.448H79.6045V4.016ZM89.2949 10C88.9962 10 88.7082 9.96267 88.4309 9.888C88.1642 9.80267 87.9295 9.664 87.7269 9.472C87.5242 9.28 87.3642 9.02933 87.2469 8.72C87.1295 8.4 87.0709 8.00533 87.0709 7.536V0.0799999H88.7029V7.136C88.7029 7.47733 88.7775 7.74933 88.9269 7.952C89.0869 8.144 89.3215 8.24 89.6309 8.24H89.9989C90.2335 8.24 90.3509 8.52267 90.3509 9.088C90.3509 9.696 90.2335 10 89.9989 10H89.2949ZM92.64 8.24C92.7787 8.24 92.8693 8.31467 92.912 8.464C92.9653 8.60267 92.992 8.81067 92.992 9.088C92.992 9.39733 92.9653 9.62667 92.912 9.776C92.8693 9.92533 92.7787 10 92.64 10H90C89.8613 10 89.7707 9.93067 89.728 9.792C89.6747 9.64267 89.648 9.42933 89.648 9.152C89.648 8.84267 89.6747 8.61333 89.728 8.464C89.7707 8.31467 89.8613 8.24 90 8.24H92.64ZM95.2806 8.24C95.4193 8.24 95.51 8.31467 95.5526 8.464C95.606 8.60267 95.6326 8.81067 95.6326 9.088C95.6326 9.39733 95.606 9.62667 95.5526 9.776C95.51 9.92533 95.4193 10 95.2806 10H92.6406C92.502 10 92.4113 9.93067 92.3686 9.792C92.3153 9.64267 92.2886 9.42933 92.2886 9.152C92.2886 8.84267 92.3153 8.61333 92.3686 8.464C92.4113 8.31467 92.502 8.24 92.6406 8.24H95.2806ZM97.9213 8.24C98.0599 8.24 98.1506 8.31467 98.1933 8.464C98.2466 8.60267 98.2733 8.81067 98.2733 9.088C98.2733 9.39733 98.2466 9.62667 98.1933 9.776C98.1506 9.92533 98.0599 10 97.9213 10H95.2812C95.1426 10 95.0519 9.93067 95.0092 9.792C94.9559 9.64267 94.9292 9.42933 94.9292 9.152C94.9292 8.84267 94.9559 8.61333 95.0092 8.464C95.0519 8.31467 95.1426 8.24 95.2812 8.24H97.9213ZM100.562 8.24C100.701 8.24 100.791 8.31467 100.834 8.464C100.887 8.60267 100.914 8.81067 100.914 9.088C100.914 9.39733 100.887 9.62667 100.834 9.776C100.791 9.92533 100.701 10 100.562 10H97.9219C97.7832 10 97.6925 9.93067 97.6499 9.792C97.5965 9.64267 97.5699 9.42933 97.5699 9.152C97.5699 8.84267 97.5965 8.61333 97.6499 8.464C97.6925 8.31467 97.7832 8.24 97.9219 8.24H100.562ZM103.203 8.24C103.341 8.24 103.432 8.31467 103.475 8.464C103.528 8.60267 103.555 8.81067 103.555 9.088C103.555 9.39733 103.528 9.62667 103.475 9.776C103.432 9.92533 103.341 10 103.203 10H100.562C100.424 10 100.333 9.93067 100.29 9.792C100.237 9.64267 100.21 9.42933 100.21 9.152C100.21 8.84267 100.237 8.61333 100.29 8.464C100.333 8.31467 100.424 8.24 100.562 8.24H103.203ZM105.843 8.24C105.982 8.24 106.072 8.31467 106.115 8.464C106.168 8.60267 106.195 8.81067 106.195 9.088C106.195 9.39733 106.168 9.62667 106.115 9.776C106.072 9.92533 105.982 10 105.843 10H103.203C103.064 10 102.974 9.93067 102.931 9.792C102.878 9.64267 102.851 9.42933 102.851 9.152C102.851 8.84267 102.878 8.61333 102.931 8.464C102.974 8.31467 103.064 8.24 103.203 8.24H105.843ZM108.484 8.24C108.622 8.24 108.713 8.31467 108.756 8.464C108.809 8.60267 108.836 8.81067 108.836 9.088C108.836 9.39733 108.809 9.62667 108.756 9.776C108.713 9.92533 108.622 10 108.484 10H105.844C105.705 10 105.614 9.93067 105.572 9.792C105.518 9.64267 105.492 9.42933 105.492 9.152C105.492 8.84267 105.518 8.61333 105.572 8.464C105.614 8.31467 105.705 8.24 105.844 8.24H108.484ZM111.124 8.24C111.263 8.24 111.354 8.31467 111.396 8.464C111.45 8.60267 111.476 8.81067 111.476 9.088C111.476 9.39733 111.45 9.62667 111.396 9.776C111.354 9.92533 111.263 10 111.124 10H108.484C108.346 10 108.255 9.93067 108.212 9.792C108.159 9.64267 108.132 9.42933 108.132 9.152C108.132 8.84267 108.159 8.61333 108.212 8.464C108.255 8.31467 108.346 8.24 108.484 8.24H111.124ZM113.765 8.24C113.904 8.24 113.994 8.31467 114.037 8.464C114.09 8.60267 114.117 8.81067 114.117 9.088C114.117 9.39733 114.09 9.62667 114.037 9.776C113.994 9.92533 113.904 10 113.765 10H111.125C110.986 10 110.896 9.93067 110.853 9.792C110.8 9.64267 110.773 9.42933 110.773 9.152C110.773 8.84267 110.8 8.61333 110.853 8.464C110.896 8.31467 110.986 8.24 111.125 8.24H113.765ZM116.406 8.24C116.544 8.24 116.635 8.31467 116.678 8.464C116.731 8.60267 116.758 8.81067 116.758 9.088C116.758 9.39733 116.731 9.62667 116.678 9.776C116.635 9.92533 116.544 10 116.406 10H113.766C113.627 10 113.536 9.93067 113.494 9.792C113.44 9.64267 113.414 9.42933 113.414 9.152C113.414 8.84267 113.44 8.61333 113.494 8.464C113.536 8.31467 113.627 8.24 113.766 8.24H116.406ZM119.046 8.24C119.185 8.24 119.276 8.31467 119.318 8.464C119.372 8.60267 119.398 8.81067 119.398 9.088C119.398 9.39733 119.372 9.62667 119.318 9.776C119.276 9.92533 119.185 10 119.046 10H116.406C116.268 10 116.177 9.93067 116.134 9.792C116.081 9.64267 116.054 9.42933 116.054 9.152C116.054 8.84267 116.081 8.61333 116.134 8.464C116.177 8.31467 116.268 8.24 116.406 8.24H119.046ZM119.191 8.24C119.554 8.24 119.836 8.17067 120.039 8.032C120.242 7.88267 120.343 7.64267 120.343 7.312V6.96C120.343 6.53333 120.402 6.13867 120.519 5.776C120.647 5.41333 120.828 5.104 121.063 4.848C121.298 4.592 121.58 4.39467 121.911 4.256C122.252 4.10667 122.631 4.032 123.047 4.032C123.484 4.032 123.868 4.10667 124.199 4.256C124.54 4.39467 124.823 4.59733 125.047 4.864C125.271 5.12 125.442 5.42933 125.559 5.792C125.676 6.15467 125.735 6.54933 125.735 6.976C125.735 7.936 125.49 8.68267 124.999 9.216C124.519 9.73867 123.863 10 123.031 10C122.604 10 122.194 9.92 121.799 9.76C121.415 9.58933 121.122 9.32267 120.919 8.96C120.716 9.376 120.455 9.65333 120.135 9.792C119.815 9.93067 119.5 10 119.191 10H119.047C118.908 10 118.818 9.93067 118.775 9.792C118.722 9.64267 118.695 9.42933 118.695 9.152C118.695 8.84267 118.722 8.61333 118.775 8.464C118.818 8.31467 118.908 8.24 119.047 8.24H119.191ZM124.167 7.088C124.167 6.72533 124.082 6.42133 123.911 6.176C123.751 5.93067 123.458 5.808 123.031 5.808C122.626 5.808 122.332 5.93067 122.151 6.176C121.98 6.41067 121.895 6.72 121.895 7.104C121.895 7.47733 121.996 7.76 122.199 7.952C122.402 8.144 122.679 8.24 123.031 8.24C123.788 8.24 124.167 7.856 124.167 7.088ZM130.482 8.24C130.855 8.24 131.111 8.16533 131.25 8.016C131.389 7.86667 131.458 7.71733 131.458 7.568C131.458 7.48267 131.442 7.376 131.41 7.248C131.378 7.10933 131.314 6.89067 131.218 6.592C131.122 6.28267 130.978 5.86133 130.786 5.328C130.605 4.79467 130.354 4.096 130.034 3.232L131.586 2.576L133.234 7.184C133.362 7.55733 133.511 7.82933 133.682 8C133.863 8.16 134.141 8.24 134.514 8.24H134.722C134.957 8.24 135.074 8.52267 135.074 9.088C135.074 9.696 134.957 10 134.722 10H134.514C134.162 10 133.821 9.936 133.49 9.808C133.17 9.68 132.877 9.408 132.61 8.992C132.386 9.376 132.103 9.64267 131.762 9.792C131.431 9.93067 131.069 10 130.674 10H127.234L127.154 8.24H130.482ZM137.359 8.24C137.497 8.24 137.588 8.31467 137.631 8.464C137.684 8.60267 137.711 8.81067 137.711 9.088C137.711 9.39733 137.684 9.62667 137.631 9.776C137.588 9.92533 137.497 10 137.359 10H134.719C134.58 10 134.489 9.93067 134.447 9.792C134.393 9.64267 134.367 9.42933 134.367 9.152C134.367 8.84267 134.393 8.61333 134.447 8.464C134.489 8.31467 134.58 8.24 134.719 8.24H137.359ZM139.999 8.24C140.138 8.24 140.229 8.31467 140.271 8.464C140.325 8.60267 140.351 8.81067 140.351 9.088C140.351 9.39733 140.325 9.62667 140.271 9.776C140.229 9.92533 140.138 10 139.999 10H137.359C137.221 10 137.13 9.93067 137.087 9.792C137.034 9.64267 137.007 9.42933 137.007 9.152C137.007 8.84267 137.034 8.61333 137.087 8.464C137.13 8.31467 137.221 8.24 137.359 8.24H139.999ZM142.64 8.24C142.779 8.24 142.869 8.31467 142.912 8.464C142.965 8.60267 142.992 8.81067 142.992 9.088C142.992 9.39733 142.965 9.62667 142.912 9.776C142.869 9.92533 142.779 10 142.64 10H140C139.861 10 139.771 9.93067 139.728 9.792C139.675 9.64267 139.648 9.42933 139.648 9.152C139.648 8.84267 139.675 8.61333 139.728 8.464C139.771 8.31467 139.861 8.24 140 8.24H142.64ZM145.281 8.24C145.419 8.24 145.51 8.31467 145.553 8.464C145.606 8.60267 145.633 8.81067 145.633 9.088C145.633 9.39733 145.606 9.62667 145.553 9.776C145.51 9.92533 145.419 10 145.281 10H142.641C142.502 10 142.411 9.93067 142.369 9.792C142.315 9.64267 142.289 9.42933 142.289 9.152C142.289 8.84267 142.315 8.61333 142.369 8.464C142.411 8.31467 142.502 8.24 142.641 8.24H145.281ZM147.921 8.24C148.06 8.24 148.151 8.31467 148.193 8.464C148.247 8.60267 148.273 8.81067 148.273 9.088C148.273 9.39733 148.247 9.62667 148.193 9.776C148.151 9.92533 148.06 10 147.921 10H145.281C145.143 10 145.052 9.93067 145.009 9.792C144.956 9.64267 144.929 9.42933 144.929 9.152C144.929 8.84267 144.956 8.61333 145.009 8.464C145.052 8.31467 145.143 8.24 145.281 8.24H147.921ZM152.514 9.104C152.226 9.27467 151.943 9.41867 151.666 9.536C151.389 9.64267 151.095 9.73333 150.786 9.808C150.477 9.872 150.135 9.92 149.762 9.952C149.399 9.984 148.978 10 148.498 10H147.922C147.783 10 147.693 9.93067 147.65 9.792C147.597 9.64267 147.57 9.42933 147.57 9.152C147.57 8.84267 147.597 8.61333 147.65 8.464C147.693 8.31467 147.783 8.24 147.922 8.24H148.562C148.957 8.24 149.314 8.23467 149.634 8.224C149.954 8.20267 150.242 8.17067 150.498 8.128C150.765 8.08533 151.015 8.02667 151.25 7.952C151.485 7.86667 151.719 7.75467 151.954 7.616L153.986 6.448C153.911 6.30933 153.837 6.18667 153.762 6.08C153.698 5.97333 153.613 5.888 153.506 5.824C153.41 5.74933 153.287 5.696 153.138 5.664C152.989 5.62133 152.797 5.6 152.562 5.6H149.17L149.266 3.84H152.818C153.117 3.84 153.41 3.88267 153.698 3.968C153.997 4.05333 154.274 4.21867 154.53 4.464C154.797 4.69867 155.037 5.03467 155.25 5.472C155.474 5.89867 155.661 6.464 155.81 7.168L152.514 9.104ZM152.802 2.16H150.994V0.528H152.802V2.16Z" fill="#64656F"/>
</svg>
