<svg width="62" height="15" viewBox="0 0 62 15" fill="none" xmlns="http://www.w3.org/2000/svg">
<path d="M5.25 12.628C5.71933 12.628 6.10867 12.596 6.418 12.532C6.738 12.468 6.98867 12.3773 7.17 12.26C7.362 12.1427 7.49533 11.9987 7.57 11.828C7.65533 11.668 7.698 11.492 7.698 11.3C7.698 11.0867 7.63933 10.9 7.522 10.74C7.40467 10.58 7.20733 10.5 6.93 10.5H4.626L4.722 8.74H10.274C10.5087 8.74 10.626 9.02267 10.626 9.588C10.626 10.196 10.5087 10.5 10.274 10.5H8.898C9.03667 10.6067 9.12733 10.7453 9.17 10.916C9.22333 11.0867 9.25 11.2947 9.25 11.54C9.25 11.828 9.186 12.1373 9.058 12.468C8.93 12.7987 8.71667 13.1027 8.418 13.38C8.13 13.668 7.74067 13.9027 7.25 14.084C6.77 14.276 6.178 14.372 5.474 14.372H3.778C2.58333 14.372 1.65533 14.004 0.994 13.268C0.332667 12.532 0.00200003 11.524 0.00200003 10.244V7.38H1.618V10.18C1.618 10.5533 1.66067 10.8893 1.746 11.188C1.83133 11.4867 1.96467 11.7427 2.146 11.956C2.338 12.1693 2.58333 12.3347 2.882 12.452C3.19133 12.5693 3.56467 12.628 4.002 12.628H5.25ZM11.7533 8.74C12.4679 8.74 12.8253 8.39333 12.8253 7.7V5.812H14.4573V7.812C14.4573 8.69733 14.2333 9.36933 13.7853 9.828C13.3373 10.276 12.7079 10.5 11.8973 10.5H10.2812C10.1426 10.5 10.0519 10.4307 10.0092 10.292C9.95592 10.1427 9.92925 9.92933 9.92925 9.652C9.92925 9.34267 9.95592 9.11333 10.0092 8.964C10.0519 8.81467 10.1426 8.74 10.2812 8.74H11.7533ZM12.5853 13.924H10.7773V12.292H12.5853V13.924ZM18.5605 10.5C18.2618 10.5 17.9738 10.4627 17.6965 10.388C17.4298 10.3027 17.1952 10.164 16.9925 9.972C16.7898 9.78 16.6298 9.52933 16.5125 9.22C16.3952 8.9 16.3365 8.50533 16.3365 8.036V0.58H17.9685V7.636C17.9685 7.97733 18.0432 8.24933 18.1925 8.452C18.3525 8.644 18.5872 8.74 18.8965 8.74H19.2645C19.4992 8.74 19.6165 9.02267 19.6165 9.588C19.6165 10.196 19.4992 10.5 19.2645 10.5H18.5605ZM19.2656 10.5C19.127 10.5 19.0363 10.4307 18.9936 10.292C18.9403 10.1427 18.9136 9.92933 18.9136 9.652C18.9136 9.34267 18.9403 9.11333 18.9936 8.964C19.0363 8.81467 19.127 8.74 19.2656 8.74H22.9456C23.6603 8.74 24.0176 8.39333 24.0176 7.7V5.812H25.6496V7.812C25.6496 8.69733 25.4203 9.36933 24.9616 9.828C24.5136 10.276 23.8843 10.5 23.0736 10.5H19.2656ZM23.5856 13.86H21.9376V12.292H23.5856V13.86ZM21.2816 13.86H19.6336V12.292H21.2816V13.86ZM29.4928 7.716C29.4928 8.05733 29.5994 8.31333 29.8128 8.484C30.0261 8.65467 30.2928 8.74 30.6128 8.74H30.7888C31.0234 8.74 31.1408 9.02267 31.1408 9.588C31.1408 10.196 31.0234 10.5 30.7888 10.5H30.6128C30.3994 10.5 30.1808 10.468 29.9568 10.404C29.7434 10.3293 29.5621 10.1853 29.4128 9.972V10.244C29.4128 10.82 29.3168 11.3587 29.1248 11.86C28.9328 12.3613 28.6661 12.7987 28.3248 13.172C27.9941 13.5453 27.5941 13.8387 27.1248 14.052C26.6661 14.2653 26.1647 14.372 25.6207 14.372H25.2207L25.0927 12.628H25.3487C25.7967 12.628 26.1807 12.5587 26.5008 12.42C26.8208 12.292 27.0768 12.116 27.2688 11.892C27.4714 11.668 27.6208 11.412 27.7168 11.124C27.8128 10.836 27.8608 10.5427 27.8608 10.244V5.812H29.4928V7.716ZM31.4853 8.74C32.2213 8.74 32.5893 8.39333 32.5893 7.7V5.812H34.2053V7.7C34.2053 8.07333 34.3173 8.34 34.5413 8.5C34.7759 8.66 35.0426 8.74 35.3413 8.74C36.1413 8.74 36.5413 8.39333 36.5413 7.7V5.812H38.1733V7.7C38.1733 8.07333 38.2693 8.34 38.4613 8.5C38.6639 8.66 38.8986 8.74 39.1653 8.74C39.8373 8.74 40.1733 8.39333 40.1733 7.7V5.812H41.8053V7.7C41.8053 8.07333 41.9173 8.34 42.1413 8.5C42.3759 8.66 42.6373 8.74 42.9253 8.74H43.2933C43.4319 8.74 43.5226 8.81467 43.5653 8.964C43.6186 9.10267 43.6453 9.31067 43.6453 9.588C43.6453 9.89733 43.6186 10.1267 43.5653 10.276C43.5226 10.4253 43.4319 10.5 43.2933 10.5H42.9253C42.5199 10.5 42.1466 10.436 41.8053 10.308C41.4746 10.1693 41.1866 9.89733 40.9413 9.492C40.6853 9.89733 40.3919 10.1693 40.0613 10.308C39.7413 10.436 39.4426 10.5 39.1653 10.5C38.7919 10.5 38.4506 10.436 38.1413 10.308C37.8426 10.1693 37.5706 9.89733 37.3253 9.492C37.0693 9.89733 36.7653 10.1693 36.4133 10.308C36.0719 10.436 35.7146 10.5 35.3413 10.5C34.9359 10.5 34.5626 10.436 34.2213 10.308C33.8906 10.1693 33.6026 9.89733 33.3573 9.492C33.1013 9.89733 32.8133 10.1693 32.4933 10.308C32.1733 10.436 31.8319 10.5 31.4693 10.5H30.7812C30.6426 10.5 30.5519 10.4307 30.5092 10.292C30.4559 10.1427 30.4292 9.92933 30.4292 9.652C30.4292 9.34267 30.4559 9.11333 30.5092 8.964C30.5519 8.81467 30.6426 8.74 30.7812 8.74H31.4853ZM43.4409 8.74C43.8035 8.74 44.0862 8.67067 44.2889 8.532C44.4915 8.38267 44.5929 8.14267 44.5929 7.812V7.46C44.5929 7.03333 44.6515 6.63867 44.7689 6.276C44.8969 5.91333 45.0782 5.604 45.3129 5.348C45.5475 5.092 45.8302 4.89467 46.1609 4.756C46.5022 4.60667 46.8809 4.532 47.2969 4.532C47.7342 4.532 48.1182 4.60667 48.4489 4.756C48.7902 4.89467 49.0729 5.09733 49.2969 5.364C49.5209 5.62 49.6915 5.924 49.8089 6.276C49.9262 6.628 49.9849 7.012 49.9849 7.428V7.732C49.9849 8.116 50.0969 8.38267 50.3209 8.532C50.5555 8.67067 50.8009 8.74 51.0569 8.74H51.2809C51.4195 8.74 51.5102 8.81467 51.5529 8.964C51.6062 9.10267 51.6329 9.31067 51.6329 9.588C51.6329 9.89733 51.6062 10.1267 51.5529 10.276C51.5102 10.4253 51.4195 10.5 51.2809 10.5H51.0569C50.7475 10.5 50.4329 10.436 50.1129 10.308C49.7929 10.1693 49.5155 9.88133 49.2809 9.444C48.9929 9.88133 48.6675 10.1693 48.3049 10.308C47.9529 10.436 47.5902 10.5 47.2169 10.5C46.7902 10.5 46.3902 10.42 46.0169 10.26C45.6542 10.0893 45.3715 9.82267 45.1689 9.46C44.9662 9.876 44.7049 10.1533 44.3849 10.292C44.0649 10.4307 43.7502 10.5 43.4409 10.5H43.2969C43.1582 10.5 43.0675 10.4307 43.0249 10.292C42.9715 10.1427 42.9449 9.92933 42.9449 9.652C42.9449 9.34267 42.9715 9.11333 43.0249 8.964C43.0675 8.81467 43.1582 8.74 43.2969 8.74H43.4409ZM48.4169 7.588C48.4169 7.22533 48.3315 6.92133 48.1609 6.676C48.0009 6.43067 47.7075 6.308 47.2809 6.308C46.8755 6.308 46.5822 6.43067 46.4009 6.676C46.2302 6.91067 46.1449 7.22 46.1449 7.604C46.1449 7.97733 46.2462 8.26 46.4489 8.452C46.6515 8.644 46.9289 8.74 47.2809 8.74C48.0382 8.74 48.4169 8.356 48.4169 7.588ZM55.2333 5.7C54.8706 5.7 54.5773 5.81733 54.3533 6.052C54.1399 6.28667 54.0333 6.58 54.0333 6.932C54.0333 7.284 54.1559 7.604 54.4013 7.892C54.6573 8.16933 54.9559 8.39867 55.2973 8.58C55.6173 8.39867 55.8839 8.16933 56.0973 7.892C56.3106 7.61467 56.4173 7.30533 56.4173 6.964C56.4173 6.59067 56.3053 6.28667 56.0813 6.052C55.8679 5.81733 55.5853 5.7 55.2333 5.7ZM51.2812 10.5C51.1426 10.5 51.0519 10.4307 51.0092 10.292C50.9559 10.1427 50.9292 9.92933 50.9292 9.652C50.9292 9.34267 50.9559 9.11333 51.0092 8.964C51.0519 8.81467 51.1426 8.74 51.2812 8.74H53.5693C52.8759 8.132 52.5293 7.444 52.5293 6.676C52.5293 6.324 52.5933 5.988 52.7213 5.668C52.8493 5.348 53.0359 5.06533 53.2812 4.82C53.5266 4.564 53.8199 4.36667 54.1613 4.228C54.5133 4.07867 54.9133 4.004 55.3613 4.004C55.7986 4.004 56.1773 4.07867 56.4973 4.228C56.8279 4.37733 57.0946 4.57467 57.2973 4.82C57.5106 5.06533 57.6653 5.34267 57.7613 5.652C57.8679 5.96133 57.9213 6.276 57.9213 6.596C57.9213 7.03333 57.8359 7.428 57.6653 7.78C57.5053 8.12133 57.2706 8.44133 56.9613 8.74H59.2013C59.7133 8.74 59.9693 8.54267 59.9693 8.148C59.9693 8.06267 59.9479 7.96667 59.9053 7.86C59.8626 7.75333 59.7826 7.62533 59.6653 7.476L57.0093 4.244L58.2093 3.108L60.9133 6.436C61.2226 6.80933 61.4359 7.16133 61.5533 7.492C61.6813 7.812 61.7453 8.12667 61.7453 8.436C61.7453 8.724 61.6919 8.996 61.5853 9.252C61.4893 9.49733 61.3399 9.716 61.1373 9.908C60.9346 10.0893 60.6786 10.2333 60.3693 10.34C60.0706 10.4467 59.7239 10.5 59.3293 10.5H57.5693C57.0786 10.5 56.6413 10.4787 56.2573 10.436C55.8839 10.3933 55.5906 10.3133 55.3773 10.196C55.2173 10.2707 55.0253 10.3293 54.8013 10.372C54.5879 10.4147 54.3639 10.4467 54.1293 10.468C53.9053 10.4787 53.6813 10.4893 53.4573 10.5C53.2439 10.5 53.0626 10.5 52.9133 10.5H51.2812Z" fill="#64656F"/>
</svg>
