<svg width="125" height="28" viewBox="0 0 125 28" fill="none" xmlns="http://www.w3.org/2000/svg">
<path d="M11.3115 24.256C12.2502 24.256 13.0289 24.192 13.6475 24.064C14.2875 23.936 14.7889 23.7547 15.1515 23.52C15.5355 23.2853 15.8022 22.9973 15.9515 22.656C16.1222 22.336 16.2075 21.984 16.2075 21.6C16.2075 21.1733 16.0902 20.8 15.8555 20.48C15.6209 20.16 15.2262 20 14.6715 20H10.0635L10.2555 16.48H21.3595C21.8289 16.48 22.0635 17.0453 22.0635 18.176C22.0635 19.392 21.8289 20 21.3595 20H18.6075C18.8849 20.2133 19.0662 20.4907 19.1515 20.832C19.2582 21.1733 19.3115 21.5893 19.3115 22.08C19.3115 22.656 19.1835 23.2747 18.9275 23.936C18.6715 24.5973 18.2449 25.2053 17.6475 25.76C17.0715 26.336 16.2929 26.8053 15.3115 27.168C14.3515 27.552 13.1675 27.744 11.7595 27.744H8.36752C5.97819 27.744 4.12219 27.008 2.79952 25.536C1.47686 24.064 0.815524 22.048 0.815524 19.488V13.76H4.04752V19.36C4.04752 20.1067 4.13286 20.7787 4.30352 21.376C4.47419 21.9733 4.74086 22.4853 5.10352 22.912C5.48752 23.3387 5.97819 23.6693 6.57552 23.904C7.19419 24.1387 7.94086 24.256 8.81552 24.256H11.3115ZM24.318 16.48C25.7474 16.48 26.462 15.7867 26.462 14.4V10.624H29.726V14.624C29.726 16.3947 29.278 17.7387 28.382 18.656C27.486 19.552 26.2274 20 24.606 20H21.374C21.0967 20 20.9154 19.8613 20.83 19.584C20.7234 19.2853 20.67 18.8587 20.67 18.304C20.67 17.6853 20.7234 17.2267 20.83 16.928C20.9154 16.6293 21.0967 16.48 21.374 16.48H24.318ZM25.982 26.848H22.366V23.584H25.982V26.848ZM37.9325 20C37.3352 20 36.7592 19.9253 36.2045 19.776C35.6712 19.6053 35.2019 19.328 34.7965 18.944C34.3912 18.56 34.0712 18.0587 33.8365 17.44C33.6019 16.8 33.4845 16.0107 33.4845 15.072V0.16H36.7485V14.272C36.7485 14.9547 36.8979 15.4987 37.1965 15.904C37.5165 16.288 37.9859 16.48 38.6045 16.48H39.3405C39.8099 16.48 40.0445 17.0453 40.0445 18.176C40.0445 19.392 39.8099 20 39.3405 20H37.9325ZM39.3428 20C39.0654 20 38.8841 19.8613 38.7988 19.584C38.6921 19.2853 38.6388 18.8587 38.6388 18.304C38.6388 17.6853 38.6921 17.2267 38.7988 16.928C38.8841 16.6293 39.0654 16.48 39.3428 16.48H46.7028C48.1321 16.48 48.8468 15.7867 48.8468 14.4V10.624H52.1108V14.624C52.1108 16.3947 51.6521 17.7387 50.7348 18.656C49.8388 19.552 48.5801 20 46.9588 20H39.3428ZM47.9828 26.72H44.6868V23.584H47.9828V26.72ZM43.3748 26.72H40.0788V23.584H43.3748V26.72ZM59.797 14.432C59.797 15.1147 60.0104 15.6267 60.437 15.968C60.8637 16.3093 61.397 16.48 62.037 16.48H62.389C62.8584 16.48 63.093 17.0453 63.093 18.176C63.093 19.392 62.8584 20 62.389 20H62.037C61.6104 20 61.173 19.936 60.725 19.808C60.2984 19.6587 59.9357 19.3707 59.637 18.944V19.488C59.637 20.64 59.445 21.7173 59.061 22.72C58.677 23.7227 58.1437 24.5973 57.461 25.344C56.7997 26.0907 55.9997 26.6773 55.061 27.104C54.1437 27.5307 53.141 27.744 52.053 27.744H51.253L50.997 24.256H51.509C52.405 24.256 53.173 24.1173 53.813 23.84C54.453 23.584 54.965 23.232 55.349 22.784C55.7544 22.336 56.053 21.824 56.245 21.248C56.437 20.672 56.533 20.0853 56.533 19.488V10.624H59.797V14.432ZM63.782 16.48C65.254 16.48 65.99 15.7867 65.99 14.4V10.624H69.222V14.4C69.222 15.1467 69.446 15.68 69.894 16C70.3634 16.32 70.8967 16.48 71.494 16.48C73.094 16.48 73.894 15.7867 73.894 14.4V10.624H77.158V14.4C77.158 15.1467 77.35 15.68 77.734 16C78.1394 16.32 78.6087 16.48 79.142 16.48C80.486 16.48 81.158 15.7867 81.158 14.4V10.624H84.422V14.4C84.422 15.1467 84.646 15.68 85.094 16C85.5634 16.32 86.086 16.48 86.662 16.48H87.398C87.6754 16.48 87.8567 16.6293 87.942 16.928C88.0487 17.2053 88.102 17.6213 88.102 18.176C88.102 18.7947 88.0487 19.2533 87.942 19.552C87.8567 19.8507 87.6754 20 87.398 20H86.662C85.8514 20 85.1047 19.872 84.422 19.616C83.7607 19.3387 83.1847 18.7947 82.694 17.984C82.182 18.7947 81.5954 19.3387 80.934 19.616C80.294 19.872 79.6967 20 79.142 20C78.3954 20 77.7127 19.872 77.094 19.616C76.4967 19.3387 75.9527 18.7947 75.462 17.984C74.95 18.7947 74.342 19.3387 73.638 19.616C72.9554 19.872 72.2407 20 71.494 20C70.6834 20 69.9367 19.872 69.254 19.616C68.5927 19.3387 68.0167 18.7947 67.526 17.984C67.014 18.7947 66.438 19.3387 65.798 19.616C65.158 19.872 64.4754 20 63.75 20H62.374C62.0967 20 61.9154 19.8613 61.83 19.584C61.7234 19.2853 61.67 18.8587 61.67 18.304C61.67 17.6853 61.7234 17.2267 61.83 16.928C61.9154 16.6293 62.0967 16.48 62.374 16.48H63.782ZM87.6933 16.48C88.4186 16.48 88.9839 16.3413 89.3893 16.064C89.7946 15.7653 89.9973 15.2853 89.9973 14.624V13.92C89.9973 13.0667 90.1146 12.2773 90.3493 11.552C90.6053 10.8267 90.9679 10.208 91.4373 9.696C91.9066 9.184 92.4719 8.78933 93.1333 8.512C93.8159 8.21333 94.5733 8.064 95.4053 8.064C96.2799 8.064 97.0479 8.21333 97.7093 8.512C98.3919 8.78933 98.9573 9.19467 99.4053 9.728C99.8533 10.24 100.195 10.848 100.429 11.552C100.664 12.256 100.781 13.024 100.781 13.856V14.464C100.781 15.232 101.005 15.7653 101.453 16.064C101.923 16.3413 102.413 16.48 102.925 16.48H103.373C103.651 16.48 103.832 16.6293 103.917 16.928C104.024 17.2053 104.077 17.6213 104.077 18.176C104.077 18.7947 104.024 19.2533 103.917 19.552C103.832 19.8507 103.651 20 103.373 20H102.925C102.307 20 101.677 19.872 101.037 19.616C100.397 19.3387 99.8426 18.7627 99.3733 17.888C98.7973 18.7627 98.1466 19.3387 97.4213 19.616C96.7173 19.872 95.9919 20 95.2453 20C94.3919 20 93.5919 19.84 92.8453 19.52C92.1199 19.1787 91.5546 18.6453 91.1493 17.92C90.7439 18.752 90.2213 19.3067 89.5813 19.584C88.9413 19.8613 88.3119 20 87.6933 20H87.4053C87.1279 20 86.9466 19.8613 86.8613 19.584C86.7546 19.2853 86.7013 18.8587 86.7013 18.304C86.7013 17.6853 86.7546 17.2267 86.8613 16.928C86.9466 16.6293 87.1279 16.48 87.4053 16.48H87.6933ZM97.6453 14.176C97.6453 13.4507 97.4746 12.8427 97.1333 12.352C96.8133 11.8613 96.2266 11.616 95.3733 11.616C94.5626 11.616 93.9759 11.8613 93.6133 12.352C93.2719 12.8213 93.1013 13.44 93.1013 14.208C93.1013 14.9547 93.3039 15.52 93.7093 15.904C94.1146 16.288 94.6693 16.48 95.3733 16.48C96.8879 16.48 97.6453 15.712 97.6453 14.176ZM111.278 10.4C110.553 10.4 109.966 10.6347 109.518 11.104C109.091 11.5733 108.878 12.16 108.878 12.864C108.878 13.568 109.123 14.208 109.614 14.784C110.126 15.3387 110.723 15.7973 111.406 16.16C112.046 15.7973 112.579 15.3387 113.006 14.784C113.433 14.2293 113.646 13.6107 113.646 12.928C113.646 12.1813 113.422 11.5733 112.974 11.104C112.547 10.6347 111.982 10.4 111.278 10.4ZM103.374 20C103.097 20 102.915 19.8613 102.83 19.584C102.723 19.2853 102.67 18.8587 102.67 18.304C102.67 17.6853 102.723 17.2267 102.83 16.928C102.915 16.6293 103.097 16.48 103.374 16.48H107.95C106.563 15.264 105.87 13.888 105.87 12.352C105.87 11.648 105.998 10.976 106.254 10.336C106.51 9.696 106.883 9.13067 107.374 8.64C107.865 8.128 108.451 7.73333 109.134 7.456C109.838 7.15733 110.638 7.008 111.534 7.008C112.409 7.008 113.166 7.15733 113.806 7.456C114.467 7.75467 115.001 8.14933 115.406 8.64C115.833 9.13067 116.142 9.68533 116.334 10.304C116.547 10.9227 116.654 11.552 116.654 12.192C116.654 13.0667 116.483 13.856 116.142 14.56C115.822 15.2427 115.353 15.8827 114.734 16.48H119.214C120.238 16.48 120.75 16.0853 120.75 15.296C120.75 15.1253 120.707 14.9333 120.622 14.72C120.537 14.5067 120.377 14.2507 120.142 13.952L114.83 7.488L117.23 5.216L122.638 11.872C123.257 12.6187 123.683 13.3227 123.918 13.984C124.174 14.624 124.302 15.2533 124.302 15.872C124.302 16.448 124.195 16.992 123.982 17.504C123.79 17.9947 123.491 18.432 123.086 18.816C122.681 19.1787 122.169 19.4667 121.55 19.68C120.953 19.8933 120.259 20 119.47 20H115.95C114.969 20 114.094 19.9573 113.326 19.872C112.579 19.7867 111.993 19.6267 111.566 19.392C111.246 19.5413 110.862 19.6587 110.414 19.744C109.987 19.8293 109.539 19.8933 109.07 19.936C108.622 19.9573 108.174 19.9787 107.726 20C107.299 20 106.937 20 106.638 20H103.374Z" fill="#64656F"/>
</svg>
