<svg width="122" height="64" viewBox="0 0 122 64" fill="none" xmlns="http://www.w3.org/2000/svg">
<path d="M3.72427 15C3.06827 15 2.50027 14.904 2.02027 14.712C1.55627 14.504 1.17227 14.232 0.868274 13.896C0.580274 13.56 0.364274 13.168 0.220273 12.72C0.0922735 12.272 0.0282735 11.8 0.0282735 11.304V7.896H2.47627V10.68C2.47627 11.208 2.58827 11.624 2.81227 11.928C3.05227 12.216 3.54027 12.36 4.27627 12.36H11.8123C12.3883 12.36 12.7963 12.232 13.0363 11.976C13.2923 11.704 13.4203 11.312 13.4203 10.8V7.968H15.8683V11.376C15.8683 11.984 15.7643 12.52 15.5563 12.984C15.3483 13.432 15.0683 13.808 14.7163 14.112C14.3803 14.4 13.9883 14.624 13.5403 14.784C13.1083 14.928 12.6603 15 12.1963 15H3.72427ZM10.9003 6.024H8.40427V3.672H10.9003V6.024ZM7.46827 6.024H4.97227V3.672H7.46827V6.024ZM22.0038 15C21.5558 15 21.1238 14.944 20.7078 14.832C20.3078 14.704 19.9558 14.496 19.6518 14.208C19.3478 13.92 19.1078 13.544 18.9318 13.08C18.7558 12.6 18.6678 12.008 18.6678 11.304V0.12H21.1158V10.704C21.1158 11.216 21.2278 11.624 21.4518 11.928C21.6918 12.216 22.0438 12.36 22.5078 12.36H23.0598C23.4118 12.36 23.5878 12.784 23.5878 13.632C23.5878 14.544 23.4118 15 23.0598 15H22.0038ZM27.0215 12.36C27.2295 12.36 27.3655 12.472 27.4295 12.696C27.5095 12.904 27.5495 13.216 27.5495 13.632C27.5495 14.096 27.5095 14.44 27.4295 14.664C27.3655 14.888 27.2295 15 27.0215 15H23.0615C22.8535 15 22.7175 14.896 22.6535 14.688C22.5735 14.464 22.5335 14.144 22.5335 13.728C22.5335 13.264 22.5735 12.92 22.6535 12.696C22.7175 12.472 22.8535 12.36 23.0615 12.36H27.0215ZM30.9825 12.36C31.1905 12.36 31.3265 12.472 31.3905 12.696C31.4705 12.904 31.5105 13.216 31.5105 13.632C31.5105 14.096 31.4705 14.44 31.3905 14.664C31.3265 14.888 31.1905 15 30.9825 15H27.0225C26.8145 15 26.6785 14.896 26.6145 14.688C26.5345 14.464 26.4945 14.144 26.4945 13.728C26.4945 13.264 26.5345 12.92 26.6145 12.696C26.6785 12.472 26.8145 12.36 27.0225 12.36H30.9825ZM34.9434 12.36C35.1514 12.36 35.2874 12.472 35.3514 12.696C35.4314 12.904 35.4714 13.216 35.4714 13.632C35.4714 14.096 35.4314 14.44 35.3514 14.664C35.2874 14.888 35.1514 15 34.9434 15H30.9834C30.7754 15 30.6394 14.896 30.5754 14.688C30.4954 14.464 30.4554 14.144 30.4554 13.728C30.4554 13.264 30.4954 12.92 30.5754 12.696C30.6394 12.472 30.7754 12.36 30.9834 12.36H34.9434ZM38.9043 12.36C39.1123 12.36 39.2483 12.472 39.3123 12.696C39.3923 12.904 39.4323 13.216 39.4323 13.632C39.4323 14.096 39.3923 14.44 39.3123 14.664C39.2483 14.888 39.1123 15 38.9043 15H34.9443C34.7363 15 34.6003 14.896 34.5363 14.688C34.4563 14.464 34.4163 14.144 34.4163 13.728C34.4163 13.264 34.4563 12.92 34.5363 12.696C34.6003 12.472 34.7363 12.36 34.9443 12.36H38.9043ZM42.8653 12.36C43.0733 12.36 43.2093 12.472 43.2733 12.696C43.3533 12.904 43.3933 13.216 43.3933 13.632C43.3933 14.096 43.3533 14.44 43.2733 14.664C43.2093 14.888 43.0733 15 42.8653 15H38.9053C38.6973 15 38.5613 14.896 38.4973 14.688C38.4173 14.464 38.3773 14.144 38.3773 13.728C38.3773 13.264 38.4173 12.92 38.4973 12.696C38.5613 12.472 38.6973 12.36 38.9053 12.36H42.8653ZM46.8262 12.36C47.0342 12.36 47.1702 12.472 47.2342 12.696C47.3142 12.904 47.3542 13.216 47.3542 13.632C47.3542 14.096 47.3142 14.44 47.2342 14.664C47.1702 14.888 47.0342 15 46.8262 15H42.8662C42.6582 15 42.5222 14.896 42.4582 14.688C42.3782 14.464 42.3382 14.144 42.3382 13.728C42.3382 13.264 42.3782 12.92 42.4582 12.696C42.5222 12.472 42.6582 12.36 42.8662 12.36H46.8262ZM50.7871 12.36C50.9951 12.36 51.1311 12.472 51.1951 12.696C51.2751 12.904 51.3151 13.216 51.3151 13.632C51.3151 14.096 51.2751 14.44 51.1951 14.664C51.1311 14.888 50.9951 15 50.7871 15H46.8271C46.6191 15 46.4831 14.896 46.4191 14.688C46.3391 14.464 46.2991 14.144 46.2991 13.728C46.2991 13.264 46.3391 12.92 46.4191 12.696C46.4831 12.472 46.6191 12.36 46.8271 12.36H50.7871ZM54.7481 12.36C54.9561 12.36 55.0921 12.472 55.1561 12.696C55.2361 12.904 55.2761 13.216 55.2761 13.632C55.2761 14.096 55.2361 14.44 55.1561 14.664C55.0921 14.888 54.9561 15 54.7481 15H50.7881C50.5801 15 50.4441 14.896 50.3801 14.688C50.3001 14.464 50.2601 14.144 50.2601 13.728C50.2601 13.264 50.3001 12.92 50.3801 12.696C50.4441 12.472 50.5801 12.36 50.7881 12.36H54.7481ZM58.709 12.36C58.917 12.36 59.053 12.472 59.117 12.696C59.197 12.904 59.237 13.216 59.237 13.632C59.237 14.096 59.197 14.44 59.117 14.664C59.053 14.888 58.917 15 58.709 15H54.749C54.541 15 54.405 14.896 54.341 14.688C54.261 14.464 54.221 14.144 54.221 13.728C54.221 13.264 54.261 12.92 54.341 12.696C54.405 12.472 54.541 12.36 54.749 12.36H58.709ZM62.67 12.36C62.878 12.36 63.014 12.472 63.078 12.696C63.158 12.904 63.198 13.216 63.198 13.632C63.198 14.096 63.158 14.44 63.078 14.664C63.014 14.888 62.878 15 62.67 15H58.71C58.502 15 58.366 14.896 58.302 14.688C58.222 14.464 58.182 14.144 58.182 13.728C58.182 13.264 58.222 12.92 58.302 12.696C58.366 12.472 58.502 12.36 58.71 12.36H62.67ZM66.6309 12.36C66.8389 12.36 66.9749 12.472 67.0389 12.696C67.1189 12.904 67.1589 13.216 67.1589 13.632C67.1589 14.096 67.1189 14.44 67.0389 14.664C66.9749 14.888 66.8389 15 66.6309 15H62.6709C62.4629 15 62.3269 14.896 62.2629 14.688C62.1829 14.464 62.1429 14.144 62.1429 13.728C62.1429 13.264 62.1829 12.92 62.2629 12.696C62.3269 12.472 62.4629 12.36 62.6709 12.36H66.6309ZM66.8478 12.36C67.3918 12.36 67.8158 12.256 68.1198 12.048C68.4238 11.824 68.5758 11.464 68.5758 10.968V10.44C68.5758 9.8 68.6638 9.208 68.8398 8.664C69.0318 8.12 69.3038 7.656 69.6558 7.272C70.0078 6.888 70.4318 6.592 70.9278 6.384C71.4398 6.16 72.0078 6.048 72.6318 6.048C73.2878 6.048 73.8638 6.16 74.3598 6.384C74.8718 6.592 75.2958 6.896 75.6318 7.296C75.9678 7.68 76.2238 8.144 76.3998 8.688C76.5758 9.232 76.6638 9.824 76.6638 10.464C76.6638 11.904 76.2958 13.024 75.5598 13.824C74.8398 14.608 73.8558 15 72.6078 15C71.9678 15 71.3518 14.88 70.7598 14.64C70.1838 14.384 69.7438 13.984 69.4398 13.44C69.1358 14.064 68.7438 14.48 68.2638 14.688C67.7838 14.896 67.3118 15 66.8478 15H66.6318C66.4238 15 66.2878 14.896 66.2238 14.688C66.1438 14.464 66.1038 14.144 66.1038 13.728C66.1038 13.264 66.1438 12.92 66.2238 12.696C66.2878 12.472 66.4238 12.36 66.6318 12.36H66.8478ZM74.3118 10.632C74.3118 10.088 74.1838 9.632 73.9278 9.264C73.6878 8.896 73.2478 8.712 72.6078 8.712C71.9998 8.712 71.5598 8.896 71.2878 9.264C71.0318 9.616 70.9038 10.08 70.9038 10.656C70.9038 11.216 71.0558 11.64 71.3598 11.928C71.6638 12.216 72.0798 12.36 72.6078 12.36C73.7438 12.36 74.3118 11.784 74.3118 10.632ZM83.7847 12.36C84.3447 12.36 84.7287 12.248 84.9367 12.024C85.1447 11.8 85.2487 11.576 85.2487 11.352C85.2487 11.224 85.2247 11.064 85.1767 10.872C85.1287 10.664 85.0327 10.336 84.8887 9.888C84.7447 9.424 84.5287 8.792 84.2407 7.992C83.9687 7.192 83.5927 6.144 83.1127 4.848L85.4407 3.864L87.9127 10.776C88.1047 11.336 88.3287 11.744 88.5847 12C88.8567 12.24 89.2727 12.36 89.8327 12.36H90.1447C90.4967 12.36 90.6727 12.784 90.6727 13.632C90.6727 14.544 90.4967 15 90.1447 15H89.8327C89.3047 15 88.7927 14.904 88.2967 14.712C87.8167 14.52 87.3767 14.112 86.9767 13.488C86.6407 14.064 86.2167 14.464 85.7047 14.688C85.2087 14.896 84.6647 15 84.0727 15H78.9127L78.7927 12.36H83.7847ZM94.0996 12.36C94.3076 12.36 94.4436 12.472 94.5076 12.696C94.5876 12.904 94.6276 13.216 94.6276 13.632C94.6276 14.096 94.5876 14.44 94.5076 14.664C94.4436 14.888 94.3076 15 94.0996 15H90.1396C89.9316 15 89.7956 14.896 89.7316 14.688C89.6516 14.464 89.6116 14.144 89.6116 13.728C89.6116 13.264 89.6516 12.92 89.7316 12.696C89.7956 12.472 89.9316 12.36 90.1396 12.36H94.0996ZM98.0606 12.36C98.2686 12.36 98.4046 12.472 98.4686 12.696C98.5486 12.904 98.5886 13.216 98.5886 13.632C98.5886 14.096 98.5486 14.44 98.4686 14.664C98.4046 14.888 98.2686 15 98.0606 15H94.1006C93.8926 15 93.7566 14.896 93.6926 14.688C93.6126 14.464 93.5726 14.144 93.5726 13.728C93.5726 13.264 93.6126 12.92 93.6926 12.696C93.7566 12.472 93.8926 12.36 94.1006 12.36H98.0606ZM102.022 12.36C102.23 12.36 102.366 12.472 102.43 12.696C102.51 12.904 102.55 13.216 102.55 13.632C102.55 14.096 102.51 14.44 102.43 14.664C102.366 14.888 102.23 15 102.022 15H98.0615C97.8535 15 97.7175 14.896 97.6535 14.688C97.5735 14.464 97.5335 14.144 97.5335 13.728C97.5335 13.264 97.5735 12.92 97.6535 12.696C97.7175 12.472 97.8535 12.36 98.0615 12.36H102.022ZM105.982 12.36C106.19 12.36 106.326 12.472 106.39 12.696C106.47 12.904 106.51 13.216 106.51 13.632C106.51 14.096 106.47 14.44 106.39 14.664C106.326 14.888 106.19 15 105.982 15H102.022C101.814 15 101.678 14.896 101.614 14.688C101.534 14.464 101.494 14.144 101.494 13.728C101.494 13.264 101.534 12.92 101.614 12.696C101.678 12.472 101.814 12.36 102.022 12.36H105.982ZM109.943 12.36C110.151 12.36 110.287 12.472 110.351 12.696C110.431 12.904 110.471 13.216 110.471 13.632C110.471 14.096 110.431 14.44 110.351 14.664C110.287 14.888 110.151 15 109.943 15H105.983C105.775 15 105.639 14.896 105.575 14.688C105.495 14.464 105.455 14.144 105.455 13.728C105.455 13.264 105.495 12.92 105.575 12.696C105.639 12.472 105.775 12.36 105.983 12.36H109.943ZM116.832 13.656C116.4 13.912 115.976 14.128 115.56 14.304C115.144 14.464 114.704 14.6 114.24 14.712C113.776 14.808 113.264 14.88 112.704 14.928C112.16 14.976 111.528 15 110.808 15H109.944C109.736 15 109.6 14.896 109.536 14.688C109.456 14.464 109.416 14.144 109.416 13.728C109.416 13.264 109.456 12.92 109.536 12.696C109.6 12.472 109.736 12.36 109.944 12.36H110.904C111.496 12.36 112.032 12.352 112.512 12.336C112.992 12.304 113.424 12.256 113.808 12.192C114.208 12.128 114.584 12.04 114.936 11.928C115.288 11.8 115.64 11.632 115.992 11.424L119.04 9.672C118.928 9.464 118.816 9.28 118.704 9.12C118.608 8.96 118.48 8.832 118.32 8.736C118.176 8.624 117.992 8.544 117.768 8.496C117.544 8.432 117.256 8.4 116.904 8.4H111.816L111.96 5.76H117.288C117.736 5.76 118.176 5.824 118.608 5.952C119.056 6.08 119.472 6.328 119.856 6.696C120.256 7.048 120.616 7.552 120.936 8.208C121.272 8.848 121.552 9.696 121.776 10.752L116.832 13.656ZM117.264 3.24H114.552V0.792H117.264V3.24ZM24.0693 61.192C24.7733 61.192 25.3573 61.144 25.8213 61.048C26.3013 60.952 26.6773 60.816 26.9493 60.64C27.2373 60.464 27.4373 60.248 27.5493 59.992C27.6773 59.752 27.7413 59.488 27.7413 59.2C27.7413 58.88 27.6533 58.6 27.4773 58.36C27.3013 58.12 27.0053 58 26.5893 58H23.1333L23.2773 55.36H31.6053C31.9573 55.36 32.1333 55.784 32.1333 56.632C32.1333 57.544 31.9573 58 31.6053 58H29.5413C29.7493 58.16 29.8853 58.368 29.9493 58.624C30.0293 58.88 30.0693 59.192 30.0693 59.56C30.0693 59.992 29.9733 60.456 29.7813 60.952C29.5893 61.448 29.2693 61.904 28.8213 62.32C28.3893 62.752 27.8053 63.104 27.0693 63.376C26.3493 63.664 25.4613 63.808 24.4053 63.808H21.8613C20.0693 63.808 18.6773 63.256 17.6853 62.152C16.6933 61.048 16.1973 59.536 16.1973 57.616V53.32H18.6213V57.52C18.6213 58.08 18.6853 58.584 18.8133 59.032C18.9413 59.48 19.1413 59.864 19.4133 60.184C19.7013 60.504 20.0693 60.752 20.5173 60.928C20.9813 61.104 21.5413 61.192 22.1973 61.192H24.0693ZM35.5762 55.36C35.7842 55.36 35.9202 55.472 35.9842 55.696C36.0642 55.904 36.1042 56.216 36.1042 56.632C36.1042 57.096 36.0642 57.44 35.9842 57.664C35.9202 57.888 35.7842 58 35.5762 58H31.6162C31.4082 58 31.2722 57.896 31.2082 57.688C31.1282 57.464 31.0882 57.144 31.0882 56.728C31.0882 56.264 31.1282 55.92 31.2082 55.696C31.2722 55.472 31.4082 55.36 31.6162 55.36H35.5762ZM39.5371 55.36C39.7451 55.36 39.8811 55.472 39.9451 55.696C40.0251 55.904 40.0651 56.216 40.0651 56.632C40.0651 57.096 40.0251 57.44 39.9451 57.664C39.8811 57.888 39.7451 58 39.5371 58H35.5771C35.3691 58 35.2331 57.896 35.1691 57.688C35.0891 57.464 35.0491 57.144 35.0491 56.728C35.0491 56.264 35.0891 55.92 35.1691 55.696C35.2331 55.472 35.3691 55.36 35.5771 55.36H39.5371ZM41.6981 55.36C41.9541 55.36 42.1781 55.368 42.3701 55.384C42.5621 55.384 42.7381 55.392 42.8981 55.408C43.0741 55.424 43.2421 55.448 43.4021 55.48C43.5621 55.512 43.7381 55.552 43.9301 55.6C43.3701 55.36 42.9221 55.112 42.5861 54.856C42.2661 54.584 42.0181 54.296 41.8421 53.992C41.6661 53.688 41.5461 53.36 41.4821 53.008C41.4341 52.64 41.4101 52.24 41.4101 51.808C41.4101 51.376 41.4901 50.928 41.6501 50.464C41.8261 50 42.0821 49.584 42.4181 49.216C42.7541 48.848 43.1701 48.544 43.6661 48.304C44.1781 48.064 44.7621 47.944 45.4181 47.944C46.0421 47.944 46.6021 48.024 47.0981 48.184C47.6101 48.344 48.0501 48.608 48.4181 48.976C48.7861 49.344 49.0661 49.832 49.2581 50.44C49.4661 51.032 49.5701 51.768 49.5701 52.648V53.872C49.5701 55.168 49.1941 56.184 48.4421 56.92C47.7061 57.64 46.5381 58 44.9381 58H39.5381C39.3301 58 39.1941 57.896 39.1301 57.688C39.0501 57.464 39.0101 57.144 39.0101 56.728C39.0101 56.264 39.0501 55.92 39.1301 55.696C39.1941 55.472 39.3301 55.36 39.5381 55.36H41.6981ZM45.3221 50.584C44.7621 50.584 44.3461 50.768 44.0741 51.136C43.8021 51.488 43.6661 51.864 43.6661 52.264C43.6661 52.488 43.6901 52.704 43.7381 52.912C43.8021 53.104 43.9381 53.304 44.1461 53.512C44.3541 53.72 44.6661 53.944 45.0821 54.184C45.4981 54.424 46.0741 54.696 46.8101 55C46.9381 54.84 47.0341 54.624 47.0981 54.352C47.1781 54.064 47.2181 53.784 47.2181 53.512V52.888C47.2181 52.216 47.0821 51.664 46.8101 51.232C46.5381 50.8 46.0421 50.584 45.3221 50.584ZM48.2501 45.856H45.7541V43.504H48.2501V45.856ZM44.8181 45.856H42.3221V43.504H44.8181V45.856ZM54.291 61.192C54.899 61.192 55.419 61.104 55.851 60.928C56.299 60.768 56.667 60.544 56.955 60.256C57.243 59.968 57.467 59.624 57.627 59.224C57.787 58.84 57.883 58.432 57.915 58H56.283C55.451 58 54.771 57.912 54.243 57.736C53.715 57.56 53.299 57.304 52.995 56.968C52.691 56.616 52.475 56.192 52.347 55.696C52.235 55.2 52.179 54.64 52.179 54.016C52.179 53.392 52.267 52.808 52.443 52.264C52.619 51.704 52.875 51.216 53.211 50.8C53.563 50.384 53.995 50.056 54.507 49.816C55.019 49.56 55.611 49.432 56.283 49.432C56.827 49.432 57.339 49.52 57.819 49.696C58.315 49.872 58.747 50.152 59.115 50.536C59.483 50.92 59.771 51.416 59.979 52.024C60.203 52.632 60.315 53.376 60.315 54.256V55.36H62.259C62.611 55.36 62.787 55.784 62.787 56.632C62.787 57.544 62.611 58 62.259 58H60.267C60.235 58.784 60.075 59.528 59.787 60.232C59.499 60.936 59.099 61.552 58.587 62.08C58.091 62.608 57.491 63.024 56.787 63.328C56.083 63.648 55.291 63.808 54.411 63.808H51.987L51.843 61.192H54.291ZM54.531 53.848C54.531 54.408 54.651 54.8 54.891 55.024C55.147 55.248 55.643 55.36 56.379 55.36H57.963V54.232C57.963 53.4 57.803 52.816 57.483 52.48C57.179 52.144 56.747 51.976 56.187 51.976C55.659 51.976 55.251 52.136 54.963 52.456C54.675 52.776 54.531 53.24 54.531 53.848ZM66.209 55.36C66.417 55.36 66.553 55.472 66.617 55.696C66.697 55.904 66.737 56.216 66.737 56.632C66.737 57.096 66.697 57.44 66.617 57.664C66.553 57.888 66.417 58 66.209 58H62.249C62.041 58 61.905 57.896 61.841 57.688C61.761 57.464 61.721 57.144 61.721 56.728C61.721 56.264 61.761 55.92 61.841 55.696C61.905 55.472 62.041 55.36 62.249 55.36H66.209ZM70.17 55.36C70.378 55.36 70.514 55.472 70.578 55.696C70.658 55.904 70.698 56.216 70.698 56.632C70.698 57.096 70.658 57.44 70.578 57.664C70.514 57.888 70.378 58 70.17 58H66.21C66.002 58 65.866 57.896 65.802 57.688C65.722 57.464 65.682 57.144 65.682 56.728C65.682 56.264 65.722 55.92 65.802 55.696C65.866 55.472 66.002 55.36 66.21 55.36H70.17ZM74.1309 55.36C74.3389 55.36 74.4749 55.472 74.5389 55.696C74.6189 55.904 74.6589 56.216 74.6589 56.632C74.6589 57.096 74.6189 57.44 74.5389 57.664C74.4749 57.888 74.3389 58 74.1309 58H70.1709C69.9629 58 69.8269 57.896 69.7629 57.688C69.6829 57.464 69.6429 57.144 69.6429 56.728C69.6429 56.264 69.6829 55.92 69.7629 55.696C69.8269 55.472 69.9629 55.36 70.1709 55.36H74.1309ZM78.0918 55.36C78.2998 55.36 78.4358 55.472 78.4998 55.696C78.5798 55.904 78.6198 56.216 78.6198 56.632C78.6198 57.096 78.5798 57.44 78.4998 57.664C78.4358 57.888 78.2998 58 78.0918 58H74.1318C73.9238 58 73.7878 57.896 73.7238 57.688C73.6438 57.464 73.6038 57.144 73.6038 56.728C73.6038 56.264 73.6438 55.92 73.7238 55.696C73.7878 55.472 73.9238 55.36 74.1318 55.36H78.0918ZM81.5248 55.36C80.9648 54.848 80.5648 54.344 80.3248 53.848C80.0848 53.336 79.9648 52.784 79.9648 52.192C79.9648 51.664 80.0608 51.152 80.2528 50.656C80.4608 50.16 80.7488 49.728 81.1168 49.36C81.5008 48.976 81.9568 48.672 82.4848 48.448C83.0288 48.208 83.6288 48.088 84.2848 48.088C84.9408 48.088 85.5168 48.208 86.0128 48.448C86.5088 48.688 86.9168 49 87.2368 49.384C87.5728 49.768 87.8208 50.2 87.9808 50.68C88.1568 51.144 88.2448 51.608 88.2448 52.072C88.2448 52.776 88.1168 53.392 87.8608 53.92C87.6208 54.432 87.2688 54.912 86.8048 55.36H90.1408C90.4928 55.36 90.6688 55.784 90.6688 56.632C90.6688 57.544 90.4928 58 90.1408 58H87.7168C86.9968 58 86.3408 57.968 85.7488 57.904C85.1728 57.84 84.7248 57.72 84.4048 57.544C84.1808 57.656 83.9008 57.744 83.5648 57.808C83.2448 57.872 82.9088 57.92 82.5568 57.952C82.2208 57.968 81.8848 57.984 81.5488 58C81.2288 58 80.9568 58 80.7328 58H78.0928C77.8848 58 77.7488 57.896 77.6848 57.688C77.6048 57.464 77.5648 57.144 77.5648 56.728C77.5648 56.264 77.6048 55.92 77.6848 55.696C77.7488 55.472 77.8848 55.36 78.0928 55.36H81.5248ZM84.1168 50.752C83.5888 50.752 83.1568 50.928 82.8208 51.28C82.4848 51.632 82.3168 52.072 82.3168 52.6C82.3168 53.112 82.5008 53.576 82.8688 53.992C83.2528 54.392 83.7088 54.728 84.2368 55C84.7008 54.728 85.0928 54.392 85.4128 53.992C85.7488 53.592 85.9168 53.136 85.9168 52.624C85.9168 52.064 85.7488 51.616 85.4128 51.28C85.0928 50.928 84.6608 50.752 84.1168 50.752ZM87.1168 46.144H84.6208V43.792H87.1168V46.144ZM83.6848 46.144H81.1888V43.792H83.6848V46.144ZM94.0996 55.36C94.3076 55.36 94.4436 55.472 94.5076 55.696C94.5876 55.904 94.6276 56.216 94.6276 56.632C94.6276 57.096 94.5876 57.44 94.5076 57.664C94.4436 57.888 94.3076 58 94.0996 58H90.1396C89.9316 58 89.7956 57.896 89.7316 57.688C89.6516 57.464 89.6116 57.144 89.6116 56.728C89.6116 56.264 89.6516 55.92 89.7316 55.696C89.7956 55.472 89.9316 55.36 90.1396 55.36H94.0996ZM98.0606 55.36C98.2686 55.36 98.4046 55.472 98.4686 55.696C98.5486 55.904 98.5886 56.216 98.5886 56.632C98.5886 57.096 98.5486 57.44 98.4686 57.664C98.4046 57.888 98.2686 58 98.0606 58H94.1006C93.8926 58 93.7566 57.896 93.6926 57.688C93.6126 57.464 93.5726 57.144 93.5726 56.728C93.5726 56.264 93.6126 55.92 93.6926 55.696C93.7566 55.472 93.8926 55.36 94.1006 55.36H98.0606ZM102.022 55.36C102.23 55.36 102.366 55.472 102.43 55.696C102.51 55.904 102.55 56.216 102.55 56.632C102.55 57.096 102.51 57.44 102.43 57.664C102.366 57.888 102.23 58 102.022 58H98.0615C97.8535 58 97.7175 57.896 97.6535 57.688C97.5735 57.464 97.5335 57.144 97.5335 56.728C97.5335 56.264 97.5735 55.92 97.6535 55.696C97.7175 55.472 97.8535 55.36 98.0615 55.36H102.022ZM105.982 55.36C106.19 55.36 106.326 55.472 106.39 55.696C106.47 55.904 106.51 56.216 106.51 56.632C106.51 57.096 106.47 57.44 106.39 57.664C106.326 57.888 106.19 58 105.982 58H102.022C101.814 58 101.678 57.896 101.614 57.688C101.534 57.464 101.494 57.144 101.494 56.728C101.494 56.264 101.534 55.92 101.614 55.696C101.678 55.472 101.814 55.36 102.022 55.36H105.982ZM109.943 55.36C110.151 55.36 110.287 55.472 110.351 55.696C110.431 55.904 110.471 56.216 110.471 56.632C110.471 57.096 110.431 57.44 110.351 57.664C110.287 57.888 110.151 58 109.943 58H105.983C105.775 58 105.639 57.896 105.575 57.688C105.495 57.464 105.455 57.144 105.455 56.728C105.455 56.264 105.495 55.92 105.575 55.696C105.639 55.472 105.775 55.36 105.983 55.36H109.943ZM116.832 56.656C116.4 56.912 115.976 57.128 115.56 57.304C115.144 57.464 114.704 57.6 114.24 57.712C113.776 57.808 113.264 57.88 112.704 57.928C112.16 57.976 111.528 58 110.808 58H109.944C109.736 58 109.6 57.896 109.536 57.688C109.456 57.464 109.416 57.144 109.416 56.728C109.416 56.264 109.456 55.92 109.536 55.696C109.6 55.472 109.736 55.36 109.944 55.36H110.904C111.496 55.36 112.032 55.352 112.512 55.336C112.992 55.304 113.424 55.256 113.808 55.192C114.208 55.128 114.584 55.04 114.936 54.928C115.288 54.8 115.64 54.632 115.992 54.424L119.04 52.672C118.928 52.464 118.816 52.28 118.704 52.12C118.608 51.96 118.48 51.832 118.32 51.736C118.176 51.624 117.992 51.544 117.768 51.496C117.544 51.432 117.256 51.4 116.904 51.4H111.816L111.96 48.76H117.288C117.736 48.76 118.176 48.824 118.608 48.952C119.056 49.08 119.472 49.328 119.856 49.696C120.256 50.048 120.616 50.552 120.936 51.208C121.272 51.848 121.552 52.696 121.776 53.752L116.832 56.656Z" fill="#64656F"/>
</svg>
