<svg width="90" height="54" viewBox="0 0 90 54" fill="none" xmlns="http://www.w3.org/2000/svg">
<path d="M11.1754 13.08C11.1754 12.5067 10.8288 12.22 10.1354 12.22H6.33543V8.32C6.33543 7.13333 6.68876 6.18 7.39543 5.46C8.1021 4.72667 9.05543 4.36 10.2554 4.36H12.9154L13.1154 6.9H10.2554C9.82876 6.9 9.48876 7.02667 9.23543 7.28C8.9821 7.53333 8.85543 7.87333 8.85543 8.3V9.6H10.5554C11.6488 9.6 12.4488 9.88667 12.9554 10.46C13.4621 11.02 13.7154 11.84 13.7154 12.92C13.7154 13.7867 13.4688 14.5933 12.9754 15.34C12.4821 16.0867 11.8088 16.68 10.9554 17.12C10.1021 17.56 9.14876 17.78 8.09543 17.78H6.57543C4.8421 17.78 3.5021 17.28 2.55543 16.28C1.6221 15.2933 1.15543 13.9067 1.15543 12.12V8.14H3.69543V12.06C3.69543 13.1 3.92876 13.8733 4.39543 14.38C4.8621 14.8867 5.59543 15.14 6.59543 15.14H8.11543C9.1021 15.14 9.85543 14.9533 10.3754 14.58C10.9088 14.2067 11.1754 13.7067 11.1754 13.08ZM20.7098 10.36C20.7765 10.36 20.8231 10.4467 20.8498 10.62C20.8898 10.7933 20.9098 11.16 20.9098 11.72C20.9098 12.2533 20.8898 12.6 20.8498 12.76C20.8231 12.92 20.7765 13 20.7098 13H19.9898C18.8698 13 18.0231 12.68 17.4498 12.04C16.8765 11.3867 16.5898 10.46 16.5898 9.26V0.0999992H19.1098V9.1C19.1098 9.54 19.1898 9.86 19.3498 10.06C19.5231 10.26 19.7965 10.36 20.1698 10.36H20.7098ZM23.7139 10.36C23.8472 10.36 23.9139 10.8133 23.9139 11.72C23.9139 12.2667 23.8939 12.62 23.8539 12.78C23.8139 12.9267 23.7672 13 23.7139 13H20.7139C20.5805 13 20.5139 12.5733 20.5139 11.72C20.5139 10.8133 20.5805 10.36 20.7139 10.36H23.7139ZM26.7217 10.36C26.855 10.36 26.9217 10.8133 26.9217 11.72C26.9217 12.2667 26.9017 12.62 26.8617 12.78C26.8217 12.9267 26.775 13 26.7217 13H23.7217C23.5883 13 23.5217 12.5733 23.5217 11.72C23.5217 10.8133 23.5883 10.36 23.7217 10.36H26.7217ZM37.8695 10.36C38.0028 10.36 38.0695 10.8133 38.0695 11.72C38.0695 12.5733 38.0028 13 37.8695 13H37.3695C36.2228 13 35.4562 12.68 35.0695 12.04C34.7762 12.36 34.3828 12.6 33.8895 12.76C33.3962 12.92 32.8628 13 32.2895 13C31.6362 13 31.0828 12.9133 30.6295 12.74C30.1762 12.5667 29.8428 12.3267 29.6295 12.02C29.3762 12.3667 29.0628 12.62 28.6895 12.78C28.3162 12.9267 27.8362 13 27.2495 13H26.7295C26.5962 13 26.5295 12.5733 26.5295 11.72C26.5295 10.8133 26.5962 10.36 26.7295 10.36H27.2495C27.6228 10.36 27.8895 10.2867 28.0495 10.14C28.2095 9.99333 28.2895 9.75333 28.2895 9.42V8.86C28.2895 7.56667 28.6562 6.54 29.3895 5.78C30.1362 5.02 31.1362 4.64 32.3895 4.64C33.6428 4.64 34.6095 5 35.2895 5.72C35.9828 6.44 36.3295 7.46 36.3295 8.78V9.24C36.3295 9.64 36.4095 9.92667 36.5695 10.1C36.7428 10.2733 37.0028 10.36 37.3495 10.36H37.8695ZM32.2895 7.16C31.2895 7.16 30.7895 7.69333 30.7895 8.76V8.86C30.7895 9.35333 30.9095 9.73333 31.1495 10C31.4028 10.2533 31.7828 10.38 32.2895 10.38C32.8095 10.38 33.1895 10.26 33.4295 10.02C33.6828 9.76667 33.8095 9.38 33.8095 8.86V8.76C33.8095 7.69333 33.3028 7.16 32.2895 7.16ZM40.8623 10.36C40.9956 10.36 41.0623 10.8133 41.0623 11.72C41.0623 12.2667 41.0423 12.62 41.0023 12.78C40.9623 12.9267 40.9156 13 40.8623 13H37.8623C37.729 13 37.6623 12.5733 37.6623 11.72C37.6623 10.8133 37.729 10.36 37.8623 10.36H40.8623ZM43.8701 10.36C44.0035 10.36 44.0701 10.8133 44.0701 11.72C44.0701 12.2667 44.0501 12.62 44.0101 12.78C43.9701 12.9267 43.9235 13 43.8701 13H40.8701C40.7368 13 40.6701 12.5733 40.6701 11.72C40.6701 10.8133 40.7368 10.36 40.8701 10.36H43.8701ZM46.8779 10.36C47.0113 10.36 47.0779 10.8133 47.0779 11.72C47.0779 12.2667 47.0579 12.62 47.0179 12.78C46.9779 12.9267 46.9313 13 46.8779 13H43.8779C43.7446 13 43.6779 12.5733 43.6779 11.72C43.6779 10.8133 43.7446 10.36 43.8779 10.36H46.8779ZM49.2257 10.36C49.5591 10.36 49.8257 10.2733 50.0257 10.1C50.2391 9.91333 50.3457 9.66 50.3457 9.34V6.14H52.8857V9.24C52.8857 9.98667 53.2591 10.36 54.0057 10.36H54.7657C54.8991 10.36 54.9657 10.8067 54.9657 11.7C54.9657 12.5667 54.8991 13 54.7657 13H53.8857C52.7524 13 51.9924 12.6733 51.6057 12.02C51.1257 12.6733 50.3324 13 49.2257 13H46.8857C46.7524 13 46.6857 12.5733 46.6857 11.72C46.6857 10.8133 46.7524 10.36 46.8857 10.36H49.2257ZM49.2657 4.02V1.76H51.9857V4.02H49.2657ZM57.7568 10.36C57.8902 10.36 57.9568 10.8133 57.9568 11.72C57.9568 12.2667 57.9368 12.62 57.8968 12.78C57.8568 12.9267 57.8102 13 57.7568 13H54.7568C54.6235 13 54.5568 12.5733 54.5568 11.72C54.5568 10.8133 54.6235 10.36 54.7568 10.36H57.7568ZM60.7646 10.36C60.898 10.36 60.9646 10.8133 60.9646 11.72C60.9646 12.2667 60.9446 12.62 60.9046 12.78C60.8646 12.9267 60.818 13 60.7646 13H57.7646C57.6313 13 57.5646 12.5733 57.5646 11.72C57.5646 10.8133 57.6313 10.36 57.7646 10.36H60.7646ZM63.7725 10.36C63.9058 10.36 63.9725 10.8133 63.9725 11.72C63.9725 12.2667 63.9525 12.62 63.9125 12.78C63.8725 12.9267 63.8258 13 63.7725 13H60.7725C60.6391 13 60.5725 12.5733 60.5725 11.72C60.5725 10.8133 60.6391 10.36 60.7725 10.36H63.7725ZM69.1803 10.38C69.6869 10.14 70.0603 9.87333 70.3003 9.58C70.5536 9.27333 70.6803 8.93333 70.6803 8.56C70.6803 8.13333 70.5403 7.79333 70.2603 7.54C69.9936 7.27333 69.6269 7.14 69.1603 7.14C68.6936 7.14 68.3203 7.27333 68.0403 7.54C67.7736 7.79333 67.6403 8.13333 67.6403 8.56C67.6403 8.94667 67.7603 9.28667 68.0003 9.58C68.2536 9.87333 68.6469 10.14 69.1803 10.38ZM65.9003 10.36C65.7136 10.1333 65.5536 9.84 65.4203 9.48C65.3003 9.12 65.2403 8.77333 65.2403 8.44C65.2403 7.72 65.4136 7.07333 65.7603 6.5C66.1069 5.91333 66.5869 5.46 67.2003 5.14C67.8136 4.80667 68.5003 4.64 69.2603 4.64C69.9669 4.64 70.6069 4.79333 71.1803 5.1L70.4203 4.32L72.2003 2.46L76.1403 6.68C76.6203 7.2 76.9669 7.70667 77.1803 8.2C77.4069 8.69333 77.5203 9.21333 77.5203 9.76C77.5203 10.7333 77.1803 11.52 76.5003 12.12C75.8336 12.7067 74.9269 13 73.7803 13H71.9203C71.0803 13 70.4669 12.98 70.0803 12.94C69.7069 12.8867 69.4003 12.78 69.1603 12.62C68.9069 12.7667 68.5469 12.8667 68.0803 12.92C67.6269 12.9733 67.0203 13 66.2603 13H63.7803C63.6469 13 63.5803 12.5733 63.5803 11.72C63.5803 10.8133 63.6469 10.36 63.7803 10.36H65.9003ZM73.7603 10.36C74.5736 10.36 74.9803 10.1067 74.9803 9.6C74.9803 9.4 74.9269 9.21333 74.8203 9.04C74.7269 8.85333 74.5269 8.60667 74.2203 8.3L72.7003 6.7C72.9403 7.19333 73.0603 7.73333 73.0603 8.32C73.0603 8.68 72.9936 9.05333 72.8603 9.44C72.7269 9.81333 72.5469 10.12 72.3203 10.36H73.7603ZM80.3984 0.0999992H82.9184V12.92H80.3984V0.0999992ZM89.4692 12.26C89.4692 13.3533 89.2492 14.3133 88.8092 15.14C88.3692 15.98 87.7358 16.6267 86.9092 17.08C86.0958 17.5467 85.1425 17.78 84.0492 17.78H83.4092L83.2092 15.14H84.0292C84.9492 15.14 85.6625 14.8867 86.1692 14.38C86.6758 13.8867 86.9292 13.1867 86.9292 12.28V6.14H89.4692V12.26ZM1.52918 51.14C2.44918 51.14 3.16251 50.8867 3.66918 50.38C4.17585 49.8867 4.42918 49.1867 4.42918 48.28V42.14H6.96918V45.14C6.96918 45.5667 7.06918 45.88 7.26918 46.08C7.48251 46.2667 7.81585 46.36 8.26918 46.36H8.60918C8.74251 46.36 8.80918 46.8133 8.80918 47.72C8.80918 48.5733 8.74251 49 8.60918 49H8.30918C8.01585 49 7.74918 48.96 7.50918 48.88C7.26918 48.8 7.08251 48.6933 6.94918 48.56V48.58C6.90918 49.62 6.66251 50.5333 6.20918 51.32C5.75585 52.1067 5.12918 52.7133 4.32918 53.14C3.52918 53.5667 2.60251 53.78 1.54918 53.78H0.90918L0.70918 51.14H1.52918ZM11.6045 46.36C11.7378 46.36 11.8045 46.8133 11.8045 47.72C11.8045 48.2667 11.7845 48.62 11.7445 48.78C11.7045 48.9267 11.6578 49 11.6045 49H8.60449C8.47116 49 8.40449 48.5733 8.40449 47.72C8.40449 46.8133 8.47116 46.36 8.60449 46.36H11.6045ZM14.6123 46.36C14.7456 46.36 14.8123 46.8133 14.8123 47.72C14.8123 48.2667 14.7923 48.62 14.7523 48.78C14.7123 48.9267 14.6656 49 14.6123 49H11.6123C11.479 49 11.4123 48.5733 11.4123 47.72C11.4123 46.8133 11.479 46.36 11.6123 46.36H14.6123ZM17.6201 46.36C17.7535 46.36 17.8201 46.8133 17.8201 47.72C17.8201 48.2667 17.8001 48.62 17.7601 48.78C17.7201 48.9267 17.6735 49 17.6201 49H14.6201C14.4868 49 14.4201 48.5733 14.4201 47.72C14.4201 46.8133 14.4868 46.36 14.6201 46.36H17.6201ZM20.6279 46.36C20.7613 46.36 20.8279 46.8133 20.8279 47.72C20.8279 48.2667 20.8079 48.62 20.7679 48.78C20.7279 48.9267 20.6813 49 20.6279 49H17.6279C17.4946 49 17.4279 48.5733 17.4279 47.72C17.4279 46.8133 17.4946 46.36 17.6279 46.36H20.6279ZM23.6357 46.36C23.7691 46.36 23.8357 46.8133 23.8357 47.72C23.8357 48.2667 23.8157 48.62 23.7757 48.78C23.7357 48.9267 23.6891 49 23.6357 49H20.6357C20.5024 49 20.4357 48.5733 20.4357 47.72C20.4357 46.8133 20.5024 46.36 20.6357 46.36H23.6357ZM26.6436 46.36C26.7769 46.36 26.8436 46.8133 26.8436 47.72C26.8436 48.2667 26.8236 48.62 26.7836 48.78C26.7436 48.9267 26.6969 49 26.6436 49H23.6436C23.5102 49 23.4436 48.5733 23.4436 47.72C23.4436 46.8133 23.5102 46.36 23.6436 46.36H26.6436ZM29.6514 46.36C29.7847 46.36 29.8514 46.8133 29.8514 47.72C29.8514 48.2667 29.8314 48.62 29.7914 48.78C29.7514 48.9267 29.7047 49 29.6514 49H26.6514C26.518 49 26.4514 48.5733 26.4514 47.72C26.4514 46.8133 26.518 46.36 26.6514 46.36H29.6514ZM32.6592 46.36C32.7925 46.36 32.8592 46.8133 32.8592 47.72C32.8592 48.2667 32.8392 48.62 32.7992 48.78C32.7592 48.9267 32.7125 49 32.6592 49H29.6592C29.5258 49 29.4592 48.5733 29.4592 47.72C29.4592 46.8133 29.5258 46.36 29.6592 46.36H32.6592ZM35.667 46.36C35.8003 46.36 35.867 46.8133 35.867 47.72C35.867 48.2667 35.847 48.62 35.807 48.78C35.767 48.9267 35.7203 49 35.667 49H32.667C32.5337 49 32.467 48.5733 32.467 47.72C32.467 46.8133 32.5337 46.36 32.667 46.36H35.667ZM38.6748 46.36C38.8081 46.36 38.8748 46.8133 38.8748 47.72C38.8748 48.2667 38.8548 48.62 38.8148 48.78C38.7748 48.9267 38.7281 49 38.6748 49H35.6748C35.5415 49 35.4748 48.5733 35.4748 47.72C35.4748 46.8133 35.5415 46.36 35.6748 46.36H38.6748ZM41.6826 46.36C41.816 46.36 41.8826 46.8133 41.8826 47.72C41.8826 48.2667 41.8626 48.62 41.8226 48.78C41.7826 48.9267 41.736 49 41.6826 49H38.6826C38.5493 49 38.4826 48.5733 38.4826 47.72C38.4826 46.8133 38.5493 46.36 38.6826 46.36H41.6826ZM44.6904 46.36C44.8238 46.36 44.8904 46.8133 44.8904 47.72C44.8904 48.2667 44.8704 48.62 44.8304 48.78C44.7904 48.9267 44.7438 49 44.6904 49H41.6904C41.5571 49 41.4904 48.5733 41.4904 47.72C41.4904 46.8133 41.5571 46.36 41.6904 46.36H44.6904ZM47.6982 46.36C47.8316 46.36 47.8982 46.8133 47.8982 47.72C47.8982 48.2667 47.8782 48.62 47.8382 48.78C47.7982 48.9267 47.7516 49 47.6982 49H44.6982C44.5649 49 44.4982 48.5733 44.4982 47.72C44.4982 46.8133 44.5649 46.36 44.6982 46.36H47.6982ZM50.7061 46.36C50.8394 46.36 50.9061 46.8133 50.9061 47.72C50.9061 48.2667 50.8861 48.62 50.8461 48.78C50.8061 48.9267 50.7594 49 50.7061 49H47.7061C47.5727 49 47.5061 48.5733 47.5061 47.72C47.5061 46.8133 47.5727 46.36 47.7061 46.36H50.7061ZM53.7139 46.36C53.8472 46.36 53.9139 46.8133 53.9139 47.72C53.9139 48.2667 53.8939 48.62 53.8539 48.78C53.8139 48.9267 53.7672 49 53.7139 49H50.7139C50.5805 49 50.5139 48.5733 50.5139 47.72C50.5139 46.8133 50.5805 46.36 50.7139 46.36H53.7139ZM56.7217 46.36C56.855 46.36 56.9217 46.8133 56.9217 47.72C56.9217 48.2667 56.9017 48.62 56.8617 48.78C56.8217 48.9267 56.775 49 56.7217 49H53.7217C53.5883 49 53.5217 48.5733 53.5217 47.72C53.5217 46.8133 53.5883 46.36 53.7217 46.36H56.7217ZM59.7295 46.36C59.8628 46.36 59.9295 46.8133 59.9295 47.72C59.9295 48.2667 59.9095 48.62 59.8695 48.78C59.8295 48.9267 59.7828 49 59.7295 49H56.7295C56.5962 49 56.5295 48.5733 56.5295 47.72C56.5295 46.8133 56.5962 46.36 56.7295 46.36H59.7295ZM62.7373 46.36C62.8706 46.36 62.9373 46.8133 62.9373 47.72C62.9373 48.2667 62.9173 48.62 62.8773 48.78C62.8373 48.9267 62.7906 49 62.7373 49H59.7373C59.604 49 59.5373 48.5733 59.5373 47.72C59.5373 46.8133 59.604 46.36 59.7373 46.36H62.7373ZM64.8451 46.36C64.6585 46.12 64.5051 45.8133 64.3851 45.44C64.2651 45.0533 64.2051 44.6933 64.2051 44.36C64.2051 43.6 64.3785 42.9267 64.7251 42.34C65.0718 41.74 65.5518 41.2733 66.1651 40.94C66.7918 40.6067 67.4851 40.44 68.2451 40.44C68.9785 40.44 69.6318 40.6067 70.2051 40.94C70.7918 41.26 71.2451 41.7133 71.5651 42.3C71.8985 42.8733 72.0651 43.5267 72.0651 44.26C72.0651 44.62 71.9985 45.0067 71.8651 45.42C71.7318 45.82 71.5518 46.1333 71.3251 46.36H73.5451C73.6785 46.36 73.7451 46.8133 73.7451 47.72C73.7451 48.5733 73.6785 49 73.5451 49H70.9251C70.0718 49 69.4518 48.9733 69.0651 48.92C68.6918 48.8667 68.3851 48.76 68.1451 48.6C67.9051 48.7467 67.5585 48.8533 67.1051 48.92C66.6651 48.9733 66.0518 49 65.2651 49H62.7451C62.6118 49 62.5451 48.5733 62.5451 47.72C62.5451 46.8133 62.6118 46.36 62.7451 46.36H64.8451ZM68.1451 42.96C67.6651 42.96 67.2918 43.0933 67.0251 43.36C66.7585 43.6267 66.6251 43.9933 66.6251 44.46C66.6251 45.2733 67.1385 45.9133 68.1651 46.38C68.6718 46.14 69.0451 45.86 69.2851 45.54C69.5385 45.2067 69.6651 44.8467 69.6651 44.46C69.6651 43.9933 69.5318 43.6267 69.2651 43.36C68.9985 43.0933 68.6251 42.96 68.1451 42.96ZM66.8851 38.3V36.04H69.6051V38.3H66.8851ZM75.1059 46.36C75.5726 46.36 75.9192 46.2533 76.1459 46.04C76.3859 45.8267 76.5059 45.5333 76.5059 45.16V42.14H79.0259V45.16C79.0259 45.5467 79.1326 45.8467 79.3459 46.06C79.5592 46.26 79.9126 46.36 80.4059 46.36C80.8726 46.36 81.2192 46.2533 81.4459 46.04C81.6859 45.8267 81.8059 45.5333 81.8059 45.16V42.14H84.3259V45.16C84.3259 45.96 84.7592 46.36 85.6259 46.36C86.5059 46.36 86.9459 45.96 86.9459 45.16V42.14H89.4459V45.18C89.4459 46.38 89.1126 47.32 88.4459 48C87.7792 48.6667 86.8392 49 85.6259 49C84.9192 49 84.3526 48.9133 83.9259 48.74C83.4992 48.5533 83.1792 48.2867 82.9659 47.94C82.4459 48.6467 81.5926 49 80.4059 49C79.6592 49 79.0659 48.9133 78.6259 48.74C78.1992 48.5533 77.8792 48.2867 77.6659 47.94C77.1459 48.6467 76.2926 49 75.1059 49H73.5459C73.4126 49 73.3459 48.5733 73.3459 47.72C73.3459 46.8133 73.4126 46.36 73.5459 46.36H75.1059Z" fill="#64656F"/>
</svg>
