<svg width="81" height="30" viewBox="0 0 81 30" fill="none" xmlns="http://www.w3.org/2000/svg">
<path d="M1.06509 20.767C1.10567 20.1014 1.14625 19.4116 1.18683 18.6974C1.22741 17.9832 1.25987 17.2771 1.28422 16.5791C1.31668 15.8812 1.33697 15.2035 1.34509 14.5461C1.3532 13.8887 1.34509 13.2841 1.32074 12.7322C1.27204 11.5797 1.22335 10.5693 1.17465 9.70087C1.13407 8.82435 1.08944 8.04928 1.04074 7.37565C1.00016 6.70203 0.955523 6.11362 0.906827 5.61044C0.866248 5.09913 0.82161 4.63246 0.772914 4.21043C0.724219 3.78841 0.671465 3.39478 0.614654 3.02956C0.557842 2.65623 0.496972 2.27072 0.432045 1.87304L4.19378 0.631304C4.37233 1.71884 4.51436 2.81449 4.61987 3.91826C4.73349 5.02203 4.81871 6.08116 4.87552 7.09565C4.93233 8.10203 4.96886 9.03942 4.98509 9.90783C5.00944 10.7762 5.02161 11.5188 5.02161 12.1357C5.02161 12.6957 5.01755 13.3003 5.00944 13.9496C5.00944 14.5988 5.00132 15.2725 4.98509 15.9704C4.97697 16.6684 4.96074 17.3745 4.93639 18.0887C4.91205 18.8029 4.87552 19.5009 4.82683 20.1826L1.06509 20.767ZM15.7933 20.7304C15.6147 20.7304 15.3794 20.7183 15.0872 20.6939C14.795 20.6696 14.4623 20.5803 14.0889 20.4261C13.9104 21.4325 13.5736 22.3861 13.0785 23.287C12.5915 24.1959 11.9869 25.0441 11.2646 25.8313C10.5423 26.6267 9.71851 27.3571 8.79329 28.0226C7.86807 28.6881 6.88198 29.2846 5.83503 29.8122L3.6072 26.7322C4.18343 26.44 4.76372 26.1194 5.34807 25.7704C5.93242 25.4296 6.48836 25.0643 7.0159 24.6748C7.55155 24.2933 8.04662 23.8916 8.50111 23.4696C8.96372 23.0557 9.36546 22.6255 9.70633 22.1791C10.0472 21.7328 10.315 21.2742 10.5098 20.8035C10.7046 20.3409 10.802 19.8701 10.802 19.3913C10.802 19.0748 10.7411 18.673 10.6194 18.1861C10.4976 17.6991 10.3434 17.1757 10.1568 16.6157C9.9701 16.0557 9.76314 15.4916 9.5359 14.9235C9.30865 14.3554 9.08952 13.8359 8.87851 13.3652L12.3968 11.8313C12.7214 12.8052 13.0298 13.6168 13.322 14.2661C13.6223 14.9154 13.9104 15.4348 14.1863 15.8243C14.4623 16.2139 14.726 16.4899 14.9776 16.6522C15.2373 16.8064 15.493 16.8835 15.7446 16.8835H16.0368V20.7304H15.7933ZM27.0704 16.8835V20.7304H15.5417V16.8835H27.0704ZM38.1172 16.8835V20.7304H26.5886V16.8835H38.1172ZM49.1641 16.8835V20.7304H37.6354V16.8835H49.1641ZM60.211 16.8835V20.7304H48.6823V16.8835H60.211ZM59.7292 16.8835H62.6509C62.9999 16.8835 63.3854 16.8672 63.8074 16.8348C64.2295 16.7942 64.6231 16.7171 64.9883 16.6035C65.3616 16.4899 65.67 16.3235 65.9135 16.1043C66.1651 15.8771 66.2909 15.5809 66.2909 15.2157C66.2909 15.0209 66.23 14.7328 66.1083 14.3513C65.9947 13.9617 65.8405 13.5316 65.6457 13.0609C65.459 12.582 65.244 12.0829 65.0005 11.5635C64.7651 11.0441 64.5298 10.549 64.2944 10.0783L67.7761 8.34956C68.0034 8.86087 68.2266 9.40464 68.4457 9.98087C68.6729 10.5571 68.8758 11.1414 69.0544 11.7339C69.2329 12.3264 69.375 12.9188 69.4805 13.5113C69.5941 14.0957 69.6509 14.6557 69.6509 15.1913C69.6509 16.1977 69.4643 17.0539 69.0909 17.76C68.7257 18.458 68.2266 19.0301 67.5935 19.4765C66.9605 19.9148 66.2179 20.2313 65.3657 20.4261C64.5135 20.629 63.6005 20.7304 62.6266 20.7304H59.7292V16.8835ZM64.477 24.2974L62.1883 26.5861L59.8266 24.2365L62.164 21.887L64.477 24.2L66.7657 21.9113L69.1274 24.2609L66.79 26.6104L64.477 24.2974ZM78.8822 11.807C79.0526 12.3101 79.2312 12.862 79.4178 13.4626C79.6126 14.0551 79.7871 14.6638 79.9413 15.2887C80.1036 15.9136 80.2375 16.5386 80.343 17.1635C80.4485 17.7803 80.5013 18.3606 80.5013 18.9043C80.5013 19.6672 80.3958 20.4099 80.1848 21.1322C79.9819 21.8626 79.6897 22.5687 79.3083 23.2504C78.9349 23.9322 78.4885 24.5855 77.9691 25.2104C77.4497 25.8354 76.8735 26.4238 76.2404 26.9757C75.6074 27.5357 74.9297 28.051 74.2074 28.5217C73.4851 29.0006 72.7384 29.4307 71.9674 29.8122L69.7517 26.7322C70.3361 26.44 70.9285 26.1072 71.5291 25.7339C72.1216 25.3687 72.6897 24.9751 73.2335 24.553C73.7854 24.131 74.2967 23.6887 74.7674 23.2261C75.2462 22.7635 75.6601 22.2928 76.0091 21.8139C76.3662 21.3351 76.6462 20.8481 76.8491 20.353C77.052 19.8661 77.1535 19.3872 77.1535 18.9165C77.1535 18.5757 77.1048 18.2064 77.0074 17.8087C76.9181 17.411 76.7923 16.9849 76.63 16.5304C76.4677 16.0678 76.2769 15.5809 76.0578 15.0696C75.8468 14.5501 75.6155 13.9983 75.3639 13.4139L78.8822 11.807Z" fill="#4299C1"/>
</svg>
