<svg width="194" height="21" viewBox="0 0 194 21" fill="none" xmlns="http://www.w3.org/2000/svg">
<path d="M7.718 12.0348C7.74699 11.542 7.83684 11.0551 7.98757 10.5739C8.13829 10.087 8.34119 9.62609 8.59626 9.1913C8.85134 8.75072 9.14989 8.34493 9.49192 7.97391C9.83974 7.6029 10.2224 7.28116 10.6397 7.0087C11.0629 6.73623 11.5151 6.52464 11.9963 6.37391C12.4832 6.21739 12.9905 6.13913 13.518 6.13913C13.9064 6.13913 14.3064 6.1971 14.718 6.31304C15.1354 6.42319 15.5528 6.58841 15.9702 6.8087L15.005 9.35652C14.7267 9.23478 14.4629 9.14203 14.2137 9.07826C13.9644 9.0087 13.7296 8.97391 13.5093 8.97391C13.1499 8.97391 12.7789 9.05217 12.3963 9.2087C12.0195 9.36522 11.6658 9.57681 11.3354 9.84348C11.0108 10.1043 10.7325 10.4087 10.5006 10.7565C10.2745 11.1043 10.1325 11.4696 10.0745 11.8522C10.0629 12.0145 10.1093 12.1478 10.2137 12.2522C10.318 12.3565 10.4571 12.4464 10.631 12.5217C10.805 12.5971 11.0021 12.6638 11.2224 12.7217C11.4426 12.7739 11.6658 12.829 11.8919 12.887C12.3209 13.0029 12.7354 13.1217 13.1354 13.2435C13.5412 13.3652 13.8977 13.5275 14.205 13.7304C14.518 13.9275 14.7673 14.1855 14.9528 14.5043C15.1441 14.8232 15.2397 15.2406 15.2397 15.7565C15.2397 16.371 15.1209 16.9159 14.8832 17.3913C14.6513 17.8725 14.3354 18.2928 13.9354 18.6522C13.5354 19.0174 13.0716 19.3246 12.5441 19.5739C12.0224 19.8232 11.4745 20.0261 10.9006 20.1826C10.3267 20.3449 9.74409 20.4609 9.15279 20.5304C8.56148 20.6 8.00206 20.6348 7.47452 20.6348C6.50061 20.6348 5.60206 20.5072 4.77887 20.2522C3.96148 20.0029 3.25713 19.6319 2.66583 19.1391C2.07452 18.6522 1.61076 18.0464 1.27452 17.3217C0.94409 16.5971 0.778872 15.7623 0.778872 14.8174C0.778872 14.6667 0.784669 14.5159 0.796264 14.3652C0.807858 14.2145 0.819452 14.0725 0.831046 13.9391C0.865829 13.3072 0.946988 12.7014 1.07452 12.1217C1.20786 11.542 1.34699 11.0261 1.49192 10.5739C1.64264 10.1217 1.77887 9.75362 1.90061 9.46957C2.02815 9.18551 2.10061 9.02319 2.118 8.98261L4.30061 9.89565C4.13829 10.2783 3.98467 10.6609 3.83974 11.0435C3.70061 11.4261 3.57887 11.8174 3.47452 12.2174C3.37018 12.6116 3.28612 13.0116 3.22235 13.4174C3.16438 13.8232 3.13539 14.2377 3.13539 14.6609C3.13539 15.2696 3.25713 15.7739 3.50061 16.1739C3.74409 16.5797 4.06583 16.9014 4.46583 17.1391C4.87163 17.3826 5.33539 17.5536 5.85713 17.6522C6.37887 17.7565 6.918 17.8087 7.47452 17.8087C8.21076 17.8087 8.89771 17.7565 9.53539 17.6522C10.1789 17.5536 10.7441 17.4203 11.231 17.2522C11.718 17.0899 12.1093 16.8986 12.405 16.6783C12.7064 16.4638 12.8803 16.2435 12.9267 16.0174C12.5615 15.9304 12.1731 15.8435 11.7615 15.7565C11.3557 15.6696 10.9528 15.5623 10.5528 15.4348C10.1586 15.313 9.78177 15.1623 9.42235 14.9826C9.06873 14.8029 8.75858 14.5797 8.49192 14.313C8.23105 14.0522 8.02815 13.7362 7.88322 13.3652C7.73829 12.9884 7.68322 12.5449 7.718 12.0348ZM21.4346 14.5217C20.71 14.5217 20.0955 14.4232 19.5912 14.2261C19.0868 14.0348 18.6752 13.7681 18.3564 13.4261C18.0375 13.0841 17.8057 12.6812 17.6607 12.2174C17.5216 11.7478 17.452 11.2406 17.452 10.6957C17.452 10.4174 17.4578 10.0725 17.4694 9.66087C17.481 9.24348 17.4868 8.76232 17.4868 8.21739C17.4868 7.67246 17.4839 7.07536 17.4781 6.42609C17.4723 5.77101 17.4549 5.11594 17.426 4.46087C17.4028 3.8058 17.3651 3.17681 17.3129 2.57391C17.2665 1.97101 17.1999 1.44638 17.1129 0.999999L19.7129 0.208695C19.7883 0.591304 19.8491 1.04348 19.8955 1.56522C19.9477 2.08116 19.9883 2.62319 20.0173 3.1913C20.0462 3.75942 20.0665 4.33043 20.0781 4.90435C20.0955 5.47826 20.1071 6.01159 20.1129 6.50435C20.1187 6.93913 20.11 7.3971 20.0868 7.87826C20.0694 8.35362 20.0549 8.81159 20.0433 9.25217C20.0317 9.68696 20.0346 10.0812 20.052 10.4348C20.0752 10.7884 20.1303 11.058 20.2173 11.2435C20.2694 11.3768 20.3332 11.4783 20.4086 11.5478C20.4897 11.6174 20.5825 11.6696 20.6868 11.7043C20.7912 11.7391 20.9042 11.7594 21.026 11.7652C21.1535 11.771 21.2926 11.7739 21.4433 11.7739H21.6781V14.5217H21.4346ZM29.5687 11.7739V14.5217H21.3339V11.7739H29.5687ZM37.4593 11.7739V14.5217H29.2245V11.7739H37.4593ZM37.1151 11.7739H37.6543C37.718 11.7739 37.7905 11.771 37.8717 11.7652C37.9586 11.7594 38.063 11.7536 38.1847 11.7478C38.3123 11.742 38.4833 11.7333 38.6978 11.7217C38.4949 11.3739 38.3412 11.0058 38.2369 10.6174C38.1325 10.2232 38.0804 9.82609 38.0804 9.42609C38.0804 8.81159 38.1963 8.22319 38.4282 7.66087C38.6601 7.09275 39.0108 6.6058 39.4804 6.2L39.0282 5.94783L40.7065 3.47826C41.4427 3.86087 42.1644 4.22319 42.8717 4.56522C43.5847 4.90725 44.2659 5.22609 44.9151 5.52174C45.4659 5.77681 45.9528 6.0029 46.376 6.2C46.805 6.3913 47.1905 6.58261 47.5325 6.77391C47.8746 6.95942 48.1818 7.15652 48.4543 7.36522C48.7267 7.57391 48.9818 7.81739 49.2195 8.09565C49.5209 8.47826 49.7383 8.89565 49.8717 9.34783C50.005 9.8 50.0717 10.2377 50.0717 10.6609C50.0717 11.3101 49.9036 11.9246 49.5673 12.5043C49.2369 13.0783 48.747 13.5594 48.0978 13.9478C47.918 14.0522 47.6949 14.142 47.4282 14.2174C47.1673 14.2928 46.892 14.3536 46.6021 14.4C46.318 14.4522 46.0369 14.4899 45.7586 14.513C45.4804 14.5362 45.2369 14.5478 45.0282 14.5478C44.7847 14.5478 44.5209 14.5362 44.2369 14.513C43.9528 14.4957 43.6659 14.4638 43.376 14.4174C43.092 14.3768 42.8137 14.3217 42.5412 14.2522C42.2688 14.1826 42.0195 14.1014 41.7934 14.0087C41.5151 14.0899 41.2021 14.1623 40.8543 14.2261C40.5123 14.2899 40.1499 14.342 39.7673 14.3826C39.3905 14.429 39.0021 14.4638 38.6021 14.487C38.2079 14.5101 37.8195 14.5217 37.4369 14.5217H37.1151V11.7739ZM42.1499 7.51304C41.9644 7.48406 41.7644 7.53913 41.5499 7.67826C41.3412 7.81739 41.1499 7.9971 40.976 8.21739C40.8021 8.43768 40.663 8.68116 40.5586 8.94783C40.4543 9.2087 40.4137 9.45217 40.4369 9.67826C40.4543 9.82899 40.5123 9.98261 40.6108 10.1391C40.7094 10.2957 40.8253 10.4493 40.9586 10.6C41.0978 10.7449 41.2456 10.8754 41.4021 10.9913C41.5586 11.1014 41.7036 11.1826 41.8369 11.2348C42.0514 11.2116 42.2659 11.1594 42.4804 11.0783C42.6949 10.9971 42.8862 10.8754 43.0543 10.713C43.2224 10.5507 43.3586 10.342 43.463 10.087C43.5673 9.83188 43.6195 9.51884 43.6195 9.14783C43.6195 8.95652 43.5644 8.76812 43.4543 8.58261C43.3499 8.3971 43.2224 8.22899 43.0717 8.07826C42.9209 7.92174 42.7586 7.7942 42.5847 7.69565C42.4166 7.5913 42.2717 7.53043 42.1499 7.51304ZM45.9065 8.78261C45.9065 9.07246 45.8775 9.36232 45.8195 9.65217C45.7615 9.93623 45.6833 10.2174 45.5847 10.4957C45.4862 10.7681 45.3731 11.029 45.2456 11.2783C45.1238 11.5217 44.9934 11.7478 44.8543 11.9565H44.9325C45.3615 11.9565 45.7528 11.942 46.1065 11.913C46.4601 11.8783 46.7673 11.8145 47.0282 11.7217C47.2891 11.6232 47.4949 11.4899 47.6456 11.3217C47.8021 11.1478 47.8949 10.9188 47.9238 10.6348C47.9354 10.4957 47.8775 10.3449 47.7499 10.1826C47.6224 10.0145 47.4572 9.84928 47.2543 9.68696C47.0572 9.51884 46.8369 9.35652 46.5934 9.2C46.3499 9.04348 46.1209 8.90435 45.9065 8.78261ZM57.6008 12.0348C57.6298 11.542 57.7197 11.0551 57.8704 10.5739C58.0211 10.087 58.224 9.62609 58.4791 9.1913C58.7341 8.75072 59.0327 8.34493 59.3747 7.97391C59.7226 7.6029 60.1052 7.28116 60.5226 7.0087C60.9457 6.73623 61.3979 6.52464 61.8791 6.37391C62.366 6.21739 62.8733 6.13913 63.4008 6.13913C63.7892 6.13913 64.1892 6.1971 64.6008 6.31304C65.0182 6.42319 65.4356 6.58841 65.853 6.8087L64.8878 9.35652C64.6095 9.23478 64.3457 9.14203 64.0965 9.07826C63.8472 9.0087 63.6124 8.97391 63.3921 8.97391C63.0327 8.97391 62.6617 9.05217 62.2791 9.2087C61.9023 9.36522 61.5486 9.57681 61.2182 9.84348C60.8936 10.1043 60.6153 10.4087 60.3834 10.7565C60.1573 11.1043 60.0153 11.4696 59.9573 11.8522C59.9457 12.0145 59.9921 12.1478 60.0965 12.2522C60.2008 12.3565 60.3399 12.4464 60.5139 12.5217C60.6878 12.5971 60.8849 12.6638 61.1052 12.7217C61.3255 12.7739 61.5486 12.829 61.7747 12.887C62.2037 13.0029 62.6182 13.1217 63.0182 13.2435C63.424 13.3652 63.7805 13.5275 64.0878 13.7304C64.4008 13.9275 64.6501 14.1855 64.8356 14.5043C65.0269 14.8232 65.1226 15.2406 65.1226 15.7565C65.1226 16.371 65.0037 16.9159 64.766 17.3913C64.5341 17.8725 64.2182 18.2928 63.8182 18.6522C63.4182 19.0174 62.9544 19.3246 62.4269 19.5739C61.9052 19.8232 61.3573 20.0261 60.7834 20.1826C60.2095 20.3449 59.6269 20.4609 59.0356 20.5304C58.4443 20.6 57.8849 20.6348 57.3573 20.6348C56.3834 20.6348 55.4849 20.5072 54.6617 20.2522C53.8443 20.0029 53.1399 19.6319 52.5486 19.1391C51.9573 18.6522 51.4936 18.0464 51.1573 17.3217C50.8269 16.5971 50.6617 15.7623 50.6617 14.8174C50.6617 14.6667 50.6675 14.5159 50.6791 14.3652C50.6907 14.2145 50.7023 14.0725 50.7139 13.9391C50.7486 13.3072 50.8298 12.7014 50.9573 12.1217C51.0907 11.542 51.2298 11.0261 51.3747 10.5739C51.5255 10.1217 51.6617 9.75362 51.7834 9.46957C51.911 9.18551 51.9834 9.02319 52.0008 8.98261L54.1834 9.89565C54.0211 10.2783 53.8675 10.6609 53.7226 11.0435C53.5834 11.4261 53.4617 11.8174 53.3573 12.2174C53.253 12.6116 53.1689 13.0116 53.1052 13.4174C53.0472 13.8232 53.0182 14.2377 53.0182 14.6609C53.0182 15.2696 53.1399 15.7739 53.3834 16.1739C53.6269 16.5797 53.9486 16.9014 54.3486 17.1391C54.7544 17.3826 55.2182 17.5536 55.7399 17.6522C56.2617 17.7565 56.8008 17.8087 57.3573 17.8087C58.0936 17.8087 58.7805 17.7565 59.4182 17.6522C60.0617 17.5536 60.6269 17.4203 61.1139 17.2522C61.6008 17.0899 61.9921 16.8986 62.2878 16.6783C62.5892 16.4638 62.7631 16.2435 62.8095 16.0174C62.4443 15.9304 62.0559 15.8435 61.6443 15.7565C61.2385 15.6696 60.8356 15.5623 60.4356 15.4348C60.0414 15.313 59.6646 15.1623 59.3052 14.9826C58.9515 14.8029 58.6414 14.5797 58.3747 14.313C58.1139 14.0522 57.911 13.7362 57.766 13.3652C57.6211 12.9884 57.566 12.5449 57.6008 12.0348ZM70.6044 14.5217C69.845 14.5217 69.1001 14.3768 68.3696 14.087C67.645 13.7971 66.9725 13.3304 66.3522 12.687L67.9262 10.4696C68.2102 10.7304 68.4856 10.9449 68.7522 11.113C69.0189 11.2754 69.274 11.4029 69.5175 11.4957C69.7609 11.5884 69.9899 11.6522 70.2044 11.687C70.4247 11.7217 70.6305 11.7391 70.8218 11.7391C70.9783 11.7391 71.1464 11.7304 71.3262 11.713C71.5059 11.6899 71.6827 11.6551 71.8566 11.6087C72.0363 11.5623 72.2044 11.5043 72.3609 11.4348C72.5175 11.3652 72.6537 11.2783 72.7696 11.1739C72.5493 10.6406 72.3088 10.087 72.0479 9.51304C71.7928 8.93333 71.5349 8.35362 71.274 7.77391C71.0131 7.18841 70.7551 6.6087 70.5001 6.03478C70.245 5.46087 70.0073 4.91014 69.787 4.38261L72.3262 3.32174L75.1957 10.2522C75.3001 10.5072 75.3957 10.7304 75.4827 10.9217C75.5696 11.113 75.6711 11.2725 75.787 11.4C75.9088 11.5275 76.0508 11.6232 76.2131 11.687C76.3812 11.7449 76.5957 11.7739 76.8566 11.7739H77.1088V14.5217H76.8566C76.503 14.5217 76.1899 14.4986 75.9175 14.4522C75.6508 14.4058 75.4102 14.3391 75.1957 14.2522C74.987 14.171 74.7986 14.0725 74.6305 13.9565C74.4682 13.8348 74.3146 13.7014 74.1696 13.5565C73.903 13.7362 73.6363 13.887 73.3696 14.0087C73.103 14.1362 72.8247 14.2377 72.5349 14.313C72.245 14.3884 71.9406 14.4406 71.6218 14.4696C71.3088 14.5043 70.9696 14.5217 70.6044 14.5217ZM84.9984 11.7739V14.5217H76.7636V11.7739H84.9984ZM91.1325 11.7739V14.5217H90.9412C90.3788 14.5217 89.9035 14.4435 89.5151 14.287C89.1267 14.1304 88.7875 13.9159 88.4977 13.6435C88.0803 13.9507 87.5875 14.1739 87.0194 14.313C86.4571 14.4522 85.776 14.5217 84.976 14.5217H84.6542V11.7739H84.976C85.776 11.7739 86.3788 11.6435 86.7846 11.3826C87.1904 11.1217 87.3933 10.7304 87.3933 10.2087C87.3933 10.0348 87.3702 9.7913 87.3238 9.47826C87.2774 9.15942 87.1817 8.74203 87.0368 8.22609L89.4977 7.62609C89.5904 7.94493 89.6658 8.22899 89.7238 8.47826C89.7875 8.72174 89.8368 8.94493 89.8716 9.14783C89.9064 9.35072 89.9325 9.53913 89.9499 9.71304C89.9673 9.88116 89.9817 10.0464 89.9933 10.2087C90.0049 10.371 90.0223 10.5449 90.0455 10.7304C90.0687 10.9101 90.1122 11.0783 90.176 11.2348C90.2455 11.3913 90.3383 11.5217 90.4542 11.6261C90.576 11.7246 90.7383 11.7739 90.9412 11.7739H91.1325ZM87.4194 6.23478L85.489 4.30435L87.4194 2.37391L89.3499 4.30435L87.4194 6.23478ZM99.0218 11.7739V14.5217H90.787V11.7739H99.0218ZM106.912 11.7739V14.5217H98.6776V11.7739H106.912ZM106.568 11.7739H107.742C107.986 11.7739 108.252 11.7536 108.542 11.713C108.838 11.6725 109.11 11.6087 109.36 11.5217C109.615 11.429 109.826 11.3072 109.994 11.1565C110.168 11 110.255 10.8087 110.255 10.5826C110.255 10.4435 110.215 10.2377 110.133 9.96522C110.052 9.68696 109.945 9.37971 109.812 9.04348C109.678 8.70145 109.528 8.34493 109.36 7.97391C109.191 7.6029 109.023 7.24928 108.855 6.91304L111.342 5.67826C111.505 6.04348 111.664 6.43188 111.82 6.84348C111.983 7.25507 112.128 7.67246 112.255 8.09565C112.383 8.51884 112.484 8.94203 112.56 9.36522C112.641 9.78261 112.681 10.1826 112.681 10.5652C112.681 11.2609 112.565 11.858 112.333 12.3565C112.102 12.8551 111.777 13.2667 111.36 13.5913C110.942 13.9101 110.444 14.1449 109.864 14.2957C109.284 14.4464 108.647 14.5217 107.951 14.5217H106.568V11.7739ZM109.377 19.287L107.447 17.3565L109.377 15.4261L111.307 17.3565L109.377 19.287ZM117.684 13.3043C117.115 13.3043 116.582 13.2464 116.084 13.1304C115.585 13.0145 115.15 12.8348 114.779 12.5913C114.408 12.3478 114.115 12.0377 113.901 11.6609C113.686 11.2841 113.579 10.8319 113.579 10.3043C113.579 9.90435 113.652 9.52754 113.797 9.17391C113.947 8.81449 114.142 8.48116 114.379 8.17391C114.623 7.86087 114.895 7.57681 115.197 7.32174C115.504 7.06087 115.811 6.82899 116.118 6.62609C116.431 6.42319 116.73 6.25217 117.014 6.11304C117.304 5.97391 117.556 5.86667 117.771 5.7913C117.765 5.72174 117.759 5.65217 117.753 5.58261C117.747 5.50725 117.742 5.41739 117.736 5.31304C117.73 5.2087 117.721 5.08696 117.71 4.94783C117.698 4.8087 117.684 4.63768 117.666 4.43478L120.379 3.85217C120.501 4.94203 120.617 5.93623 120.727 6.83478C120.837 7.73333 120.933 8.50725 121.014 9.15652C121.101 9.8058 121.171 10.3159 121.223 10.687C121.281 11.058 121.315 11.2551 121.327 11.2783C121.414 11.4638 121.542 11.5942 121.71 11.6696C121.884 11.7391 122.118 11.7739 122.414 11.7739H122.605V14.5217H122.353C122.11 14.5217 121.828 14.4986 121.51 14.4522C121.191 14.4116 120.857 14.3101 120.51 14.1478C120.266 14.0319 120.052 13.9014 119.866 13.7565C119.686 13.6058 119.513 13.4174 119.344 13.1913C119.049 13.2319 118.762 13.2609 118.484 13.2783C118.211 13.2957 117.944 13.3043 117.684 13.3043ZM117.631 10.5739C117.753 10.5739 117.878 10.571 118.005 10.5652C118.139 10.5536 118.266 10.542 118.388 10.5304C118.371 10.4319 118.353 10.3246 118.336 10.2087C118.324 10.087 118.307 9.94203 118.284 9.77391C118.266 9.6 118.243 9.3942 118.214 9.15652C118.185 8.91884 118.153 8.62899 118.118 8.28696C117.898 8.3971 117.652 8.53043 117.379 8.68696C117.107 8.83768 116.849 9 116.605 9.17391C116.368 9.34203 116.168 9.51594 116.005 9.69565C115.843 9.86957 115.762 10.0319 115.762 10.1826C115.762 10.258 115.826 10.3217 115.953 10.3739C116.086 10.4203 116.249 10.4609 116.44 10.4957C116.631 10.5246 116.834 10.5449 117.049 10.5565C117.263 10.5681 117.457 10.5739 117.631 10.5739ZM130.487 11.7739V14.5217H122.252V11.7739H130.487ZM138.377 11.7739V14.5217H130.142V11.7739H138.377ZM145.79 11.7739V14.5217H145.59C145.311 14.5217 145.036 14.4986 144.764 14.4522C144.497 14.4058 144.245 14.3391 144.007 14.2522C143.769 14.171 143.549 14.0725 143.346 13.9565C143.149 13.8406 142.978 13.7159 142.833 13.5826C142.561 13.7913 142.248 13.9565 141.894 14.0783C141.546 14.2 141.175 14.2928 140.781 14.3565C140.393 14.4261 139.99 14.4696 139.572 14.487C139.161 14.5101 138.755 14.5217 138.355 14.5217H138.033V11.7739H138.355C138.772 11.7739 139.143 11.7623 139.468 11.7391C139.798 11.7159 140.085 11.6754 140.329 11.6174C140.578 11.5594 140.787 11.4841 140.955 11.3913C141.123 11.2928 141.259 11.171 141.364 11.0261C141.497 10.8406 141.578 10.6348 141.607 10.4087C141.642 10.1826 141.645 9.95072 141.616 9.71304C141.593 9.46957 141.549 9.22899 141.485 8.9913C141.422 8.74783 141.364 8.51594 141.311 8.29565L143.842 7.57391C143.911 7.83478 143.969 8.07246 144.016 8.28696C144.068 8.50145 144.111 8.71014 144.146 8.91304C144.187 9.11594 144.222 9.32174 144.251 9.53043C144.279 9.73913 144.311 9.96522 144.346 10.2087C144.369 10.3652 144.398 10.5362 144.433 10.7217C144.474 10.9014 144.537 11.0696 144.624 11.2261C144.711 11.3826 144.83 11.513 144.981 11.6174C145.137 11.7217 145.34 11.7739 145.59 11.7739H145.79ZM142.085 4.16522L140.451 5.8L138.764 4.12174L140.433 2.44348L142.085 4.09565L143.72 2.46087L145.407 4.13913L143.737 5.81739L142.085 4.16522ZM153.67 11.7739V14.5217H145.435V11.7739H153.67ZM161.561 11.7739V14.5217H153.326V11.7739H161.561ZM169.451 11.7739V14.5217H161.217V11.7739H169.451ZM169.281 11.7739C169.716 11.7739 170.081 11.658 170.377 11.4261C170.678 11.1884 170.933 10.8783 171.142 10.4957C171.357 10.113 171.536 9.67826 171.681 9.1913C171.832 8.69855 171.974 8.1971 172.107 7.68696L174.42 8.10435C174.374 8.30725 174.316 8.54493 174.246 8.81739C174.183 9.08406 174.122 9.36232 174.064 9.65217C174.012 9.94203 173.968 10.2261 173.933 10.5043C173.899 10.7768 173.89 11.0174 173.907 11.2261C173.931 11.4348 173.986 11.6 174.073 11.7217C174.16 11.8377 174.293 11.8812 174.473 11.8522C174.704 11.8348 174.913 11.7536 175.099 11.6087C175.29 11.4638 175.461 11.2783 175.612 11.0522C175.762 10.8261 175.896 10.571 176.012 10.287C176.128 10.0029 176.226 9.71014 176.307 9.4087C176.394 9.10725 176.464 8.8087 176.516 8.51304C176.574 8.21739 176.62 7.94783 176.655 7.70435L178.864 8.07826C178.858 8.25217 178.838 8.46667 178.803 8.72174C178.768 8.97681 178.736 9.24638 178.707 9.53043C178.678 9.8087 178.664 10.0899 178.664 10.3739C178.664 10.6522 178.696 10.9043 178.76 11.1304C178.823 11.3507 178.928 11.5304 179.073 11.6696C179.223 11.8087 179.432 11.8783 179.699 11.8783C179.861 11.8783 180.026 11.8522 180.194 11.8C180.362 11.742 180.513 11.6638 180.646 11.5652C180.78 11.4609 180.887 11.3391 180.968 11.2C181.055 11.0609 181.099 10.9043 181.099 10.7304C181.099 10.429 181.049 10.0986 180.951 9.73913C180.852 9.37391 180.731 9.01449 180.586 8.66087C180.446 8.30145 180.302 7.96232 180.151 7.64348C180 7.32464 179.873 7.05507 179.768 6.83478L181.925 5.62609L182.107 6.02609C182.194 6.21159 182.293 6.43768 182.403 6.70435C182.513 6.97101 182.626 7.27246 182.742 7.6087C182.864 7.93913 182.974 8.28406 183.073 8.64348C183.171 9.0029 183.252 9.37101 183.316 9.74783C183.38 10.1246 183.412 10.4899 183.412 10.8435C183.412 11.4232 183.331 11.9449 183.168 12.4087C183.012 12.8725 182.771 13.2667 182.446 13.5913C182.128 13.9159 181.725 14.1681 181.238 14.3478C180.757 14.5275 180.191 14.6203 179.542 14.6261C179.229 14.6261 178.945 14.5942 178.69 14.5304C178.435 14.4725 178.203 14.3913 177.994 14.287C177.791 14.1826 177.612 14.058 177.455 13.913C177.299 13.7681 177.16 13.6116 177.038 13.4435C176.899 13.6232 176.748 13.7855 176.586 13.9304C176.429 14.0696 176.246 14.1884 176.038 14.287C175.835 14.3913 175.606 14.4725 175.351 14.5304C175.096 14.5884 174.806 14.6203 174.481 14.6261C174.197 14.6319 173.939 14.6058 173.707 14.5478C173.481 14.4957 173.273 14.4174 173.081 14.313C172.89 14.2087 172.716 14.0841 172.56 13.9391C172.409 13.7884 172.267 13.6232 172.133 13.4435C172.012 13.5942 171.873 13.7362 171.716 13.8696C171.56 13.9971 171.374 14.1101 171.16 14.2087C170.945 14.3072 170.696 14.3826 170.412 14.4348C170.128 14.4928 169.797 14.5217 169.42 14.5217H169.107V11.7739H169.281ZM185.061 10.4609C185.304 10.6174 185.588 10.7739 185.913 10.9304C186.243 11.087 186.579 11.2319 186.921 11.3652C187.269 11.4928 187.605 11.5971 187.93 11.6783C188.255 11.7594 188.536 11.8 188.774 11.8C188.907 11.8 189.09 11.7884 189.321 11.7652C189.559 11.742 189.791 11.6986 190.017 11.6348C190.249 11.5652 190.449 11.4696 190.617 11.3478C190.791 11.2261 190.884 11.0667 190.895 10.8696C190.901 10.6435 190.832 10.3884 190.687 10.1043C190.547 9.82029 190.356 9.52464 190.113 9.21739C189.875 8.90435 189.597 8.5913 189.278 8.27826C188.965 7.95942 188.64 7.65507 188.304 7.36522C187.968 7.06957 187.632 6.7971 187.295 6.54783C186.959 6.29275 186.649 6.07536 186.365 5.89565L187.904 3.6087C188.466 4.0029 189.023 4.44638 189.574 4.93913C190.13 5.42609 190.64 5.94203 191.104 6.48696C191.574 7.03188 191.979 7.5971 192.321 8.18261C192.669 8.76232 192.919 9.34783 193.069 9.93913C193.116 10.1072 193.147 10.2783 193.165 10.4522C193.182 10.6203 193.191 10.7826 193.191 10.9391C193.191 11.4783 193.087 11.9739 192.878 12.4261C192.669 12.8725 192.376 13.2609 192 13.5913C191.629 13.9159 191.182 14.1681 190.661 14.3478C190.139 14.5275 189.565 14.6174 188.939 14.6174C188.892 14.6174 188.846 14.6145 188.8 14.6087C188.753 14.6087 188.707 14.6087 188.661 14.6087C188.261 14.6087 187.849 14.5652 187.426 14.4783C187.008 14.3971 186.594 14.287 186.182 14.1478C185.776 14.0087 185.379 13.8464 184.991 13.6609C184.608 13.4754 184.252 13.2812 183.921 13.0783L185.061 10.4609Z" fill="#F0F9FB"/>
</svg>
