<svg width="193" height="21" viewBox="0 0 193 21" fill="none" xmlns="http://www.w3.org/2000/svg">
<path d="M7.40648 12.0348C7.43547 11.542 7.52532 11.0551 7.67604 10.5739C7.82677 10.087 8.02967 9.62609 8.28474 9.1913C8.53981 8.75072 8.83836 8.34493 9.18039 7.97391C9.52822 7.6029 9.91083 7.28116 10.3282 7.0087C10.7514 6.73623 11.2036 6.52464 11.6847 6.37391C12.1717 6.21739 12.6789 6.13913 13.2065 6.13913C13.5949 6.13913 13.9949 6.1971 14.4065 6.31304C14.8239 6.42319 15.2413 6.58841 15.6587 6.8087L14.6934 9.35652C14.4152 9.23478 14.1514 9.14203 13.9021 9.07826C13.6529 9.0087 13.4181 8.97391 13.1978 8.97391C12.8384 8.97391 12.4673 9.05217 12.0847 9.2087C11.7079 9.36522 11.3543 9.57681 11.0239 9.84348C10.6992 10.1043 10.421 10.4087 10.1891 10.7565C9.963 11.1043 9.82097 11.4696 9.763 11.8522C9.75141 12.0145 9.79778 12.1478 9.90213 12.2522C10.0065 12.3565 10.1456 12.4464 10.3195 12.5217C10.4934 12.5971 10.6905 12.6638 10.9108 12.7217C11.1311 12.7739 11.3543 12.829 11.5804 12.887C12.0094 13.0029 12.4239 13.1217 12.8239 13.2435C13.2297 13.3652 13.5862 13.5275 13.8934 13.7304C14.2065 13.9275 14.4558 14.1855 14.6413 14.5043C14.8326 14.8232 14.9282 15.2406 14.9282 15.7565C14.9282 16.371 14.8094 16.9159 14.5717 17.3913C14.3398 17.8725 14.0239 18.2928 13.6239 18.6522C13.2239 19.0174 12.7601 19.3246 12.2326 19.5739C11.7108 19.8232 11.163 20.0261 10.5891 20.1826C10.0152 20.3449 9.43257 20.4609 8.84126 20.5304C8.24996 20.6 7.69054 20.6348 7.163 20.6348C6.18909 20.6348 5.29054 20.5072 4.46735 20.2522C3.64996 20.0029 2.94561 19.6319 2.35431 19.1391C1.763 18.6522 1.29923 18.0464 0.963001 17.3217C0.632566 16.5971 0.467349 15.7623 0.467349 14.8174C0.467349 14.6667 0.473146 14.5159 0.48474 14.3652C0.496334 14.2145 0.507929 14.0725 0.519523 13.9391C0.554305 13.3072 0.635465 12.7014 0.763001 12.1217C0.896334 11.542 1.03546 11.0261 1.18039 10.5739C1.33112 10.1217 1.46735 9.75362 1.58909 9.46957C1.71662 9.18551 1.78909 9.02319 1.80648 8.98261L3.98909 9.89565C3.82677 10.2783 3.67315 10.6609 3.52822 11.0435C3.38909 11.4261 3.26735 11.8174 3.163 12.2174C3.05865 12.6116 2.9746 13.0116 2.91083 13.4174C2.85286 13.8232 2.82387 14.2377 2.82387 14.6609C2.82387 15.2696 2.94561 15.7739 3.18909 16.1739C3.43257 16.5797 3.75431 16.9014 4.15431 17.1391C4.5601 17.3826 5.02387 17.5536 5.54561 17.6522C6.06735 17.7565 6.60648 17.8087 7.163 17.8087C7.89923 17.8087 8.58619 17.7565 9.22387 17.6522C9.86735 17.5536 10.4326 17.4203 10.9195 17.2522C11.4065 17.0899 11.7978 16.8986 12.0934 16.6783C12.3949 16.4638 12.5688 16.2435 12.6152 16.0174C12.25 15.9304 11.8616 15.8435 11.45 15.7565C11.0442 15.6696 10.6413 15.5623 10.2413 15.4348C9.84706 15.313 9.47025 15.1623 9.11083 14.9826C8.7572 14.8029 8.44706 14.5797 8.18039 14.313C7.91952 14.0522 7.71662 13.7362 7.5717 13.3652C7.42677 12.9884 7.3717 12.5449 7.40648 12.0348ZM21.1231 14.5217C20.3985 14.5217 19.784 14.4232 19.2796 14.2261C18.7753 14.0348 18.3637 13.7681 18.0449 13.4261C17.726 13.0841 17.4941 12.6812 17.3492 12.2174C17.2101 11.7478 17.1405 11.2406 17.1405 10.6957C17.1405 10.4174 17.1463 10.0725 17.1579 9.66087C17.1695 9.24348 17.1753 8.76232 17.1753 8.21739C17.1753 7.67246 17.1724 7.07536 17.1666 6.42609C17.1608 5.77101 17.1434 5.11594 17.1144 4.46087C17.0912 3.8058 17.0536 3.17681 17.0014 2.57391C16.955 1.97101 16.8883 1.44638 16.8014 0.999999L19.4014 0.208695C19.4767 0.591304 19.5376 1.04348 19.584 1.56522C19.6362 2.08116 19.6767 2.62319 19.7057 3.1913C19.7347 3.75942 19.755 4.33043 19.7666 4.90435C19.784 5.47826 19.7956 6.01159 19.8014 6.50435C19.8072 6.93913 19.7985 7.3971 19.7753 7.87826C19.7579 8.35362 19.7434 8.81159 19.7318 9.25217C19.7202 9.68696 19.7231 10.0812 19.7405 10.4348C19.7637 10.7884 19.8188 11.058 19.9057 11.2435C19.9579 11.3768 20.0217 11.4783 20.097 11.5478C20.1782 11.6174 20.2709 11.6696 20.3753 11.7043C20.4796 11.7391 20.5927 11.7594 20.7144 11.7652C20.842 11.771 20.9811 11.7739 21.1318 11.7739H21.3666V14.5217H21.1231ZM29.2572 11.7739V14.5217H21.0224V11.7739H29.2572ZM37.1478 11.7739V14.5217H28.913V11.7739H37.1478ZM36.8036 11.7739H37.3428C37.4065 11.7739 37.479 11.771 37.5601 11.7652C37.6471 11.7594 37.7515 11.7536 37.8732 11.7478C38.0007 11.742 38.1717 11.7333 38.3862 11.7217C38.1833 11.3739 38.0297 11.0058 37.9254 10.6174C37.821 10.2232 37.7688 9.82609 37.7688 9.42609C37.7688 8.81159 37.8848 8.22319 38.1167 7.66087C38.3486 7.09275 38.6993 6.6058 39.1688 6.2L38.7167 5.94783L40.3949 3.47826C41.1312 3.86087 41.8529 4.22319 42.5601 4.56522C43.2732 4.90725 43.9544 5.22609 44.6036 5.52174C45.1544 5.77681 45.6413 6.0029 46.0645 6.2C46.4935 6.3913 46.879 6.58261 47.221 6.77391C47.563 6.95942 47.8703 7.15652 48.1428 7.36522C48.4152 7.57391 48.6703 7.81739 48.908 8.09565C49.2094 8.47826 49.4268 8.89565 49.5601 9.34783C49.6935 9.8 49.7601 10.2377 49.7601 10.6609C49.7601 11.3101 49.592 11.9246 49.2558 12.5043C48.9254 13.0783 48.4355 13.5594 47.7862 13.9478C47.6065 14.0522 47.3833 14.142 47.1167 14.2174C46.8558 14.2928 46.5804 14.3536 46.2906 14.4C46.0065 14.4522 45.7254 14.4899 45.4471 14.513C45.1688 14.5362 44.9254 14.5478 44.7167 14.5478C44.4732 14.5478 44.2094 14.5362 43.9254 14.513C43.6413 14.4957 43.3544 14.4638 43.0645 14.4174C42.7804 14.3768 42.5022 14.3217 42.2297 14.2522C41.9572 14.1826 41.708 14.1014 41.4819 14.0087C41.2036 14.0899 40.8906 14.1623 40.5428 14.2261C40.2007 14.2899 39.8384 14.342 39.4558 14.3826C39.079 14.429 38.6906 14.4638 38.2906 14.487C37.8964 14.5101 37.508 14.5217 37.1254 14.5217H36.8036V11.7739ZM41.8384 7.51304C41.6529 7.48406 41.4529 7.53913 41.2384 7.67826C41.0297 7.81739 40.8384 7.9971 40.6645 8.21739C40.4906 8.43768 40.3515 8.68116 40.2471 8.94783C40.1428 9.2087 40.1022 9.45217 40.1254 9.67826C40.1428 9.82899 40.2007 9.98261 40.2993 10.1391C40.3978 10.2957 40.5138 10.4493 40.6471 10.6C40.7862 10.7449 40.9341 10.8754 41.0906 10.9913C41.2471 11.1014 41.392 11.1826 41.5254 11.2348C41.7399 11.2116 41.9544 11.1594 42.1688 11.0783C42.3833 10.9971 42.5746 10.8754 42.7428 10.713C42.9109 10.5507 43.0471 10.342 43.1515 10.087C43.2558 9.83188 43.308 9.51884 43.308 9.14783C43.308 8.95652 43.2529 8.76812 43.1428 8.58261C43.0384 8.3971 42.9109 8.22899 42.7601 8.07826C42.6094 7.92174 42.4471 7.7942 42.2732 7.69565C42.1051 7.5913 41.9601 7.53043 41.8384 7.51304ZM45.5949 8.78261C45.5949 9.07246 45.5659 9.36232 45.508 9.65217C45.45 9.93623 45.3717 10.2174 45.2732 10.4957C45.1746 10.7681 45.0616 11.029 44.9341 11.2783C44.8123 11.5217 44.6819 11.7478 44.5428 11.9565H44.621C45.05 11.9565 45.4413 11.942 45.7949 11.913C46.1486 11.8783 46.4558 11.8145 46.7167 11.7217C46.9775 11.6232 47.1833 11.4899 47.3341 11.3217C47.4906 11.1478 47.5833 10.9188 47.6123 10.6348C47.6239 10.4957 47.5659 10.3449 47.4384 10.1826C47.3109 10.0145 47.1457 9.84928 46.9428 9.68696C46.7457 9.51884 46.5254 9.35652 46.2819 9.2C46.0384 9.04348 45.8094 8.90435 45.5949 8.78261ZM57.2893 12.0348C57.3183 11.542 57.4081 11.0551 57.5589 10.5739C57.7096 10.087 57.9125 9.62609 58.1676 9.1913C58.4226 8.75072 58.7212 8.34493 59.0632 7.97391C59.411 7.6029 59.7936 7.28116 60.211 7.0087C60.6342 6.73623 61.0864 6.52464 61.5676 6.37391C62.0545 6.21739 62.5618 6.13913 63.0893 6.13913C63.4777 6.13913 63.8777 6.1971 64.2893 6.31304C64.7067 6.42319 65.1241 6.58841 65.5415 6.8087L64.5762 9.35652C64.298 9.23478 64.0342 9.14203 63.7849 9.07826C63.5357 9.0087 63.3009 8.97391 63.0806 8.97391C62.7212 8.97391 62.3502 9.05217 61.9676 9.2087C61.5907 9.36522 61.2371 9.57681 60.9067 9.84348C60.582 10.1043 60.3038 10.4087 60.0719 10.7565C59.8458 11.1043 59.7038 11.4696 59.6458 11.8522C59.6342 12.0145 59.6806 12.1478 59.7849 12.2522C59.8893 12.3565 60.0284 12.4464 60.2023 12.5217C60.3762 12.5971 60.5734 12.6638 60.7936 12.7217C61.0139 12.7739 61.2371 12.829 61.4632 12.887C61.8922 13.0029 62.3067 13.1217 62.7067 13.2435C63.1125 13.3652 63.469 13.5275 63.7762 13.7304C64.0893 13.9275 64.3386 14.1855 64.5241 14.5043C64.7154 14.8232 64.811 15.2406 64.811 15.7565C64.811 16.371 64.6922 16.9159 64.4545 17.3913C64.2226 17.8725 63.9067 18.2928 63.5067 18.6522C63.1067 19.0174 62.6429 19.3246 62.1154 19.5739C61.5936 19.8232 61.0458 20.0261 60.4719 20.1826C59.898 20.3449 59.3154 20.4609 58.7241 20.5304C58.1328 20.6 57.5733 20.6348 57.0458 20.6348C56.0719 20.6348 55.1733 20.5072 54.3502 20.2522C53.5328 20.0029 52.8284 19.6319 52.2371 19.1391C51.6458 18.6522 51.182 18.0464 50.8458 17.3217C50.5154 16.5971 50.3502 15.7623 50.3502 14.8174C50.3502 14.6667 50.356 14.5159 50.3676 14.3652C50.3791 14.2145 50.3907 14.0725 50.4023 13.9391C50.4371 13.3072 50.5183 12.7014 50.6458 12.1217C50.7791 11.542 50.9183 11.0261 51.0632 10.5739C51.2139 10.1217 51.3502 9.75362 51.4719 9.46957C51.5994 9.18551 51.6719 9.02319 51.6893 8.98261L53.8719 9.89565C53.7096 10.2783 53.556 10.6609 53.411 11.0435C53.2719 11.4261 53.1502 11.8174 53.0458 12.2174C52.9415 12.6116 52.8574 13.0116 52.7936 13.4174C52.7357 13.8232 52.7067 14.2377 52.7067 14.6609C52.7067 15.2696 52.8284 15.7739 53.0719 16.1739C53.3154 16.5797 53.6371 16.9014 54.0371 17.1391C54.4429 17.3826 54.9067 17.5536 55.4284 17.6522C55.9502 17.7565 56.4893 17.8087 57.0458 17.8087C57.782 17.8087 58.469 17.7565 59.1067 17.6522C59.7502 17.5536 60.3154 17.4203 60.8023 17.2522C61.2893 17.0899 61.6806 16.8986 61.9762 16.6783C62.2777 16.4638 62.4516 16.2435 62.498 16.0174C62.1328 15.9304 61.7444 15.8435 61.3328 15.7565C60.927 15.6696 60.5241 15.5623 60.1241 15.4348C59.7299 15.313 59.3531 15.1623 58.9936 14.9826C58.64 14.8029 58.3299 14.5797 58.0632 14.313C57.8023 14.0522 57.5994 13.7362 57.4545 13.3652C57.3096 12.9884 57.2545 12.5449 57.2893 12.0348ZM70.2929 14.5217C69.5335 14.5217 68.7885 14.3768 68.0581 14.087C67.3335 13.7971 66.661 13.3304 66.0407 12.687L67.6146 10.4696C67.8987 10.7304 68.1741 10.9449 68.4407 11.113C68.7074 11.2754 68.9625 11.4029 69.2059 11.4957C69.4494 11.5884 69.6784 11.6522 69.8929 11.687C70.1132 11.7217 70.319 11.7391 70.5103 11.7391C70.6668 11.7391 70.8349 11.7304 71.0146 11.713C71.1943 11.6899 71.3712 11.6551 71.5451 11.6087C71.7248 11.5623 71.8929 11.5043 72.0494 11.4348C72.2059 11.3652 72.3422 11.2783 72.4581 11.1739C72.2378 10.6406 71.9972 10.087 71.7364 9.51304C71.4813 8.93333 71.2233 8.35362 70.9625 7.77391C70.7016 7.18841 70.4436 6.6087 70.1885 6.03478C69.9335 5.46087 69.6958 4.91014 69.4755 4.38261L72.0146 3.32174L74.8842 10.2522C74.9885 10.5072 75.0842 10.7304 75.1712 10.9217C75.2581 11.113 75.3596 11.2725 75.4755 11.4C75.5972 11.5275 75.7393 11.6232 75.9016 11.687C76.0697 11.7449 76.2842 11.7739 76.5451 11.7739H76.7972V14.5217H76.5451C76.1914 14.5217 75.8784 14.4986 75.6059 14.4522C75.3393 14.4058 75.0987 14.3391 74.8842 14.2522C74.6755 14.171 74.4871 14.0725 74.319 13.9565C74.1567 13.8348 74.003 13.7014 73.8581 13.5565C73.5914 13.7362 73.3248 13.887 73.0581 14.0087C72.7914 14.1362 72.5132 14.2377 72.2233 14.313C71.9335 14.3884 71.6291 14.4406 71.3103 14.4696C70.9972 14.5043 70.6581 14.5217 70.2929 14.5217ZM84.6868 11.7739V14.5217H76.4521V11.7739H84.6868ZM90.8209 11.7739V14.5217H90.6296C90.0673 14.5217 89.592 14.4435 89.2036 14.287C88.8152 14.1304 88.476 13.9159 88.1862 13.6435C87.7688 13.9507 87.276 14.1739 86.7079 14.313C86.1456 14.4522 85.4644 14.5217 84.6644 14.5217H84.3427V11.7739H84.6644C85.4644 11.7739 86.0673 11.6435 86.4731 11.3826C86.8789 11.1217 87.0818 10.7304 87.0818 10.2087C87.0818 10.0348 87.0586 9.7913 87.0123 9.47826C86.9659 9.15942 86.8702 8.74203 86.7253 8.22609L89.1862 7.62609C89.2789 7.94493 89.3543 8.22899 89.4123 8.47826C89.476 8.72174 89.5253 8.94493 89.5601 9.14783C89.5949 9.35072 89.6209 9.53913 89.6383 9.71304C89.6557 9.88116 89.6702 10.0464 89.6818 10.2087C89.6934 10.371 89.7108 10.5449 89.734 10.7304C89.7572 10.9101 89.8007 11.0783 89.8644 11.2348C89.934 11.3913 90.0267 11.5217 90.1427 11.6261C90.2644 11.7246 90.4267 11.7739 90.6296 11.7739H90.8209ZM87.1079 6.23478L85.1775 4.30435L87.1079 2.37391L89.0383 4.30435L87.1079 6.23478ZM98.7103 11.7739V14.5217H90.4755V11.7739H98.7103ZM106.601 11.7739V14.5217H98.3661V11.7739H106.601ZM106.257 11.7739H107.431C107.674 11.7739 107.941 11.7536 108.231 11.713C108.526 11.6725 108.799 11.6087 109.048 11.5217C109.303 11.429 109.515 11.3072 109.683 11.1565C109.857 11 109.944 10.8087 109.944 10.5826C109.944 10.4435 109.903 10.2377 109.822 9.96522C109.741 9.68696 109.634 9.37971 109.5 9.04348C109.367 8.70145 109.216 8.34493 109.048 7.97391C108.88 7.6029 108.712 7.24928 108.544 6.91304L111.031 5.67826C111.193 6.04348 111.352 6.43188 111.509 6.84348C111.671 7.25507 111.816 7.67246 111.944 8.09565C112.071 8.51884 112.173 8.94203 112.248 9.36522C112.329 9.78261 112.37 10.1826 112.37 10.5652C112.37 11.2609 112.254 11.858 112.022 12.3565C111.79 12.8551 111.465 13.2667 111.048 13.5913C110.631 13.9101 110.132 14.1449 109.552 14.2957C108.973 14.4464 108.335 14.5217 107.639 14.5217H106.257V11.7739ZM109.065 19.287L107.135 17.3565L109.065 15.4261L110.996 17.3565L109.065 19.287ZM117.372 13.3043C116.804 13.3043 116.271 13.2464 115.772 13.1304C115.273 13.0145 114.839 12.8348 114.468 12.5913C114.097 12.3478 113.804 12.0377 113.589 11.6609C113.375 11.2841 113.268 10.8319 113.268 10.3043C113.268 9.90435 113.34 9.52754 113.485 9.17391C113.636 8.81449 113.83 8.48116 114.068 8.17391C114.311 7.86087 114.584 7.57681 114.885 7.32174C115.192 7.06087 115.5 6.82899 115.807 6.62609C116.12 6.42319 116.418 6.25217 116.702 6.11304C116.992 5.97391 117.245 5.86667 117.459 5.7913C117.453 5.72174 117.447 5.65217 117.442 5.58261C117.436 5.50725 117.43 5.41739 117.424 5.31304C117.418 5.2087 117.41 5.08696 117.398 4.94783C117.387 4.8087 117.372 4.63768 117.355 4.43478L120.068 3.85217C120.189 4.94203 120.305 5.93623 120.416 6.83478C120.526 7.73333 120.621 8.50725 120.702 9.15652C120.789 9.8058 120.859 10.3159 120.911 10.687C120.969 11.058 121.004 11.2551 121.016 11.2783C121.102 11.4638 121.23 11.5942 121.398 11.6696C121.572 11.7391 121.807 11.7739 122.102 11.7739H122.294V14.5217H122.042C121.798 14.5217 121.517 14.4986 121.198 14.4522C120.879 14.4116 120.546 14.3101 120.198 14.1478C119.955 14.0319 119.74 13.9014 119.555 13.7565C119.375 13.6058 119.201 13.4174 119.033 13.1913C118.737 13.2319 118.45 13.2609 118.172 13.2783C117.9 13.2957 117.633 13.3043 117.372 13.3043ZM117.32 10.5739C117.442 10.5739 117.566 10.571 117.694 10.5652C117.827 10.5536 117.955 10.542 118.076 10.5304C118.059 10.4319 118.042 10.3246 118.024 10.2087C118.013 10.087 117.995 9.94203 117.972 9.77391C117.955 9.6 117.931 9.3942 117.902 9.15652C117.873 8.91884 117.842 8.62899 117.807 8.28696C117.587 8.3971 117.34 8.53043 117.068 8.68696C116.795 8.83768 116.537 9 116.294 9.17391C116.056 9.34203 115.856 9.51594 115.694 9.69565C115.531 9.86957 115.45 10.0319 115.45 10.1826C115.45 10.258 115.514 10.3217 115.642 10.3739C115.775 10.4203 115.937 10.4609 116.129 10.4957C116.32 10.5246 116.523 10.5449 116.737 10.5565C116.952 10.5681 117.146 10.5739 117.32 10.5739ZM130.175 11.7739V14.5217H121.94V11.7739H130.175ZM138.066 11.7739V14.5217H129.831V11.7739H138.066ZM145.478 11.7739V14.5217H145.278C145 14.5217 144.724 14.4986 144.452 14.4522C144.185 14.4058 143.933 14.3391 143.696 14.2522C143.458 14.171 143.238 14.0725 143.035 13.9565C142.838 13.8406 142.667 13.7159 142.522 13.5826C142.249 13.7913 141.936 13.9565 141.582 14.0783C141.235 14.2 140.864 14.2928 140.469 14.3565C140.081 14.4261 139.678 14.4696 139.261 14.487C138.849 14.5101 138.443 14.5217 138.043 14.5217H137.722V11.7739H138.043C138.461 11.7739 138.832 11.7623 139.156 11.7391C139.487 11.7159 139.774 11.6754 140.017 11.6174C140.267 11.5594 140.475 11.4841 140.643 11.3913C140.811 11.2928 140.948 11.171 141.052 11.0261C141.185 10.8406 141.267 10.6348 141.296 10.4087C141.33 10.1826 141.333 9.95072 141.304 9.71304C141.281 9.46957 141.238 9.22899 141.174 8.9913C141.11 8.74783 141.052 8.51594 141 8.29565L143.53 7.57391C143.6 7.83478 143.658 8.07246 143.704 8.28696C143.756 8.50145 143.8 8.71014 143.835 8.91304C143.875 9.11594 143.91 9.32174 143.939 9.53043C143.968 9.73913 144 9.96522 144.035 10.2087C144.058 10.3652 144.087 10.5362 144.122 10.7217C144.162 10.9014 144.226 11.0696 144.313 11.2261C144.4 11.3826 144.519 11.513 144.669 11.6174C144.826 11.7217 145.029 11.7739 145.278 11.7739H145.478ZM141.774 4.16522L140.139 5.8L138.452 4.12174L140.122 2.44348L141.774 4.09565L143.409 2.46087L145.096 4.13913L143.426 5.81739L141.774 4.16522ZM153.359 11.7739V14.5217H145.124V11.7739H153.359ZM161.249 11.7739V14.5217H153.015V11.7739H161.249ZM169.14 11.7739V14.5217H160.905V11.7739H169.14ZM168.97 11.7739C169.405 11.7739 169.77 11.658 170.065 11.4261C170.367 11.1884 170.622 10.8783 170.831 10.4957C171.045 10.113 171.225 9.67826 171.37 9.1913C171.52 8.69855 171.662 8.1971 171.796 7.68696L174.109 8.10435C174.062 8.30725 174.005 8.54493 173.935 8.81739C173.871 9.08406 173.81 9.36232 173.752 9.65217C173.7 9.94203 173.657 10.2261 173.622 10.5043C173.587 10.7768 173.578 11.0174 173.596 11.2261C173.619 11.4348 173.674 11.6 173.761 11.7217C173.848 11.8377 173.981 11.8812 174.161 11.8522C174.393 11.8348 174.602 11.7536 174.787 11.6087C174.978 11.4638 175.149 11.2783 175.3 11.0522C175.451 10.8261 175.584 10.571 175.7 10.287C175.816 10.0029 175.915 9.71014 175.996 9.4087C176.083 9.10725 176.152 8.8087 176.205 8.51304C176.262 8.21739 176.309 7.94783 176.344 7.70435L178.552 8.07826C178.547 8.25217 178.526 8.46667 178.491 8.72174C178.457 8.97681 178.425 9.24638 178.396 9.53043C178.367 9.8087 178.352 10.0899 178.352 10.3739C178.352 10.6522 178.384 10.9043 178.448 11.1304C178.512 11.3507 178.616 11.5304 178.761 11.6696C178.912 11.8087 179.12 11.8783 179.387 11.8783C179.549 11.8783 179.715 11.8522 179.883 11.8C180.051 11.742 180.202 11.6638 180.335 11.5652C180.468 11.4609 180.576 11.3391 180.657 11.2C180.744 11.0609 180.787 10.9043 180.787 10.7304C180.787 10.429 180.738 10.0986 180.639 9.73913C180.541 9.37391 180.419 9.01449 180.274 8.66087C180.135 8.30145 179.99 7.96232 179.839 7.64348C179.689 7.32464 179.561 7.05507 179.457 6.83478L181.613 5.62609L181.796 6.02609C181.883 6.21159 181.981 6.43768 182.091 6.70435C182.202 6.97101 182.315 7.27246 182.431 7.6087C182.552 7.93913 182.662 8.28406 182.761 8.64348C182.86 9.0029 182.941 9.37101 183.005 9.74783C183.068 10.1246 183.1 10.4899 183.1 10.8435C183.1 11.4232 183.019 11.9449 182.857 12.4087C182.7 12.8725 182.46 13.2667 182.135 13.5913C181.816 13.9159 181.413 14.1681 180.926 14.3478C180.445 14.5275 179.88 14.6203 179.231 14.6261C178.918 14.6261 178.633 14.5942 178.378 14.5304C178.123 14.4725 177.891 14.3913 177.683 14.287C177.48 14.1826 177.3 14.058 177.144 13.913C176.987 13.7681 176.848 13.6116 176.726 13.4435C176.587 13.6232 176.436 13.7855 176.274 13.9304C176.118 14.0696 175.935 14.1884 175.726 14.287C175.523 14.3913 175.294 14.4725 175.039 14.5304C174.784 14.5884 174.494 14.6203 174.17 14.6261C173.886 14.6319 173.628 14.6058 173.396 14.5478C173.17 14.4957 172.961 14.4174 172.77 14.313C172.578 14.2087 172.405 14.0841 172.248 13.9391C172.097 13.7884 171.955 13.6232 171.822 13.4435C171.7 13.5942 171.561 13.7362 171.405 13.8696C171.248 13.9971 171.062 14.1101 170.848 14.2087C170.633 14.3072 170.384 14.3826 170.1 14.4348C169.816 14.4928 169.486 14.5217 169.109 14.5217H168.796V11.7739H168.97ZM184.749 10.4609C184.992 10.6174 185.277 10.7739 185.601 10.9304C185.932 11.087 186.268 11.2319 186.61 11.3652C186.958 11.4928 187.294 11.5971 187.619 11.6783C187.943 11.7594 188.224 11.8 188.462 11.8C188.595 11.8 188.778 11.7884 189.01 11.7652C189.248 11.742 189.479 11.6986 189.706 11.6348C189.937 11.5652 190.137 11.4696 190.306 11.3478C190.479 11.2261 190.572 11.0667 190.584 10.8696C190.59 10.6435 190.52 10.3884 190.375 10.1043C190.236 9.82029 190.045 9.52464 189.801 9.21739C189.563 8.90435 189.285 8.5913 188.966 8.27826C188.653 7.95942 188.329 7.65507 187.992 7.36522C187.656 7.06957 187.32 6.7971 186.984 6.54783C186.648 6.29275 186.337 6.07536 186.053 5.89565L187.592 3.6087C188.155 4.0029 188.711 4.44638 189.262 4.93913C189.819 5.42609 190.329 5.94203 190.792 6.48696C191.262 7.03188 191.668 7.5971 192.01 8.18261C192.358 8.76232 192.607 9.34783 192.758 9.93913C192.804 10.1072 192.836 10.2783 192.853 10.4522C192.871 10.6203 192.879 10.7826 192.879 10.9391C192.879 11.4783 192.775 11.9739 192.566 12.4261C192.358 12.8725 192.065 13.2609 191.688 13.5913C191.317 13.9159 190.871 14.1681 190.349 14.3478C189.827 14.5275 189.253 14.6174 188.627 14.6174C188.581 14.6174 188.535 14.6145 188.488 14.6087C188.442 14.6087 188.395 14.6087 188.349 14.6087C187.949 14.6087 187.537 14.5652 187.114 14.4783C186.697 14.3971 186.282 14.287 185.871 14.1478C185.465 14.0087 185.068 13.8464 184.679 13.6609C184.297 13.4754 183.94 13.2812 183.61 13.0783L184.749 10.4609Z" fill="#F0F9FB"/>
</svg>
