<svg width="24" height="24" viewBox="0 0 24 24" fill="none" xmlns="http://www.w3.org/2000/svg">
<path d="M12 14.75C12.1339 14.75 12.25 14.8661 12.25 15V18C12.25 18.1339 12.1339 18.25 12 18.25C11.8661 18.25 11.75 18.1339 11.75 18V15C11.75 14.8661 11.8661 14.75 12 14.75Z" fill="white" stroke="white"/>
<path d="M9.91406 2.61914C11.0683 1.689 12.9179 1.69394 14.0879 2.62988L21.0176 8.16992C21.4235 8.49759 21.772 9.01158 21.9951 9.59863C22.218 10.1852 22.2993 10.802 22.2168 11.3174L20.8867 19.2764C20.6274 20.8059 19.1356 22.0596 17.5996 22.0596H6.40039C4.82331 22.0596 3.37269 20.8349 3.11328 19.2871L1.7832 11.3174L1.78223 11.3125L1.75586 11.1162C1.71292 10.6475 1.79722 10.1127 1.99316 9.59961C2.21695 9.01373 2.57017 8.49923 2.98145 8.1709L2.98242 8.16992L9.91211 2.62012L9.91406 2.61914ZM11.9902 2.42969C11.3676 2.42969 10.7217 2.61677 10.2285 3.00879L10.2275 3.00977L3.29688 8.57031C2.92684 8.86769 2.64311 9.32518 2.46777 9.7832C2.29262 10.2409 2.19716 10.7719 2.27637 11.2422L3.60645 19.2021L3.60742 19.2041C3.82843 20.4933 5.08602 21.5596 6.40039 21.5596H17.5996C18.9151 21.5596 20.172 20.4921 20.3926 19.1934L20.3936 19.1924L21.7227 11.2324H21.7236V11.2275C21.7965 10.7637 21.6985 10.232 21.5244 9.77441C21.3723 9.37469 21.1388 8.97016 20.8359 8.67773L20.7021 8.55957L13.7725 3.01953C13.2685 2.61635 12.6123 2.42974 11.9902 2.42969Z" fill="white" stroke="white"/>
</svg>
