<svg width="24" height="25" viewBox="0 0 24 25"  xmlns="http://www.w3.org/2000/svg">
<g clip-path="url(#clip0_1333_159254)">
<path d="M16.7759 1.99432C18.438 3.27267 19.5974 5.15334 19.8755 7.25018C19.8897 7.59682 19.8906 7.94332 19.892 8.29022C19.8942 8.49518 19.8964 8.70013 19.8988 8.90509C19.9021 9.22664 19.9048 9.54816 19.9061 9.86973C19.9075 10.1812 19.9113 10.4925 19.9154 10.8039C19.9152 10.9476 19.9152 10.9476 19.9149 11.0942C19.9245 11.6536 19.9905 11.9526 20.3443 12.4064C20.411 12.6624 20.4197 12.8904 20.438 13.1564C20.5923 13.1702 20.5923 13.1702 20.7497 13.1843C20.886 13.1983 21.0224 13.2125 21.1587 13.2267C21.2263 13.2325 21.294 13.2383 21.3636 13.2443C21.8158 13.2939 22.0745 13.386 22.4068 13.7189C22.6865 14.1385 22.6742 14.54 22.5943 15.0314C22.4483 15.2999 22.2814 15.5097 22.0318 15.6877C21.939 15.6877 21.8461 15.6877 21.7505 15.6877C21.7519 16.4529 21.7558 17.2181 21.7629 17.9833C21.7661 18.3387 21.7685 18.694 21.7689 19.0493C21.7693 19.3922 21.7719 19.7349 21.7762 20.0778C21.7774 20.2087 21.7778 20.3395 21.7773 20.4704C21.7769 20.6535 21.7796 20.8367 21.7824 21.0198C21.7834 21.1763 21.7834 21.1763 21.7843 21.3359C21.8193 21.6137 21.8193 21.6137 22.072 21.7609C22.1516 21.7986 22.2311 21.8363 22.313 21.8752C22.5709 22.1104 22.6136 22.303 22.6349 22.6395C22.6365 22.789 22.6366 22.9385 22.6353 23.0881C22.6372 23.1629 22.639 23.2378 22.641 23.3149C22.6406 23.6956 22.6242 23.8904 22.4159 24.2193C22.0555 24.5622 21.7242 24.5141 21.2507 24.514C21.1281 24.5145 21.1281 24.5145 21.003 24.515C20.7274 24.5161 20.4518 24.5164 20.1762 24.5168C19.9793 24.5174 19.7824 24.518 19.5855 24.5186C19.0493 24.5203 18.5132 24.5213 17.977 24.522C17.6423 24.5225 17.3075 24.5231 16.9728 24.5237C15.9263 24.5255 14.8798 24.5268 13.8332 24.5276C12.6238 24.5285 11.4144 24.531 10.205 24.5347C9.27106 24.5376 8.33714 24.539 7.40322 24.5393C6.845 24.5395 6.2868 24.5403 5.72859 24.5427C5.20356 24.5449 4.67856 24.5453 4.15353 24.5443C3.96068 24.5443 3.76782 24.5449 3.57497 24.5461C3.31195 24.5478 3.04904 24.5471 2.78602 24.5459C2.67117 24.5474 2.67117 24.5474 2.554 24.549C2.19865 24.545 1.99219 24.5148 1.6897 24.3215C1.33957 23.9581 1.37998 23.5985 1.37161 23.1174C1.36811 23.0424 1.3646 22.9675 1.36099 22.8903C1.35515 22.496 1.37503 22.2355 1.62576 21.9206C1.87552 21.6877 1.87552 21.6877 2.15677 21.5939C2.1877 19.6449 2.21864 17.6958 2.25052 15.6877C2.12677 15.6567 2.00302 15.6258 1.87552 15.5939C1.57379 15.3334 1.43417 15.178 1.36062 14.7846C1.34123 14.3659 1.34435 14.012 1.60013 13.6662C2.16718 13.1957 2.85504 13.2051 3.56302 13.1564C3.57842 13.0614 3.57842 13.0614 3.59414 12.9645C3.60901 12.8809 3.62387 12.7973 3.63919 12.7111C3.65333 12.6285 3.66747 12.5458 3.68204 12.4606C3.75052 12.2189 3.75052 12.2189 3.89326 12.0439C4.05695 11.8076 4.06669 11.6879 4.06635 11.4035C4.067 11.3164 4.06764 11.2293 4.06831 11.1395C4.06773 11.0457 4.06715 10.9518 4.06656 10.8552C4.06819 10.6539 4.06984 10.4526 4.0715 10.2513C4.07244 9.93598 4.07278 9.6207 4.07262 9.3054C4.07545 6.75873 4.56848 4.61805 6.39383 2.73004C9.208 -0.0645352 13.581 -0.234961 16.7759 1.99432ZM6.75052 3.50018C5.46516 4.97258 4.85366 6.72075 4.86636 8.66522C4.86649 8.74323 4.86663 8.82124 4.86676 8.90162C4.86728 9.14802 4.86846 9.39441 4.86966 9.6408C4.87013 9.80902 4.87056 9.97723 4.87094 10.1454C4.87197 10.5554 4.87358 10.9653 4.87552 11.3752C5.37857 11.4053 5.37857 11.4053 5.85714 11.2832C6.08232 10.986 6.04958 10.6737 6.04446 10.3161C6.04512 10.2387 6.04578 10.1613 6.04646 10.0815C6.04921 9.75112 6.04769 9.42081 6.04652 9.09044C6.04471 7.16267 6.3947 5.50653 7.77005 4.05865C8.12232 3.73423 8.49909 3.469 8.90677 3.21893C8.98326 3.17119 9.05976 3.12346 9.13858 3.07428C9.70524 2.75368 10.2267 2.63095 10.8755 2.75018C11.1245 2.92801 11.2104 3.04501 11.3443 3.31268C11.354 3.44569 11.358 3.57913 11.3591 3.71249C11.36 3.79637 11.3609 3.88024 11.3619 3.96665C11.3624 4.0589 11.363 4.15115 11.3635 4.2462C11.3644 4.34315 11.3654 4.4401 11.3663 4.54C11.3693 4.8616 11.3716 5.18321 11.3739 5.50482C11.3759 5.72735 11.3778 5.94988 11.3798 6.17242C11.385 6.75901 11.3896 7.3456 11.3942 7.9322C11.3989 8.53043 11.4041 9.12864 11.4093 9.72686C11.4194 10.9013 11.4289 12.0757 11.438 13.2502C11.8093 13.2502 12.1805 13.2502 12.563 13.2502C12.594 11.858 12.6249 10.4658 12.6568 9.03143C12.8115 9.00049 12.9661 8.96955 13.1255 8.93768C13.2714 9.08361 13.2346 9.22631 13.2385 9.42934C13.2404 9.5138 13.2423 9.59825 13.2442 9.68527C13.2457 9.77706 13.2473 9.86886 13.2489 9.96344C13.2519 10.1037 13.2519 10.1037 13.2548 10.2468C13.261 10.5467 13.2665 10.8467 13.272 11.1467C13.276 11.3495 13.2801 11.5523 13.2843 11.7551C13.2943 12.2535 13.3039 12.7518 13.313 13.2502C13.4986 13.2502 13.6843 13.2502 13.8755 13.2502C13.8909 13.1552 13.8909 13.1552 13.9066 13.0583C13.9215 12.9747 13.9364 12.891 13.9517 12.8049C13.9729 12.6809 13.9729 12.6809 13.9945 12.5544C14.0683 12.2939 14.1777 12.1476 14.3443 11.9377C14.3443 11.8758 14.3443 11.8139 14.3443 11.7502C14.4177 11.7212 14.4912 11.6922 14.5669 11.6623C14.8058 11.5694 14.8058 11.5694 15.0005 11.4689C15.1254 11.4592 15.2504 11.4517 15.3755 11.4455C15.8302 11.4015 16.1657 11.2368 16.5606 11.0148C16.7922 10.9013 16.9979 10.8586 17.2505 10.8127C17.3501 8.5729 17.3501 8.5729 16.8755 6.40643C16.8295 6.27899 16.8295 6.27899 16.7825 6.14898C16.2898 4.99643 15.1878 4.03301 14.0747 3.50018C13.7912 3.40946 13.6736 3.37704 13.4068 3.50018C13.2569 3.65005 13.2976 3.80998 13.2938 4.01766C13.2919 4.10774 13.29 4.19783 13.2881 4.29065C13.2865 4.3886 13.285 4.48654 13.2834 4.58746C13.2804 4.73708 13.2804 4.73708 13.2774 4.88973C13.2713 5.20974 13.2658 5.52976 13.2603 5.84979C13.2562 6.06616 13.2521 6.28253 13.248 6.4989C13.238 7.03057 13.2284 7.56224 13.2193 8.09393C13.0336 8.09393 12.848 8.09393 12.6568 8.09393C12.652 7.41988 12.6487 6.74583 12.6465 6.07176C12.6455 5.84242 12.6442 5.61308 12.6426 5.38374C12.6403 5.05422 12.6393 4.72472 12.6385 4.3952C12.6375 4.29255 12.6365 4.1899 12.6355 4.08414C12.6355 3.98845 12.6355 3.89275 12.6355 3.79416C12.6351 3.71005 12.6346 3.62594 12.6342 3.53929C12.6589 3.29173 12.709 3.14565 12.8443 2.93768C13.2778 2.64866 13.6495 2.66314 14.1568 2.75018C15.7068 3.36594 16.7447 4.43683 17.4735 5.91937C17.8027 6.69922 17.9335 7.46703 17.9324 8.30999C17.9343 8.47259 17.9363 8.63519 17.9383 8.79779C17.9404 9.05084 17.9419 9.30388 17.9425 9.55694C17.9434 9.80345 17.9465 10.0498 17.95 10.2963C17.9493 10.4101 17.9493 10.4101 17.9485 10.5263C17.9539 10.8282 17.9589 11.0389 18.1443 11.2844C18.4818 11.4169 18.7641 11.3932 19.1255 11.3752C19.1326 10.8953 19.1376 10.4154 19.141 9.93551C19.1424 9.77297 19.1443 9.61043 19.1467 9.4479C19.1804 7.16842 18.7341 5.0625 17.1106 3.3482C15.5832 1.89926 13.7396 1.19682 11.6438 1.23004C9.78286 1.29866 8.03161 2.16793 6.75052 3.50018ZM8.3677 4.59222C7.01434 6.00667 6.69746 7.54605 6.73294 9.44159C6.73435 9.57562 6.73564 9.70965 6.73678 9.84369C6.73983 10.1667 6.74466 10.4897 6.75052 10.8127C6.84785 10.8405 6.84785 10.8405 6.94715 10.8688C7.03199 10.8936 7.11684 10.9183 7.20425 10.9438C7.33059 10.9803 7.33059 10.9803 7.45948 11.0175C7.68802 11.0939 7.68802 11.0939 7.92825 11.2463C8.21988 11.4108 8.46908 11.4135 8.79873 11.4393C9.06691 11.4787 9.24919 11.5968 9.46927 11.7502C9.53114 11.7502 9.59302 11.7502 9.65677 11.7502C9.91608 12.2503 10.0592 12.6866 10.1255 13.2502C10.3111 13.2502 10.4968 13.2502 10.688 13.2502C10.6924 11.9944 10.6957 10.7386 10.6977 9.48284C10.6987 8.89978 10.7 8.31673 10.7022 7.73367C10.7042 7.1714 10.7053 6.60913 10.7058 6.04685C10.7062 5.83192 10.7068 5.61698 10.7078 5.40205C10.7092 5.1019 10.7094 4.80178 10.7093 4.50163C10.71 4.41201 10.7107 4.32239 10.7113 4.23006C10.7111 4.14855 10.7108 4.06704 10.7106 3.98307C10.7108 3.87651 10.7108 3.87651 10.7111 3.76781C10.7029 3.57079 10.7029 3.57079 10.5005 3.40643C9.69106 3.40643 8.92484 4.0583 8.3677 4.59222ZM6.08401 11.9428C5.81626 12.0767 5.55307 12.0782 5.25821 12.1003C4.98181 12.1355 4.80843 12.2312 4.59427 12.4064C4.37771 12.7158 4.40677 12.8425 4.40677 13.2502C6.01552 13.2502 7.62427 13.2502 9.28177 13.2502C9.32056 12.7258 9.32056 12.7258 9.16458 12.4299C8.81352 12.1426 8.49617 12.1368 8.05386 12.0816C7.71186 12.0185 7.5015 11.8533 7.21927 11.6564C6.73407 11.5859 6.49052 11.681 6.08401 11.9428ZM16.5181 11.8381C16.2091 12.038 16.0979 12.0579 15.7447 12.0783C15.3255 12.1042 15.1093 12.1847 14.813 12.5002C14.6773 12.7366 14.6773 12.7366 14.7193 13.2502C16.328 13.2502 17.9368 13.2502 19.5943 13.2502C19.5293 12.5994 19.5293 12.5994 19.1255 12.2189C18.9154 12.1139 18.7786 12.1099 18.5454 12.0959C18.2293 12.0655 18.0213 12.01 17.7544 11.8381C17.2936 11.5735 16.9649 11.5303 16.5181 11.8381ZM2.24466 14.2053C2.1368 14.3789 2.1368 14.3789 2.16849 14.6154C2.23588 14.8745 2.23588 14.8745 2.53177 15.0314C2.75039 15.0388 2.96942 15.0397 3.18802 15.0314C3.18802 14.7221 3.18802 14.4127 3.18802 14.0939C2.69464 14.052 2.69464 14.052 2.24466 14.2053ZM4.03177 14.1877C4.01236 14.4355 4.00136 14.6778 3.99661 14.926C3.99311 14.9947 3.9896 15.0635 3.98599 15.1343C3.9771 15.3615 3.9771 15.3615 4.03177 15.6877C4.45604 16.0842 5.01092 16.0094 5.5552 16.0063C5.65747 16.0066 5.75974 16.0068 5.86511 16.0071C6.08102 16.0073 6.29694 16.0068 6.51285 16.0056C6.84308 16.0041 7.17321 16.0056 7.50345 16.0074C7.71341 16.0072 7.92337 16.0068 8.13333 16.0063C8.23197 16.0069 8.33062 16.0074 8.43225 16.008C9.09325 16.0087 9.09325 16.0087 9.65677 15.6877C9.79028 15.4206 9.76645 15.1882 9.7681 14.8908C9.76942 14.7816 9.77075 14.6723 9.77212 14.5597C9.77999 14.2703 9.77999 14.2703 9.56302 14.0939C9.32474 14.0658 9.32474 14.0658 9.04407 14.0712C8.88125 14.0707 8.88125 14.0707 8.71515 14.0703C8.59747 14.071 8.47979 14.0716 8.35855 14.0723C8.17824 14.0724 8.17824 14.0724 7.9943 14.0725C7.73982 14.0726 7.48535 14.0734 7.23087 14.0746C6.90404 14.0762 6.57722 14.0766 6.25039 14.0765C5.93943 14.0765 5.62849 14.0774 5.31753 14.0782C5.19967 14.0783 5.0818 14.0784 4.96036 14.0785C4.85211 14.0791 4.74386 14.0797 4.63233 14.0803C4.53651 14.0807 4.44068 14.081 4.34196 14.0814C4.12901 14.0697 4.12901 14.0697 4.03177 14.1877ZM10.5005 14.0939C10.5005 14.4033 10.5005 14.7127 10.5005 15.0314C11.4905 15.0314 12.4805 15.0314 13.5005 15.0314C13.5005 14.7221 13.5005 14.4127 13.5005 14.0939C12.5105 14.0939 11.5205 14.0939 10.5005 14.0939ZM14.2505 14.2814C14.2169 14.5617 14.2169 14.5617 14.2212 14.8791C14.2196 14.9862 14.2181 15.0932 14.2165 15.2035C14.2533 15.5241 14.3046 15.6507 14.5318 15.8752C14.8049 15.9662 14.9834 15.9818 15.2678 15.984C15.3601 15.9849 15.4524 15.9858 15.5475 15.9868C15.6472 15.9872 15.7468 15.9876 15.8494 15.988C15.9519 15.9885 16.0545 15.989 16.1601 15.9896C16.3771 15.9905 16.5942 15.9911 16.8112 15.9915C17.1431 15.9924 17.4749 15.9953 17.8068 15.9982C18.0176 15.9988 18.2284 15.9993 18.4392 15.9997C18.5385 16.0008 18.6377 16.002 18.7399 16.0032C19.4083 16.0148 19.4083 16.0148 19.9693 15.6877C20.0075 15.4134 20.0183 15.1977 20.0044 14.926C20.0031 14.8565 20.0018 14.787 20.0004 14.7154C20.0191 14.3765 20.0191 14.3765 19.8755 14.0939C19.7068 14.0842 19.5377 14.0809 19.3687 14.0803C19.2605 14.0797 19.1522 14.0791 19.0407 14.0785C18.8639 14.0783 18.8639 14.0783 18.6835 14.0782C18.5634 14.0779 18.4433 14.0776 18.3195 14.0772C18.0649 14.0767 17.8102 14.0765 17.5556 14.0766C17.2289 14.0766 16.9022 14.0753 16.5754 14.0737C16.2645 14.0724 15.9535 14.0724 15.6425 14.0723C15.5248 14.0716 15.4071 14.071 15.2859 14.0703C15.1773 14.0706 15.0688 14.0709 14.957 14.0712C14.8611 14.071 14.7652 14.0709 14.6664 14.0708C14.4211 14.0713 14.4211 14.0713 14.2505 14.2814ZM20.813 14.0939C20.813 14.4033 20.813 14.7127 20.813 15.0314C21.2785 15.0648 21.2785 15.0648 21.6978 14.8908C21.7461 14.8444 21.7945 14.798 21.8443 14.7502C21.8122 14.4717 21.8122 14.4717 21.7505 14.1877C21.5361 14.0805 21.4137 14.0842 21.1763 14.0881C20.9965 14.091 20.9965 14.091 20.813 14.0939ZM3.09427 15.7814C3.09427 17.6996 3.09427 19.6177 3.09427 21.5939C3.43458 21.5939 3.77489 21.5939 4.12552 21.5939C4.15645 20.7896 4.18739 19.9852 4.21927 19.1564C4.4513 19.11 4.4513 19.11 4.68802 19.0627C4.85441 19.2291 4.8038 19.4731 4.81143 19.6988C4.81536 19.8085 4.81928 19.9181 4.82333 20.0311C4.82702 20.1466 4.8307 20.2621 4.8345 20.381C4.83855 20.4969 4.8426 20.6127 4.84677 20.7321C4.85675 21.0193 4.86618 21.3066 4.87552 21.5939C5.24677 21.5939 5.61802 21.5939 6.00052 21.5939C6.00052 19.9852 6.00052 18.3764 6.00052 16.7189C5.62927 16.7189 5.25802 16.7189 4.87552 16.7189C4.84458 17.2139 4.81364 17.7089 4.78177 18.2189C4.59614 18.2189 4.41052 18.2189 4.21927 18.2189C4.21902 18.1082 4.21878 17.9975 4.21853 17.8835C4.21502 17.7375 4.21135 17.5915 4.20755 17.4455C4.20779 17.3726 4.20803 17.2997 4.20828 17.2247C4.20098 17.0111 4.18777 16.8298 4.12552 16.6252C3.8595 16.3964 3.8595 16.3964 3.56302 16.2502C3.46519 16.0964 3.37026 15.9407 3.28177 15.7814C3.21989 15.7814 3.15802 15.7814 3.09427 15.7814ZM10.5005 15.7814C10.4464 15.8684 10.3922 15.9555 10.3365 16.0451C10.0951 16.387 9.94689 16.4704 9.56302 16.6252C9.24098 16.6657 9.24098 16.6657 8.89285 16.6732C8.72365 16.6778 8.72365 16.6778 8.55104 16.6826C8.33847 16.6861 8.33847 16.6861 8.12161 16.6896C7.66915 16.6993 7.21669 16.709 6.75052 16.7189C6.75052 18.3277 6.75052 19.9364 6.75052 21.5939C8.04989 21.5939 9.34927 21.5939 10.688 21.5939C10.688 19.6758 10.688 17.7577 10.688 15.7814C10.6261 15.7814 10.5643 15.7814 10.5005 15.7814ZM11.438 15.7814C11.438 17.6996 11.438 19.6177 11.438 21.5939C11.8093 21.5939 12.1805 21.5939 12.563 21.5939C12.563 19.6758 12.563 17.7577 12.563 15.7814C12.1918 15.7814 11.8205 15.7814 11.438 15.7814ZM13.313 15.7814C13.313 17.6996 13.313 19.6177 13.313 21.5939C14.6124 21.5939 15.9118 21.5939 17.2505 21.5939C17.2505 19.9852 17.2505 18.3764 17.2505 16.7189C16.3503 16.6993 16.3503 16.6993 15.45 16.6826C15.3372 16.6795 15.2244 16.6764 15.1082 16.6732C14.9933 16.6707 14.8784 16.6682 14.7601 16.6657C14.4059 16.6211 14.1781 16.5312 13.8755 16.3439C13.7456 16.1598 13.6196 15.9728 13.5005 15.7814C13.4386 15.7814 13.3768 15.7814 13.313 15.7814ZM20.7193 15.7814C20.6632 15.8684 20.6071 15.9555 20.5493 16.0451C20.3443 16.3439 20.3443 16.3439 20.1004 16.4727C19.855 16.6027 19.855 16.6027 19.8191 16.8476C19.8202 16.9353 19.8212 17.0229 19.8223 17.1132C19.8223 17.2127 19.8224 17.3121 19.8224 17.4146C19.8248 17.5218 19.8272 17.6291 19.8297 17.7396C19.8304 17.8494 19.8311 17.9593 19.8317 18.0726C19.8344 18.4241 19.8403 18.7756 19.8462 19.1271C19.8486 19.3652 19.8507 19.6033 19.8526 19.8414C19.8578 20.4256 19.8659 21.0098 19.8755 21.5939C20.2158 21.5939 20.5561 21.5939 20.9068 21.5939C20.9068 19.6758 20.9068 17.7577 20.9068 15.7814C20.8449 15.7814 20.783 15.7814 20.7193 15.7814ZM18.0005 16.7189C18.0005 18.3277 18.0005 19.9364 18.0005 21.5939C18.3718 21.5939 18.743 21.5939 19.1255 21.5939C19.1255 19.9852 19.1255 18.3764 19.1255 16.7189C18.7543 16.7189 18.383 16.7189 18.0005 16.7189ZM2.15677 22.5314C2.14506 22.701 2.14029 22.8712 2.13919 23.0412C2.13786 23.1339 2.13653 23.2266 2.13516 23.3221C2.13225 23.5782 2.13225 23.5782 2.34427 23.7502C2.5989 23.7687 2.84398 23.7754 3.09873 23.774C3.17762 23.7743 3.25651 23.7746 3.3378 23.7749C3.60367 23.7756 3.86953 23.775 4.1354 23.7744C4.3254 23.7747 4.51539 23.775 4.70538 23.7754C5.22254 23.7763 5.7397 23.776 6.25686 23.7754C6.79705 23.7749 7.33723 23.7753 7.87742 23.7756C8.78471 23.776 9.69201 23.7755 10.5993 23.7746C11.6496 23.7736 12.6998 23.7739 13.7501 23.775C14.6504 23.7758 15.5507 23.7759 16.4511 23.7754C16.9894 23.7752 17.5277 23.7751 18.0661 23.7757C18.5721 23.7763 19.0781 23.7759 19.5841 23.7748C19.7703 23.7746 19.9565 23.7746 20.1426 23.7751C20.3959 23.7756 20.6491 23.7749 20.9023 23.774C21.014 23.7746 21.014 23.7746 21.128 23.7753C21.5295 23.7871 21.5295 23.7871 21.8443 23.5627C21.8706 23.3157 21.8706 23.3157 21.8618 23.0412C21.8612 22.9483 21.8606 22.8553 21.86 22.7596C21.8697 22.5363 21.8697 22.5363 21.7505 22.4377C21.4994 22.4283 21.2507 22.4251 20.9996 22.4258C20.9199 22.4256 20.8403 22.4255 20.7582 22.4253C20.4893 22.425 20.2203 22.4253 19.9513 22.4255C19.7593 22.4254 19.5674 22.4253 19.3754 22.4251C18.8524 22.4246 18.3295 22.4248 17.8065 22.4251C17.2605 22.4253 16.7145 22.4251 16.1685 22.425C15.2514 22.4248 14.3344 22.425 13.4173 22.4255C12.3554 22.426 11.2934 22.4258 10.2315 22.4253C9.32156 22.4249 8.41162 22.4248 7.50167 22.425C6.95741 22.4252 6.41315 22.4252 5.86888 22.4249C5.35733 22.4246 4.84578 22.4248 4.33423 22.4254C4.14591 22.4255 3.95758 22.4254 3.76925 22.4252C3.51332 22.425 3.25739 22.4253 3.00146 22.4258C2.92592 22.4256 2.85038 22.4254 2.77256 22.4251C2.4369 22.395 2.4369 22.395 2.15677 22.5314Z" fill-opacity="0.6"/>
</g>
<defs>
<clipPath id="clip0_1333_159254">
<rect width="24" height="24" fill="white" transform="translate(0 0.5)"/>
</clipPath>
</defs>
</svg>
