<svg width="24" height="25" viewBox="0 0 24 25"  xmlns="http://www.w3.org/2000/svg">
<g clip-path="url(#clip0_1333_159250)">
<path d="M10.0947 1.1208C10.8267 1.68101 11.2872 2.42244 11.5303 3.31221C11.5418 3.4917 11.5496 3.67146 11.5537 3.85127C11.5724 4.21943 11.5724 4.21943 11.7793 4.51045C11.9108 4.60271 12.0446 4.69184 12.1803 4.77779C12.6893 5.11459 12.8571 5.55869 12.9951 6.13643C13.023 6.27601 13.023 6.27601 13.0515 6.41841C13.1285 6.7039 13.2519 6.90514 13.4053 7.15596C13.4428 7.50604 13.4327 7.74133 13.3057 8.07002C13.0177 8.40437 12.6739 8.5381 12.2433 8.58846C11.9827 8.59929 11.7237 8.6012 11.4629 8.59956C11.3676 8.59983 11.2723 8.6001 11.1741 8.60038C10.9733 8.60057 10.7725 8.60006 10.5718 8.59888C10.2656 8.59737 9.95959 8.59886 9.65344 8.60066C9.45776 8.60048 9.26208 8.60012 9.06641 8.59956C8.97547 8.60013 8.88454 8.6007 8.79084 8.60129C8.25891 8.59581 7.87148 8.54572 7.40527 8.28096C7.1795 7.91408 7.12043 7.69783 7.1416 7.26729C7.21777 6.96846 7.21777 6.96846 7.40527 6.78096C7.44716 6.61019 7.48345 6.43802 7.5166 6.26534C7.68914 5.54033 8.03587 4.89877 8.66504 4.47237C8.74432 4.42983 8.82359 4.38729 8.90527 4.34346C8.88497 4.16654 8.88497 4.16654 8.86426 3.98604C8.85664 3.91969 8.84903 3.85335 8.84119 3.78499C8.81418 3.57528 8.81418 3.57528 8.71777 3.31221C8.17245 3.0462 7.68716 3.1245 7.12402 3.31221C6.90458 3.77951 6.90792 4.23371 6.90663 4.73892C6.90522 4.8666 6.90522 4.8666 6.90378 4.99686C6.90089 5.27687 6.89929 5.55686 6.89771 5.83687C6.89595 6.03154 6.89412 6.22621 6.8922 6.42089C6.8874 6.93226 6.88368 7.44363 6.88019 7.95502C6.87643 8.47724 6.87164 8.99946 6.86694 9.52168C6.85788 10.5456 6.84996 11.5695 6.84277 12.5935C6.91359 12.5931 6.98441 12.5928 7.05737 12.5924C8.78196 12.5841 10.5065 12.5779 12.2311 12.574C13.0652 12.5721 13.8992 12.5695 14.7332 12.5652C15.4602 12.5614 16.1873 12.559 16.9144 12.5582C17.2992 12.5577 17.684 12.5565 18.0689 12.5538C18.4315 12.5513 18.794 12.5505 19.1566 12.551C19.2893 12.5509 19.4221 12.5502 19.5548 12.5488C20.4109 12.5399 21.0501 12.5617 21.6904 13.1853C21.9823 13.668 22.0776 14.1115 21.9878 14.6633C21.8738 15.0639 21.6043 15.428 21.2803 15.6872C21.1248 15.7517 20.9686 15.8144 20.8115 15.8747C20.8068 15.9305 20.8021 15.9863 20.7973 16.0439C20.7756 16.2962 20.7525 16.5483 20.7295 16.8005C20.7221 16.8883 20.7147 16.9762 20.7072 17.0667C20.6993 17.1507 20.6914 17.2347 20.6833 17.3212C20.6765 17.3988 20.6696 17.4764 20.6625 17.5563C20.624 17.7497 20.624 17.7497 20.4365 17.9372C20.2021 17.9606 20.2021 17.9606 19.9678 17.9372C19.7803 17.7497 19.7803 17.7497 19.7676 17.5563C19.7725 17.4787 19.7774 17.4012 19.7825 17.3212C19.7873 17.2373 19.7921 17.1533 19.7971 17.0667C19.8032 16.9789 19.8092 16.891 19.8154 16.8005C19.8207 16.7119 19.8261 16.6233 19.8315 16.5321C19.8448 16.3129 19.859 16.0938 19.874 15.8747C19.8186 15.8749 19.7632 15.8751 19.7062 15.8752C18.3597 15.8794 17.0132 15.8825 15.6666 15.8844C15.0155 15.8854 14.3643 15.8867 13.7132 15.8889C13.0852 15.8909 12.4573 15.892 11.8294 15.8925C11.5893 15.8928 11.3493 15.8935 11.1092 15.8945C10.7741 15.8959 10.4389 15.8961 10.1037 15.896C9.95354 15.897 9.95354 15.897 9.80029 15.898C9.70932 15.8978 9.61835 15.8975 9.52462 15.8973C9.40562 15.8975 9.40562 15.8975 9.28422 15.8978C9.09277 15.8747 9.09277 15.8747 8.90527 15.6872C8.94043 15.3942 8.94043 15.3942 8.99902 15.1247C9.27521 15.0326 9.45436 15.0189 9.74222 15.018C9.83752 15.0175 9.93281 15.017 10.031 15.0165C10.1355 15.0164 10.2399 15.0163 10.3476 15.0162C10.4577 15.0157 10.5677 15.0152 10.6812 15.0147C10.9831 15.0135 11.2851 15.0126 11.5871 15.0118C11.9031 15.0108 12.2191 15.009 12.5351 15.0073C13.6116 15.0015 14.6881 14.9964 15.7646 14.9933C16.3592 14.9916 16.9538 14.9889 17.5483 14.9851C17.8629 14.9831 18.1775 14.9817 18.4922 14.9814C18.843 14.981 19.1938 14.9788 19.5446 14.9763C19.6489 14.9765 19.7532 14.9768 19.8606 14.9771C20.0039 14.9756 20.0039 14.9756 20.1502 14.974C20.2331 14.9736 20.3161 14.9733 20.4015 14.973C20.6716 14.9296 20.8001 14.8409 20.999 14.656C21.1304 14.332 21.1021 14.2102 20.9697 13.8825C20.8383 13.6175 20.8383 13.6175 20.624 13.531C20.3982 13.5212 20.175 13.5171 19.9491 13.5172C19.8436 13.5166 19.8436 13.5166 19.736 13.5161C19.4991 13.5151 19.2621 13.5147 19.0252 13.5144C18.8558 13.5138 18.6865 13.5132 18.5171 13.5125C18.0561 13.5109 17.5951 13.5099 17.1341 13.5091C16.8463 13.5086 16.5585 13.5081 16.2707 13.5075C15.3709 13.5057 14.4711 13.5043 13.5712 13.5036C12.5314 13.5026 11.4915 13.5002 10.4516 13.4964C9.64856 13.4936 8.84553 13.4922 8.0425 13.4919C7.56251 13.4916 7.08255 13.4908 6.60257 13.4884C6.15118 13.4863 5.69983 13.4859 5.24843 13.4868C5.0826 13.4869 4.91676 13.4863 4.75093 13.485C4.52482 13.4833 4.29884 13.484 4.07273 13.4852C4.00684 13.4842 3.94094 13.4832 3.87304 13.4821C3.55833 13.4863 3.39968 13.5109 3.14835 13.707C2.97102 13.9433 2.91249 14.0789 2.90527 14.3747C3.06944 14.7228 3.06944 14.7228 3.37402 14.9372C3.51994 14.9474 3.66628 14.9519 3.81254 14.9535C3.94911 14.9554 3.94911 14.9554 4.08844 14.9573C4.23639 14.9588 4.23639 14.9588 4.38733 14.9603C4.59479 14.9634 4.80225 14.9665 5.0097 14.9696C5.33787 14.9741 5.66602 14.9782 5.99419 14.9819C6.31015 14.9856 6.62608 14.9905 6.94202 14.9954C7.08968 14.9966 7.08968 14.9966 7.24033 14.9978C7.37734 15.0002 7.37734 15.0002 7.51713 15.0026C7.63775 15.004 7.63775 15.004 7.76082 15.0055C7.96777 15.031 7.96777 15.031 8.24902 15.2185C8.27832 15.4528 8.27832 15.4528 8.24902 15.6872C8.06152 15.8747 8.06152 15.8747 7.88949 15.8973C7.78519 15.8966 7.78519 15.8966 7.67879 15.896C7.56056 15.896 7.56056 15.896 7.43995 15.896C7.35479 15.895 7.26963 15.894 7.18188 15.893C7.09475 15.8928 7.00762 15.8925 6.91785 15.8922C6.63891 15.8912 6.35999 15.8888 6.08105 15.8864C5.89221 15.8855 5.70337 15.8846 5.51453 15.8839C5.05101 15.8818 4.58752 15.8786 4.12402 15.8747C4.1833 16.9381 4.1833 16.9381 4.37012 17.9841C4.38609 18.0501 4.40207 18.1161 4.41853 18.1842C4.73057 19.3815 5.27916 20.3491 6.32129 21.0427C7.95985 21.974 9.81801 22.0015 11.6487 21.9981C11.9735 21.9978 12.2983 22 12.623 22.0023C14.7025 22.0083 16.8337 21.8471 18.467 20.3963C18.9624 19.8735 19.2726 19.2319 19.5928 18.5935C19.8154 18.5817 19.8154 18.5817 20.0615 18.5935C20.1234 18.6553 20.1853 18.7172 20.249 18.781C20.2378 19.32 20.0398 19.6874 19.7675 20.1469C19.6633 20.3714 19.6633 20.3714 19.7458 20.5933C19.7881 20.6759 19.8304 20.7584 19.874 20.8435C19.9272 20.9567 19.98 21.0701 20.0326 21.1837C20.1206 21.3692 20.209 21.5546 20.2979 21.7398C20.6062 22.391 20.6993 22.935 20.624 23.656C20.4237 24.0714 20.2138 24.3337 19.7803 24.4997C19.2891 24.5605 18.8837 24.5585 18.4268 24.3591C18.1203 24.0601 17.9763 23.7652 17.8115 23.3747C17.7432 23.2223 17.6749 23.07 17.6064 22.9177C17.5761 22.8483 17.5458 22.7789 17.5145 22.7075C17.4603 22.5848 17.4028 22.4635 17.3428 22.3435C17.0628 22.3964 16.7859 22.4575 16.5093 22.5251C16.4427 22.5413 16.3761 22.5575 16.3075 22.5742C16.1709 22.6075 16.0345 22.6412 15.8981 22.6752C15.0508 22.8798 14.2199 22.9214 13.3503 22.925C13.2476 22.9255 13.1448 22.9261 13.0389 22.9266C12.8219 22.9275 12.6049 22.9281 12.3879 22.9285C12.0618 22.9294 11.7358 22.9323 11.4098 22.9353C9.94415 22.9423 8.51076 22.9045 7.12088 22.3995C6.92379 22.3298 6.92379 22.3298 6.65527 22.3435C6.44308 22.7527 6.25615 23.1523 6.09863 23.5856C5.9185 24.0492 5.6953 24.2766 5.24902 24.4997C4.75374 24.5491 4.34259 24.5599 3.88965 24.3415C3.49489 23.9764 3.3568 23.7248 3.32715 23.1872C3.35238 22.2957 3.75443 21.4802 4.24377 20.7497C4.33382 20.5584 4.33382 20.5584 4.24707 20.3439C4.18616 20.22 4.18616 20.22 4.12402 20.0935C3.5861 18.8768 3.29836 17.7348 3.25098 16.4021C3.24035 16.1156 3.24035 16.1156 3.18652 15.8747C2.935 15.6786 2.935 15.6786 2.62402 15.5935C2.23379 15.1944 1.97309 14.8372 1.96484 14.2652C1.99792 13.7716 2.10665 13.4456 2.43652 13.0622C2.90594 12.7078 3.23026 12.5807 3.81348 12.5876C3.90665 12.5884 3.99983 12.5893 4.09583 12.5902C4.2026 12.5918 4.2026 12.5918 4.31152 12.5935C4.31079 12.411 4.31079 12.411 4.31004 12.2249C4.30834 11.7754 4.30726 11.3258 4.30637 10.8763C4.3059 10.6814 4.30526 10.4865 4.30445 10.2916C4.30332 10.0121 4.30278 9.73268 4.30237 9.4532C4.30164 9.32166 4.30164 9.32166 4.3009 9.18746C4.30089 9.06641 4.30089 9.06641 4.30088 8.94291C4.30067 8.8715 4.30046 8.8001 4.30025 8.72653C4.31152 8.56221 4.31152 8.56221 4.40527 8.46846C4.68652 8.45674 4.68652 8.45674 4.96777 8.46846C5.06152 8.56221 5.06152 8.56221 5.0728 8.72653C5.07259 8.79793 5.07238 8.86934 5.07217 8.94291C5.07216 9.02361 5.07215 9.10431 5.07214 9.18746C5.07166 9.27515 5.07118 9.36285 5.07068 9.4532C5.07055 9.54255 5.07041 9.63189 5.07028 9.72394C5.06975 10.0105 5.06857 10.2971 5.06738 10.5837C5.06691 10.7775 5.06649 10.9713 5.0661 11.1651C5.06506 11.6412 5.06345 12.1173 5.06152 12.5935C5.3709 12.5935 5.68027 12.5935 5.99902 12.5935C5.99746 12.4292 5.99746 12.4292 5.99587 12.2617C5.98635 11.2272 5.97933 10.1928 5.97474 9.15834C5.9723 8.62657 5.96899 8.09484 5.96366 7.5631C5.95855 7.04944 5.95576 6.53583 5.95455 6.02215C5.95369 5.82667 5.952 5.6312 5.94946 5.43573C5.92386 3.38268 5.92386 3.38268 6.46777 2.74971C6.97138 2.34297 7.45454 2.14512 8.10437 2.15572C8.62151 2.22403 9.08676 2.4443 9.44031 2.83101C9.71004 3.23056 9.81289 3.58409 9.84277 4.06221C10.1212 4.06221 10.3996 4.06221 10.6865 4.06221C10.5721 3.2615 10.365 2.55228 9.72852 2.00996C9.00969 1.51637 8.2919 1.26022 7.41699 1.39619C6.68913 1.5664 6.09774 1.89957 5.6709 2.52119C5.20593 3.27947 5.14372 4.02851 5.1322 4.899C5.12912 5.05837 5.126 5.21773 5.12286 5.37709C5.1184 5.62624 5.11422 5.87539 5.11057 6.12455C5.10686 6.36645 5.10203 6.6083 5.09705 6.85017C5.09626 6.92507 5.09547 6.99997 5.09466 7.07714C5.08279 7.60345 5.08279 7.60345 4.87402 7.81221C4.44694 7.76013 4.44694 7.76013 4.31152 7.62471C4.30136 7.49397 4.29755 7.36272 4.29642 7.23158C4.29552 7.14797 4.29462 7.06436 4.29369 6.97822C4.29329 6.88702 4.29289 6.79582 4.29248 6.70186C4.29195 6.60827 4.29141 6.51469 4.29086 6.41826C4.28997 6.21934 4.28936 6.02041 4.289 5.82149C4.2881 5.51922 4.28519 5.21701 4.28223 4.91475C4.28161 4.72139 4.28112 4.52803 4.28076 4.33467C4.2796 4.24499 4.27845 4.15531 4.27725 4.06291C4.28074 2.99894 4.63553 2.23076 5.34277 1.43721C6.69702 0.239721 8.60101 0.116991 10.0947 1.1208ZM8.72363 5.65596C8.49629 5.94708 8.49629 5.94708 8.43652 6.40596C9.67402 6.40596 10.9115 6.40596 12.1865 6.40596C11.8894 5.71273 11.6856 5.28647 10.9996 4.97481C10.0751 4.68465 9.35485 4.9618 8.72363 5.65596ZM8.15527 7.24971C8.06246 7.38893 8.06246 7.38893 7.96777 7.53096C8.13299 7.73442 8.13299 7.73442 8.33672 7.74164C8.41068 7.7415 8.48465 7.74137 8.56085 7.74123C8.6447 7.74152 8.72854 7.74181 8.81492 7.74211C8.95101 7.7411 8.95101 7.7411 9.08984 7.74007C9.18277 7.74002 9.2757 7.73998 9.37145 7.73994C9.56815 7.73965 9.76486 7.73891 9.96156 7.73775C10.2634 7.73604 10.5652 7.73583 10.8671 7.73586C11.0579 7.73539 11.2487 7.73485 11.4395 7.73421C11.5302 7.7341 11.6209 7.734 11.7144 7.73389C11.7982 7.73329 11.8821 7.73269 11.9684 7.73208C12.0424 7.73172 12.1164 7.73136 12.1926 7.731C12.3818 7.72961 12.3818 7.72961 12.5615 7.62471C12.5151 7.43909 12.5151 7.43909 12.4678 7.24971C11.857 7.2426 11.2463 7.23766 10.6356 7.23426C10.4277 7.23284 10.2198 7.23092 10.0119 7.22849C9.71359 7.22509 9.41529 7.22349 9.11694 7.22224C9.02358 7.22079 8.93022 7.21934 8.83403 7.21784C8.7477 7.21782 8.66137 7.2178 8.57243 7.21778C8.45814 7.21684 8.45814 7.21684 8.34154 7.21589C8.24934 7.23263 8.24934 7.23263 8.15527 7.24971ZM4.96777 21.1247C4.87745 21.3002 4.78772 21.4761 4.69824 21.6521C4.64821 21.7499 4.59818 21.8478 4.54663 21.9487C4.3025 22.4686 4.17325 22.8896 4.21777 23.4685C4.39954 23.6894 4.39954 23.6894 4.72754 23.6911C5.05749 23.6925 5.05749 23.6925 5.20764 23.5047C5.37103 23.2342 5.47898 22.962 5.58887 22.6657C5.64869 22.506 5.64869 22.506 5.70972 22.3431C5.77732 22.1566 5.84254 21.9692 5.90527 21.781C5.78432 21.689 5.66319 21.5972 5.54199 21.5056C5.47456 21.4545 5.40712 21.4033 5.33765 21.3507C5.16056 21.2147 5.16056 21.2147 4.96777 21.1247ZM18.9365 21.1247C18.831 21.2145 18.7255 21.3043 18.6201 21.3942C18.5614 21.4443 18.5027 21.4943 18.4421 21.5459C18.3217 21.6511 18.2059 21.7616 18.0928 21.8747C18.4117 22.8247 18.4117 22.8247 18.9365 23.656C19.2607 23.6794 19.2607 23.6794 19.5928 23.656C19.8049 23.4807 19.8049 23.4807 19.8213 23.2048C19.8007 22.452 19.4213 21.682 18.9365 21.1247Z"  fill-opacity="0.6"/>
</g>
<defs>
<clipPath id="clip0_1333_159250">
<rect width="24" height="24" fill="white" transform="translate(0 0.5)"/>
</clipPath>
</defs>
</svg>
