<svg  viewBox="0 0 47 31" fill="none" xmlns="http://www.w3.org/2000/svg">
<path d="M29.9758 29.2247V29.1774L32.4 15.1319H2.39999L4.78569 28.9275C4.85664 29.338 5.09381 29.7547 5.39122 30.0067C5.72576 30.2902 6.12054 30.4 6.53673 30.4H28.4814C28.824 30.4 29.159 30.3046 29.4419 30.0843C29.6439 29.9268 29.916 29.6603 29.9555 29.3729L29.9758 29.2247ZM17.4033 0.399995C19.9762 0.399995 22.3056 1.42613 23.9918 3.08508C25.51 4.57873 26.5065 6.58546 26.6902 8.81814H24.1063C23.1628 4.30373 20.515 3.03662 17.4033 2.91799C14.0349 3.05634 11.5164 4.87576 10.7649 8.81814H8.11685C8.30028 6.58546 9.29689 4.57873 10.8152 3.08508C12.5013 1.42613 14.8306 0.399995 17.4033 0.399995Z" stroke="#125676" stroke-width="0.8" stroke-miterlimit="2.61313" stroke-linecap="round" stroke-linejoin="round"/>
<path d="M31.8163 14.3992C33.8213 14.4741 34.0421 9.47387 31.7869 9.39999H2.02589C-0.224487 9.39999 -0.0862781 14.3635 2.11506 14.3992H31.8163Z" stroke="#125676" stroke-width="0.8" stroke-miterlimit="2.61313" stroke-linecap="round" stroke-linejoin="round"/>
<circle cx="36.7736" cy="10.0264" r="9.62644" fill="#4299C1"/>
<path fill-rule="evenodd" clip-rule="evenodd" d="M40.2378 16.4H32.5622C32.4723 16.4 32.4 16.324 32.4 16.2297V4.57024C32.4 4.47586 32.4723 4.39999 32.5622 4.39999H40.2378C40.3277 4.39999 40.4 4.47586 40.4 4.57024V6.53305C40.4 6.62734 40.3277 6.7033 40.2378 6.7033C40.1479 6.7033 40.0757 6.62734 40.0757 6.53305V4.74048H32.7244V16.0594H40.0757V14.2668C40.0757 14.1726 40.1479 14.0966 40.2378 14.0966C40.3277 14.0966 40.4 14.1726 40.4 14.2668V16.2297C40.4 16.324 40.3277 16.4 40.2378 16.4Z" fill="white"/>
<path fill-rule="evenodd" clip-rule="evenodd" d="M32.5619 5.39942C32.5202 5.39942 32.4786 5.38483 32.448 5.35566C32.3844 5.2951 32.3844 5.19918 32.4458 5.13863L36.2835 1.44588C36.3141 1.4167 36.3557 1.39999 36.3995 1.39999C36.4434 1.39999 36.4851 1.4167 36.5157 1.44588L40.3534 5.13863C40.4169 5.19918 40.4148 5.29722 40.3512 5.35566C40.2877 5.41613 40.1847 5.41409 40.1233 5.35354L36.3995 1.77137L32.6759 5.35566C32.6452 5.38483 32.6035 5.39942 32.5619 5.39942Z" fill="white"/>
<path fill-rule="evenodd" clip-rule="evenodd" d="M35.8999 3.57969C35.5479 3.57969 35.2619 3.72271 35.2619 3.89878C35.2619 4.07479 35.5479 4.21782 35.8999 4.21782C36.2521 4.21782 36.5381 4.07479 36.5381 3.89878C36.5381 3.72271 36.2521 3.57969 35.8999 3.57969ZM35.8999 4.39999C35.3474 4.39999 34.9 4.17503 34.9 3.89997C34.9 3.62372 35.3498 3.39999 35.8999 3.39999C36.4525 3.39999 36.9 3.62491 36.9 3.89997C36.9 4.17503 36.4501 4.39999 35.8999 4.39999Z" fill="white"/>
<path fill-rule="evenodd" clip-rule="evenodd" d="M40.899 7.18935C39.1298 7.18935 37.6893 8.63029 37.6893 10.4C37.6893 12.1697 39.1298 13.6106 40.899 13.6106C42.6682 13.6106 44.1087 12.1697 44.1087 10.4C44.1087 8.63029 42.6682 7.18935 40.899 7.18935ZM40.899 13.9C38.9684 13.9 37.4 12.3291 37.4 10.4C37.4 8.47081 38.9704 6.89999 40.899 6.89999C42.8296 6.89999 44.4 8.47081 44.4 10.4C44.4 12.3291 42.8276 13.9 40.899 13.9Z" fill="white"/>
<path fill-rule="evenodd" clip-rule="evenodd" d="M39.2297 7.39999H33.5703C33.476 7.39999 33.4 7.17698 33.4 6.90013C33.4 6.62301 33.476 6.39999 33.5703 6.39999H39.2297C39.324 6.39999 39.4 6.62301 39.4 6.90013C39.4 7.17698 39.324 7.39999 39.2297 7.39999Z" fill="white"/>
<path fill-rule="evenodd" clip-rule="evenodd" d="M36.2409 9.39999H33.5612C33.4719 9.39999 33.4 9.17718 33.4 8.89999C33.4 8.6228 33.4719 8.39999 33.5612 8.39999H36.2388C36.3281 8.39999 36.4 8.6228 36.4 8.89999C36.4 9.17718 36.3281 9.39999 36.2409 9.39999Z" fill="white"/>
<path fill-rule="evenodd" clip-rule="evenodd" d="M36.2409 11.4H33.5612C33.4719 11.4 33.4 11.1772 33.4 10.9C33.4 10.6228 33.4719 10.4 33.5612 10.4H36.2388C36.3281 10.4 36.4 10.6228 36.4 10.9C36.4 11.1772 36.3281 11.4 36.2409 11.4Z" fill="white"/>
<path fill-rule="evenodd" clip-rule="evenodd" d="M36.2409 13.4H33.5612C33.4719 13.4 33.4 13.1772 33.4 12.9C33.4 12.6228 33.4719 12.4 33.5612 12.4H36.2388C36.3281 12.4 36.4 12.6228 36.4 12.9C36.4 13.1772 36.3281 13.4 36.2409 13.4Z" fill="white"/>
<path fill-rule="evenodd" clip-rule="evenodd" d="M35.5315 4.39999C35.5029 4.39999 35.4742 4.39086 35.4509 4.37073C35.3936 4.32505 35.3829 4.24104 35.4277 4.18251C35.4599 4.14054 36.2512 3.12823 37.9913 3.02409C39.5577 2.92909 39.6347 2.03555 39.6347 2.02641C39.64 1.95154 39.7027 1.89487 39.7761 1.90036C39.8496 1.90586 39.905 1.96981 39.8996 2.04468C39.8961 2.09036 39.8048 3.18669 38.0074 3.29268C36.3926 3.38953 35.6425 4.33783 35.6353 4.34696C35.6085 4.38172 35.5709 4.39999 35.5315 4.39999Z" fill="white"/>
<path d="M40.8489 12.8545V8.30908H41.1401V12.8545H40.8489ZM41.829 9.67272C41.8077 9.4928 41.7213 9.35312 41.5697 9.25369C41.4182 9.15426 41.2324 9.10454 41.0122 9.10454C40.8512 9.10454 40.7104 9.13058 40.5896 9.18266C40.4701 9.23475 40.3766 9.30636 40.3091 9.39751C40.2428 9.48865 40.2097 9.59223 40.2097 9.70823C40.2097 9.8053 40.2327 9.88875 40.2789 9.95859C40.3262 10.0272 40.3866 10.0847 40.46 10.1308C40.5334 10.1758 40.6103 10.2131 40.6908 10.2427C40.7713 10.2711 40.8453 10.2942 40.9128 10.3119L41.2821 10.4114C41.3768 10.4362 41.4821 10.4705 41.5981 10.5143C41.7153 10.5581 41.8272 10.6179 41.9337 10.6937C42.0414 10.7682 42.1302 10.8641 42.2001 10.9813C42.2699 11.0985 42.3048 11.2423 42.3048 11.4128C42.3048 11.6093 42.2533 11.7868 42.1503 11.9454C42.0485 12.1041 41.8994 12.2301 41.7029 12.3236C41.5076 12.4172 41.2703 12.4639 40.9909 12.4639C40.7305 12.4639 40.505 12.4219 40.3144 12.3378C40.125 12.2538 39.9759 12.1366 39.867 11.9863C39.7593 11.836 39.6983 11.6614 39.6841 11.4625H40.1386C40.1505 11.5998 40.1966 11.7134 40.2771 11.8034C40.3588 11.8922 40.4618 11.9585 40.5861 12.0023C40.7115 12.0449 40.8465 12.0662 40.9909 12.0662C41.159 12.0662 41.3099 12.039 41.4437 11.9845C41.5774 11.9289 41.6834 11.8519 41.7615 11.7537C41.8396 11.6543 41.8787 11.5383 41.8787 11.4057C41.8787 11.2849 41.845 11.1867 41.7775 11.1109C41.71 11.0352 41.6212 10.9736 41.5111 10.9263C41.4011 10.8789 41.2821 10.8375 41.1543 10.802L40.7068 10.6741C40.4227 10.5925 40.1978 10.4759 40.0321 10.3244C39.8664 10.1728 39.7835 9.97457 39.7835 9.72954C39.7835 9.52594 39.8386 9.34838 39.9486 9.19687C40.0599 9.04417 40.2091 8.9258 40.3961 8.84176C40.5843 8.75653 40.7944 8.71391 41.0264 8.71391C41.2608 8.71391 41.4691 8.75594 41.6514 8.83998C41.8337 8.92284 41.9781 9.03648 42.0847 9.18089C42.1924 9.3253 42.2492 9.48925 42.2551 9.67272H41.829Z" fill="white"/>
</svg>
