<svg viewBox="0 0 43 29" fill="none" xmlns="http://www.w3.org/2000/svg">
<path d="M19 2H20V28.9033H2.07129C2.06707 28.8639 2.06446 28.8242 2.06445 28.7842V28H3V2H4V1H19V2ZM4.43164 27.6328H18.6328V2.30273H4.43164V27.6328Z" fill="#125676"/>
<path d="M4 2H3C3.02684 1.7446 3.1406 1.50449 3.3252 1.32129C3.50767 1.14029 3.74606 1.02823 4 1V2Z" fill="#125676"/>
<path d="M18.9932 1C19.2456 1.02808 19.4828 1.1396 19.6641 1.31934C19.8472 1.50106 19.9598 1.73901 19.9863 1.99219H18.9932V1Z" fill="#125676"/>
<path d="M27.8418 9.29004C28.1318 9.29004 28.4102 9.41096 28.6152 9.62598C28.8203 9.84107 28.9355 10.1333 28.9355 10.4375V28.7881C28.9355 28.8266 28.9333 28.8653 28.9297 28.9033H19V9.29492C19.0308 9.29215 19.0617 9.29005 19.0928 9.29004H27.8418ZM20 28H22V27.6416H25V28H28V10H20V28Z" fill="#125676"/>
<path d="M32 28.9033H0V27.5605H32V28.9033ZM25.1426 22H20.5713V21H25.1426V22ZM16 22H6.85742V21H16V22ZM25.1426 17H20.5713V16H25.1426V17ZM16 15H6.85742V14H16V15ZM16 8H6.85742V7H16V8Z" fill="#125676"/>
<circle cx="33.3735" cy="9.62644" r="9.62644" fill="#4299C1"/>
<path d="M33 7V16" stroke="white" stroke-width="0.5" stroke-linecap="round" stroke-linejoin="round"/>
<path d="M30 12V16" stroke="white" stroke-width="0.5" stroke-linecap="round" stroke-linejoin="round"/>
<path d="M36 3V16" stroke="white" stroke-width="0.5" stroke-linecap="round" stroke-linejoin="round"/>
</svg>
