<svg width="24" height="25" viewBox="0 0 24 25" xmlns="http://www.w3.org/2000/svg">
<path d="M18.5 12.9004C18.6339 12.9004 18.75 13.0165 18.75 13.1504V16.8506C18.7499 20.0476 15.7841 22.75 12 22.75C8.21586 22.75 5.25012 20.0476 5.25 16.8506V13.1504C5.25 13.0165 5.36614 12.9004 5.5 12.9004C5.63386 12.9004 5.75 13.0165 5.75 13.1504C5.75 16.1446 8.55343 18.25 12 18.25C15.4466 18.25 18.25 16.1446 18.25 13.1504C18.25 13.0165 18.3661 12.9004 18.5 12.9004ZM17.3828 16.6211C16.1906 17.9142 14.2709 18.75 12 18.75C9.73025 18.75 7.81957 17.9153 6.61621 16.6201L5.71484 15.6504L5.75 16.9736C5.82898 19.9628 8.67294 22.25 12 22.25C15.3271 22.25 18.171 19.9628 18.25 16.9736L18.2852 15.6426L17.3828 16.6211Z" />
<path d="M12 2.25C13.6946 2.25 15.2793 2.78738 16.5205 3.75879L16.7637 3.95898C18.0537 5.10283 18.75 6.58917 18.75 8.15039C18.7499 9.07736 18.4959 9.96788 18.0225 10.751C16.9214 12.571 14.6236 13.75 12 13.75C9.37639 13.75 7.07863 12.571 5.97754 10.751L5.97656 10.749L5.80957 10.4541C5.44498 9.75297 5.25006 8.96273 5.25 8.15039C5.25 6.58687 5.94761 5.09852 7.23926 3.96484C8.50114 2.86102 10.192 2.25 12 2.25ZM12 2.75C10.4346 2.75 8.9473 3.23941 7.78711 4.16406L7.55957 4.35449C6.40208 5.36028 5.75 6.71346 5.75 8.15039C5.75007 8.99268 5.97527 9.78178 6.40137 10.4883L6.40332 10.4902C7.46633 12.2355 9.63308 13.25 12 13.25C14.3687 13.25 16.5344 12.2244 17.5967 10.4912L17.5957 10.4902C18.0361 9.77785 18.2499 8.98741 18.25 8.15039C18.25 6.71131 17.5957 5.35837 16.4297 4.33398L16.4268 4.33105L16.1992 4.14453C15.0422 3.23948 13.5658 2.75 12 2.75Z" />
<path d="M12 2.25C13.6946 2.25 15.2793 2.78738 16.5205 3.75879L16.7637 3.95898C18.0537 5.10283 18.75 6.58917 18.75 8.15039V13.1504C18.7498 16.2764 15.9384 18.75 12 18.75C8.06162 18.75 5.25023 16.2764 5.25 13.1504V8.15039C5.25 4.95326 8.21578 2.25 12 2.25ZM12 2.75C8.63176 2.75 5.75 5.10231 5.75 8.15039V13.1504C5.75024 16.1444 8.55358 18.25 12 18.25C15.4464 18.25 18.2498 16.1444 18.25 13.1504V8.15039C18.25 6.71131 17.5957 5.35837 16.4297 4.33398L16.4268 4.33105L16.1992 4.14453C15.0422 3.23948 13.5658 2.75 12 2.75Z" />
</svg>
