<svg width="21" height="20" viewBox="0 0 21 20" fill="none" xmlns="http://www.w3.org/2000/svg">
<path d="M13.4833 10C13.4833 11.65 12.1499 12.9833 10.4999 12.9833C8.84993 12.9833 7.5166 11.65 7.5166 10C7.5166 8.35 8.84993 7.01666 10.4999 7.01666C12.1499 7.01666 13.4833 8.35 13.4833 10Z" stroke="black" stroke-width="1.5" stroke-linecap="round" stroke-linejoin="round"/>
<path d="M10.4999 16.8916C13.4415 16.8916 16.1832 15.1583 18.0915 12.1583C18.8415 10.9833 18.8415 9.00831 18.0915 7.83331C16.1832 4.83331 13.4415 3.09998 10.4999 3.09998C7.5582 3.09998 4.81654 4.83331 2.9082 7.83331C2.1582 9.00831 2.1582 10.9833 2.9082 12.1583C4.81654 15.1583 7.5582 16.8916 10.4999 16.8916Z" stroke="black" stroke-width="1.5" stroke-linecap="round" stroke-linejoin="round"/>
</svg>
