<svg width="24" height="25" viewBox="0 0 24 25" xmlns="http://www.w3.org/2000/svg">
<path d="M2.80305 1.20053C2.88494 1.19982 2.96684 1.1991 3.05121 1.19836C3.32448 1.19643 3.59768 1.19717 3.87095 1.19792C4.06734 1.1971 4.26372 1.19613 4.46011 1.19501C4.99278 1.1925 5.52544 1.19239 6.05812 1.19287C6.5031 1.19307 6.94808 1.19215 7.39307 1.19125C8.44303 1.18917 9.49298 1.18909 10.5429 1.19022C11.6254 1.19136 12.7079 1.18905 13.7904 1.18506C14.7204 1.18175 15.6504 1.18063 16.5805 1.18124C17.1357 1.18158 17.6908 1.18109 18.246 1.17848C18.7682 1.17612 19.2904 1.17649 19.8126 1.17893C20.0039 1.17937 20.1952 1.17886 20.3866 1.17731C22.1252 1.16425 22.1252 1.16425 22.721 1.62723C23.1835 2.18396 23.3049 2.59559 23.2983 3.30305C23.2994 3.42589 23.2994 3.42589 23.3005 3.55121C23.3024 3.82448 23.3017 4.09768 23.3009 4.37095C23.3017 4.56734 23.3027 4.76372 23.3038 4.96011C23.3063 5.49278 23.3064 6.02544 23.306 6.55812C23.3058 7.0031 23.3067 7.44808 23.3076 7.89307C23.3097 8.94303 23.3097 9.99298 23.3086 11.0429C23.3075 12.1254 23.3098 13.2079 23.3138 14.2904C23.3171 15.2204 23.3182 16.1504 23.3176 17.0805C23.3173 17.6357 23.3177 18.1908 23.3203 18.746C23.3227 19.2682 23.3223 19.7904 23.3199 20.3126C23.3195 20.5039 23.32 20.6952 23.3215 20.8866C23.3346 22.6252 23.3346 22.6252 22.8716 23.221C22.3149 23.6835 21.9032 23.8049 21.1958 23.7983C21.0729 23.7994 21.0729 23.7994 20.9476 23.8005C20.6743 23.8024 20.4012 23.8017 20.1279 23.8009C19.9315 23.8017 19.7351 23.8027 19.5387 23.8038C19.006 23.8063 18.4734 23.8064 17.9407 23.806C17.4957 23.8058 17.0507 23.8067 16.6058 23.8076C15.5558 23.8097 14.5058 23.8097 13.4559 23.8086C12.3734 23.8075 11.2909 23.8098 10.2084 23.8138C9.2784 23.8171 8.34838 23.8182 7.41833 23.8176C6.86315 23.8173 6.30799 23.8177 5.75281 23.8203C5.23061 23.8227 4.70847 23.8223 4.18627 23.8199C3.99493 23.8195 3.80359 23.82 3.61226 23.8215C1.87361 23.8346 1.87361 23.8346 1.27786 23.3716C0.815294 22.8149 0.6939 22.4032 0.700533 21.6958C0.699816 21.6139 0.699098 21.532 0.698359 21.4476C0.696431 21.1743 0.697169 20.9012 0.697915 20.6279C0.6971 20.4315 0.696128 20.2351 0.695011 20.0387C0.692502 19.506 0.692392 18.9734 0.692867 18.4407C0.693068 17.9957 0.692152 17.5507 0.691253 17.1058C0.689174 16.0558 0.689091 15.0058 0.690225 13.9559C0.691357 12.8734 0.689049 11.7909 0.685056 10.7084C0.681751 9.7784 0.680627 8.84838 0.681237 7.91833C0.681577 7.36315 0.681085 6.80799 0.678479 6.25281C0.676118 5.73061 0.676486 5.20847 0.678931 4.68627C0.679374 4.49493 0.678863 4.30359 0.677314 4.11226C0.664255 2.37361 0.664255 2.37361 1.12723 1.77786C1.68396 1.31529 2.09559 1.1939 2.80305 1.20053ZM1.74551 2.50918C1.467 2.94836 1.48567 3.36809 1.48625 3.87692C1.48597 3.95334 1.48569 4.02976 1.4854 4.1085C1.48459 4.36492 1.48445 4.62134 1.48431 4.87776C1.48387 5.06148 1.4834 5.2452 1.4829 5.42892C1.48167 5.92828 1.48106 6.42763 1.48065 6.927C1.48037 7.23895 1.47999 7.5509 1.47957 7.86285C1.47829 8.8388 1.47738 9.81475 1.47702 10.7907C1.4766 11.9175 1.47495 13.0442 1.47224 14.1709C1.47021 15.0418 1.46926 15.9127 1.46914 16.7836C1.46904 17.3037 1.46849 17.8239 1.46681 18.3441C1.46527 18.8334 1.46506 19.3227 1.46589 19.812C1.46596 19.9915 1.46555 20.171 1.46463 20.3504C1.46343 20.5957 1.46398 20.8409 1.46496 21.0862C1.46421 21.157 1.46345 21.2278 1.46267 21.3007C1.46807 21.8807 1.58745 22.3209 1.98574 22.7533C2.23909 22.8997 2.35967 22.9328 2.64089 22.9621C2.7592 22.9744 2.87752 22.9867 2.99941 22.9994C2.99949 22.8736 2.99949 22.8736 2.99957 22.7453C3.00097 20.7038 3.00495 18.6624 3.0118 16.6209C3.01504 15.6337 3.01742 14.6465 3.01775 13.6592C3.01803 12.7987 3.01996 11.9381 3.02384 11.0776C3.02584 10.622 3.02702 10.1664 3.02624 9.71083C3.02553 9.28174 3.02702 8.85272 3.03017 8.42364C3.03094 8.26643 3.03092 8.10922 3.03003 7.95201C3.02255 6.47994 3.02255 6.47994 3.41981 5.97892C3.95281 5.46971 4.43781 5.41302 5.15857 5.41815C5.25073 5.41735 5.34289 5.41654 5.43784 5.41571C5.74115 5.41358 6.04437 5.41421 6.34768 5.41506C6.55934 5.41457 6.771 5.41398 6.98266 5.4133C7.42579 5.41233 7.86889 5.41275 8.31201 5.41412C8.87893 5.41574 9.44577 5.41353 10.0127 5.41024C10.4496 5.40817 10.8866 5.40831 11.3236 5.40909C11.5325 5.40916 11.7415 5.40852 11.9505 5.40714C12.2431 5.4055 12.5355 5.40687 12.8281 5.409C12.9138 5.4079 12.9995 5.40681 13.0878 5.40568C13.6596 5.4141 14.1134 5.52629 14.5307 5.93691C14.8527 6.40869 14.9526 6.71297 14.9543 7.29493C14.9554 7.39626 14.9554 7.39626 14.9564 7.49964C14.9583 7.72436 14.9576 7.94899 14.9568 8.17371C14.9577 8.33544 14.9586 8.49717 14.9598 8.65891C14.9624 9.09681 14.9627 9.53469 14.9626 9.9726C14.9629 10.4307 14.9653 10.8887 14.9675 11.3468C14.9713 12.2137 14.9732 13.0806 14.9744 13.9475C14.9759 14.9346 14.9795 15.9218 14.9833 16.9089C14.991 18.9391 14.9961 20.9692 14.9994 22.9994C15.8193 23.0059 16.6391 23.0109 17.459 23.014C17.8397 23.0155 18.2205 23.0174 18.6012 23.0206C18.969 23.0237 19.3367 23.0254 19.7045 23.0261C19.8445 23.0266 19.9844 23.0276 20.1244 23.0292C20.3212 23.0312 20.5179 23.0315 20.7147 23.0313C20.8824 23.0323 20.8824 23.0323 21.0535 23.0332C21.5388 22.9821 21.9058 22.8463 22.2533 22.4896C22.5318 22.0505 22.5132 21.6307 22.5126 21.1219C22.5129 21.0455 22.5131 20.9691 22.5134 20.8903C22.5142 20.6339 22.5144 20.3775 22.5145 20.1211C22.515 19.9373 22.5154 19.7536 22.5159 19.5699C22.5172 19.0706 22.5178 18.5712 22.5182 18.0718C22.5185 17.7599 22.5188 17.4479 22.5193 17.136C22.5205 16.16 22.5214 15.1841 22.5218 14.2081C22.5222 13.0814 22.5239 11.9546 22.5266 10.8279C22.5286 9.95702 22.5296 9.08615 22.5297 8.21528C22.5298 7.6951 22.5303 7.17493 22.532 6.65476C22.5336 6.16544 22.5338 5.67613 22.5329 5.18681C22.5329 5.00733 22.5333 4.82786 22.5342 4.64838C22.5354 4.40311 22.5348 4.1579 22.5339 3.91263C22.5346 3.84184 22.5354 3.77105 22.5362 3.69812C22.5316 3.21306 22.4388 2.89111 22.2182 2.46816C21.7212 1.98394 21.2893 1.98549 20.6219 1.98625C20.5455 1.98597 20.4691 1.98569 20.3903 1.9854C20.1339 1.98459 19.8775 1.98445 19.6211 1.98431C19.4373 1.98387 19.2536 1.9834 19.0699 1.9829C18.5706 1.98167 18.0712 1.98106 17.5718 1.98065C17.2599 1.98037 16.9479 1.97999 16.636 1.97957C15.66 1.97829 14.6841 1.97738 13.7081 1.97702C12.5814 1.9766 11.4546 1.97495 10.3279 1.97224C9.45702 1.97021 8.58615 1.96926 7.71528 1.96914C7.1951 1.96904 6.67493 1.96849 6.15476 1.96681C5.66544 1.96527 5.17613 1.96506 4.68681 1.96589C4.50733 1.96596 4.32786 1.96555 4.14838 1.96463C3.90311 1.96343 3.6579 1.96398 3.41263 1.96496C3.34184 1.96421 3.27105 1.96345 3.19812 1.96267C2.61199 1.96813 2.16235 2.08136 1.74551 2.50918ZM4.21816 6.40566C3.75735 6.8786 3.73766 7.25043 3.73814 7.89244C3.73806 7.95708 3.73798 8.02171 3.7379 8.08831C3.73774 8.3048 3.73826 8.52129 3.73877 8.73779C3.7388 8.89301 3.73878 9.04824 3.73873 9.20346C3.7387 9.62492 3.73925 10.0464 3.73991 10.4678C3.74049 10.9082 3.74055 11.3487 3.74066 11.7891C3.74095 12.6231 3.74172 13.4572 3.74266 14.2912C3.74371 15.2407 3.74423 16.1902 3.7447 17.1397C3.74568 19.093 3.7474 21.0462 3.74941 22.9994C5.35816 22.9994 6.96691 22.9994 8.62441 22.9994C8.62441 17.4307 8.62441 11.8619 8.62441 6.12441C6.36179 5.97517 6.36179 5.97517 4.21816 6.40566ZM9.37441 6.12441C9.37441 11.6932 9.37441 17.2619 9.37441 22.9994C10.9832 22.9994 12.5919 22.9994 14.2494 22.9994C14.2558 20.9572 14.2609 18.915 14.264 16.8728C14.2654 15.9245 14.2674 14.9763 14.2706 14.028C14.2734 13.2015 14.2752 12.375 14.2759 11.5484C14.2762 11.1108 14.2771 10.6732 14.2792 10.2356C14.2811 9.82357 14.2816 9.41153 14.2812 8.99946C14.2813 8.84841 14.2819 8.69735 14.2829 8.5463C14.2843 8.3396 14.284 8.13297 14.2832 7.92626C14.2835 7.81072 14.2838 7.69518 14.284 7.57614C14.2323 7.08784 14.0987 6.72038 13.7396 6.37051C12.5717 5.62984 10.0366 6.12441 9.37441 6.12441Z"  fill-opacity="0.6"/>
<path d="M18.0746 9.81876C18.1424 9.81796 18.2102 9.81715 18.2801 9.81632C18.4227 9.81525 18.5653 9.81515 18.7079 9.81597C18.9238 9.81656 19.1393 9.81216 19.3552 9.80741C20.0505 9.80117 20.6299 9.82324 21.2094 10.2526C21.813 10.9307 21.8068 11.5159 21.8055 12.3998C21.8063 12.5272 21.8071 12.6545 21.808 12.7819C21.8094 13.0481 21.8093 13.3142 21.8083 13.5804C21.8072 13.9195 21.8104 14.2585 21.8148 14.5975C21.8175 14.8604 21.8177 15.1232 21.8171 15.3861C21.8172 15.5712 21.8198 15.7563 21.8225 15.9414C21.8149 16.687 21.7224 17.2072 21.1866 17.7502C20.7696 18.1006 20.3323 18.183 19.7987 18.1816C19.7309 18.1824 19.663 18.1832 19.5932 18.184C19.4506 18.1851 19.308 18.1852 19.1654 18.1843C18.9494 18.1838 18.7339 18.1882 18.5181 18.1929C17.8228 18.1991 17.2433 18.1771 16.6639 17.7477C16.0603 17.0696 16.0665 16.4844 16.0677 15.6005C16.067 15.4731 16.0662 15.3458 16.0653 15.2184C16.0639 14.9522 16.0639 14.6861 16.0649 14.4199C16.066 14.0808 16.0629 13.7418 16.0585 13.4028C16.0557 13.1399 16.0556 12.8771 16.0562 12.6142C16.056 12.4291 16.0534 12.244 16.0508 12.0589C16.0584 11.3133 16.1509 10.7931 16.6866 10.2502C17.1036 9.89973 17.5409 9.81733 18.0746 9.81876ZM17.1202 11.1349C16.8964 11.4878 16.8625 11.7823 16.859 12.1954C16.8581 12.2833 16.8572 12.3713 16.8563 12.4619C16.8559 12.5563 16.8555 12.6508 16.8551 12.7481C16.8546 12.8459 16.854 12.9437 16.8535 13.0444C16.8526 13.2513 16.852 13.4581 16.8516 13.665C16.8507 13.9804 16.8478 14.2958 16.8448 14.6112C16.8442 14.8124 16.8437 15.0136 16.8434 15.2149C16.8422 15.3087 16.8411 15.4026 16.8399 15.4993C16.8416 16.0422 16.8916 16.4282 17.1554 16.9064C17.6906 17.4279 18.2107 17.3945 18.9191 17.3986C19.0013 17.4005 19.0835 17.4025 19.1683 17.4045C19.6968 17.4076 20.0639 17.3474 20.5304 17.0939C20.9277 16.6861 21.0096 16.3595 21.0142 15.8049C21.0151 15.717 21.016 15.629 21.017 15.5384C21.0174 15.444 21.0178 15.3495 21.0182 15.2522C21.019 15.1055 21.019 15.1055 21.0198 14.9559C21.0207 14.749 21.0213 14.5422 21.0217 14.3353C21.0226 14.0199 21.0255 13.7045 21.0284 13.3891C21.029 13.1879 21.0295 12.9867 21.0299 12.7854C21.031 12.6916 21.0322 12.5977 21.0334 12.501C21.0317 11.9581 20.9817 11.5721 20.7179 11.0939C20.1827 10.5724 19.6625 10.6058 18.9542 10.6017C18.872 10.5998 18.7897 10.5979 18.705 10.5959C18.0687 10.5921 17.5831 10.6598 17.1202 11.1349Z"  fill-opacity="0.6"/>
<path d="M18.925 11.1289C19.5159 11.2471 19.8569 11.6997 20.1965 12.1719C20.4102 12.5134 20.5296 12.7473 20.4367 13.1562C20.3158 13.4031 20.3158 13.4031 20.0617 13.625C19.6862 13.6971 19.3179 13.6903 18.9367 13.6836C18.783 13.6863 18.783 13.6863 18.6261 13.6891C17.8874 13.6846 17.8874 13.6846 17.5539 13.4221C17.4153 13.1077 17.3829 12.9338 17.4367 12.5938C17.5843 12.3264 17.5843 12.3264 17.7824 12.0664C17.8466 11.9801 17.9107 11.8938 17.9769 11.8049C18.2577 11.4804 18.4986 11.2216 18.925 11.1289ZM18.8429 12.125C18.502 12.4512 18.502 12.4512 18.3742 12.875C18.7454 12.875 19.1167 12.875 19.4992 12.875C19.356 12.5886 19.2359 12.3647 19.0304 12.125C18.9686 12.125 18.9067 12.125 18.8429 12.125Z"  fill-opacity="0.6"/>
<path d="M18.9375 14.316C19.031 14.3142 19.1246 14.3124 19.2209 14.3105C19.8926 14.315 19.8926 14.315 20.2207 14.5717C20.3769 14.9167 20.3987 15.1242 20.3438 15.4996C20.1691 15.7827 20.1691 15.7827 19.9395 16.0446C19.8644 16.1322 19.7894 16.2198 19.712 16.3101C19.4678 16.5644 19.3075 16.7046 18.9551 16.7594C18.4119 16.6848 18.1116 16.2897 17.7773 15.8864C17.5844 15.6167 17.53 15.492 17.4727 15.1539C17.6369 14.2835 18.1767 14.3013 18.9375 14.316ZM18.4688 15.1246C18.6427 15.4919 18.6427 15.4919 18.8438 15.7809C18.9056 15.7809 18.9675 15.7809 19.0312 15.7809C19.3149 15.4944 19.3149 15.4944 19.4062 15.1246C19.0969 15.1246 18.7875 15.1246 18.4688 15.1246Z"  fill-opacity="0.6"/>
<path d="M7.24976 3.48774C7.33579 3.48745 7.42182 3.48715 7.51045 3.48685C7.65078 3.48713 7.65078 3.48713 7.79395 3.48742C7.88931 3.48733 7.98468 3.48724 8.08293 3.48715C8.285 3.48709 8.48708 3.48726 8.68915 3.48765C8.99964 3.48815 9.31012 3.48766 9.62061 3.48706C9.81641 3.48712 10.0122 3.48724 10.208 3.48742C10.3016 3.48723 10.3951 3.48704 10.4915 3.48685C10.5775 3.48714 10.6636 3.48744 10.7522 3.48774C10.8283 3.48782 10.9044 3.48789 10.9829 3.48797C11.1572 3.49987 11.1572 3.49987 11.251 3.59362C11.2627 3.87487 11.2627 3.87487 11.251 4.15612C11.1035 4.30359 10.9569 4.2618 10.7522 4.262C10.6662 4.2623 10.5801 4.26259 10.4915 4.2629C10.3979 4.26271 10.3044 4.26252 10.208 4.26232C10.1126 4.26241 10.0173 4.2625 9.91902 4.2626C9.71695 4.26266 9.51488 4.26249 9.31281 4.26209C9.00232 4.26159 8.69184 4.26209 8.38135 4.26269C8.18555 4.26263 7.98975 4.26251 7.79395 4.26232C7.65362 4.26261 7.65362 4.26261 7.51045 4.2629C7.42442 4.2626 7.33839 4.26231 7.24976 4.262C7.17364 4.26193 7.09752 4.26185 7.01909 4.26178C6.84473 4.24987 6.84473 4.24987 6.75098 4.15612C6.73926 3.87487 6.73926 3.87487 6.75098 3.59362C6.89845 3.44615 7.04506 3.48794 7.24976 3.48774Z"  fill-opacity="0.6"/>
</svg>
