<svg  viewBox="0 0 180 180" fill="none" xmlns="http://www.w3.org/2000/svg">
<ellipse opacity="0.1" cx="90" cy="174.599" rx="90" ry="5.4" fill="black" fill-opacity="0.4"/>
<path fill-rule="evenodd" clip-rule="evenodd" d="M139.779 29.869C139.819 27.2503 141.974 25.1598 144.593 25.1998C147.212 25.2398 149.302 27.3952 149.262 30.014L149.113 39.7685C149.073 42.3873 146.918 44.4778 144.299 44.4378C141.68 44.3978 139.59 42.2424 139.63 39.6236L139.779 29.869ZM144.538 28.7994C143.907 28.7897 143.388 29.2933 143.378 29.924L143.229 39.6786C143.219 40.3094 143.723 40.8286 144.354 40.8382C144.985 40.8478 145.504 40.3443 145.513 39.7135L145.662 29.959C145.672 29.3282 145.169 28.809 144.538 28.7994ZM149.798 49.5724C149.838 46.9536 151.994 44.8631 154.612 44.9032L164.367 45.0523C166.986 45.0923 169.076 47.2477 169.036 49.8664C168.996 52.4852 166.841 54.5757 164.222 54.5357L154.467 54.3866C151.849 54.3466 149.758 52.1912 149.798 49.5724ZM154.557 48.5028C153.927 48.4931 153.407 48.9967 153.398 49.6274C153.388 50.2582 153.892 50.7774 154.522 50.787L164.277 50.9361C164.908 50.9457 165.427 50.4422 165.437 49.8114C165.446 49.1806 164.943 48.6615 164.312 48.6518L154.557 48.5028ZM39.9526 57.1735C41.3816 51.6003 46.4043 47.703 52.1578 47.703H133.243C138.996 47.703 144.019 51.6003 145.448 57.1735L154.195 91.2872C154.617 92.935 154.702 94.6513 154.443 96.3326L149.362 129.363C148.416 135.509 143.127 140.047 136.908 140.047H61.1298C57.3683 149.232 48.3396 155.703 37.7996 155.703C23.882 155.703 12.5996 144.421 12.5996 130.503C12.5996 118.462 21.0455 108.393 32.3365 105.897L30.9322 96.2788C30.6911 94.6278 30.7804 92.9452 31.1948 91.3289L39.9526 57.1735ZM35.8983 105.374C36.5259 105.327 37.16 105.303 37.7996 105.303C51.7172 105.303 62.9996 116.586 62.9996 130.503C62.9996 132.551 62.7554 134.541 62.2947 136.447H136.908C141.35 136.447 145.128 133.206 145.804 128.815L150.885 95.7852L150.896 95.7156L150.902 95.6738H124.06L116.451 106.326C114.086 109.637 110.268 111.602 106.198 111.602H80.3377C76.2685 111.602 72.4498 109.637 70.0846 106.326L62.4761 95.6738H34.4824L34.4944 95.7587L35.8983 105.374ZM141.961 58.0676L150.68 92.0738H138.87V90.9372V90.8345V81.3589V79.458V68.0796C138.87 63.109 134.841 59.0796 129.87 59.0796H55.5271C50.5566 59.0796 46.5271 63.109 46.5271 68.0796V79.458V81.3589V90.8345V90.9372V92.0738H34.7203L43.4398 58.0676C44.4605 54.0868 48.0482 51.303 52.1578 51.303H133.243C137.352 51.303 140.94 54.0868 141.961 58.0676ZM135.27 72.2573C133.766 71.1274 131.897 70.4579 129.87 70.4579H55.5271C53.501 70.4579 51.6313 71.1274 50.1271 72.2573V68.0796C50.1271 65.0973 52.5448 62.6796 55.5271 62.6796H129.87C132.853 62.6796 135.27 65.0973 135.27 68.0796V72.2573ZM50.1271 92.0738H63.4025C63.9838 92.0738 64.5293 92.3545 64.8672 92.8276L73.0141 104.233C74.7035 106.598 77.4311 108.002 80.3377 108.002H106.198C109.105 108.002 111.833 106.598 113.522 104.233L121.669 92.8276C122.007 92.3545 122.552 92.0738 123.134 92.0738H135.27V91.1077L134.908 89.2133C134.862 88.973 134.807 88.7365 134.743 88.504C133.873 86.6884 132.018 85.4345 129.87 85.4345H55.5271C53.0426 85.4345 50.9499 87.1125 50.3206 89.397C50.2906 89.5744 50.2657 89.7537 50.2461 89.9348L50.1271 91.0344V92.0738ZM16.1996 130.503C16.1996 118.574 25.8703 108.903 37.7996 108.903C49.7289 108.903 59.3996 118.574 59.3996 130.503C59.3996 142.433 49.7289 152.103 37.7996 152.103C25.8703 152.103 16.1996 142.433 16.1996 130.503ZM33.2996 118.803C33.2996 116.318 35.3143 114.303 37.7996 114.303C40.2849 114.303 42.2996 116.318 42.2996 118.803V129.603C42.2996 132.089 40.2849 134.103 37.7996 134.103C35.3143 134.103 33.2996 132.089 33.2996 129.603V118.803ZM37.7996 117.903C37.3025 117.903 36.8996 118.306 36.8996 118.803V129.603C36.8996 130.1 37.3025 130.503 37.7996 130.503C38.2967 130.503 38.6996 130.1 38.6996 129.603V118.803C38.6996 118.306 38.2967 117.903 37.7996 117.903ZM37.7996 146.703C35.3143 146.703 33.2996 144.689 33.2996 142.203C33.2996 139.718 35.3143 137.703 37.7996 137.703C40.2849 137.703 42.2996 139.718 42.2996 142.203C42.2996 144.689 40.2849 146.703 37.7996 146.703ZM36.8996 142.203C36.8996 142.7 37.3025 143.103 37.7996 143.103C38.2967 143.103 38.6996 142.7 38.6996 142.203C38.6996 141.706 38.2967 141.303 37.7996 141.303C37.3025 141.303 36.8996 141.706 36.8996 142.203Z" fill="black" fill-opacity="0.4"/>
</svg>
