<svg width="24" height="25" viewBox="0 0 24 25" xmlns="http://www.w3.org/2000/svg">
<g clip-path="url(#clip0_1333_159265)">
<path d="M6.3934 5.54916C6.51497 5.54862 6.63654 5.54809 6.76179 5.54754C6.89683 5.54742 7.03187 5.54731 7.16691 5.54722C7.3089 5.54679 7.45088 5.54631 7.59287 5.54581C7.97893 5.54458 8.365 5.54397 8.75106 5.54356C8.99236 5.54328 9.23366 5.5429 9.47496 5.54248C10.2302 5.5412 10.9855 5.54029 11.7407 5.53993C12.612 5.53951 13.4832 5.53787 14.3545 5.53515C15.0282 5.53312 15.702 5.53218 16.3757 5.53205C16.7779 5.53195 17.1801 5.5314 17.5824 5.52972C17.9611 5.52818 18.3397 5.52798 18.7184 5.5288C18.857 5.52887 18.9956 5.52847 19.1342 5.52754C20.4571 5.51919 20.4571 5.51919 21.0942 5.84358C21.4373 6.19541 21.5604 6.4439 21.5688 6.93928C21.5669 7.04176 21.5649 7.14424 21.563 7.24983C21.6208 7.23303 21.6787 7.21623 21.7384 7.19892C22.3386 7.04817 22.7976 7.02435 23.3442 7.34358C23.677 7.64703 23.9807 7.97122 24.0228 8.43195C24.0461 9.42003 24.0461 9.42003 23.6255 9.87483C23.2577 10.2531 22.8362 10.4167 22.313 10.4373C22.0655 10.3755 21.818 10.3136 21.563 10.2498C21.563 11.8586 21.563 13.4673 21.563 15.1248C22.2126 15.1248 22.8623 15.1248 23.5317 15.1248C24.0612 15.6543 24.0612 15.6543 24.0691 16.2117C24.0677 16.2862 24.0663 16.3606 24.0649 16.4373C24.0675 16.5118 24.0701 16.5862 24.0728 16.6629C24.0711 17.0694 24.034 17.2384 23.776 17.5664C23.3745 17.8446 22.9348 17.8009 22.4653 17.7791C22.3784 17.777 22.2915 17.7749 22.202 17.7727C21.9888 17.7672 21.776 17.7595 21.563 17.7498C21.5662 17.8509 21.5695 17.9519 21.5728 18.056C21.5596 18.526 21.4579 18.6829 21.188 19.0623C20.782 19.3668 20.4109 19.4477 19.9117 19.4539C19.7841 19.4557 19.7841 19.4557 19.6538 19.4576C19.5626 19.4583 19.4714 19.459 19.3774 19.4597C19.2831 19.4604 19.1888 19.4612 19.0917 19.462C18.8924 19.4633 18.6932 19.4643 18.494 19.465C18.1891 19.4666 17.8842 19.4707 17.5793 19.4749C17.3857 19.4758 17.1921 19.4766 16.9985 19.4772C16.9073 19.4789 16.8161 19.4805 16.7221 19.4822C16.0919 19.4802 16.0919 19.4802 15.7831 19.2601C15.6567 19.0623 15.6567 19.0623 15.6684 18.8572C15.7505 18.6873 15.7505 18.6873 15.938 18.5936C16.0815 18.5834 16.2255 18.5789 16.3694 18.5773C16.4588 18.576 16.5483 18.5748 16.6405 18.5735C16.7858 18.572 16.7858 18.572 16.9341 18.5705C17.1377 18.5674 17.3413 18.5643 17.5449 18.5612C17.8671 18.5567 18.1893 18.5525 18.5115 18.5489C18.8216 18.5452 19.1317 18.5403 19.4419 18.5353C19.5387 18.5346 19.6356 18.5338 19.7354 18.533C19.8696 18.5306 19.8696 18.5306 20.0066 18.5282C20.125 18.5268 20.125 18.5268 20.2458 18.5253C20.4589 18.5169 20.4589 18.5169 20.6255 18.3123C20.654 18.0997 20.654 18.0997 20.6493 17.8497C20.6498 17.7519 20.6503 17.6541 20.6509 17.5533C20.6505 17.4456 20.6501 17.3379 20.6497 17.2269C20.65 17.1138 20.6504 17.0007 20.6507 16.8841C20.6514 16.5734 20.6512 16.2628 20.6506 15.9521C20.6502 15.6273 20.6506 15.3026 20.6509 14.9779C20.6512 14.4325 20.6508 13.8871 20.6499 13.3417C20.6489 12.7107 20.6492 12.0796 20.6502 11.4486C20.6511 10.9073 20.6512 10.3661 20.6507 9.82485C20.6504 9.50134 20.6504 9.17783 20.651 8.85432C20.6517 8.4938 20.6508 8.13329 20.6497 7.77277C20.6503 7.61117 20.6503 7.61117 20.6509 7.44631C20.6501 7.29961 20.6501 7.29961 20.6493 7.14994C20.6492 7.06463 20.6491 6.97932 20.6491 6.89143C20.6446 6.66764 20.6446 6.66764 20.438 6.49983C20.1719 6.47102 20.1719 6.47102 19.8543 6.47561C19.7938 6.47527 19.7333 6.47492 19.671 6.47457C19.4673 6.47363 19.2636 6.47402 19.0599 6.4744C18.9142 6.47399 18.7686 6.47349 18.6229 6.47291C18.3088 6.47183 17.9947 6.47132 17.6806 6.47124C17.1844 6.47105 16.6881 6.46936 16.1919 6.46741C14.9592 6.4628 13.7266 6.45991 12.4939 6.45792C11.5361 6.45637 10.5783 6.45424 9.62052 6.45013C9.1268 6.44809 8.63309 6.44734 8.13935 6.44755C7.83266 6.44739 7.52599 6.44608 7.21931 6.44443C7.07668 6.44391 6.93404 6.44386 6.79141 6.44433C6.59727 6.4449 6.40322 6.44377 6.20908 6.44219C6.04586 6.44191 6.04586 6.44191 5.87934 6.44162C5.79556 6.42989 5.71178 6.41816 5.62546 6.40608C5.43796 6.12483 5.43796 6.12483 5.47311 5.87287C5.49245 5.80133 5.51179 5.72979 5.53171 5.65608C5.84037 5.55319 6.06833 5.55002 6.3934 5.54916ZM21.6567 8.28108C21.523 8.54857 21.5339 8.73431 21.563 9.03108C21.7317 9.28419 21.8521 9.45688 22.1255 9.59358C22.4885 9.63391 22.6434 9.62327 22.9516 9.41779C23.1935 9.18281 23.2427 9.10096 23.2798 8.7674C23.2437 8.40007 23.1293 8.26111 22.8755 7.99983C22.3788 7.75147 22.0309 7.91756 21.6567 8.28108ZM21.563 15.8748C21.563 16.2151 21.563 16.5555 21.563 16.9061C22.1198 16.9061 22.6767 16.9061 23.2505 16.9061C23.2505 16.5658 23.2505 16.2255 23.2505 15.8748C22.6936 15.8748 22.1367 15.8748 21.563 15.8748Z" fill-opacity="0.6"/>
<path d="M1.98999 5.5413C2.06123 5.54134 2.13246 5.54139 2.20586 5.54143C2.35523 5.54171 2.50461 5.54244 2.65398 5.54361C2.88273 5.54533 3.11145 5.54553 3.34021 5.54551C3.48584 5.54597 3.63147 5.54652 3.7771 5.54716C3.84537 5.54726 3.91363 5.54737 3.98396 5.54748C4.2746 5.55021 4.50266 5.56404 4.78052 5.65666C4.83911 5.87345 4.83911 5.87345 4.87427 6.12541C4.8124 6.21822 4.75052 6.31103 4.68677 6.40666C4.41789 6.43486 4.16818 6.44574 3.89905 6.44474C3.82091 6.44576 3.74277 6.44677 3.66226 6.44782C3.41196 6.45104 3.1617 6.4525 2.91138 6.45353C2.58236 6.45489 2.25343 6.45805 1.92444 6.46232C1.84856 6.46204 1.77267 6.46175 1.69449 6.46146C1.30673 6.45798 1.30673 6.45798 0.963629 6.61415C0.803723 6.83623 0.807652 6.97519 0.807306 7.2478C0.806117 7.39212 0.806117 7.39212 0.804903 7.53936C0.805472 7.64486 0.806042 7.75036 0.806628 7.85905C0.806135 7.97019 0.805643 8.08134 0.805135 8.19585C0.804108 8.50074 0.80435 8.80559 0.805241 9.11048C0.805953 9.4294 0.805293 9.74833 0.804852 10.0673C0.80434 10.6029 0.805014 11.1385 0.806354 11.6741C0.807884 12.2935 0.807388 12.9128 0.80584 13.5322C0.804564 14.0638 0.804383 14.5955 0.805119 15.1271C0.805558 15.4447 0.805616 15.7622 0.804687 16.0798C0.803976 16.4338 0.805059 16.7878 0.806628 17.1418C0.806059 17.2473 0.80549 17.3528 0.804903 17.4614C0.805696 17.5577 0.806489 17.6539 0.807306 17.753C0.807465 17.8786 0.807465 17.8786 0.807628 18.0067C0.829014 18.2218 0.829014 18.2218 0.951143 18.3867C1.19867 18.5493 1.38493 18.536 1.68002 18.5365C1.79609 18.5374 1.91217 18.5383 2.03176 18.5393C2.1606 18.5389 2.28945 18.5384 2.4183 18.538C2.55381 18.5385 2.68932 18.5392 2.82483 18.5399C3.11673 18.5414 3.40861 18.5419 3.70051 18.5418C4.16174 18.5416 4.62295 18.5434 5.08418 18.5455C5.97972 18.5494 6.87527 18.5511 7.77082 18.5527C8.91112 18.5548 10.0514 18.5579 11.1917 18.5627C11.6505 18.5646 12.1094 18.5655 12.5682 18.5656C12.8532 18.5659 13.1381 18.5669 13.4231 18.5681C13.5556 18.5685 13.6881 18.5686 13.8206 18.5683C14.001 18.568 14.1813 18.5689 14.3617 18.5699C14.4628 18.5701 14.5639 18.5702 14.668 18.5704C14.9055 18.5942 14.9055 18.5942 15.093 18.7817C15.0696 19.0688 15.0696 19.0688 14.9993 19.3442C14.7489 19.4694 14.5581 19.45 14.2776 19.4504C14.1639 19.4508 14.0502 19.4512 13.9331 19.4517C13.8064 19.4516 13.6797 19.4516 13.553 19.4515C13.4201 19.4518 13.2873 19.4521 13.1544 19.4525C12.7927 19.4533 12.4311 19.4535 12.0694 19.4536C11.7675 19.4537 11.4656 19.454 11.1637 19.4544C10.451 19.4551 9.73842 19.4553 9.0258 19.4553C8.29112 19.4552 7.55645 19.4562 6.82177 19.4577C6.19095 19.4589 5.56013 19.4594 4.92931 19.4594C4.5526 19.4593 4.17589 19.4596 3.79918 19.4606C3.44452 19.4615 3.08987 19.4615 2.73521 19.4608C2.60532 19.4607 2.47543 19.4609 2.34555 19.4615C0.752212 19.468 0.752212 19.468 0.244054 18.9845C-0.122957 18.5098 -0.0794544 17.9882 -0.073514 17.4113C-0.0744997 17.2934 -0.0754853 17.1755 -0.0765009 17.054C-0.0790549 16.732 -0.0780756 16.4102 -0.0762877 16.0882C-0.0748582 15.7504 -0.0761858 15.4127 -0.0770674 15.0749C-0.0780892 14.5078 -0.0767462 13.9407 -0.0740633 13.3736C-0.0710022 12.7191 -0.0719939 12.0646 -0.0750906 11.41C-0.0776477 10.8469 -0.0780014 10.2837 -0.0765315 9.72055C-0.0756569 9.3847 -0.0755307 9.0489 -0.0773957 8.71306C-0.0793306 8.33849 -0.0766451 7.96408 -0.073514 7.58952C-0.0746526 7.47895 -0.0757912 7.36837 -0.0769644 7.25445C-0.0677597 6.65962 -0.0144994 6.29745 0.410517 5.8654C0.871264 5.5151 1.43653 5.53578 1.98999 5.5413Z" fill-opacity="0.6"/>
<path d="M14.4736 7.42004C14.5787 7.41871 14.6839 7.41739 14.7922 7.41602C15.1009 7.43807 15.2953 7.47171 15.5635 7.62512C15.9019 8.04588 15.8848 8.43341 15.8811 8.94861C15.8816 9.03388 15.8821 9.11915 15.8826 9.207C15.8838 9.48832 15.883 9.76958 15.8821 10.0509C15.8822 10.2467 15.8825 10.4425 15.8829 10.6383C15.8833 11.0484 15.8827 11.4585 15.8814 11.8686C15.8798 12.3941 15.8807 12.9196 15.8824 13.4451C15.8834 13.8494 15.8831 14.2536 15.8823 14.6578C15.8822 14.8516 15.8824 15.0453 15.883 15.2391C15.8838 15.51 15.8827 15.7808 15.8811 16.0516C15.882 16.1716 15.882 16.1716 15.8828 16.294C15.8781 16.7306 15.8484 17.0215 15.5635 17.3751C15.2214 17.567 14.9202 17.588 14.5322 17.5861C14.3901 17.5868 14.3901 17.5868 14.2451 17.5875C13.8803 17.5545 13.621 17.4865 13.3491 17.2342C13.1519 16.8776 13.1798 16.5401 13.1818 16.1388C13.1812 16.0517 13.1805 15.9646 13.1799 15.8749C13.1782 15.587 13.1785 15.2991 13.1791 15.0112C13.1786 14.8111 13.1781 14.611 13.1776 14.4109C13.1767 13.9914 13.177 13.5719 13.1779 13.1524C13.179 12.6147 13.1771 12.0772 13.1743 11.5396C13.1726 11.1262 13.1726 10.7129 13.1732 10.2996C13.1732 10.1014 13.1726 9.9032 13.1715 9.70498C13.1701 9.42781 13.1711 9.15073 13.1727 8.87356C13.1718 8.79168 13.1709 8.70979 13.1699 8.62543C13.1745 8.24615 13.1908 8.04748 13.3926 7.71702C13.7299 7.40717 14.0328 7.42257 14.4736 7.42004ZM14.0635 8.28137C14.0635 11.0657 14.0635 13.8501 14.0635 16.7189C14.3728 16.7189 14.6822 16.7189 15.001 16.7189C15.001 13.9345 15.001 11.1501 15.001 8.28137C14.6916 8.28137 14.3822 8.28137 14.0635 8.28137Z" fill-opacity="0.6"/>
<path d="M18.3232 7.41357C18.4796 7.40995 18.4796 7.40995 18.6392 7.40625C18.9729 7.44056 19.1412 7.51749 19.4072 7.71826C19.6559 8.09138 19.6224 8.4169 19.6219 8.85017C19.6229 8.98078 19.6229 8.98078 19.6238 9.11402C19.6256 9.40244 19.626 9.69083 19.6262 9.97925C19.6268 10.1795 19.6274 10.3798 19.6281 10.58C19.6292 11.0001 19.6295 11.4201 19.6294 11.8402C19.6294 12.3786 19.632 12.9169 19.6352 13.4552C19.6373 13.8689 19.6377 14.2826 19.6376 14.6964C19.6378 14.8948 19.6386 15.0933 19.6401 15.2918C19.6419 15.5694 19.6414 15.847 19.6402 16.1246C19.6413 16.2066 19.6423 16.2886 19.6434 16.3732C19.6395 16.753 19.6238 16.9517 19.4219 17.2827C19.0844 17.5924 18.7816 17.5771 18.3408 17.5796C18.2356 17.5809 18.1305 17.5822 18.0222 17.5836C17.616 17.5546 17.3527 17.4763 17.0634 17.187C16.9346 16.7946 16.9558 16.3937 16.9561 15.9851C16.9557 15.9017 16.9554 15.8183 16.9551 15.7323C16.9542 15.4566 16.954 15.1809 16.9539 14.9052C16.9536 14.7134 16.9533 14.5217 16.953 14.33C16.9524 13.9282 16.9523 13.5263 16.9523 13.1245C16.9523 12.6096 16.951 12.0947 16.9494 11.5798C16.9484 11.1838 16.9482 10.7879 16.9482 10.392C16.9481 10.2021 16.9477 10.0123 16.947 9.82243C16.9461 9.55695 16.9463 9.2915 16.9469 9.02602C16.9464 8.94765 16.9459 8.86927 16.9453 8.78852C16.948 8.28836 16.9741 7.90135 17.3447 7.53076C17.6652 7.41739 17.9857 7.41826 18.3232 7.41357ZM17.8134 8.28076C17.8134 11.0651 17.8134 13.8495 17.8134 16.7183C18.1228 16.7183 18.4322 16.7183 18.7509 16.7183C18.7509 13.9339 18.7509 11.1495 18.7509 8.28076C18.4416 8.28076 18.1322 8.28076 17.8134 8.28076Z" fill-opacity="0.6"/>
<path d="M3.22945 7.41357C3.38589 7.40995 3.38589 7.40995 3.54549 7.40625C3.87917 7.44056 4.04746 7.51749 4.31343 7.71826C4.56218 8.09138 4.52862 8.4169 4.52817 8.85017C4.52911 8.98078 4.52911 8.98078 4.53008 9.11402C4.53186 9.40244 4.53223 9.69083 4.53243 9.97925C4.53303 10.1795 4.53366 10.3798 4.53432 10.58C4.53544 11.0001 4.53579 11.4201 4.53568 11.8402C4.53566 12.3786 4.53822 12.9169 4.54145 13.4552C4.54353 13.8689 4.54391 14.2826 4.54381 14.6964C4.54403 14.8948 4.54486 15.0933 4.54631 15.2918C4.54815 15.5694 4.54761 15.847 4.54648 16.1246C4.54753 16.2066 4.54859 16.2886 4.54967 16.3732C4.54574 16.753 4.53009 16.9517 4.32816 17.2827C3.99066 17.5924 3.68785 17.5771 3.24703 17.5796C3.14189 17.5809 3.03675 17.5822 2.92842 17.5836C2.5223 17.5546 2.25898 17.4763 1.96968 17.187C1.8409 16.7946 1.86209 16.3937 1.86231 15.9851C1.862 15.9017 1.86168 15.8183 1.86136 15.7323C1.86047 15.4566 1.86029 15.1809 1.86019 14.9052C1.85988 14.7134 1.85957 14.5217 1.85924 14.33C1.85868 13.9282 1.85851 13.5263 1.85856 13.1245C1.85857 12.6096 1.85729 12.0947 1.85568 11.5798C1.85463 11.1838 1.85444 10.7879 1.85449 10.392C1.85438 10.2021 1.85397 10.0123 1.85324 9.82243C1.85232 9.55695 1.85259 9.2915 1.85316 9.02602C1.85263 8.94765 1.85211 8.86927 1.85156 8.78852C1.85427 8.28836 1.88034 7.90135 2.25093 7.53076C2.57143 7.41739 2.89193 7.41826 3.22945 7.41357ZM2.71968 8.28076C2.71968 11.0651 2.71968 13.8495 2.71968 16.7183C3.02906 16.7183 3.33843 16.7183 3.65718 16.7183C3.65718 13.9339 3.65718 11.1495 3.65718 8.28076C3.34781 8.28076 3.03843 8.28076 2.71968 8.28076Z" fill-opacity="0.6"/>
<path d="M6.97348 7.42004C7.07862 7.41871 7.18376 7.41739 7.29208 7.41602C7.59521 7.43767 7.79599 7.48295 8.06332 7.62512C8.25355 7.91046 8.27439 7.9661 8.2759 8.28646C8.27669 8.36361 8.27749 8.44076 8.27832 8.52025C8.27823 8.60456 8.27815 8.68887 8.27806 8.77573C8.27901 8.90931 8.27901 8.90931 8.27997 9.04558C8.28175 9.34053 8.28212 9.63546 8.28232 9.93042C8.28292 10.1351 8.28355 10.3398 8.28421 10.5445C8.28533 10.9738 8.28568 11.403 8.28557 11.8323C8.28555 12.3829 8.28811 12.9334 8.29134 13.4839C8.29342 13.9067 8.2938 14.3295 8.2937 14.7523C8.29393 14.9553 8.29476 15.1583 8.2962 15.3613C8.29804 15.645 8.2975 15.9287 8.29637 16.2124C8.29743 16.2965 8.29848 16.3806 8.29956 16.4673C8.2938 17.035 8.2938 17.035 8.07806 17.3306C7.57537 17.6743 6.96031 17.6042 6.37582 17.5626C5.85924 17.3732 5.85924 17.3732 5.71957 17.0939C5.70884 16.807 5.70383 16.5221 5.70298 16.2352C5.70236 16.1461 5.70175 16.0571 5.70111 15.9653C5.69926 15.6699 5.69817 15.3744 5.69724 15.079C5.69685 14.9783 5.69647 14.8775 5.69608 14.7738C5.69412 14.2408 5.69278 13.7079 5.6919 13.175C5.69086 12.6237 5.68764 12.0724 5.68392 11.5212C5.68147 11.098 5.68068 10.6748 5.68034 10.2516C5.67989 10.0483 5.67879 9.84504 5.67706 9.64178C5.67479 9.35761 5.67486 9.07353 5.67551 8.78935C5.67431 8.70509 5.67311 8.62082 5.67188 8.534C5.67665 7.96524 5.67665 7.96524 5.89225 7.66955C6.24944 7.42561 6.55134 7.42246 6.97348 7.42004ZM6.46957 8.28137C6.46957 11.0657 6.46957 13.8501 6.46957 16.7189C6.80989 16.7189 7.1502 16.7189 7.50082 16.7189C7.50082 13.9345 7.50082 11.1501 7.50082 8.28137C7.16051 8.28137 6.8202 8.28137 6.46957 8.28137Z" fill-opacity="0.6"/>
<path d="M11.6952 7.56716C11.9062 7.7195 11.9062 7.7195 11.9999 7.907C12.0106 8.19391 12.0157 8.47873 12.0165 8.76572C12.0171 8.85476 12.0177 8.94379 12.0184 9.03553C12.0202 9.33098 12.0213 9.62643 12.0223 9.92189C12.0226 10.0226 12.023 10.1233 12.0234 10.2271C12.0254 10.76 12.0267 11.2929 12.0276 11.8259C12.0286 12.3772 12.0318 12.9284 12.0356 13.4797C12.038 13.9029 12.0388 14.3261 12.0391 14.7493C12.0396 14.9526 12.0407 15.1558 12.0424 15.3591C12.0447 15.6433 12.0446 15.9273 12.044 16.2115C12.0452 16.2958 12.0464 16.3801 12.0476 16.4669C12.0428 17.0356 12.0428 17.0356 11.8272 17.3313C11.4718 17.5741 11.1664 17.5809 10.746 17.5867C10.5883 17.5903 10.5883 17.5903 10.4274 17.594C10.0039 17.5509 9.76528 17.3911 9.46866 17.0945C9.44902 16.8055 9.44114 16.5249 9.44143 16.2358C9.4408 16.1467 9.44017 16.0577 9.43952 15.966C9.43773 15.6705 9.43737 15.3751 9.43717 15.0796C9.43657 14.8748 9.43594 14.67 9.43528 14.4651C9.43415 14.0353 9.43381 13.6055 9.43392 13.1756C9.43394 12.6243 9.43138 12.0731 9.42815 11.5218C9.42607 11.0986 9.42568 10.6754 9.42578 10.2522C9.42556 10.0489 9.42473 9.84567 9.42328 9.64241C9.42145 9.35823 9.42198 9.07416 9.42311 8.78998C9.42206 8.70571 9.42101 8.62145 9.41992 8.53463C9.42569 7.96591 9.42569 7.96591 9.64143 7.67017C10.2111 7.28098 11.0721 7.33866 11.6952 7.56716ZM10.2187 8.282C10.2187 11.0664 10.2187 13.8508 10.2187 16.7195C10.559 16.7195 10.8993 16.7195 11.2499 16.7195C11.2499 13.9351 11.2499 11.1508 11.2499 8.282C10.9096 8.282 10.5693 8.282 10.2187 8.282Z" fill-opacity="0.6"/>
</g>
<defs>
<clipPath id="clip0_1333_159265">
<rect width="24" height="24" fill="white" transform="translate(0 0.5)"/>
</clipPath>
</defs>
</svg>
