<svg width="44" height="29" viewBox="0 0 44 29" fill="none" xmlns="http://www.w3.org/2000/svg">
<path d="M11.9 0C10.9684 0 10.2 0.756231 10.2 1.67308V3.90385C10.2 4.65115 11.3447 4.64 11.3333 3.90385V1.67308C11.3333 1.35408 11.5759 1.11538 11.9 1.11538H22.1C22.4241 1.11538 22.6667 1.35408 22.6667 1.67308V3.90385C22.6667 4.64 23.8 4.65115 23.8 3.90385V1.67308C23.8 0.756231 23.0316 0 22.1 0H11.9ZM31.1576 7.80769C30.9899 7.80769 30.8346 7.87239 30.7349 8.00623L24.5015 15.2562C23.9802 15.8608 23.6459 16.2422 23.3455 16.443C23.1574 16.569 22.9375 16.6371 22.6655 16.6806V16.1731C22.6655 15.8641 22.4128 15.6154 22.0989 15.6154C21.7849 15.6154 21.5322 15.8641 21.5322 16.1731V16.7308H12.4655V16.1731C12.4655 15.8641 12.2128 15.6154 11.8989 15.6154C11.5849 15.6154 11.3322 15.8641 11.3322 16.1731V16.6806C11.0602 16.636 10.8403 16.569 10.6522 16.443C10.3519 16.2422 10.0175 15.8608 9.4962 15.2562L3.26287 8.00623C3.15407 7.87462 3.0056 7.80546 2.8322 7.80769C2.3562 7.80769 2.0842 8.36761 2.40153 8.72454L8.63487 15.9745C9.1494 16.5746 9.51547 17.0297 10.0153 17.3643C10.387 17.613 10.8165 17.758 11.3322 17.816V18.4038C11.3322 18.7128 11.5849 18.9615 11.8989 18.9615C12.2128 18.9615 12.4655 18.7128 12.4655 18.4038V17.8462H21.5322V18.4038C21.5322 18.7128 21.7849 18.9615 22.0989 18.9615C22.4128 18.9615 22.6655 18.7128 22.6655 18.4038V17.816C23.1812 17.758 23.6107 17.613 23.9825 17.3643C24.4811 17.0297 24.8483 16.5746 25.3651 15.9745L31.5985 8.72454C31.9045 8.42115 31.6438 7.80769 31.1565 7.80769H31.1576ZM1.7 5.57692C0.7684 5.57692 0 6.33315 0 7.25V27.3269C0 28.2438 0.7684 29 1.7 29H32.3C33.2316 29 34 28.2438 34 27.3269V7.25C34 6.33315 33.2316 5.57692 32.3 5.57692H1.7ZM1.7 6.69231H32.3C32.6241 6.69231 32.8667 6.931 32.8667 7.25V27.3269C32.8667 27.6459 32.6241 27.8846 32.3 27.8846H1.7C1.37587 27.8846 1.13333 27.6459 1.13333 27.3269V7.25C1.13333 6.931 1.37587 6.69231 1.7 6.69231Z" fill="#125676"/>
<circle cx="34.3735" cy="9.62644" r="9.62644" fill="#4299C1"/>
<path d="M30.7864 8.07799L32.5563 9.8028L35.6537 6.14536L36.4985 6.91425L32.6569 11.7563L29.9417 8.9508L30.7864 8.07799ZM28.719 6.37502H34.8799L34.1177 7.16252H29.4812V12.15H34.3083V10.4438L35.0705 9.39377V12.9375H28.719V6.37502ZM36.6465 5.93752L40.153 6.15093L38.8746 8.74319L36.6465 5.93752ZM39.233 8.9319L40.5114 6.33961L43.719 8.0283V11.2936L39.233 8.9319Z" fill="white"/>
</svg>
