<svg width="24" height="25" viewBox="0 0 24 25"  xmlns="http://www.w3.org/2000/svg">
<g clip-path="url(#clip0_1333_159224)">
<path d="M5.25077 11.4678C5.5807 11.6758 5.76748 11.8557 5.90702 12.2178C5.92863 12.5178 5.92863 12.5178 5.9246 12.8448C5.92399 12.9534 5.92339 13.0621 5.92277 13.174C5.90702 13.4366 5.90702 13.4366 5.81327 13.5303C5.62581 13.5342 5.43823 13.5343 5.25077 13.5303C5.13668 13.3022 5.12706 13.1161 5.10429 12.8624C5.0925 12.7344 5.0925 12.7344 5.08048 12.6038C5.0748 12.5383 5.06912 12.4728 5.06327 12.4053C4.90858 12.3435 4.75389 12.2816 4.59452 12.2178C4.34341 12.469 4.37842 12.6059 4.3682 12.9569C4.36458 13.0662 4.36095 13.1756 4.35721 13.2883C4.35431 13.403 4.35141 13.5176 4.34843 13.6358C4.3448 13.7512 4.34117 13.8666 4.33744 13.9855C4.32858 14.2713 4.32056 14.557 4.31327 14.8428C4.39836 14.8424 4.48345 14.842 4.57111 14.8415C6.64062 14.8312 8.71012 14.8234 10.7797 14.8186C11.7805 14.8161 12.7812 14.8128 13.782 14.8075C14.6542 14.8028 15.5264 14.7998 16.3986 14.7987C16.8606 14.7981 17.3225 14.7967 17.7844 14.7933C18.2191 14.7901 18.6537 14.7891 19.0884 14.7898C19.248 14.7897 19.4076 14.7888 19.5672 14.787C19.7851 14.7846 20.0028 14.7852 20.2207 14.7865C20.3426 14.786 20.4646 14.7856 20.5902 14.7852C20.9917 14.8582 21.1299 14.9914 21.3758 15.3116C21.434 15.4985 21.434 15.4985 21.4334 15.6822C21.4343 15.7525 21.4352 15.8228 21.4362 15.8953C21.4348 15.971 21.4334 16.0467 21.432 16.1248C21.4323 16.2056 21.4327 16.2865 21.4331 16.3698C21.4337 16.6364 21.431 16.9028 21.4281 17.1694C21.4277 17.3549 21.4275 17.5404 21.4275 17.7259C21.4269 18.1143 21.4248 18.5027 21.4214 18.8912C21.4172 19.3892 21.4158 19.8871 21.4155 20.3852C21.415 20.7681 21.4136 21.151 21.4118 21.5339C21.411 21.7175 21.4103 21.9012 21.4099 22.0848C21.4091 22.3413 21.407 22.5978 21.4045 22.8543C21.4044 22.9302 21.4044 23.0062 21.4043 23.0844C21.3955 23.7439 21.3955 23.7439 21.1883 24.0303C20.9038 24.1726 20.6088 24.1373 20.2968 24.1366C20.1866 24.1369 20.1866 24.1369 20.0741 24.1373C19.8266 24.1379 19.5791 24.1378 19.3316 24.1377C19.1547 24.138 18.9778 24.1383 18.8009 24.1387C18.3193 24.1395 17.8378 24.1397 17.3563 24.1398C16.9549 24.1399 16.5534 24.1402 16.152 24.1405C15.2052 24.1413 14.2584 24.1415 13.3116 24.1415C12.3337 24.1414 11.3558 24.1424 10.3778 24.1439C9.53927 24.1451 8.70074 24.1456 7.8622 24.1455C7.3609 24.1455 6.8596 24.1458 6.3583 24.1468C5.88699 24.1477 5.41569 24.1477 4.94438 24.147C4.77109 24.1469 4.59781 24.1471 4.42453 24.1477C4.18857 24.1484 3.95264 24.148 3.71668 24.1473C3.64759 24.1478 3.5785 24.1482 3.50732 24.1487C3.16103 24.1464 3.0158 24.1341 2.71952 23.9366C2.59995 23.5779 2.60965 23.2388 2.60769 22.8649C2.60692 22.7843 2.60615 22.7036 2.60536 22.6205C2.60304 22.3534 2.60149 22.0863 2.60013 21.8192C2.59964 21.728 2.59914 21.6367 2.59862 21.5428C2.59612 21.0602 2.5943 20.5776 2.59295 20.095C2.59139 19.5964 2.58719 19.0978 2.58241 18.5992C2.57926 18.2159 2.57818 17.8326 2.57765 17.4493C2.57702 17.2654 2.57559 17.0816 2.57334 16.8978C2.57038 16.6406 2.57037 16.3835 2.57107 16.1263C2.56953 16.0504 2.56799 15.9745 2.56641 15.8963C2.57081 15.4987 2.59339 15.3531 2.84708 15.0281C3.11893 14.8246 3.23255 14.7956 3.56327 14.8428C3.5618 14.7658 3.56032 14.6887 3.55881 14.6093C3.55295 14.2594 3.5493 13.9096 3.54569 13.5596C3.54333 13.4384 3.54098 13.3171 3.53855 13.1921C3.53764 13.0752 3.53674 12.9583 3.5358 12.8378C3.53433 12.7303 3.53286 12.6228 3.53134 12.512C3.57595 12.101 3.72329 11.8552 4.03202 11.585C4.43584 11.3326 4.80262 11.3541 5.25077 11.4678ZM3.37577 15.5928C3.37577 18.1607 3.37577 20.7285 3.37577 23.3741C4.79889 23.3741 6.22202 23.3741 7.68827 23.3741C7.68827 20.8063 7.68827 18.2385 7.68827 15.5928C6.26514 15.5928 4.84202 15.5928 3.37577 15.5928ZM8.43827 15.5928C8.43827 18.1607 8.43827 20.7285 8.43827 23.3741C9.83046 23.3741 11.2226 23.3741 12.657 23.3741C12.657 20.8063 12.657 18.2385 12.657 15.5928C11.2648 15.5928 9.87264 15.5928 8.43827 15.5928ZM13.407 15.5928C13.407 18.1607 13.407 20.7285 13.407 23.3741C15.7892 23.3741 18.1714 23.3741 20.6258 23.3741C20.6258 20.8063 20.6258 18.2385 20.6258 15.5928C18.2436 15.5928 15.8614 15.5928 13.407 15.5928Z" fill-opacity="0.6"/>
<path d="M3.40436 0.862712C3.48941 0.862177 3.57445 0.861641 3.66207 0.86109C3.80241 0.860933 3.80241 0.860933 3.94559 0.860772C4.04392 0.860307 4.14225 0.859841 4.24356 0.859362C4.5699 0.857989 4.89624 0.857353 5.22259 0.856835C5.44865 0.856296 5.67472 0.855757 5.90078 0.855216C6.37515 0.85423 6.84952 0.853683 7.32389 0.853356C7.93278 0.852842 8.54165 0.850588 9.15053 0.847921C9.61755 0.846179 10.0846 0.845687 10.5516 0.845544C10.7761 0.845259 11.0007 0.844504 11.2252 0.843276C11.5388 0.841684 11.8523 0.841851 12.1659 0.842462C12.2593 0.841598 12.3527 0.840734 12.4489 0.839844C12.5342 0.840366 12.6195 0.840888 12.7074 0.841426C12.7815 0.841288 12.8557 0.841151 12.9321 0.841009C13.1754 0.885147 13.2582 0.96143 13.4056 1.15713C13.4419 1.42396 13.4419 1.42396 13.4435 1.75259C13.4446 1.87554 13.4458 1.99849 13.4471 2.12516C13.4469 2.25951 13.4466 2.39387 13.4462 2.52822C13.4467 2.66587 13.4471 2.80352 13.4477 2.94117C13.4485 3.22962 13.4483 3.51804 13.4474 3.80648C13.4463 4.1763 13.4482 4.54604 13.4509 4.91585C13.4527 5.20008 13.4526 5.48429 13.4521 5.76852C13.4521 5.90488 13.4527 6.04124 13.4538 6.17759C13.4552 6.36811 13.454 6.55865 13.4526 6.74917C13.4526 6.85762 13.4526 6.96606 13.4526 7.0778C13.4056 7.34463 13.4056 7.34463 13.2413 7.49962C13.0063 7.64045 12.8827 7.66154 12.6114 7.66285C12.4862 7.66445 12.4862 7.66445 12.3585 7.66608C12.2676 7.6658 12.1768 7.66553 12.0832 7.66525C11.987 7.66604 11.8908 7.66683 11.7916 7.66765C11.4733 7.66985 11.155 7.66994 10.8366 7.66982C10.6155 7.67049 10.3943 7.67121 10.1732 7.67199C9.70954 7.67325 9.24591 7.67339 8.78227 7.67284C8.18789 7.67229 7.59358 7.67516 6.99921 7.67895C6.54247 7.68137 6.08575 7.68165 5.629 7.6813C5.40985 7.68146 5.1907 7.68237 4.97156 7.68404C4.66518 7.68611 4.35895 7.68521 4.05257 7.68356C3.96192 7.6848 3.87127 7.68604 3.77788 7.68732C3.3602 7.68208 3.15277 7.66728 2.80224 7.4242C2.59392 7.11149 2.56638 6.94948 2.56813 6.57629C2.56756 6.46117 2.56699 6.34605 2.56641 6.22743C2.56824 6.10389 2.57007 5.98034 2.57196 5.85305C2.57235 5.7243 2.57257 5.59555 2.57262 5.4668C2.57319 5.1975 2.57532 4.92828 2.57866 4.659C2.58291 4.31422 2.58429 3.96951 2.58464 3.62471C2.58505 3.35905 2.58649 3.09341 2.58828 2.82776C2.58952 2.63894 2.59029 2.45012 2.59106 2.2613C2.59256 2.14647 2.59405 2.03164 2.5956 1.91333C2.59709 1.76181 2.59709 1.76181 2.59862 1.60723C2.62433 1.34456 2.66775 1.18894 2.81182 0.969628C3.03104 0.86002 3.16009 0.863631 3.40436 0.862712ZM3.37432 1.62588C3.37432 3.35838 3.37432 5.09088 3.37432 6.87588C4.79745 6.87588 6.22057 6.87588 7.68682 6.87588C7.68682 5.14338 7.68682 3.41088 7.68682 1.62588C6.2637 1.62588 4.84057 1.62588 3.37432 1.62588ZM8.43682 1.62588C8.43682 3.35838 8.43682 5.09088 8.43682 6.87588C9.82901 6.87588 11.2212 6.87588 12.6556 6.87588C12.6556 5.14338 12.6556 3.41088 12.6556 1.62588C11.2634 1.62588 9.8712 1.62588 8.43682 1.62588Z" fill-opacity="0.6"/>
<path d="M16.1224 0.85263C16.1964 0.851873 16.2704 0.851117 16.3466 0.850337C16.5032 0.84904 16.6598 0.848034 16.8164 0.847297C17.0561 0.845681 17.2958 0.841566 17.5355 0.837432C17.6875 0.836483 17.8395 0.835685 17.9916 0.835052C18.0993 0.83259 18.0993 0.83259 18.2091 0.830078C18.7073 0.832119 18.7073 0.832119 18.9115 1.0336C19.059 1.29853 19.0605 1.45415 19.0487 1.75598C19.0457 1.85755 19.0427 1.95913 19.0397 2.06378C19.0356 2.17372 19.0315 2.28367 19.0272 2.39694C19.0234 2.63326 19.0199 2.86959 19.0168 3.10593C19.0109 3.47599 19.0029 3.84537 18.988 4.21518C18.9206 5.99123 19.1735 7.04636 20.2922 8.44485C20.7597 9.05754 20.7688 9.65612 20.6876 10.399C20.6257 10.7187 20.6257 10.7187 20.532 10.8125C20.3173 10.8223 20.1024 10.8255 19.8875 10.8261C19.8201 10.8264 19.7527 10.8267 19.6833 10.827C19.4595 10.8279 19.2357 10.8281 19.0118 10.8282C18.8569 10.8285 18.7019 10.8288 18.547 10.8292C18.2217 10.8297 17.8965 10.8299 17.5712 10.8298C17.1537 10.8298 16.7362 10.8311 16.3186 10.8327C15.9985 10.8338 15.6783 10.834 15.3581 10.8339C15.2042 10.834 15.0502 10.8344 14.8962 10.8352C14.6812 10.8361 14.4662 10.8358 14.2511 10.8352C14.1286 10.8354 14.006 10.8355 13.8798 10.8356C13.5945 10.8125 13.5945 10.8125 13.407 10.625C13.2467 9.82527 13.2587 9.12681 13.6934 8.41855C13.9702 8.01161 14.267 7.62139 14.5777 7.23974C14.8584 6.88883 14.9307 6.70038 14.9339 6.2561C14.9352 6.14846 14.9364 6.04083 14.9377 5.92994C14.9382 5.81363 14.9387 5.69732 14.9392 5.57748C14.9406 5.45808 14.942 5.33868 14.9434 5.21565C14.9477 4.83322 14.951 4.45078 14.9539 4.06833C14.9577 3.5655 14.9627 3.06271 14.9685 2.55991C14.969 2.44378 14.9695 2.32766 14.97 2.20802C14.9713 2.1001 14.9725 1.99217 14.9738 1.88097C14.9745 1.78606 14.9752 1.69114 14.9759 1.59335C15.0014 1.33725 15.0487 1.18351 15.1882 0.968719C15.4828 0.82142 15.7988 0.855744 16.1224 0.85263ZM15.7507 1.62497C15.7559 2.00009 15.7611 2.3752 15.7665 2.76169C15.7677 3.06523 15.7679 3.36874 15.7675 3.67228C15.7672 3.99034 15.7688 4.30815 15.7748 4.62616C15.8017 6.2585 15.7354 7.32836 14.6257 8.56247C14.5948 8.65528 14.5639 8.74809 14.532 8.84372C16.1717 8.84372 17.8114 8.84372 19.5007 8.84372C19.3438 8.45135 19.2319 8.27835 18.9686 7.97432C18.083 6.88303 18.2512 5.54224 18.2703 4.20895C18.271 3.95791 18.2702 3.70689 18.2695 3.45584C18.268 2.84528 18.2752 2.23571 18.282 1.62497C17.4467 1.62497 16.6114 1.62497 15.7507 1.62497ZM14.157 9.59372C14.157 9.74841 14.157 9.90309 14.157 10.0625C16.0442 10.0625 17.9314 10.0625 19.8757 10.0625C19.8757 9.90778 19.8757 9.75309 19.8757 9.59372C17.9885 9.59372 16.1014 9.59372 14.157 9.59372Z" fill-opacity="0.6"/>
<path d="M15.8092 18.5503C15.9054 18.5504 16.0017 18.5505 16.1008 18.5506C16.3039 18.5511 16.507 18.5526 16.71 18.5549C17.0209 18.5584 17.3317 18.5588 17.6426 18.5587C17.8401 18.5597 18.0375 18.5607 18.235 18.562C18.3279 18.5622 18.4209 18.5624 18.5167 18.5627C18.6034 18.5639 18.6901 18.5651 18.7794 18.5663C18.8934 18.5674 18.8934 18.5674 19.0098 18.5685C19.2435 18.5965 19.395 18.6565 19.594 18.781C19.7438 19.0807 19.707 19.4064 19.7101 19.7357C19.7108 19.8118 19.7116 19.8879 19.7124 19.9662C19.7137 20.1272 19.7147 20.2882 19.7154 20.4492C19.717 20.6958 19.7211 20.9422 19.7253 21.1887C19.7262 21.345 19.727 21.5013 19.7276 21.6576C19.7293 21.7314 19.7309 21.8053 19.7326 21.8814C19.7318 22.0899 19.7318 22.0899 19.6877 22.4373C19.421 22.7012 19.2236 22.7541 18.8544 22.7564C18.7637 22.7576 18.673 22.7588 18.5795 22.76C18.4821 22.7597 18.3847 22.7595 18.2844 22.7592C18.1839 22.7597 18.0833 22.7602 17.9797 22.7607C17.7673 22.7613 17.5548 22.7611 17.3424 22.7603C17.017 22.7595 16.6919 22.7622 16.3666 22.7652C16.1601 22.7654 15.9537 22.7653 15.7473 22.765C15.6499 22.7661 15.5526 22.7671 15.4522 22.7682C14.7944 22.7618 14.7944 22.7618 14.4705 22.5757C14.2923 22.2486 14.2885 21.9453 14.2909 21.5818C14.2903 21.5083 14.2897 21.4348 14.2891 21.3591C14.2885 21.204 14.2887 21.0489 14.2899 20.8939C14.2912 20.6568 14.288 20.42 14.2845 20.1829C14.2844 20.032 14.2846 19.8811 14.285 19.7302C14.2838 19.6595 14.2825 19.5888 14.2812 19.516C14.2871 19.1883 14.3205 18.9996 14.5198 18.7361C14.9497 18.5268 15.3369 18.5435 15.8092 18.5503ZM15.094 19.3435C15.094 20.2098 15.094 21.076 15.094 21.9685C16.3624 21.9685 17.6309 21.9685 18.9377 21.9685C18.9377 21.1023 18.9377 20.236 18.9377 19.3435C17.6693 19.3435 16.4009 19.3435 15.094 19.3435Z" fill-opacity="0.6"/>
<path d="M19.3129 16.7189C19.5414 16.8654 19.5414 16.8654 19.6879 17.0939C19.6678 17.6765 19.6678 17.6765 19.4066 17.9377C19.0001 17.9672 18.8135 17.9798 18.4691 17.7502C18.3852 17.4531 18.3483 17.2648 18.4516 16.9709C18.6752 16.6531 18.95 16.6826 19.3129 16.7189Z" fill-opacity="0.6"/>
<path d="M15.2816 16.7189C15.5101 16.8654 15.5101 16.8654 15.6566 17.0939C15.6365 17.6765 15.6365 17.6765 15.3754 17.9377C14.9688 17.9672 14.7823 17.9798 14.4379 17.7502C14.3539 17.4531 14.317 17.2648 14.4203 16.9709C14.6439 16.6531 14.9187 16.6826 15.2816 16.7189Z" fill-opacity="0.6"/>
<path d="M6.6559 18.5938C7.08299 18.6458 7.08299 18.6458 7.2184 18.7812C7.22527 19.0341 7.22707 19.2844 7.22426 19.5371C7.22384 19.6082 7.22342 19.6793 7.22298 19.7526C7.22187 19.9288 7.22019 20.105 7.2184 20.2812C7.00161 20.3867 7.00161 20.3867 6.74965 20.4688C6.65684 20.4069 6.56403 20.345 6.4684 20.2812C6.44252 20.0229 6.43347 19.789 6.43911 19.5312C6.4388 19.4621 6.4385 19.393 6.43819 19.3218C6.44336 18.8063 6.44336 18.8063 6.6559 18.5938Z" fill-opacity="0.6"/>
<path d="M17.3434 16.7184C17.525 16.818 17.525 16.818 17.6246 16.9996C17.6589 17.3193 17.6822 17.5509 17.525 17.8375C17.2384 17.9947 17.0068 17.9714 16.6871 17.9371C16.5055 17.8375 16.5055 17.8375 16.4059 17.6559C16.3716 17.3363 16.3483 17.1046 16.5055 16.818C16.7921 16.6608 17.0238 16.6841 17.3434 16.7184Z" fill-opacity="0.6"/>
<path d="M9.5625 18.6882C9.70096 18.9651 9.67587 19.218 9.67969 19.5261C9.6821 19.6429 9.68452 19.7598 9.68701 19.8802C9.65625 20.1882 9.65625 20.1882 9.51416 20.3702C9.46824 20.4029 9.42231 20.4357 9.375 20.4694C9.14297 20.3766 9.14297 20.3766 8.90625 20.2819C8.90625 19.756 8.90625 19.23 8.90625 18.6882C9.15916 18.5617 9.29547 18.6129 9.5625 18.6882Z" fill-opacity="0.6"/>
<path d="M9.36914 3.65234C9.65625 3.6875 9.65625 3.6875 9.83789 3.83984C9.97128 4.138 9.93319 4.3154 9.84375 4.625C9.57855 4.7576 9.38683 4.74866 9.09375 4.71875C8.91211 4.56055 8.91211 4.56055 8.8125 4.34375C8.84257 3.9227 8.9247 3.70908 9.36914 3.65234Z" fill-opacity="0.6"/>
<path d="M7.125 3.78029C7.21875 3.87404 7.21875 3.87404 7.23633 4.19631C7.21875 4.53029 7.21875 4.53029 7.03125 4.71779C6.70312 4.74123 6.70312 4.74123 6.375 4.71779C6.1875 4.53029 6.1875 4.53029 6.1582 4.2549C6.1875 3.96779 6.1875 3.96779 6.28711 3.78615C6.57676 3.62731 6.81302 3.71096 7.125 3.78029Z" fill-opacity="0.6"/>
</g>
<defs>
<clipPath id="clip0_1333_159224">
<rect width="24" height="24" fill="white" transform="translate(0 0.5)"/>
</clipPath>
</defs>
</svg>
