<svg viewBox="0 0 36 29" fill="none" xmlns="http://www.w3.org/2000/svg">
<path d="M16.6465 1.03874C18.9185 0.714912 20.9512 2.47353 20.9512 4.76335V6.64714C22.5825 7.50745 23.6943 9.21722 23.6943 11.1862V24.8688C23.6943 26.5376 22.8947 28.0187 21.6582 28.9557C22.308 28.0966 22.6943 27.028 22.6943 25.8688V12.1862C22.6943 10.2172 21.5825 8.50745 19.9512 7.64714V5.76335C19.9512 3.47353 17.9185 1.71491 15.6465 2.03874L0.838867 4.14909C0.537257 4.19208 0.254773 4.2883 0 4.42644C0.366784 3.7545 1.03406 3.2638 1.83887 3.14909L16.6465 1.03874ZM1.75195 9.1071V24.8688C1.75195 26.5691 3.13285 27.9478 4.83691 27.9479H18.5518C19.1485 27.9479 19.7036 27.7749 20.1758 27.4821C19.6323 28.3602 18.6621 28.9478 17.5518 28.9479H3.83691C2.13285 28.9478 0.751953 27.5691 0.751953 25.8688V9.1071H1.75195ZM2.09082 6.04265C2.12165 6.04988 2.15357 6.05496 2.18652 6.05534H17.8945V7.05534H1.18652C0.945838 7.05252 0.752061 6.85667 0.751953 6.61589C0.751953 6.39727 0.912964 6.21127 1.12988 6.18034L2.09082 6.04265Z" fill="#D6E7EF"/>
<path d="M11.1943 13.0004C13.1274 13.0004 14.6943 14.724 14.6943 16.85C14.6943 18.9761 13.1273 20.6996 11.1943 20.6996C9.26138 20.6996 7.6944 18.9761 7.69434 16.85C7.69434 14.724 9.26134 13.0004 11.1943 13.0004ZM11.1943 14.0502C9.64794 14.0502 8.39453 15.3038 8.39453 16.85C8.3946 18.3962 9.64798 19.6498 11.1943 19.6498C12.7407 19.6498 13.9941 18.3962 13.9941 16.85C13.9941 15.3038 12.7407 14.0502 11.1943 14.0502Z" fill="#D6E7EF"/>
<line x1="8.74902" y1="22.25" x2="13.139" y2="22.25" stroke="#D6E7EF" stroke-width="0.5" stroke-linecap="round"/>
<circle cx="26.3725" cy="9.62644" r="9.62644" fill="#4299C1"/>
<path d="M26.951 15V14.9921M23.999 6.35714C24.3374 5.0016 25.5307 4 26.951 4C27.5061 4 28.0267 4.15306 28.475 4.42048M26.951 12.6429C26.951 9.10714 29.999 9.89286 29.999 7.14286C29.999 6.87155 29.9656 6.60827 29.903 6.35714" stroke="#D6E7EF" stroke-width="0.5" stroke-linecap="round" stroke-linejoin="round"/>
</svg>
