<svg width="36" height="29" viewBox="0 0 36 29" fill="none" xmlns="http://www.w3.org/2000/svg">
<path fill-rule="evenodd" clip-rule="evenodd" d="M16.6465 1.03864C18.9185 0.71481 20.9511 2.47347 20.9512 4.76324V6.64703C22.5825 7.50734 23.6943 9.21711 23.6943 11.1861V24.8687C23.6943 26.5386 22.8942 28.0216 21.6562 28.9586C22.3073 28.099 22.6943 27.0292 22.6943 25.8687V12.1861C22.6943 10.2171 21.5825 8.50734 19.9512 7.64703V5.76325C19.9511 3.47347 17.9185 1.71481 15.6465 2.03864L0.838867 4.14899C0.537275 4.19197 0.254762 4.28821 0 4.42633C0.366794 3.75444 1.0341 3.26369 1.83887 3.14899L16.6465 1.03864ZM1.75195 9.10699V24.8687C1.75195 26.569 3.13285 27.9477 4.83691 27.9478H18.5518C19.1486 27.9478 19.7036 27.7748 20.1758 27.482C19.6323 28.3602 18.6621 28.9477 17.5518 28.9478H3.83691C2.13285 28.9477 0.751953 27.569 0.751953 25.8687V9.10699H1.75195ZM2.09277 6.04352C2.12298 6.05045 2.1543 6.05486 2.18652 6.05524H17.8945V7.05524H1.18652C0.945803 7.05241 0.752003 6.85661 0.751953 6.61578C0.751953 6.39716 0.912964 6.21214 1.12988 6.18121L2.09277 6.04352Z" fill="#125676"/>
<path d="M11.1943 13.0004C13.1274 13.0004 14.6943 14.724 14.6943 16.85C14.6943 18.9761 13.1273 20.6996 11.1943 20.6996C9.26138 20.6996 7.6944 18.9761 7.69434 16.85C7.69434 14.724 9.26134 13.0004 11.1943 13.0004ZM11.1943 14.0502C9.64794 14.0502 8.39453 15.3038 8.39453 16.85C8.3946 18.3962 9.64798 19.6498 11.1943 19.6498C12.7407 19.6498 13.9941 18.3962 13.9941 16.85C13.9941 15.3038 12.7407 14.0502 11.1943 14.0502Z" fill="#125676"/>
<line x1="8.74902" y1="22.25" x2="13.139" y2="22.25" stroke="#125676" stroke-width="0.5" stroke-linecap="round"/>
<circle cx="26.3725" cy="9.62644" r="9.62644" fill="#4299C1"/>
<path d="M26.951 15V14.9921M23.999 6.35714C24.3374 5.0016 25.5307 4 26.951 4C27.5061 4 28.0267 4.15306 28.475 4.42048M26.951 12.6429C26.951 9.10714 29.999 9.89286 29.999 7.14286C29.999 6.87155 29.9656 6.60827 29.903 6.35714" stroke="white" stroke-width="0.5" stroke-linecap="round" stroke-linejoin="round"/>
</svg>
