<svg width="24" height="25" viewBox="0 0 24 25" xmlns="http://www.w3.org/2000/svg">
<g clip-path="url(#clip0_1333_159258)">
<path d="M2.11072 0.451257C2.24275 0.450181 2.24275 0.450181 2.37744 0.449084C2.67144 0.447154 2.96537 0.447894 3.25937 0.448639C3.47053 0.447824 3.6817 0.446852 3.89286 0.445735C4.46583 0.443226 5.03877 0.443116 5.61174 0.443591C6.09027 0.443792 6.56881 0.442876 7.04734 0.441978C8.24095 0.439779 9.43454 0.439939 10.6282 0.441144C11.6636 0.442113 12.699 0.440004 13.7345 0.436439C14.7989 0.432802 15.8633 0.431312 16.9277 0.431962C17.5248 0.432301 18.1218 0.431808 18.719 0.429203C19.2805 0.426844 19.8421 0.427209 20.4037 0.429655C20.6095 0.430098 20.8154 0.429586 21.0212 0.428038C21.3028 0.426073 21.5842 0.427595 21.8657 0.429971C21.9872 0.427897 21.9872 0.427897 22.1112 0.425781C22.7389 0.436886 23.1597 0.642356 23.6251 1.06264C24.0342 1.52538 24.0541 2.02236 24.049 2.61072C24.0497 2.69874 24.0505 2.78676 24.0512 2.87744C24.0531 3.17144 24.0524 3.46537 24.0516 3.75937C24.0525 3.97053 24.0534 4.1817 24.0545 4.39286C24.057 4.96583 24.0572 5.53877 24.0567 6.11174C24.0565 6.59027 24.0574 7.06881 24.0583 7.54734C24.0605 8.74095 24.0603 9.93454 24.0591 11.1282C24.0582 12.1636 24.0603 13.199 24.0638 14.2345C24.0675 15.2989 24.069 16.3633 24.0683 17.4277C24.068 18.0248 24.0685 18.6218 24.0711 19.219C24.0734 19.7805 24.0731 20.3421 24.0706 20.9037C24.0702 21.1095 24.0707 21.3154 24.0722 21.5212C24.0742 21.8028 24.0727 22.0842 24.0703 22.3657C24.0717 22.4467 24.0731 22.5277 24.0745 22.6112C24.0634 23.2379 23.8438 23.6516 23.4376 24.1251C22.9601 24.531 22.4924 24.5536 21.8837 24.5457C21.7523 24.5462 21.7523 24.5462 21.6183 24.5468C21.3306 24.5475 21.0429 24.5455 20.7551 24.5434C20.5547 24.5431 20.3544 24.543 20.154 24.5431C19.7349 24.5428 19.316 24.5412 18.897 24.5387C18.359 24.5355 17.8211 24.5348 17.2831 24.535C16.8699 24.5349 16.4566 24.5339 16.0433 24.5325C15.8448 24.5319 15.6464 24.5316 15.4479 24.5314C15.1714 24.531 14.8949 24.5294 14.6184 24.5274C14.4948 24.5275 14.4948 24.5275 14.3686 24.5276C13.8029 24.5216 13.8029 24.5216 13.5939 24.3126C13.5704 24.0314 13.5704 24.0314 13.5939 23.7501C13.8352 23.5088 13.9979 23.5391 14.3269 23.5354C14.4414 23.5356 14.4414 23.5356 14.5582 23.5357C14.6385 23.5351 14.7189 23.5344 14.8017 23.5338C14.9766 23.5325 15.1515 23.5317 15.3264 23.5312C15.6034 23.5304 15.8805 23.5285 16.1575 23.5263C16.7463 23.5217 17.3351 23.5186 17.924 23.5158C18.6047 23.5124 19.2853 23.5085 19.966 23.503C20.2385 23.5011 20.511 23.5004 20.7835 23.4996C20.9515 23.4984 21.1196 23.4971 21.2877 23.4958C21.363 23.4959 21.4384 23.496 21.5161 23.4961C21.9631 23.4912 22.3694 23.4721 22.7814 23.2814C22.9763 22.7795 22.9958 22.3155 22.9933 21.7819C22.9937 21.6991 22.994 21.6163 22.9944 21.531C22.9954 21.2547 22.995 20.9784 22.9946 20.7022C22.995 20.5036 22.9955 20.3051 22.9961 20.1066C22.9973 19.5681 22.9974 19.0296 22.9972 18.4911C22.9971 18.0415 22.9975 17.5918 22.998 17.1422C22.999 16.0814 22.9991 15.0207 22.9985 13.9599C22.9979 12.8657 22.9991 11.7715 23.0011 10.6773C23.0027 9.7376 23.0033 8.79786 23.003 7.85811C23.0028 7.29696 23.0031 6.73583 23.0044 6.17468C23.0055 5.64711 23.0054 5.11956 23.0041 4.59199C23.0039 4.39845 23.0042 4.20492 23.0049 4.01139C23.0059 3.74704 23.0052 3.48275 23.004 3.21841C23.0047 3.14197 23.0054 3.06554 23.0061 2.98679C23.0014 2.4983 22.9431 2.14145 22.6876 1.71889C22.249 1.48213 21.7803 1.5047 21.2931 1.50695C21.2104 1.50659 21.1277 1.50623 21.0425 1.50586C20.7659 1.50489 20.4894 1.50527 20.2128 1.50564C20.0143 1.50523 19.8158 1.50475 19.6172 1.50419C19.0784 1.50293 18.5395 1.50288 18.0007 1.50311C17.5508 1.50321 17.1009 1.50276 16.651 1.50231C15.5897 1.50127 14.5283 1.50123 13.467 1.50179C12.3721 1.50236 11.2772 1.5012 10.1823 1.49921C9.24221 1.49756 8.30207 1.49699 7.36192 1.4973C6.80046 1.49747 6.23901 1.49722 5.67755 1.49592C5.14959 1.49474 4.62166 1.49492 4.0937 1.49615C3.90002 1.49637 3.70633 1.49611 3.51265 1.49534C3.24809 1.49436 2.98359 1.49511 2.71904 1.4963C2.60429 1.49527 2.60429 1.49527 2.48723 1.49421C1.99858 1.49883 1.64158 1.55707 1.21889 1.81264C0.982128 2.25124 1.0047 2.71995 1.00695 3.20713C1.00659 3.28984 1.00623 3.37255 1.00586 3.45777C1.00489 3.73434 1.00527 4.01089 1.00564 4.28747C1.00523 4.48599 1.00475 4.68451 1.00419 4.88304C1.00293 5.4219 1.00288 5.96076 1.00311 6.49963C1.00321 6.94951 1.00276 7.3994 1.00231 7.84929C1.00127 8.91061 1.00123 9.97193 1.00179 11.0333C1.00236 12.1282 1.0012 13.223 0.999209 14.3179C0.997558 15.2581 0.996994 16.1982 0.9973 17.1384C0.99747 17.6998 0.997222 18.2613 0.99592 18.8227C0.994742 19.3507 0.994922 19.8786 0.996146 20.4066C0.996368 20.6003 0.996111 20.7939 0.995338 20.9876C0.994358 21.2522 0.995115 21.5167 0.996305 21.7812C0.995613 21.8577 0.994922 21.9342 0.99421 22.013C0.998836 22.5027 1.07783 22.8485 1.31264 23.2814C1.74962 23.5167 2.21659 23.4964 2.70195 23.4958C2.78311 23.4964 2.86428 23.4971 2.9479 23.4977C3.1233 23.499 3.2987 23.4999 3.47411 23.5003C3.75146 23.5011 4.02878 23.503 4.30612 23.5053C4.99439 23.5105 5.68267 23.5139 6.37095 23.5172C6.9536 23.5202 7.53623 23.5238 8.11886 23.5285C8.39255 23.5304 8.66624 23.5312 8.93994 23.5319C9.10682 23.5331 9.27371 23.5344 9.4406 23.5357C9.55529 23.5356 9.55529 23.5356 9.6723 23.5354C10.1975 23.5413 10.1975 23.5413 10.4064 23.7501C10.4298 24.0314 10.4298 24.0314 10.4064 24.3126C10.1173 24.6018 9.77306 24.5294 9.38482 24.5303C9.29837 24.5313 9.21191 24.5322 9.12284 24.5332C8.83572 24.5359 8.54862 24.5372 8.26149 24.5382C8.062 24.5393 7.8625 24.5404 7.66301 24.5415C7.24397 24.5434 6.82493 24.5445 6.40588 24.5452C5.87016 24.5462 5.33453 24.5507 4.79883 24.556C4.38631 24.5596 3.97381 24.5605 3.56128 24.5608C3.36389 24.5614 3.1665 24.5629 2.96913 24.5653C2.69198 24.5686 2.41504 24.5682 2.13787 24.567C2.05704 24.5687 1.97621 24.5704 1.89294 24.5722C1.27682 24.5638 0.818969 24.3718 0.375138 23.9376C0.00135305 23.4142 -0.0542587 23.0233 -0.0487428 22.3896C-0.0494601 22.3015 -0.0501774 22.2135 -0.0509164 22.1228C-0.0528463 21.8288 -0.0521061 21.5349 -0.0513606 21.2409C-0.052176 21.0297 -0.0531479 20.8186 -0.0542645 20.6074C-0.0567744 20.0345 -0.0568837 19.4615 -0.0564089 18.8885C-0.0562083 18.41 -0.0571242 17.9315 -0.0580225 17.4529C-0.0602215 16.2593 -0.0600608 15.0657 -0.0588556 13.8721C-0.0578866 12.8367 -0.0599964 11.8012 -0.0635614 10.7658C-0.0671979 9.70139 -0.0686878 8.63701 -0.0680384 7.57261C-0.0676986 6.9755 -0.0681918 6.37843 -0.0707973 5.78133C-0.0731563 5.21973 -0.0727909 4.6582 -0.0703453 4.0966C-0.0699019 3.89075 -0.0704138 3.68489 -0.0719621 3.47904C-0.073927 3.19746 -0.0724048 2.9161 -0.0700288 2.63453C-0.0714115 2.55354 -0.0727942 2.47255 -0.0742188 2.3891C-0.0631142 1.76135 0.142356 1.34061 0.562638 0.875138C1.02538 0.466072 1.52236 0.446136 2.11072 0.451257Z" fill-opacity="0.6"/>
<path d="M6.58586 4.97334C6.68849 4.97347 6.68849 4.97347 6.79319 4.9736C6.90139 4.97265 6.90139 4.97265 7.01178 4.97169C7.25145 4.9699 7.49109 4.96954 7.73076 4.96934C7.89782 4.96874 8.06489 4.96811 8.23196 4.96745C8.58322 4.96632 8.93449 4.96598 9.28576 4.96609C9.73294 4.96611 10.1801 4.96356 10.6272 4.96032C10.973 4.95822 11.3188 4.95786 11.6646 4.95795C11.8292 4.95774 11.9938 4.95692 12.1585 4.95545C13.8452 4.9419 15.322 5.29125 16.5883 6.48289C17.7834 7.75272 18.1557 9.19298 18.1235 10.8869C18.0643 12.2586 17.3995 13.5351 16.4067 14.4696C15.3206 15.3659 14.1331 15.8165 12.7328 15.8004C12.6002 15.8 12.6002 15.8 12.4649 15.7996C12.1851 15.7985 11.9052 15.7962 11.6254 15.7938C11.4346 15.7929 11.2438 15.792 11.053 15.7912C10.5876 15.7892 10.1221 15.786 9.65666 15.7821C9.65813 15.9638 9.65813 15.9638 9.65964 16.1492C9.66302 16.5975 9.66518 17.0458 9.66696 17.4941C9.6679 17.6884 9.66918 17.8826 9.6708 18.0769C9.67307 18.3556 9.67414 18.6344 9.67497 18.9132C9.67594 19.0004 9.67691 19.0876 9.6779 19.1775C9.67792 19.2985 9.67792 19.2985 9.67795 19.422C9.67836 19.4932 9.67878 19.5644 9.67921 19.6377C9.65666 19.8133 9.65666 19.8133 9.46916 20.0008C9.21591 20.0196 8.97248 20.0271 8.71916 20.0257C8.64496 20.0259 8.57076 20.0261 8.49431 20.0263C8.33732 20.0264 8.18034 20.0261 8.02336 20.0253C7.78261 20.0243 7.54193 20.0253 7.30119 20.0265C7.14885 20.0263 6.9965 20.0261 6.84416 20.0257C6.73576 20.0263 6.73576 20.0263 6.62517 20.0269C6.11572 20.0224 6.11572 20.0224 5.90666 19.8133C5.88306 19.5624 5.88306 19.5624 5.88285 19.2368C5.88232 19.1138 5.88179 18.9907 5.88125 18.864C5.88161 18.7268 5.882 18.5897 5.8824 18.4525C5.88214 18.3087 5.88181 18.1649 5.8814 18.0211C5.88055 17.6298 5.88088 17.2385 5.88147 16.8473C5.88195 16.4385 5.88151 16.0297 5.88121 15.6209C5.88087 14.9342 5.88132 14.2476 5.88222 13.561C5.88324 12.7664 5.88291 11.9717 5.88187 11.1771C5.88102 10.4957 5.8809 9.81433 5.88139 9.13296C5.88169 8.72561 5.88172 8.31827 5.8811 7.91092C5.88056 7.52802 5.88094 7.14513 5.88202 6.76223C5.88227 6.62141 5.8822 6.4806 5.88179 6.33978C5.88128 6.14813 5.88203 5.95649 5.88285 5.76484C5.88292 5.65741 5.88299 5.54998 5.88306 5.43929C5.92731 4.96872 6.16878 4.97869 6.58586 4.97334ZM6.84416 5.93833C6.84416 10.2696 6.84416 14.6008 6.84416 19.0633C7.46291 19.0633 8.08166 19.0633 8.71916 19.0633C8.72768 18.6285 8.72768 18.6285 8.73637 18.1848C8.74216 17.9052 8.7481 17.6257 8.75406 17.3461C8.75814 17.1513 8.76204 16.9564 8.76578 16.7615C8.77118 16.482 8.77715 16.2025 8.78325 15.9231C8.78481 15.8354 8.78638 15.7477 8.78799 15.6573C8.78986 15.5766 8.79173 15.4959 8.79366 15.4128C8.79512 15.3414 8.79658 15.27 8.79808 15.1964C8.81291 15.0321 8.81291 15.0321 8.90666 14.9383C9.1763 14.9256 9.44398 14.9186 9.71379 14.9153C9.8831 14.9122 10.0524 14.9091 10.2217 14.9059C10.4883 14.9015 10.7548 14.8974 11.0214 14.8936C12.7943 14.8676 14.5091 14.8363 15.8687 13.5321C16.8688 12.3814 17.1817 11.1937 17.0838 9.70335C16.9833 8.73055 16.3957 7.75638 15.6977 7.08677C13.2626 5.13586 9.63701 5.93833 6.84416 5.93833Z" fill-opacity="0.6"/>
<path d="M9.32641 7.7831C9.45699 7.78085 9.45699 7.78085 9.5902 7.77856C9.68473 7.77805 9.77925 7.77755 9.87664 7.77703C9.97403 7.77619 10.0714 7.77534 10.1718 7.77447C10.3786 7.77311 10.5854 7.77227 10.7922 7.77193C11.1062 7.77082 11.4201 7.76622 11.7341 7.76147C11.9352 7.76058 12.1364 7.7599 12.3376 7.75946C12.4771 7.75671 12.4771 7.75671 12.6194 7.75391C13.3679 7.75868 13.9866 7.95173 14.5458 8.46569C15.2152 9.17677 15.3429 9.77808 15.32 10.7433C15.2341 11.5322 14.8682 12.0436 14.2748 12.5488C13.6358 12.9656 13.1138 13.009 12.365 13.0021C12.2665 13.0022 12.168 13.0022 12.0665 13.0023C11.8594 13.0021 11.6522 13.0011 11.4451 12.9996C11.127 12.9974 10.809 12.9977 10.491 12.9983C10.2895 12.9978 10.088 12.9971 9.88653 12.9963C9.74342 12.9964 9.74342 12.9964 9.59742 12.9965C9.50946 12.9956 9.4215 12.9947 9.33087 12.9938C9.25332 12.9934 9.17578 12.993 9.09588 12.9925C8.90691 12.9681 8.90691 12.9681 8.71941 12.7806C8.6956 12.5778 8.6956 12.5778 8.69515 12.3234C8.69456 12.2283 8.69397 12.1331 8.69336 12.0352C8.69374 11.9321 8.69412 11.8291 8.69451 11.723C8.69433 11.6175 8.69415 11.5121 8.69397 11.4035C8.69384 11.1803 8.69419 10.9571 8.69497 10.734C8.69597 10.3914 8.69498 10.0488 8.69378 9.70623C8.6939 9.4898 8.69414 9.27337 8.69451 9.05694C8.69413 8.95391 8.69375 8.85088 8.69336 8.74473C8.69395 8.64963 8.69454 8.55452 8.69515 8.45654C8.6953 8.37258 8.69545 8.28862 8.6956 8.20212C8.74316 7.79708 8.97446 7.78768 9.32641 7.7831ZM9.65691 8.74932C9.65691 9.83214 9.65691 10.9149 9.65691 12.0306C10.15 12.0364 10.643 12.0422 11.1511 12.0482C11.3049 12.0507 11.4587 12.0533 11.6172 12.0559C12.7788 12.0794 12.7788 12.0794 13.7966 11.5849C13.8589 11.501 13.8589 11.501 13.9225 11.4153C13.966 11.3591 14.0095 11.3029 14.0544 11.2451C14.3388 10.8235 14.3009 10.3675 14.2507 9.87432C13.997 9.3577 13.6558 9.02285 13.1093 8.83396C12.7356 8.74577 12.3909 8.72525 12.0098 8.73101C11.9497 8.7312 11.8895 8.73139 11.8275 8.73159C11.6059 8.73256 11.3844 8.73517 11.1628 8.7376C10.4174 8.74341 10.4174 8.74341 9.65691 8.74932Z" fill-opacity="0.6"/>
<path d="M12 23.5391C12.2812 23.5625 12.2812 23.5625 12.4688 23.75C12.4922 24.0312 12.4922 24.0312 12.4688 24.3125C12.2812 24.5 12.2812 24.5 12 24.5234C11.7188 24.5 11.7188 24.5 11.5312 24.3125C11.5078 24.0312 11.5078 24.0312 11.5312 23.75C11.7188 23.5625 11.7188 23.5625 12 23.5391Z" fill-opacity="0.6"/>
</g>
<defs>
<clipPath id="clip0_1333_159258">
<rect width="24" height="24" fill="white" transform="translate(0 0.5)"/>
</clipPath>
</defs>
</svg>
