<svg width="38" height="30" viewBox="0 0 38 30" fill="none" xmlns="http://www.w3.org/2000/svg">
<path d="M29 17V30H19.357V24.8702H13.6429V30H4V17H5.14283V28.8757H12.5V23.7459H20.5V28.8757H27.8571V17H29Z" fill="#125676"/>
<path d="M0 17L15.7146 0.407383L16.1005 1.90735e-06L16.4962 0.398014L33 17H31.3791L16.1214 1.65144L1.58519 17H0Z" fill="#125676"/>
<path d="M5.23444 9.92002V5.28031L10.675 5.15934L12 4L4.60286 4.16443L4 4.17793V11L5.23444 9.92002Z" fill="#125676"/>
<circle cx="28.3736" cy="9.62644" r="9.62644" fill="#4299C1"/>
<path d="M28.1143 3C30.932 3 33.2285 5.16512 33.2285 7.82227C33.2285 9.46564 31.062 12.5528 29.4658 14.8105C29.1556 15.2493 28.8718 15.647 28.6396 15.9912C28.1808 16.6717 28.11 16.727 27.5439 15.9932C25.9641 13.9657 23 10.1721 23 7.82227C23 5.16516 25.2968 3.00006 28.1143 3ZM28.1143 3.66016C25.6876 3.66022 23.7002 5.53372 23.7002 7.82227C23.7002 9.95693 26.5504 13.6121 28.0977 15.5781C29.5562 13.4166 32.5501 9.55256 32.5439 7.82227C32.5277 5.53368 30.5411 3.66016 28.1143 3.66016ZM28.1143 5.42578C29.5475 5.42578 30.704 6.51663 30.7041 7.86816C30.7041 9.21975 29.5475 10.3105 28.1143 10.3105C26.6812 10.3105 25.5244 9.21972 25.5244 7.86816C25.5245 6.51667 26.6813 5.42584 28.1143 5.42578ZM28.1143 6.10156C27.072 6.10163 26.2256 6.9009 26.2256 7.88379C26.2257 8.86665 27.0721 9.65033 28.1143 9.65039C29.1567 9.65039 30.0039 8.85108 30.0039 7.86816C30.0038 6.88528 29.1566 6.10156 28.1143 6.10156Z" fill="white"/>
</svg>
