<svg width="60" height="29" viewBox="0 0 60 29" fill="none" xmlns="http://www.w3.org/2000/svg">
<mask id="mask0_15_285" style="mask-type:luminance" maskUnits="userSpaceOnUse" x="0" y="0" width="50" height="29">
<path d="M0 0H49.0328V29H0V0Z" fill="white"/>
</mask>
<g mask="url(#mask0_15_285)">
<mask id="mask1_15_285" style="mask-type:luminance" maskUnits="userSpaceOnUse" x="0" y="0" width="50" height="29">
<path fill-rule="evenodd" clip-rule="evenodd" d="M35.7614 3.32244H42.3239C42.3239 2.6344 42.4985 1.35189 41.3385 1.35189H36.7468C35.5868 1.35189 35.7614 2.6344 35.7614 3.32244ZM34.4213 3.32244C34.4213 2.5594 34.6014 1.35189 33.384 1.35189C32.2238 1.35189 32.399 2.6344 32.399 3.32244H34.4213ZM27.0376 27.6481H30.3366V22.4186C30.3366 21.5357 31.6768 21.5357 31.6768 22.4186V27.6481H43.0456V22.4186C43.0456 21.5357 44.3864 21.5357 44.3864 22.4186V27.6481H47.6853V21.5088C47.6853 18.1259 44.9325 15.3695 41.546 15.3695H40.5687L40.5644 16.6114C40.4802 18.3047 39.0748 19.6581 37.3615 19.6581C35.5958 19.6581 34.1798 18.2512 34.154 16.4465V15.3695H33.177C29.7941 15.3695 27.0376 18.1222 27.0376 21.5088V27.6481ZM35.4952 16.4948C35.5567 18.9195 39.2286 18.8744 39.2286 16.4469V14.1302C38.0173 14.5064 36.7051 14.5066 35.4944 14.1299L35.4952 16.4948ZM48.3556 28.9888H26.3672C25.996 28.9888 25.6969 28.6892 25.6969 28.3185V21.5088C25.6969 17.384 29.052 14.0293 33.177 14.0293H34.154V13.5327C32.3026 12.4334 31.0586 10.4137 31.0586 8.10933L31.0582 2.33709C31.0582 0.221549 33.6523 -0.754139 35.0915 0.706919C35.5138 0.278151 36.1003 0.0113024 36.7468 0.0113024H41.3346C42.6151 0.0113024 43.6603 1.05674 43.6603 2.33709V8.10933C43.6629 10.4163 42.4193 12.4352 40.5683 13.5337V14.0293H41.546C45.6707 14.0293 49.0254 17.3844 49.0254 21.5088V28.3185C49.0254 28.6892 48.7265 28.9888 48.3556 28.9888ZM10.0716 3.32244H16.6339C16.6339 2.6344 16.8087 1.35189 15.6485 1.35189H11.057C9.89676 1.35189 10.0716 2.6344 10.0716 3.32244ZM6.70873 3.32244H8.7314C8.7314 2.55955 8.91157 1.35189 7.69416 1.35189C6.53397 1.35189 6.70873 2.6344 6.70873 3.32244ZM6.70873 4.66279V8.10933C6.70873 10.8459 8.93476 13.0718 11.6715 13.0718C14.4077 13.0718 16.6339 10.8459 16.6339 8.10933V4.66279H6.70873ZM1.34732 27.6481H4.64631V22.4186C4.64631 21.5357 5.98667 21.5357 5.98667 22.4186V27.6481H17.3559V22.4186C17.3559 21.5357 18.6961 21.5357 18.6961 22.4186V27.6481H21.9952V21.5088C21.9952 18.1259 19.2425 15.3695 15.8559 15.3695H14.8784L14.8741 16.6154C14.7884 18.3065 13.3871 19.6581 11.6712 19.6581C9.89661 19.6581 8.46378 18.2156 8.46378 16.4465V15.3695H7.4867C4.10388 15.3695 1.34732 18.1222 1.34732 21.5088V27.6481ZM9.80436 14.6909L9.80452 16.4469C9.80452 18.899 13.5256 18.9152 13.5383 16.4508V14.1302C12.3274 14.5064 11.015 14.5066 9.80436 14.1299V14.6909ZM22.6653 28.9888H0.677217C0.306212 28.9888 0.00711823 28.6892 0.00711823 28.3185V21.5088C0.00711823 17.384 3.36194 14.0293 7.4867 14.0293H8.46378V13.5327C6.61238 12.4334 5.36845 10.4137 5.36845 8.10933V2.33709C5.36845 0.218766 7.96634 -0.75236 9.40212 0.706146C9.82431 0.277765 10.4107 0.0113024 11.057 0.0113024H15.6445C16.9248 0.0113024 17.97 1.05674 17.97 2.33709V8.10933C17.9727 10.4163 16.7295 12.4352 14.8783 13.5337V14.0293H15.8559C19.9807 14.0293 23.3353 17.3844 23.3353 21.5088L23.3356 28.3185C23.3356 28.6892 23.0362 28.9888 22.6653 28.9888ZM42.3239 4.66279H32.399V8.10933C32.399 10.8459 34.6248 13.0718 37.3615 13.0718C40.0979 13.0718 42.3239 10.8459 42.3239 8.10933V4.66279Z" fill="white"/>
</mask>
<g mask="url(#mask1_15_285)">
<path d="M0.00696182 -0.754364V28.9886H49.0253V-0.754364H0.00696182Z" fill="#125676"/>
</g>
</g>
<circle cx="50.3735" cy="9.62644" r="9.62644" fill="#4299C1"/>
<path d="M54.3154 4L52.8547 5.54895L52.9905 5.6985C52.8937 5.78136 52.7958 5.86219 52.7008 5.93395C52.5474 6.05013 52.4001 6.14333 52.3003 6.18704C52.2939 6.19008 52.2667 6.19816 52.2129 6.19791C52.1269 6.19891 51.983 6.17567 51.8067 6.14715C51.6297 6.11885 51.418 6.08806 51.1793 6.08778C50.971 6.08704 50.7414 6.11382 50.4996 6.18427C50.2583 6.11407 50.0291 6.08779 49.8214 6.08806C49.5825 6.08806 49.3707 6.11888 49.1937 6.14743C49.0174 6.17595 48.8738 6.19922 48.7878 6.19819C48.7337 6.19869 48.7068 6.19011 48.7013 6.18732C48.5948 6.14109 48.4342 6.03802 48.269 5.91046C48.1834 5.84454 48.0963 5.77228 48.0098 5.69804L48.1453 5.54899L46.6846 4.00003L43 8.04665L44.4608 9.5956L44.8884 9.12602L45.8322 9.99948C45.8586 10.167 45.9084 10.3251 45.9658 10.4752C46.0032 10.5707 46.0442 10.6626 46.0862 10.749C45.9949 10.9091 45.9451 11.092 45.9456 11.2774C45.9454 11.4613 45.993 11.6492 46.0909 11.8162C46.2398 12.0701 46.4783 12.2297 46.7358 12.2802C46.7372 12.4609 46.7844 12.645 46.8804 12.8087C47.0626 13.1194 47.378 13.2917 47.6996 13.2911C47.712 13.2911 47.7246 13.2891 47.737 13.2886C47.7532 13.4331 47.798 13.5771 47.8747 13.708C48.057 14.0186 48.3726 14.1909 48.6937 14.1904C48.7256 14.1904 48.7573 14.1869 48.7895 14.1836C48.8047 14.3137 48.8455 14.4435 48.9143 14.5607C49.0804 14.8436 49.3676 15.0007 49.6599 15C49.8176 15.0002 49.9791 14.9548 50.1225 14.8603L50.5604 14.5714C50.6467 14.6304 50.7372 14.6825 50.8322 14.7249C51.0092 14.804 51.2005 14.8525 51.3994 14.8527C51.6176 14.8537 51.848 14.7903 52.0462 14.6426C52.1753 14.5471 52.2846 14.4162 52.3742 14.2619C52.388 14.2624 52.3992 14.265 52.4135 14.2652C52.5043 14.2652 52.6038 14.2508 52.7025 14.2182C52.8018 14.1861 52.9004 14.1381 53.0057 14.0742C53.2568 13.9242 53.4074 13.7034 53.4805 13.5142C53.4967 13.4728 53.5084 13.4339 53.5189 13.3963C53.5796 13.3758 53.6378 13.3508 53.6904 13.3185C53.8845 13.2 54.011 13.0199 54.0889 12.8391C54.1671 12.6564 54.2014 12.4667 54.2018 12.2843C54.2018 12.2664 54.1997 12.249 54.199 12.2313C54.3259 12.1762 54.44 12.0997 54.5372 12.0095C54.6368 11.917 54.7204 11.8095 54.7826 11.6867C54.8446 11.5644 54.886 11.4245 54.8862 11.2712C54.8865 11.1714 54.8672 11.0663 54.825 10.9678C54.8114 10.9365 54.7921 10.9077 54.7745 10.8786C54.8486 10.7379 54.9241 10.5793 54.986 10.4081C55.0325 10.2785 55.0716 10.1426 55.094 9.99983L56.078 9.0892L56.5392 9.59566L58 8.04665L54.3154 4ZM47.0648 11.5015L47.0478 11.5129C47.0038 11.5417 46.9575 11.5546 46.9099 11.5548C46.8215 11.5543 46.7367 11.5086 46.6869 11.4235C46.6598 11.3767 46.6474 11.3275 46.6474 11.2775C46.6478 11.1832 46.6907 11.0938 46.7708 11.041L47.3494 10.6598C47.3935 10.6308 47.4397 10.6182 47.4868 10.6177C47.5757 10.6186 47.66 10.6636 47.7101 10.7492L48.0081 10.553L47.7101 10.7495C47.7372 10.796 47.7494 10.845 47.7496 10.895C47.7491 10.9607 47.727 11.0233 47.687 11.0739L47.19 11.4012C47.1448 11.431 47.1036 11.4656 47.0648 11.5015ZM47.8373 12.5051C47.7932 12.5339 47.747 12.547 47.6996 12.547C47.611 12.5465 47.5262 12.501 47.4764 12.4159C47.4492 12.3692 47.4371 12.3197 47.4368 12.2697C47.437 12.2045 47.4592 12.1419 47.499 12.0918L47.9962 11.7637C48.0412 11.7341 48.082 11.6998 48.1208 11.6639L48.1389 11.6523C48.1829 11.6233 48.2294 11.6104 48.2763 11.6104C48.3654 11.6109 48.4495 11.6564 48.4995 11.7417C48.5267 11.7885 48.5388 11.8372 48.5391 11.8875C48.5386 11.9812 48.496 12.0711 48.415 12.1244L47.8373 12.5051ZM49.4093 13.0234L48.8314 13.4044C48.7876 13.4332 48.7413 13.4463 48.6937 13.4463C48.6053 13.4458 48.5205 13.4003 48.4707 13.3152C48.4436 13.2682 48.4314 13.2192 48.4312 13.1689C48.4319 13.0747 48.4745 12.9856 48.5546 12.9325L49.1332 12.5513C49.1773 12.5223 49.2235 12.5097 49.2706 12.5097C49.3595 12.5099 49.4438 12.5554 49.4939 12.6408C49.521 12.6875 49.5332 12.7365 49.5334 12.7868C49.5329 12.8804 49.4903 12.9698 49.4093 13.0234ZM50.3053 13.6448C50.3236 13.6759 50.3315 13.7082 50.3317 13.742C50.3312 13.8049 50.3029 13.8648 50.2483 13.9009L49.7521 14.2278C49.7225 14.2475 49.6921 14.2558 49.6599 14.2558C49.6004 14.2555 49.5439 14.225 49.5103 14.1679C49.492 14.1363 49.4841 14.104 49.4838 14.0702C49.4845 14.0067 49.5129 13.9474 49.5665 13.912H49.5667L50.0634 13.5847C50.0937 13.5647 50.1239 13.5564 50.1556 13.5564C50.2154 13.5569 50.2714 13.5869 50.305 13.6443L50.6032 13.4482L50.3053 13.6448ZM54.1642 11.3348C54.1387 11.3871 54.0806 11.4552 54.007 11.503C53.9334 11.5513 53.8478 11.5795 53.7659 11.5793C53.7368 11.5793 53.7087 11.5846 53.6813 11.5921C53.6313 11.5805 53.5812 11.5644 53.532 11.5437C53.3793 11.4805 53.2366 11.3782 53.1358 11.2918C53.0853 11.2486 53.0453 11.2097 53.0186 11.1827L52.9891 11.1516L52.9826 11.1446L52.9817 11.1436H52.9814C52.8833 11.0304 52.717 11.0228 52.61 11.1269C52.5031 11.231 52.4957 11.4073 52.5941 11.5214C52.6029 11.531 52.7351 11.6841 52.9517 11.8418C53.0603 11.9206 53.1901 12.0009 53.3395 12.063C53.374 12.0775 53.41 12.0908 53.4469 12.103C53.4572 12.1274 53.4703 12.1507 53.4858 12.1727L53.4851 12.1732C53.487 12.1747 53.5013 12.2227 53.5001 12.2843C53.5018 12.3871 53.4665 12.5218 53.4157 12.596C53.391 12.6339 53.3657 12.6579 53.3412 12.6728C53.3162 12.6875 53.2909 12.6971 53.2435 12.6978L53.2266 12.6976C53.2166 12.6971 53.2071 12.6989 53.1973 12.6994C53.1968 12.6994 53.1966 12.6994 53.1966 12.6994C52.9684 12.7004 52.7559 12.5966 52.5992 12.4829C52.521 12.4268 52.4584 12.3697 52.4162 12.3278C52.3954 12.3071 52.3795 12.2899 52.3697 12.2793L52.3595 12.2677L52.3578 12.2654H52.3576C52.2626 12.1497 52.097 12.1371 51.9872 12.2379C51.8771 12.3389 51.8652 12.515 51.9605 12.6317L51.9602 12.6315C51.9705 12.6436 52.092 12.7921 52.3033 12.9447C52.4424 13.0444 52.6239 13.1477 52.8395 13.2074C52.8372 13.214 52.8357 13.2205 52.8329 13.2271C52.8052 13.2933 52.7657 13.3614 52.658 13.4281C52.5853 13.4721 52.5334 13.4951 52.497 13.5067C52.4603 13.5183 52.4398 13.5206 52.4136 13.5208C52.3795 13.5214 52.3283 13.5133 52.243 13.4948C52.2275 13.4913 52.2121 13.4903 52.1966 13.4893C52.1908 13.4867 52.1854 13.4845 52.1792 13.4812C52.092 13.4377 51.9857 13.3592 51.9074 13.2922C51.868 13.2592 51.8347 13.2288 51.8118 13.2074L51.7861 13.1826L51.7802 13.1765L51.779 13.1756C51.6739 13.069 51.5071 13.073 51.4066 13.1844C51.3063 13.2958 51.3101 13.4726 51.4152 13.5789C51.4207 13.5842 51.5315 13.6969 51.6868 13.8151C51.7144 13.8358 51.7449 13.8568 51.7754 13.8775C51.7325 13.95 51.6877 13.9998 51.6439 14.0329C51.5738 14.0839 51.4976 14.1081 51.3995 14.1087C51.3116 14.1089 51.2082 14.0859 51.1048 14.0395C51.0705 14.0243 51.0369 14.0028 51.0031 13.9829C51.0229 13.9046 51.0338 13.8235 51.0336 13.7421C51.0338 13.5747 50.9905 13.4034 50.9014 13.2516C50.7501 12.9937 50.4978 12.8421 50.2336 12.8173C50.2336 12.8072 50.2353 12.7971 50.2353 12.7868C50.2355 12.6031 50.1879 12.4147 50.0902 12.248V12.2485C49.9077 11.9368 49.5918 11.7645 49.2707 11.7652C49.2583 11.7652 49.2457 11.7675 49.2333 11.768C49.2171 11.6233 49.1723 11.4798 49.0957 11.349H49.0959C48.947 11.0946 48.7083 10.935 48.4508 10.8849C48.4491 10.7043 48.4022 10.5202 48.3062 10.3565H48.3064C48.1242 10.0456 47.808 9.87302 47.4869 9.87351C47.3132 9.87351 47.1363 9.92406 46.9788 10.0276L46.6408 10.2504C46.6326 10.2307 46.6224 10.2115 46.615 10.1918C46.5562 10.0425 46.5193 9.89523 46.5152 9.79371L46.5074 9.63658L45.3766 8.58983L47.5205 6.23531C47.6301 6.33056 47.7425 6.42503 47.8579 6.51344C48.0489 6.65945 48.2383 6.78828 48.4317 6.87467C48.5559 6.92898 48.6769 6.94236 48.7879 6.94261C48.9656 6.94187 49.1285 6.90953 49.2984 6.88325C49.3093 6.88123 49.3208 6.88023 49.332 6.87843C49.0985 7.09086 48.8948 7.32074 48.7226 7.53472C48.5775 7.71533 48.4551 7.88557 48.3581 8.0245C48.2624 8.16268 48.1885 8.27408 48.1561 8.31804C47.9965 8.53829 47.9279 8.80176 47.9265 9.06572C47.9272 9.31126 47.9886 9.56687 48.1483 9.78287C48.2278 9.8897 48.3336 9.98317 48.4598 10.0468C48.5859 10.111 48.7302 10.1438 48.8805 10.1438C49.0671 10.1433 49.2626 10.0953 49.4697 10.0031C50.1195 9.7116 50.7894 9.51735 51.2934 9.39762C51.5455 9.33801 51.7563 9.2966 51.9033 9.27057C51.9309 9.26575 51.954 9.26171 51.9769 9.2577L54.1821 11.2735L54.1831 11.274L54.1838 11.2752C54.1835 11.2825 54.1801 11.3035 54.1642 11.3348ZM54.4193 9.63655L54.4117 9.79368C54.4076 9.88358 54.3788 10.0104 54.3304 10.1418C54.3059 10.2104 54.2759 10.2797 54.2445 10.3479L52.3132 8.58268C52.2382 8.514 52.1381 8.48215 52.0398 8.4953C52.0226 8.49884 50.6061 8.68728 49.1966 9.31729C49.0563 9.38016 48.951 9.39961 48.8805 9.39911C48.8231 9.39911 48.788 9.38824 48.7621 9.3751C48.7244 9.35565 48.6975 9.3281 48.6708 9.27532C48.6454 9.22331 48.628 9.14652 48.6282 9.06569C48.6268 8.9495 48.6659 8.83127 48.7097 8.77523C48.7642 8.70045 48.8309 8.5984 48.9229 8.46653C49.0594 8.27051 49.2447 8.01689 49.4658 7.7701C49.6863 7.52332 49.9429 7.28436 50.2119 7.11661C50.5756 6.89005 50.8856 6.8332 51.1793 6.83218C51.3601 6.83193 51.5335 6.85591 51.7027 6.88294C51.8723 6.90947 52.0357 6.94128 52.2129 6.9423C52.3237 6.94205 52.444 6.92866 52.5677 6.87511L52.5693 6.87461C52.7627 6.78822 52.9521 6.65939 53.1432 6.51338C53.2578 6.42547 53.3707 6.3305 53.4798 6.23553L55.5902 8.55314L54.4193 9.63655Z" fill="white"/>
</svg>
