<svg width="53" height="30" viewBox="0 0 53 30" fill="none" xmlns="http://www.w3.org/2000/svg">
<path d="M10.8475 24.8504L10.7078 24.9817L10.7314 24.9577L10.6025 25.0997L10.624 25.074L10.5072 25.2258L10.5266 25.1984L10.4224 25.3591L10.4395 25.3302L10.3487 25.4986L10.3633 25.4685L10.2863 25.6435L10.2986 25.6124L10.2361 25.793L10.2459 25.7609L10.1982 25.946L10.2051 25.9133L10.1728 26.1015L10.177 26.0683L10.1598 26.2585L10.1616 26.2251L10.1598 26.4161L10.1587 26.3826L10.1726 26.5731L10.1688 26.5399L10.1978 26.7286L10.1914 26.6958L10.2358 26.8816L10.2267 26.8494L10.286 27.0311L10.2743 26.9997L10.3481 27.1761L10.334 27.1457L10.4218 27.3157L10.4052 27.2866L10.5065 27.449L10.4877 27.4212L10.6018 27.5751L10.5808 27.549L10.7069 27.6932L10.6838 27.6688L10.8214 27.8026L10.796 27.7799L10.9473 27.9049L10.9199 27.884L11.0812 27.9963L11.0521 27.9779L11.222 28.0766L11.1917 28.0605L11.3692 28.1451L11.3374 28.1316L11.5213 28.2014L11.4886 28.1905L11.6779 28.2452L11.6444 28.237L11.8373 28.2761L11.8033 28.2706L11.9989 28.2939L11.9644 28.2912L12.1613 28.2984L12.1267 28.2986L12.3235 28.2898L12.2893 28.2928L12.4846 28.268L12.4506 28.2737L12.6433 28.2332L12.6098 28.2416L12.7985 28.1855L12.766 28.1967L12.9494 28.1254L12.9178 28.1392L13.0945 28.0532L13.0642 28.0695L13.2335 27.9694L13.2045 27.9882L13.3648 27.8747L13.3376 27.8957L13.4879 27.7696L13.4625 27.7927L13.6019 27.6547C13.7662 27.4922 14.0324 27.4924 14.1964 27.6551C14.3604 27.818 14.3601 28.0818 14.1959 28.2443L14.0564 28.3823C14.0483 28.3904 14.0397 28.3981 14.0309 28.4055L13.8807 28.5316C13.8719 28.539 13.8627 28.546 13.8534 28.5527L13.693 28.6662C13.6837 28.6728 13.674 28.679 13.6642 28.6849L13.495 28.785C13.4852 28.7908 13.4751 28.7963 13.4647 28.8013L13.2877 28.8873C13.2774 28.8923 13.2668 28.8969 13.2562 28.9011L13.0728 28.9724C13.062 28.9765 13.0513 28.9802 13.0401 28.9835L12.8514 29.0396C12.8404 29.0429 12.8293 29.0458 12.8179 29.0481L12.6252 29.0887C12.614 29.0911 12.6027 29.093 12.5912 29.0944L12.3957 29.1192C12.3843 29.1206 12.3728 29.1216 12.3613 29.1222L12.1646 29.131C12.1531 29.1314 12.1416 29.1314 12.13 29.131L11.9331 29.1238C11.9216 29.1234 11.9102 29.1225 11.8987 29.1211L11.7031 29.0978C11.6917 29.0965 11.6802 29.0947 11.6691 29.0924L11.4759 29.0533C11.4647 29.051 11.4534 29.0483 11.4425 29.0451L11.2534 28.9904C11.2423 28.9872 11.2313 28.9835 11.2205 28.9794L11.0367 28.9096C11.0258 28.9055 11.0154 28.901 11.005 28.896L10.8274 28.8114C10.817 28.8065 10.8067 28.8011 10.7969 28.7954L10.627 28.6966C10.6171 28.6908 10.6074 28.6846 10.5979 28.6781L10.4366 28.5658C10.4273 28.5593 10.4182 28.5523 10.4092 28.5449L10.2578 28.42C10.2492 28.4128 10.2406 28.4052 10.2326 28.3973L10.0951 28.2635C10.0871 28.2557 10.0793 28.2475 10.0721 28.2391L9.9457 28.0949C9.93834 28.0865 9.9312 28.0777 9.92463 28.0687L9.81056 27.9148C9.80378 27.9058 9.79756 27.8966 9.79156 27.8872L9.69021 27.7247C9.68435 27.7152 9.67871 27.7055 9.67357 27.6955L9.58586 27.5256C9.58071 27.5156 9.57593 27.5055 9.57157 27.4951L9.49786 27.3188C9.4935 27.3084 9.48964 27.298 9.48614 27.2874L9.42693 27.1056C9.42343 27.095 9.42036 27.0842 9.41779 27.0734L9.3735 26.8875C9.37079 26.8767 9.36879 26.8657 9.36715 26.8547L9.33786 26.6659C9.33622 26.6549 9.33493 26.6438 9.33422 26.6327L9.32036 26.4422C9.31958 26.431 9.31922 26.4199 9.31922 26.4087L9.32108 26.2177C9.32108 26.2066 9.32158 26.1954 9.32272 26.1843L9.33972 25.9941C9.34079 25.983 9.34229 25.9719 9.34408 25.9609L9.37665 25.7727C9.37865 25.7616 9.38086 25.7507 9.38379 25.7399L9.43129 25.5549C9.43407 25.5441 9.43736 25.5334 9.441 25.5228L9.50357 25.3422C9.50722 25.3316 9.51121 25.3212 9.51579 25.3109L9.59257 25.1358C9.59714 25.1257 9.60207 25.1156 9.60743 25.1058L9.69828 24.9373C9.70357 24.9275 9.70928 24.9179 9.71528 24.9084L9.81949 24.7478C9.82571 24.7385 9.83213 24.7293 9.83892 24.7204L9.95577 24.5686C9.9627 24.5598 9.96984 24.5511 9.97734 24.5428L10.1061 24.4008C10.1137 24.3925 10.1216 24.3845 10.1296 24.3768L10.2695 24.2455C10.4381 24.0872 10.7042 24.0944 10.8637 24.2615C11.0234 24.4285 11.0161 24.6922 10.8475 24.8504Z" fill="#125676"/>
<path d="M38.5301 5.44213L35.3247 8.2574C35.218 8.35118 35.0669 8.39446 34.918 8.37381L31.774 7.9402C31.5812 7.91354 31.4267 7.78503 31.3855 7.61699L30.6796 4.74415C30.6455 4.60553 30.6941 4.46118 30.8081 4.36124L34.0722 1.5C34.2571 1.33797 34.5564 1.33854 34.7404 1.50149C34.9246 1.66444 34.9238 1.92789 34.7388 2.08992L31.4749 4.95116L31.6033 4.56818L32.3092 7.44102L31.9204 7.11781L35.0642 7.55164L34.6574 7.66805L37.8627 4.85278C38.0476 4.69061 38.3469 4.69096 38.5311 4.8537C38.7152 5.01651 38.7148 5.27996 38.5301 5.44213Z" fill="#125676"/>
<path d="M38.7996 5.31826L38.9104 5.74772C38.9132 5.75812 38.9153 5.76845 38.917 5.77899L38.9904 6.21494C38.9922 6.22547 38.9936 6.23601 38.9944 6.24655L39.0297 6.6862C39.0307 6.69695 39.0311 6.70748 39.0311 6.71802L39.0283 7.15893C39.0283 7.16946 39.0277 7.18014 39.0267 7.19068L38.9858 7.63005C38.9848 7.64073 38.9834 7.65126 38.9815 7.66166L38.9027 8.09685C38.9009 8.10738 38.8987 8.11771 38.8957 8.12811L38.7796 8.55652C38.7768 8.56671 38.7736 8.57704 38.7699 8.58702L38.6171 9.00601C38.6133 9.0162 38.6093 9.02618 38.6047 9.03602L38.4161 9.44315C38.4117 9.45299 38.4067 9.46262 38.4013 9.47211L38.178 9.86494C38.1725 9.87443 38.1668 9.88371 38.1608 9.89264L37.9042 10.2689C37.8979 10.278 37.8914 10.2867 37.8844 10.2953L37.596 10.6526C37.5891 10.6612 37.5819 10.6696 37.5741 10.6778L37.2558 11.0138C37.248 11.0219 37.2401 11.0297 37.2319 11.0373L36.8853 11.3505C36.8769 11.3579 36.8683 11.365 36.8594 11.372L36.4868 11.6602C36.4779 11.667 36.4684 11.6738 36.4591 11.6801L36.0627 11.9414C36.0531 11.9477 36.0433 11.9536 36.0333 11.9593L35.6155 12.1922C35.6055 12.1979 35.5952 12.2031 35.5846 12.2081L35.148 12.4114C35.1383 12.4159 35.1285 12.42 35.1186 12.424L34.738 12.5714C34.7288 12.5747 34.7197 12.5781 34.7103 12.5811L34.32 12.7058C34.3107 12.7089 34.3009 12.7116 34.2915 12.7141L33.8929 12.8158C33.8833 12.8181 33.8737 12.8202 33.8637 12.8222L33.4587 12.9004C33.4489 12.9022 33.4392 12.9038 33.4294 12.9051L33.0194 12.9594C33.0094 12.9608 32.9994 12.9617 32.9897 12.9624L32.5766 12.9926C32.5667 12.9935 32.5567 12.9938 32.5467 12.9941L32.1323 12.9999C32.1223 13.0001 32.1124 12.9999 32.1024 12.9996L31.6884 12.9814C31.6784 12.9808 31.6685 12.9801 31.6587 12.9792L31.2469 12.9367C31.2371 12.9358 31.2271 12.9343 31.2173 12.9327L30.8097 12.8665C30.7997 12.8649 30.7901 12.8629 30.7804 12.8608L30.3783 12.7707C30.1326 12.7157 29.9835 12.4927 30.0449 12.2728C30.1063 12.0527 30.3552 11.9191 30.6007 11.9739L31.0027 12.0642L30.9734 12.0584L31.3812 12.1249L31.3516 12.1208L31.7634 12.1633L31.7334 12.161L32.1475 12.1794L32.1176 12.1788L32.5319 12.1727L32.502 12.1742L32.9149 12.144L32.8851 12.1471L33.2952 12.0927L33.2657 12.0974L33.6709 12.0193L33.6418 12.0259L34.0404 11.9241L34.0119 11.9323L34.4022 11.8076L34.3743 11.8174L34.7546 11.6702L34.7252 11.6827L35.1618 11.4794L35.1309 11.4951L35.5485 11.2622L35.5192 11.28L35.9154 11.0187L35.8878 11.0385L36.2603 10.7505L36.2344 10.7721L36.5808 10.4592L36.5566 10.4825L36.8751 10.1463L36.8531 10.1715L37.1415 9.8142L37.1218 9.84065L37.3783 9.46458L37.3611 9.49228L37.5842 9.09946L37.5695 9.12835L37.758 8.72122L37.7456 8.75109L37.8986 8.33195L37.8888 8.36266L38.0048 7.93425L37.9979 7.96537L38.0766 7.53033L38.0723 7.56194L38.1132 7.12264L38.1115 7.15446L38.1144 6.71355L38.1155 6.74531L38.0801 6.30566L38.084 6.33727L38.0107 5.90139L38.0172 5.93265L37.9065 5.50319C37.8495 5.28218 38.0033 5.06173 38.2497 5.01064C38.4965 4.95956 38.7426 5.09725 38.7996 5.31826Z" fill="#125676"/>
<path d="M34.4585 2.05682L33.9882 1.94433L34.0227 1.95124L33.544 1.87222L33.5791 1.87669L33.095 1.83141L33.1306 1.83337L32.6442 1.82233L32.6796 1.82177L32.1937 1.84469L32.2289 1.84182L31.7463 1.8987L31.7812 1.89332L31.3051 1.98401L31.3396 1.97612L30.8726 2.09993L30.9063 2.08973L30.4515 2.2459L30.4842 2.23339L30.0442 2.42101L30.0755 2.40619L29.6532 2.62406L29.6833 2.60722L29.281 2.85408L29.3093 2.83494L28.9294 3.10933L28.9564 3.08837L28.6012 3.38855L28.6262 3.36584L28.2981 3.68998L28.3208 3.66546L28.0216 4.01175L28.0413 3.98723L27.8013 4.31172L27.8178 4.28741L27.603 4.62622L27.6179 4.601L27.4295 4.95233L27.4422 4.92619L27.2816 5.28842L27.2921 5.26159L27.1594 5.6329L27.1682 5.60558L27.0641 5.98422L27.0707 5.95634L26.9961 6.34072L27.0004 6.31249L26.9553 6.70064L26.9574 6.6722L26.9423 7.06196V7.03352L26.9571 7.42348L26.9548 7.39505L26.9994 7.78319L26.9951 7.75497L27.0693 8.13934L27.0629 8.11146L27.1662 8.49032C27.2265 8.71084 27.0772 8.9336 26.8327 8.98796C26.5884 9.04232 26.3415 8.90746 26.2812 8.68708L26.1778 8.30823C26.1754 8.29907 26.1732 8.28978 26.1712 8.28049L26.0971 7.89611C26.0953 7.88675 26.0939 7.87731 26.0929 7.86781L26.0483 7.4798C26.0472 7.47037 26.0465 7.46087 26.0461 7.45157L26.0314 7.06161C26.031 7.0521 26.031 7.04267 26.0314 7.03317L26.0465 6.6432C26.0469 6.63377 26.0476 6.62427 26.0489 6.61497L26.0939 6.22696C26.0949 6.21746 26.0964 6.20817 26.0982 6.19874L26.173 5.8145C26.1746 5.80521 26.1768 5.79591 26.1793 5.78655L26.2833 5.4079C26.2858 5.39875 26.2886 5.38967 26.2919 5.38051L26.4246 5.0092C26.4278 5.00026 26.4314 4.99132 26.4353 4.98251L26.5961 4.62049C26.6001 4.61169 26.6042 4.60296 26.609 4.59436L26.7972 4.24325C26.8018 4.23465 26.8066 4.22627 26.8119 4.21802L27.0265 3.87941C27.0318 3.87117 27.0371 3.86292 27.0431 3.85524L27.2832 3.5306C27.2893 3.52236 27.2959 3.51411 27.3028 3.50608L27.602 3.15992C27.6094 3.15154 27.6169 3.14329 27.6249 3.13547L27.9531 2.81132C27.961 2.80342 27.9693 2.79595 27.978 2.78861L28.3331 2.48843C28.3417 2.4811 28.3506 2.47411 28.3599 2.46733L28.7396 2.19315C28.7489 2.1863 28.7585 2.18008 28.7684 2.174L29.1707 1.92714C29.1804 1.9212 29.1905 1.91547 29.2007 1.91016L29.6232 1.69243C29.6336 1.68705 29.6439 1.68209 29.6546 1.67762L30.0947 1.48994C30.1053 1.48532 30.1162 1.4812 30.1273 1.47743L30.5822 1.32126C30.593 1.31749 30.6043 1.31413 30.6156 1.31106L31.0826 1.18731C31.0939 1.18424 31.1054 1.18172 31.1169 1.17942L31.5932 1.08872C31.6047 1.08655 31.6165 1.08481 31.6282 1.08334L32.1106 1.02646C32.1223 1.02507 32.1342 1.02416 32.146 1.02346L32.6318 1.00054C32.6438 0.999981 32.6555 0.999841 32.6674 1.00019L33.1537 1.01144C33.1657 1.01179 33.1775 1.01235 33.1892 1.0134L33.6732 1.05888C33.6849 1.05993 33.6969 1.06154 33.7084 1.06336L34.187 1.14259C34.1987 1.14434 34.2103 1.14686 34.2217 1.14958L34.6921 1.26208C34.9354 1.32021 35.0803 1.54521 35.0157 1.76468C34.9513 1.98422 34.7018 2.11496 34.4585 2.05682Z" fill="#125676"/>
<path d="M32.8567 23.2996L15.9873 8.11411C15.8124 7.95679 15.5422 7.96284 15.3747 8.12791L12.1287 11.3307C11.9589 11.4982 11.9568 11.7685 12.1242 11.9385L27.8027 27.8675C27.9723 28.0399 28.2525 28.0447 28.4282 27.8781C28.604 27.7115 28.6088 27.4367 28.439 27.2641L12.7606 11.3352L12.7561 11.943L16.0019 8.74035L15.3893 8.75407L32.2585 23.9396C32.4387 24.1017 32.7185 24.0898 32.8836 23.9131C33.0488 23.7363 33.0367 23.4617 32.8567 23.2996Z" fill="#125676"/>
<path d="M7.23123 13.8963L6.5172 14.6075L5.87341 15.2489L5.47431 15.6467L5.2733 15.8469L5.0919 16.0277L4.8889 16.2299L5.52624 16.2311L0.769879 11.4579L0.766356 12.0976L3.1355 9.77244C3.31322 9.59816 3.31598 9.31257 3.1414 9.13492C2.96705 8.95742 2.68177 8.95466 2.50405 9.12902L0.135059 11.4543C0.0491858 11.5385 0.000542164 11.6534 5.72205e-06 11.7734C-0.000607491 11.8936 0.046658 12.009 0.131382 12.0941L4.88775 16.8675C5.06348 17.0438 5.34883 17.0442 5.52509 16.8685L5.72825 16.6663L5.90965 16.4854L6.11066 16.2854V16.2852L6.50977 15.8877L7.15355 15.2462L7.86743 14.5349C8.04369 14.3592 8.04431 14.0738 7.86857 13.8973C7.69284 13.721 7.40749 13.7205 7.23123 13.8963Z" fill="#125676"/>
<path d="M6.78303 5.84816C8.22782 4.20433 9.60039 2.65306 11.414 1.80542C12.8397 1.13917 14.5707 0.895823 16.0271 0.895823C16.4204 0.895823 16.7905 0.913558 17.1254 0.944919C18.6717 1.08893 19.4849 1.51991 20.3436 1.97516L20.237 1.26195L19.2734 2.22315C19.0984 2.39777 19.098 2.6813 19.2724 2.85668C19.4468 3.03182 19.7298 3.03243 19.9048 2.85782L20.8684 1.89638C20.9692 1.79606 21.0161 1.65365 20.9951 1.51291C20.974 1.37224 20.8875 1.24984 20.762 1.18324C19.8695 0.710478 18.9315 0.213585 17.2082 0.0528253C16.8446 0.0189532 16.4468 0 16.0271 0C14.4915 0 12.619 0.253927 11.0357 0.993786C9.0231 1.93437 7.53104 3.6416 6.11157 5.2562C5.9483 5.44185 5.96639 5.72485 6.15162 5.88827C6.33709 6.05177 6.61961 6.03366 6.78303 5.84816Z" fill="#125676"/>
<path d="M19.7007 2.14546L19.461 2.08219C19.4517 2.07977 19.4422 2.07749 19.4327 2.07581L19.1895 2.03248C19.18 2.03079 19.1705 2.02947 19.1608 2.02852L18.9154 2.00506C18.9057 2.00411 18.8962 2.00352 18.8866 2.00352L18.6401 2C18.6305 2 18.6209 2.00015 18.6113 2.00095L18.3654 2.01782C18.3557 2.0184 18.3462 2.0195 18.3367 2.02082L18.0925 2.05799C18.083 2.05931 18.0735 2.06115 18.0642 2.06342L17.8231 2.12031C17.8137 2.12236 17.8043 2.125 17.7952 2.12801L17.5585 2.20455C17.5494 2.20756 17.5403 2.21093 17.5313 2.21452L17.3004 2.31005C17.2915 2.31379 17.2824 2.3179 17.2738 2.32244L17.0501 2.43674C17.0412 2.44107 17.0328 2.4459 17.0243 2.45118L16.8087 2.5833C16.8004 2.58858 16.7921 2.594 16.7842 2.59979L16.578 2.74943C16.5699 2.75522 16.5621 2.76145 16.5545 2.76783L16.3589 2.93374C16.3512 2.94027 16.3438 2.94701 16.3366 2.9542L16.1526 3.13566C16.1455 3.14284 16.1385 3.1501 16.1319 3.1578L15.9606 3.35399C15.954 3.36169 15.9475 3.36953 15.9412 3.3776L15.7836 3.58728C15.7773 3.59549 15.7714 3.60392 15.7658 3.61257L15.6226 3.83442C15.6168 3.84344 15.6114 3.85246 15.6063 3.86162L15.4733 4.10474C15.468 4.11427 15.4631 4.12387 15.4586 4.13377L15.3429 4.38752C15.3383 4.39749 15.3341 4.40746 15.3304 4.41779L15.2324 4.68056C15.2287 4.69068 15.2251 4.70116 15.2222 4.71172L15.1429 4.98196C15.1397 4.99266 15.137 5.00337 15.1346 5.01407L15.0744 5.29032C15.072 5.30103 15.0702 5.3121 15.0685 5.32302L15.0276 5.6036C15.0261 5.61445 15.0249 5.62552 15.0241 5.63644L15.0029 5.91981C15.0021 5.93088 15.0015 5.94195 15.0015 5.95302L15 6.23719C15 6.24826 15.0003 6.25955 15.001 6.2704L15.0193 6.55406C15.0202 6.56513 15.0212 6.5762 15.0227 6.58705L15.0607 6.86822C15.0622 6.87907 15.0641 6.88999 15.0663 6.90084L15.1237 7.1779C15.1259 7.1886 15.1286 7.19931 15.1316 7.21001L15.2082 7.48121C15.2112 7.49191 15.2144 7.50225 15.2182 7.51251L15.3134 7.77659C15.3171 7.78678 15.3211 7.7969 15.3256 7.80702L15.4388 8.06208C15.4432 8.07205 15.448 8.08181 15.4531 8.09119L15.5838 8.33592C15.5889 8.34552 15.5942 8.35469 15.6 8.36392L15.7473 8.59663C15.7531 8.60564 15.7592 8.61466 15.7655 8.62309L15.9285 8.84267C16.0653 9.02662 16.3108 9.05309 16.4768 8.90184C16.6431 8.75051 16.667 8.47873 16.5304 8.29464L16.3674 8.07506L16.3855 8.10153L16.2382 7.86875L16.2545 7.89676L16.1238 7.65218L16.138 7.68128L16.0248 7.42622L16.037 7.45665L15.9417 7.19256L15.9519 7.22409L15.8753 6.95267L15.8832 6.98479L15.8256 6.70773L15.8314 6.74043L15.7933 6.45926L15.7966 6.49247L15.7782 6.20889L15.7792 6.2421L15.7807 5.95793L15.7794 5.99114L15.8005 5.70778L15.7968 5.74077L15.8378 5.46019L15.8319 5.49282L15.892 5.21657L15.8839 5.24846L15.9631 4.97822L15.9528 5.00938L16.0507 4.74661L16.0382 4.77682L16.154 4.52322L16.1393 4.55233L16.2726 4.30929L16.2563 4.33649L16.3997 4.11449L16.3821 4.13964L16.5399 3.93017L16.5206 3.95378L16.6919 3.75766L16.6711 3.7798L16.855 3.59835L16.8328 3.61858L17.0284 3.45267L17.0048 3.47107L17.2111 3.32151L17.1864 3.33801L17.402 3.20589L17.3762 3.22011L17.5999 3.10604L17.5733 3.11821L17.8042 3.02268L17.7769 3.03265L18.0133 2.95625L17.9855 2.9641L18.2265 2.90728L18.1981 2.9127L18.4423 2.87575L18.4135 2.8789L18.6594 2.86204L18.6306 2.86278L18.8771 2.86615L18.8482 2.86468L19.0939 2.88814L19.0652 2.88418L19.3085 2.92773L19.2801 2.92135L19.52 2.98477C19.7292 3.03998 19.9393 2.89694 19.9893 2.66512C20.0392 2.43337 19.91 2.20081 19.7007 2.14546Z" fill="#125676"/>
<path d="M12.8387 11.5209L12.6613 11.3686C12.6517 11.3606 12.642 11.3528 12.632 11.3456L12.4435 11.2077C12.4335 11.2003 12.4232 11.1933 12.4125 11.1867L12.2142 11.0641C12.2035 11.0575 12.1926 11.0514 12.1816 11.0457L11.9745 10.9387C11.9634 10.933 11.9521 10.9277 11.9405 10.9231L11.7259 10.8327C11.7144 10.8278 11.7028 10.8235 11.6909 10.8195L11.47 10.7462C11.4581 10.7424 11.4461 10.7391 11.4342 10.7359L11.2083 10.6802C11.1961 10.6774 11.184 10.6749 11.1718 10.6728L10.9423 10.6349C10.9299 10.6328 10.9176 10.6313 10.9052 10.6302L10.6736 10.6103C10.661 10.6093 10.6487 10.6088 10.6363 10.6086L10.4037 10.6069C10.3913 10.6069 10.379 10.6074 10.3666 10.6082L10.1347 10.6247C10.1221 10.6256 10.1097 10.6268 10.0975 10.6287L9.86743 10.6634C9.85532 10.6652 9.84313 10.6675 9.83103 10.6702L9.6042 10.7228C9.59209 10.7257 9.58015 10.7289 9.56821 10.7327L9.3462 10.8026C9.33426 10.8064 9.32256 10.8106 9.31103 10.8153L9.09516 10.9025C9.08363 10.9072 9.07234 10.9123 9.06122 10.9178L8.85247 11.0215C8.84134 11.0271 8.83046 11.0332 8.81958 11.0396L8.61959 11.1594C8.60936 11.1656 8.5993 11.1721 8.58965 11.1789L8.4146 11.3024C8.40536 11.3089 8.39611 11.3157 8.38736 11.3232L8.22147 11.4587C8.21272 11.4658 8.20389 11.4735 8.19579 11.4813L8.03971 11.6285C8.03137 11.6363 8.02344 11.6444 8.01567 11.6528L7.87031 11.8108C7.86262 11.8193 7.85526 11.828 7.8479 11.8369L7.71432 12.005C7.7072 12.0139 7.70033 12.0232 7.69379 12.0326L7.57215 12.2098C7.56561 12.2191 7.55956 12.2289 7.55375 12.2388L7.44479 12.4241C7.43898 12.434 7.4335 12.4442 7.42827 12.4546L7.33256 12.6473C7.32758 12.6577 7.32275 12.668 7.31833 12.6786L7.23645 12.8779C7.23203 12.8885 7.22811 12.8993 7.22451 12.9101L7.15686 13.1147C7.1531 13.1257 7.14999 13.1367 7.14705 13.1479L7.09388 13.3567C7.09093 13.368 7.08864 13.3792 7.08651 13.3904L7.04823 13.6026C7.04611 13.6138 7.04447 13.6252 7.04316 13.6367L7.01977 13.8512C7.01846 13.8626 7.01764 13.8741 7.01723 13.8856L7.00881 14.1011C6.99834 14.3698 7.20529 14.596 7.4708 14.6066C7.73649 14.6171 7.96021 14.4079 7.97068 14.1392L7.97902 13.9239L7.97648 13.9582L7.99996 13.7438L7.99489 13.7779L8.0335 13.5657L8.02614 13.5997L8.07931 13.3908L8.06949 13.4239L8.1373 13.2193L8.12536 13.2517L8.20724 13.0526L8.19301 13.084L8.28871 12.8911L8.27219 12.9213L8.38131 12.736L8.36266 12.7651L8.48429 12.5878L8.464 12.6155L8.59783 12.4476L8.57541 12.4737L8.72053 12.3157L8.69639 12.3402L8.85247 12.1931L8.8267 12.2157L8.99251 12.0802L8.9651 12.1009L9.14015 11.9775L9.11021 11.9972L9.31021 11.8773L9.27733 11.8951L9.48608 11.7914L9.45222 11.8066L9.66808 11.7193L9.63307 11.732L9.85507 11.662L9.81908 11.6717L10.0458 11.6194L10.0092 11.6262L10.2391 11.5917L10.2021 11.5956L10.434 11.5793L10.397 11.5804L10.6295 11.5821L10.5922 11.5804L10.824 11.6004L10.7869 11.5956L11.0165 11.6335L10.98 11.6259L11.206 11.6818L11.1702 11.6715L11.3913 11.7447L11.3563 11.7316L11.571 11.8218L11.5372 11.8062L11.7443 11.9129L11.7118 11.8944L11.9103 12.0173L11.8792 11.9963L12.0676 12.1342L12.0384 12.1109L12.2157 12.2631C12.4184 12.437 12.722 12.412 12.8941 12.207C13.0661 12.0021 13.0411 11.695 12.8387 11.5209Z" fill="#125676"/>
<path d="M5.97081 5.83908L6.02413 6.01677L6.01708 5.99017L6.05806 6.17063L6.05278 6.14367L6.08082 6.32634L6.07767 6.29923L6.09277 6.48311L6.09139 6.45565L6.09353 6.64031L6.09415 6.61278L6.08319 6.79709L6.08572 6.76977L6.06182 6.95294L6.06634 6.92583L6.02964 7.10701L6.03592 7.0804L5.98651 7.25902L5.99471 7.23284L5.93297 7.40804L5.94292 7.38236L5.86885 7.5535L5.8808 7.52839L5.79469 7.69463L5.8084 7.67044L5.71073 7.83099L5.7272 7.80588L5.60072 7.98378L5.62056 7.9581L5.47976 8.12675L5.50152 8.10236L5.34754 8.26055L5.37129 8.238L5.20459 8.38475L5.23025 8.36384L5.05222 8.49877L5.07949 8.47964L4.89081 8.60149L4.91962 8.58435L4.72174 8.69268L4.75177 8.6776L4.54547 8.77171L4.57665 8.75883L4.36345 8.83822L4.3954 8.82747L4.17638 8.89171L4.20932 8.88338L3.98555 8.93182L4.01911 8.92578L3.79197 8.95857L3.8259 8.95494L3.59685 8.97152L3.63079 8.97024L3.40112 8.97073L3.43529 8.97187L3.20601 8.95622L3.2401 8.95985L3.0128 8.92813C2.76651 8.89391 2.53708 9.05126 2.5 9.27994C2.46315 9.50849 2.63276 9.72153 2.8789 9.75596L3.10619 9.78768C3.11752 9.78911 3.12871 9.79039 3.14012 9.7911L3.36918 9.80675C3.38051 9.80753 3.39208 9.80789 3.40327 9.80789L3.63316 9.80732C3.6445 9.80732 3.65591 9.80696 3.66725 9.80604L3.89631 9.78932C3.90772 9.78854 3.91891 9.78733 3.93024 9.78562L4.15715 9.75304C4.16834 9.75141 4.17952 9.74941 4.1907 9.74707L4.41447 9.69841C4.42543 9.69607 4.43638 9.69315 4.44741 9.69002L4.66643 9.62593C4.67723 9.62266 4.68803 9.61924 4.69861 9.61519L4.91195 9.53602C4.92237 9.53196 4.93279 9.52763 4.94298 9.52307L5.14928 9.42889C5.15947 9.4242 5.16951 9.41929 5.17931 9.41381L5.37734 9.30562C5.38714 9.30022 5.39657 9.29453 5.40599 9.28855L5.59444 9.16649C5.60386 9.16051 5.61306 9.15411 5.62171 9.14743L5.79998 9.01263C5.80879 9.00609 5.81721 8.99897 5.82549 8.99172L5.99218 8.84497C6.00038 8.83765 6.00827 8.83003 6.01593 8.82221L6.17006 8.66394C6.17772 8.65626 6.18492 8.64808 6.19197 8.63969L6.33285 8.4711C6.3399 8.46271 6.34633 8.45417 6.35262 8.44543L6.47932 8.26752C6.48522 8.25913 6.49089 8.25074 6.49595 8.2422L6.59362 8.08159C6.59852 8.07355 6.60304 8.06537 6.60718 8.05719L6.69328 7.89095C6.69757 7.8827 6.70148 7.87438 6.70523 7.86598L6.77939 7.69463C6.78291 7.68623 6.78644 7.6777 6.78935 7.66895L6.85132 7.49361C6.85446 7.485 6.85722 7.47632 6.8596 7.46736L6.90916 7.28875C6.91154 7.27979 6.91368 7.2709 6.91544 7.26193L6.95237 7.08062C6.95413 7.07166 6.95566 7.06276 6.95681 7.05366L6.98079 6.87042C6.98194 6.86132 6.9827 6.85221 6.98332 6.84311L6.99427 6.65888C6.99488 6.64977 6.99511 6.64067 6.99488 6.63156L6.99297 6.44705C6.99274 6.43794 6.99236 6.42884 6.99159 6.41973L6.97665 6.23586C6.97589 6.22675 6.97466 6.21765 6.97336 6.20854L6.94547 6.02587C6.94409 6.01677 6.94233 6.00788 6.94019 5.99892L6.89959 5.81831C6.89759 5.80935 6.89507 5.80046 6.89254 5.79171L6.83899 5.61416C6.77211 5.39145 6.52345 5.26128 6.28382 5.32338C6.04397 5.38547 5.90393 5.61637 5.97081 5.83908Z" fill="#125676"/>
<path d="M32.3937 24.104L32.5606 24.2824L32.5371 24.255L32.689 24.4467L32.6677 24.4174L32.8034 24.6214L32.7846 24.5904L32.9033 24.8051L32.8871 24.7726L32.9878 24.9966L32.9745 24.9628L33.0567 25.1945L33.046 25.1597L33.1092 25.3975L33.1013 25.362L33.1452 25.6044L33.1401 25.5682L33.164 25.8134L33.1619 25.777L33.1659 26.0234L33.1668 25.9869L33.1508 26.2328L33.1546 26.1966L33.1186 26.4402L33.1254 26.4044L33.0699 26.6442L33.0795 26.6091L33.0046 26.8435L33.017 26.8092L32.9233 27.0364L32.9385 27.0034L32.8268 27.222L32.8446 27.1903L32.7155 27.3987L32.7358 27.3687L32.5902 27.5655L32.6128 27.5373L32.4518 27.7211L32.4767 27.6949L32.3013 27.8645L32.3282 27.8406L32.1396 27.9948L32.1675 27.9737L31.9774 28.105L32.0064 28.0867L31.8066 28.2024L31.8368 28.1865L31.6288 28.2858L31.6601 28.2724L31.4452 28.3548L31.4773 28.3439L31.2567 28.4088L31.2897 28.4005L31.0646 28.4476L31.0981 28.442L30.8702 28.471L30.9041 28.468L30.6746 28.4787L30.7087 28.4785L30.4789 28.4707L30.513 28.4731L30.2845 28.4471L30.3182 28.4523L30.0925 28.408L30.1256 28.4159L29.9043 28.3537L29.9365 28.3642L29.7206 28.2845L29.7521 28.2975L29.543 28.2008L29.5733 28.2164L29.3723 28.1032L29.4013 28.1211L29.2097 27.9922L29.2372 28.0124L29.0561 27.8686L29.0819 27.8909L28.9125 27.733L28.9366 27.7573L28.7798 27.5863C28.6166 27.4086 28.343 27.3991 28.1683 27.5652C27.9938 27.7314 27.9844 28.0102 28.1476 28.1879L28.3044 28.3589C28.3121 28.3673 28.3202 28.3755 28.3287 28.3833L28.4982 28.5412C28.5066 28.549 28.5152 28.5564 28.524 28.5635L28.7053 28.7074C28.7143 28.7145 28.7235 28.7212 28.7329 28.7276L28.9247 28.8565C28.9341 28.8629 28.9438 28.8689 28.9537 28.8744L29.1549 28.9876C29.1647 28.9932 29.1748 28.9984 29.1852 29.0031L29.3945 29.0999C29.4046 29.1047 29.4151 29.109 29.4259 29.113L29.6418 29.1927C29.6525 29.1966 29.6634 29.2001 29.6744 29.2032L29.8957 29.2654C29.9068 29.2684 29.9177 29.2711 29.9288 29.2733L30.1544 29.3176C30.1655 29.3197 30.1769 29.3214 30.1881 29.3228L30.4164 29.3489C30.4275 29.3501 30.439 29.351 30.4503 29.3514L30.6799 29.3591C30.6912 29.3596 30.7025 29.3595 30.714 29.359L30.9434 29.3483C30.9547 29.3478 30.966 29.3468 30.9772 29.3453L31.2052 29.3164C31.2165 29.315 31.2276 29.3131 31.2387 29.3108L31.4638 29.2637C31.4749 29.2614 31.486 29.2586 31.4967 29.2554L31.7175 29.1904C31.7283 29.1872 31.7391 29.1836 31.7498 29.1795L31.9648 29.0971C31.9755 29.0931 31.9858 29.0886 31.996 29.0836L32.2041 28.9843C32.2143 28.9794 32.2245 28.9741 32.2343 28.9684L32.434 28.8527C32.444 28.847 32.4535 28.8409 32.4629 28.8344L32.653 28.7031C32.6626 28.6964 32.672 28.6894 32.6811 28.682L32.8698 28.5277C32.879 28.5201 32.8881 28.5121 32.8968 28.5037L33.0723 28.3341C33.081 28.3257 33.0893 28.317 33.0972 28.308L33.2583 28.1241C33.2662 28.1151 33.2739 28.1056 33.2809 28.0959L33.4265 27.8992C33.4339 27.8895 33.4406 27.8794 33.447 27.8692L33.5761 27.6608C33.5826 27.6505 33.5884 27.64 33.5941 27.6292L33.7058 27.4107C33.7113 27.3999 33.7164 27.3889 33.7211 27.3777L33.8146 27.1505C33.8193 27.1392 33.8234 27.1279 33.8273 27.1162L33.9021 26.882C33.9057 26.8704 33.9091 26.8587 33.9117 26.8469L33.9674 26.6071C33.9701 26.5952 33.9723 26.5833 33.9742 26.5713L34.0102 26.3276C34.0119 26.3156 34.0132 26.3034 34.0139 26.2913L34.0301 26.0455C34.0308 26.0333 34.0313 26.0211 34.031 26.009L34.0269 25.7627C34.0267 25.7504 34.0261 25.7383 34.025 25.7262L34.0009 25.481C33.9998 25.4689 33.9981 25.4568 33.996 25.4449L33.9522 25.2026C33.95 25.1906 33.9475 25.1787 33.9443 25.167L33.8811 24.9292C33.8778 24.9174 33.8743 24.9058 33.8701 24.8944L33.7878 24.6628C33.7837 24.6513 33.7792 24.64 33.7743 24.629L33.6732 24.405C33.6684 24.3939 33.6629 24.3832 33.6571 24.3725L33.5383 24.1578C33.5325 24.1473 33.5261 24.1369 33.5195 24.1268L33.3837 23.9229C33.377 23.9128 33.3699 23.903 33.3623 23.8936L33.2104 23.7017C33.2029 23.6923 33.1952 23.6832 33.1869 23.6743L33.02 23.496C32.8551 23.3199 32.5813 23.3132 32.4084 23.4811C32.2354 23.649 32.229 23.9279 32.3937 24.104Z" fill="#125676"/>
<path d="M31.1807 25.4418L31.2405 25.5228L31.2239 25.4985L31.2776 25.5834L31.2628 25.5581L31.3099 25.6467L31.2973 25.6203L31.3378 25.712L31.3268 25.6848L31.3605 25.7791L31.3518 25.7513L31.3781 25.8477L31.3714 25.8193L31.3907 25.9173L31.3862 25.8885L31.3981 25.9877L31.3957 25.9586L31.4 26.0584L31.3998 26.0292L31.397 26.1291L31.3989 26.0999L31.3886 26.1993L31.3926 26.1704L31.3748 26.2687L31.3811 26.2402L31.3561 26.337L31.3645 26.309L31.3325 26.4038L31.3429 26.3765L31.3037 26.4687L31.3158 26.4427L31.2717 26.5288L31.2855 26.5042L31.2354 26.5871L31.2509 26.5633L31.1949 26.6426L31.2121 26.62L31.1507 26.6952L31.1692 26.6739L31.1026 26.7447L31.1229 26.7247L31.0509 26.7907L31.0727 26.7722L30.9964 26.8331L31.0193 26.8161L30.9389 26.8716L30.9629 26.8562L30.8787 26.9061L30.9037 26.8924L30.8163 26.9364L30.8422 26.9244L30.7518 26.9622L30.7784 26.9521L30.6855 26.9837L30.713 26.9754L30.6178 27.0004L30.646 26.9941L30.5493 27.0126C30.3274 27.055 30.1827 27.2654 30.226 27.4825C30.2695 27.6997 30.4844 27.8413 30.7064 27.7988L30.8029 27.7804C30.8124 27.7786 30.8216 27.7765 30.8309 27.774L30.926 27.7489C30.9351 27.7465 30.9444 27.7438 30.9535 27.7407L31.0464 27.7092C31.0555 27.7061 31.0645 27.7027 31.0733 27.699L31.1639 27.6612C31.1728 27.6575 31.1813 27.6535 31.1898 27.6492L31.2774 27.6052C31.2859 27.6009 31.2943 27.5964 31.3026 27.5915L31.3868 27.5416C31.3951 27.5368 31.403 27.5316 31.4108 27.5262L31.4912 27.4707C31.4991 27.4652 31.5067 27.4596 31.5143 27.4537L31.5903 27.3927C31.5979 27.3868 31.6051 27.3806 31.6121 27.3742L31.6838 27.3081C31.6906 27.3017 31.6974 27.2951 31.7041 27.2882L31.7707 27.2174C31.7773 27.2105 31.7835 27.2033 31.7896 27.196L31.8511 27.1208C31.8571 27.1135 31.8628 27.106 31.8683 27.0982L31.9243 27.019C31.9296 27.0113 31.9349 27.0034 31.9398 26.9953L31.99 26.9124C31.9947 26.9044 31.9994 26.8961 32.0038 26.8877L32.0478 26.8016C32.0522 26.7931 32.0562 26.7844 32.0599 26.7756L32.0991 26.6833C32.1029 26.6743 32.1063 26.6652 32.1095 26.6559L32.1415 26.5612C32.1447 26.5519 32.1474 26.5426 32.1498 26.5332L32.1748 26.4363C32.1772 26.4269 32.1794 26.4174 32.1811 26.4078L32.1988 26.3094C32.2005 26.2999 32.2019 26.2903 32.2028 26.2806L32.2134 26.1813C32.2143 26.1716 32.2149 26.1619 32.2153 26.1521L32.2181 26.0523C32.2185 26.0426 32.2183 26.0328 32.218 26.0232L32.2134 25.9234C32.213 25.9136 32.2123 25.904 32.2112 25.8943L32.1992 25.7952C32.1981 25.7855 32.1966 25.7759 32.1947 25.7663L32.1754 25.6682C32.1735 25.6587 32.1714 25.6492 32.1687 25.6398L32.1423 25.5434C32.1396 25.534 32.1368 25.5247 32.1336 25.5155L32.0999 25.4212C32.0967 25.412 32.0929 25.403 32.0891 25.394L32.0486 25.3024C32.0446 25.2935 32.0403 25.2846 32.0358 25.276L31.9886 25.1875C31.9839 25.1789 31.9792 25.1704 31.9738 25.1622L31.9201 25.0772C31.9149 25.0689 31.9093 25.0608 31.9037 25.053L31.8437 24.9721C31.7112 24.7929 31.4554 24.7528 31.2723 24.8825C31.0892 25.0122 31.0481 25.2627 31.1807 25.4418Z" fill="#125676"/>
<path fill-rule="evenodd" clip-rule="evenodd" d="M19.9849 18.9434L13.896 25.6416C13.7436 25.8092 13.4966 25.8092 13.3442 25.6416C13.192 25.4741 13.1919 25.2027 13.3442 25.0352L19.4067 18.3662L19.9849 18.9434Z" fill="#125676"/>
<path d="M22.1631 20.8731L14.5313 28.0001C14.3572 28.1632 14.2043 28.164 14.0313 28.0001C13.8581 27.836 13.5312 27.5001 15.1621 26.2842L21.5293 20.3165L22.1631 20.8731ZM30.2725 12.1221C30.4465 11.9591 30.7282 11.9594 30.9014 12.1231C31.0745 12.2871 31.0742 12.5526 30.9004 12.7159L26.1533 17.1475L25.5108 16.584L30.2725 12.1221Z" fill="#125676"/>
<path fill-rule="evenodd" clip-rule="evenodd" d="M18.3983 17.6947L11.1698 24.4994C10.9849 24.6735 10.6849 24.6735 10.4999 24.4994C10.3152 24.3253 10.3151 24.0435 10.4999 23.8695L17.7059 17.0873L18.3983 17.6947ZM26.5526 8.76112C26.7377 8.58701 27.0375 8.58701 27.2225 8.76112C27.4075 8.93511 27.4074 9.21706 27.2225 9.391L22.3719 13.9555L21.6786 13.3471L26.5526 8.76112Z" fill="#125676"/>
<circle cx="43.3736" cy="9.62644" r="9.62644" fill="#4299C1"/>
<path d="M45.387 6.88547C50.7789 7.53655 50.5508 6.79975 46.5534 10.6526C47.6296 16.2356 48.2267 15.7802 43.5 12.9808C38.7733 15.7802 39.3705 16.2356 40.4467 10.6526C36.4492 6.79975 36.2211 7.53655 41.6129 6.88547C43.869 1.70481 43.1309 1.70488 45.387 6.88547Z" stroke="#FEFEFE" stroke-width="0.5" stroke-miterlimit="22.9256" stroke-linecap="round" stroke-linejoin="round"/>
<path d="M46.6913 11.2597C50.0362 10.9169 50.2408 11.0669 48.1127 9.10021C47.6849 9.49558 47.1634 9.97599 46.5537 10.5636C46.6007 10.8073 46.6466 11.0387 46.6913 11.2597ZM46.6913 6.94085C47.5923 2.49133 47.9601 2.57988 44.5069 4.70052C44.7397 5.26556 45.0247 5.96354 45.3873 6.79616C45.8661 6.85399 46.2998 6.90073 46.6913 6.94085ZM42.493 4.70052C39.0399 2.57988 39.4076 2.49133 40.3086 6.94085C40.7001 6.90073 41.1338 6.85399 41.6127 6.79616C41.9753 5.96354 42.2602 5.26545 42.493 4.70052ZM38.8873 9.10021C36.7593 11.067 36.9637 10.917 40.3086 11.2597C40.3533 11.0387 40.3993 10.8073 40.4463 10.5636C39.8365 9.97599 39.315 9.49558 38.8873 9.10021ZM42.493 13.5C43.4761 15.8857 43.5239 15.8859 44.5069 13.5C44.2018 13.3126 43.867 13.1095 43.5 12.8921C43.1329 13.1095 42.7981 13.3126 42.493 13.5Z" stroke="#FEFEFE" stroke-width="0.5" stroke-miterlimit="22.9256" stroke-linecap="round" stroke-linejoin="round"/>
</svg>
