<svg width="24" height="25" viewBox="0 0 24 25"  xmlns="http://www.w3.org/2000/svg">
<path d="M4.51478 5.35074C4.58126 5.35032 4.64775 5.34989 4.71625 5.34945C4.93848 5.34827 5.16069 5.34842 5.38292 5.34858C5.54249 5.34801 5.70205 5.34738 5.86161 5.34667C6.29473 5.34501 6.72785 5.34457 7.16097 5.34445C7.4317 5.34432 7.70243 5.34392 7.97316 5.34342C8.91804 5.34169 9.86291 5.34092 10.8078 5.34107C11.6879 5.34118 12.568 5.3392 13.4481 5.33624C14.2043 5.33379 14.9604 5.33278 15.7166 5.3329C16.168 5.33295 16.6193 5.33242 17.0707 5.33043C17.4954 5.32861 17.92 5.32861 18.3447 5.32997C18.5003 5.33016 18.6558 5.32972 18.8114 5.32859C20.4124 5.31766 20.4124 5.31766 21.1169 5.93502C21.1674 5.99605 21.2179 6.05707 21.27 6.11995C21.3219 6.18074 21.3739 6.24153 21.4274 6.30416C21.6925 6.68881 21.7739 7.02309 21.7687 7.48702C21.7678 7.63068 21.7678 7.63068 21.7669 7.77724C21.7645 7.92561 21.7645 7.92561 21.7621 8.07698C21.7613 8.17771 21.7604 8.27844 21.7596 8.38222C21.7574 8.63011 21.7543 8.87795 21.7504 9.12581C21.8374 9.13814 21.9244 9.15047 22.0141 9.16317C22.6453 9.28228 23.0834 9.73724 23.4379 10.2508C23.6089 10.6102 23.6498 10.8979 23.6527 11.2944C23.6539 11.4084 23.6551 11.5223 23.6563 11.6396C23.6565 11.762 23.6567 11.8844 23.6569 12.0105C23.6575 12.1383 23.6581 12.2662 23.6588 12.394C23.6599 12.6617 23.6603 12.9294 23.6602 13.1971C23.6601 13.5385 23.6627 13.8798 23.6659 14.2212C23.668 14.4852 23.6684 14.7493 23.6683 15.0133C23.6686 15.1999 23.6707 15.3864 23.6727 15.5729C23.6688 16.3553 23.5964 16.8873 23.0662 17.4923C22.4829 17.9751 22.1451 18.1339 21.3754 18.1258C21.3765 18.2262 21.3776 18.3267 21.3787 18.4301C21.3796 18.5611 21.3804 18.6921 21.3813 18.8231C21.3821 18.8894 21.3829 18.9556 21.3837 19.0239C21.3845 19.1933 21.3803 19.3627 21.3754 19.5321C21.2817 19.6258 21.2817 19.6258 21.1161 19.6365C21.0459 19.636 20.9757 19.6355 20.9034 19.635C20.8275 19.6347 20.7517 19.6344 20.6736 19.6341C20.5939 19.6333 20.5142 19.6325 20.4321 19.6317C20.352 19.6312 20.2719 19.6308 20.1894 19.6304C19.991 19.6293 19.7926 19.6276 19.5942 19.6258C19.3729 19.143 19.2597 18.7566 19.1254 18.2196C14.2992 18.2196 9.47292 18.2196 4.50042 18.2196C4.37667 18.6527 4.25292 19.0858 4.12542 19.5321C3.98272 19.6748 3.85522 19.638 3.65667 19.6383C3.58126 19.6384 3.50585 19.6385 3.42815 19.6386C3.34888 19.6383 3.2696 19.6379 3.18792 19.6375C3.069 19.6381 3.069 19.6381 2.94769 19.6386C2.87228 19.6385 2.79687 19.6384 2.71917 19.6383C2.64956 19.6382 2.57995 19.6381 2.50823 19.6379C2.34417 19.6258 2.34417 19.6258 2.25042 19.5321C2.24356 19.2948 2.24175 19.0602 2.24456 18.8231C2.24498 18.7564 2.24541 18.6898 2.24584 18.6211C2.24695 18.456 2.24863 18.2909 2.25042 18.1258C2.16341 18.1135 2.0764 18.1012 1.98675 18.0885C1.35558 17.9693 0.917406 17.5144 0.562921 17.0008C0.39196 16.6415 0.351019 16.3537 0.348184 15.9572C0.346987 15.8433 0.345791 15.7294 0.344559 15.612C0.34435 15.4896 0.344141 15.3672 0.343926 15.2412C0.343323 15.1133 0.342692 14.9855 0.342035 14.8576C0.340915 14.5899 0.340565 14.3222 0.340676 14.0545C0.340695 13.7131 0.338138 13.3718 0.334907 13.0304C0.332812 12.7664 0.332442 12.5023 0.332541 12.2383C0.332215 12.0518 0.330188 11.8652 0.328125 11.6787C0.332057 10.8963 0.404457 10.3644 0.934625 9.75936C1.70003 9.12581 1.70003 9.12581 2.25042 9.12581C2.24846 9.06442 2.24649 9.00303 2.24447 8.93978C2.23661 8.65805 2.23178 8.37635 2.22698 8.09456C2.22227 7.94972 2.22227 7.94972 2.21746 7.80196C2.2081 7.06693 2.32079 6.56719 2.80962 6.00936C2.87065 5.95884 2.93168 5.90833 2.99456 5.85628C3.05535 5.80432 3.11614 5.75235 3.17877 5.69881C3.61563 5.39781 3.98924 5.35213 4.51478 5.35074ZM3.38128 6.66488C3.02282 7.22973 2.97326 7.76771 2.9887 8.41683C2.98955 8.48541 2.99039 8.55399 2.99127 8.62465C2.99345 8.79172 2.99681 8.95877 3.00042 9.12581C3.06048 9.14418 3.12055 9.16255 3.18243 9.18148C3.81934 9.40169 4.2223 9.68349 4.59417 10.2508C4.77132 10.6214 4.80928 10.9305 4.82049 11.3396C4.82411 11.4565 4.82774 11.5734 4.83148 11.6939C4.83438 11.8151 4.83728 11.9364 4.84026 12.0614C4.84389 12.1844 4.84752 12.3075 4.85125 12.4343C4.86008 12.7377 4.8681 13.0411 4.87542 13.3446C4.92199 13.3181 4.96857 13.2915 5.01655 13.2642C5.6634 12.9332 6.23766 12.9162 6.95477 12.921C7.13671 12.9201 7.13671 12.9201 7.32233 12.919C7.65279 12.9173 7.98321 12.918 8.31367 12.9192C8.66086 12.9201 9.00804 12.9193 9.35523 12.9187C9.93808 12.918 10.5209 12.9189 11.1038 12.9207C11.7759 12.9227 12.448 12.9221 13.1201 12.92C13.699 12.9183 14.2779 12.918 14.8569 12.919C15.2018 12.9196 15.5468 12.9197 15.8917 12.9185C16.2765 12.9172 16.6613 12.919 17.0461 12.921C17.1592 12.9203 17.2723 12.9195 17.3888 12.9187C18.0505 12.9254 18.5471 13.0154 19.1254 13.3446C19.1267 13.2312 19.1267 13.2312 19.1281 13.1155C19.1331 12.7699 19.141 12.4245 19.1489 12.0789C19.1502 11.96 19.1515 11.8411 19.1529 11.7186C19.1732 10.9373 19.239 10.4 19.748 9.78316C20.1445 9.45686 20.51 9.28069 21.0004 9.12581C21.094 7.80794 21.094 7.80794 20.5983 6.63411C20.1069 6.17682 19.5032 6.10251 18.8577 6.10137C18.7659 6.10083 18.7659 6.10083 18.6722 6.10029C18.4689 6.09933 18.2657 6.09969 18.0624 6.10006C17.9158 6.09966 17.7693 6.09917 17.6228 6.09861C17.2261 6.09736 16.8294 6.0973 16.4327 6.09754C16.101 6.09764 15.7692 6.09718 15.4375 6.09673C14.6545 6.09569 13.8715 6.09565 13.0886 6.09622C12.2822 6.09678 11.4757 6.09563 10.6693 6.09363C9.97575 6.09198 9.28219 6.09142 8.58861 6.09172C8.17491 6.09189 7.76121 6.09165 7.34751 6.09035C6.95829 6.08916 6.56909 6.08935 6.17987 6.09057C6.03751 6.09079 5.89515 6.09054 5.7528 6.08976C4.45891 6.0498 4.45891 6.0498 3.38128 6.66488ZM1.59417 10.3446C1.21362 10.828 1.11538 11.2248 1.11031 11.8287C1.10941 11.9161 1.10851 12.0034 1.10758 12.0934C1.10719 12.1867 1.10679 12.2801 1.10638 12.3763C1.10584 12.4735 1.10531 12.5707 1.10476 12.6709C1.10387 12.8764 1.10326 13.0819 1.1029 13.2874C1.10199 13.6 1.09908 13.9124 1.09612 14.2249C1.09551 14.4251 1.09502 14.6253 1.09466 14.8255C1.0935 14.9181 1.09234 15.0107 1.09115 15.1061C1.09309 15.7157 1.1289 16.3735 1.52621 16.8685C2.06914 17.365 2.72058 17.4041 3.41644 17.3875C3.48502 17.3867 3.5536 17.3858 3.62426 17.385C3.79133 17.3828 3.95838 17.3794 4.12542 17.3758C4.13196 16.6081 4.13695 15.8404 4.13999 15.0726C4.14146 14.7161 4.14344 14.3595 4.14664 14.0029C4.14971 13.6583 4.15138 13.3136 4.1521 12.969C4.15262 12.838 4.15363 12.7071 4.15516 12.5762C4.19851 11.4044 4.19851 11.4044 3.70802 10.3811C3.26487 9.99856 2.96282 9.93619 2.39471 9.94356C2.04186 9.9821 1.85499 10.1086 1.59417 10.3446ZM20.3442 10.3446C19.9206 10.8826 19.8635 11.3097 19.8648 11.9798C19.8648 12.0999 19.8648 12.22 19.8648 12.3437C19.8653 12.4738 19.8658 12.604 19.8663 12.7341C19.8664 12.8679 19.8666 13.0018 19.8667 13.1356C19.867 13.4869 19.8679 13.8381 19.869 14.1894C19.8699 14.5482 19.8704 14.907 19.8708 15.2659C19.8718 15.9692 19.8734 16.6725 19.8754 17.3758C20.1153 17.3787 20.3551 17.3808 20.595 17.3824C20.6625 17.3833 20.73 17.3842 20.7995 17.3851C21.3756 17.388 21.9046 17.3515 22.3671 16.9737C22.9265 16.3726 22.9043 15.6264 22.9036 14.857C22.9042 14.7116 22.9042 14.7116 22.9048 14.5632C22.9054 14.3588 22.9054 14.1544 22.905 13.95C22.9047 13.6392 22.9069 13.3284 22.9093 13.0175C22.9095 12.8182 22.9096 12.6189 22.9095 12.4195C22.9103 12.3275 22.9112 12.2355 22.9121 12.1407C22.9081 11.5364 22.8807 10.8527 22.458 10.3798C22.013 9.99966 21.7133 9.93619 21.1447 9.94356C20.7919 9.9821 20.605 10.1086 20.3442 10.3446ZM5.25628 14.1649C4.62003 15.1674 4.87542 16.159 4.87542 17.3758C9.57792 17.3758 14.2804 17.3758 19.1254 17.3758C19.2822 15.5764 19.2822 15.5764 18.5864 14.0067C17.9256 13.5874 17.2934 13.5983 16.5316 13.6001C16.4231 13.5996 16.3147 13.5991 16.2029 13.5986C15.8453 13.5973 15.4877 13.5974 15.1301 13.5976C14.9438 13.5973 14.7576 13.5971 14.5714 13.5967C13.9862 13.5957 13.401 13.5957 12.8157 13.5962C12.2138 13.5968 11.6119 13.5956 11.01 13.5936C10.4916 13.592 9.97316 13.5914 9.45474 13.5917C9.14583 13.5919 8.83694 13.5915 8.52803 13.5903C8.18317 13.5892 7.83836 13.5898 7.49351 13.5909C7.39238 13.5902 7.29125 13.5895 7.18705 13.5887C6.49946 13.5935 5.74965 13.6264 5.25628 14.1649ZM3.00042 18.1258C3.00042 18.3733 3.00042 18.6208 3.00042 18.8758C3.15511 18.8449 3.3098 18.8139 3.46917 18.7821C3.50011 18.5655 3.53105 18.3489 3.56292 18.1258C3.3773 18.1258 3.19167 18.1258 3.00042 18.1258ZM20.0629 18.1258C20.0939 18.3424 20.1248 18.5589 20.1567 18.7821C20.3114 18.813 20.466 18.8439 20.6254 18.8758C20.6254 18.6283 20.6254 18.3808 20.6254 18.1258C20.4398 18.1258 20.2542 18.1258 20.0629 18.1258Z" fill-opacity="0.6"/>
</svg>
