<svg width="20" height="20" viewBox="0 0 20 20" fill="none" xmlns="http://www.w3.org/2000/svg">
<path d="M4.81389 8.5809V15.2221C4.81389 16.3247 4.81389 16.876 5.18796 17.3443C5.56202 17.8126 6.0091 17.8949 6.90326 18.0593C7.72985 18.2114 8.77706 18.3346 10 18.3346C11.2229 18.3346 12.2702 18.2114 13.0967 18.0593C13.9909 17.8949 14.438 17.8126 14.812 17.3443C15.1861 16.876 15.1861 16.3247 15.1861 15.2221V8.5809C15.1861 8.01107 15.1861 7.72615 15.2956 7.4757C15.4051 7.22526 15.6107 7.03984 16.022 6.66899L16.1764 6.52976C17.0566 5.73605 17.4967 5.3392 17.5 4.76474C17.5033 4.19028 17.1129 3.82956 16.3323 3.10812C16.2141 2.99891 16.097 2.89676 15.984 2.80615C15.5911 2.49128 15.0359 2.14665 14.611 1.89768C14.2133 1.66471 13.7462 1.61103 13.3046 1.72716L12.8962 1.83458C12.5728 1.91964 12.2911 2.12847 12.1062 2.42029C11.1042 4.00143 8.89576 4.00143 7.8938 2.42029C7.70888 2.12847 7.4272 1.91964 7.10378 1.83458L6.69537 1.72716C6.25382 1.61103 5.78667 1.66471 5.38903 1.89768C4.96408 2.14665 4.40885 2.49128 4.01603 2.80615C3.90299 2.89676 3.78592 2.99891 3.66774 3.10812C2.88705 3.82956 2.49671 4.19028 2.50002 4.76474C2.50333 5.3392 2.94343 5.73605 3.82363 6.52976L3.97803 6.66899C4.38928 7.03984 4.59491 7.22526 4.7044 7.4757C4.81389 7.72615 4.81389 8.01107 4.81389 8.5809Z" stroke="#7A7C88" stroke-linecap="round"/>
</svg>
