<svg  viewBox="0 0 180 180"  xmlns="http://www.w3.org/2000/svg">
<ellipse opacity="0.1" cx="90" cy="174.603" rx="90" ry="5.4"  fill-opacity="0.4"/>
<path fill-rule="evenodd" clip-rule="evenodd" d="M118.651 33.2218C118.827 30.6086 121.087 28.6324 123.7 28.8077C126.314 28.983 128.29 31.2436 128.115 33.8568L127.461 43.5906C127.286 46.2038 125.026 48.1801 122.412 48.0047C119.799 47.8294 117.823 45.5688 117.998 42.9556L118.651 33.2218ZM123.459 32.3996C122.83 32.3574 122.285 32.8334 122.243 33.4628L121.59 43.1966C121.548 43.8261 122.024 44.3706 122.653 44.4128C123.283 44.455 123.827 43.979 123.87 43.3496L124.523 33.6158C124.565 32.9864 124.089 32.4419 123.459 32.3996ZM127.641 53.4174C127.816 50.8042 130.077 48.8279 132.69 49.0032L142.424 49.6563C145.037 49.8317 147.013 52.0922 146.838 54.7054C146.662 57.3186 144.402 59.2949 141.789 59.1196L132.055 58.4665C129.442 58.2911 127.465 56.0306 127.641 53.4174ZM132.449 52.5951C131.819 52.5529 131.275 53.0289 131.233 53.6584C131.19 54.2878 131.666 54.8323 132.296 54.8745L142.03 55.5276C142.659 55.5699 143.204 55.0938 143.246 54.4644C143.288 53.835 142.812 53.2905 142.183 53.2482L132.449 52.5951ZM134.079 83.487L120.167 56.483L120.069 56.5334C118.764 53.3421 116.163 50.7096 112.699 49.454L94.0745 42.7038C90.7369 41.4941 87.0439 41.7485 83.9038 43.4043L30.1257 71.7627C23.9703 75.0086 21.6117 82.6298 24.8576 88.7852L38.532 114.717C41.7563 120.832 49.2981 123.2 55.4317 120.049C52.9641 126.024 55.4358 132.998 61.2814 136.03L87.5108 149.638C93.5929 152.793 101.082 150.51 104.369 144.498L114.248 126.428C118.808 130.988 125.108 133.808 132.066 133.808C145.984 133.808 157.266 122.525 157.266 108.608C157.266 95.3676 147.055 84.5122 134.079 83.487ZM130.03 83.4889L120.477 64.946L115.656 83.63C114.769 87.0674 112.473 89.9711 109.333 91.6269L60.4705 117.393L60.739 117.532L59.0949 120.701C56.8059 125.114 58.5271 130.546 62.9392 132.835L89.1686 146.442C93.513 148.696 98.8621 147.065 101.21 142.771L111.742 123.509C108.677 119.335 106.866 114.183 106.866 108.608C106.866 95.3758 117.065 84.5257 130.03 83.4889ZM111.472 52.8386C115.834 54.4194 118.279 59.0567 117.12 63.5488L112.17 82.7304C111.536 85.1857 109.896 87.2598 107.653 88.4425L53.8753 116.801C49.4786 119.119 44.0349 117.435 41.7164 113.038L28.042 87.106C25.7235 82.7093 27.4082 77.2656 31.8049 74.9471L85.583 46.5887C87.826 45.406 90.4638 45.2243 92.8478 46.0883L111.472 52.8386ZM54.0239 111.219L59.6139 108.272C62.2519 106.881 63.2627 103.614 61.8716 100.976L49.6722 77.8414C48.2811 75.2034 45.0148 74.1925 42.3768 75.5836L36.7868 78.5314C34.1488 79.9224 33.138 83.1887 34.5291 85.8267L46.7285 108.962C48.1196 111.6 51.3859 112.61 54.0239 111.219ZM57.5819 69.2295C57.1104 68.3543 56.0187 68.0271 55.1435 68.4986C54.2683 68.9702 53.9411 70.0619 54.4126 70.9371L69.1743 98.3349C69.6458 99.21 70.7375 99.5372 71.6127 99.0657C72.4878 98.5942 72.8151 97.5025 72.3435 96.6273L57.5819 69.2295ZM96.9725 77.7943C92.45 80.1791 86.8505 78.4461 84.4656 73.9236C82.0808 69.4011 83.8138 63.8016 88.3363 61.4167C92.8588 59.0319 98.4583 60.7649 100.843 65.2874C103.228 69.8099 101.495 75.4094 96.9725 77.7943ZM110.466 108.608C110.466 96.6785 120.137 87.0078 132.066 87.0078C143.996 87.0078 153.666 96.6785 153.666 108.608C153.666 120.537 143.996 130.208 132.066 130.208C120.137 130.208 110.466 120.537 110.466 108.608ZM127.566 96.9078C127.566 94.4225 129.581 92.4078 132.066 92.4078C134.552 92.4078 136.566 94.4225 136.566 96.9078V107.708C136.566 110.193 134.552 112.208 132.066 112.208C129.581 112.208 127.566 110.193 127.566 107.708V96.9078ZM132.066 96.0078C131.569 96.0078 131.166 96.4108 131.166 96.9078V107.708C131.166 108.205 131.569 108.608 132.066 108.608C132.563 108.608 132.966 108.205 132.966 107.708V96.9078C132.966 96.4108 132.563 96.0078 132.066 96.0078ZM132.066 124.808C129.581 124.808 127.566 122.793 127.566 120.308C127.566 117.823 129.581 115.808 132.066 115.808C134.552 115.808 136.566 117.823 136.566 120.308C136.566 122.793 134.552 124.808 132.066 124.808ZM131.166 120.308C131.166 120.805 131.569 121.208 132.066 121.208C132.563 121.208 132.966 120.805 132.966 120.308C132.966 119.811 132.563 119.408 132.066 119.408C131.569 119.408 131.166 119.811 131.166 120.308Z"  fill-opacity="0.4"/>
</svg>
