<svg width="47" height="31" viewBox="0 0 47 31" fill="none" xmlns="http://www.w3.org/2000/svg">
<path d="M31.6179 18.6046L5.23806 29.6744L4.01153 26.0595C4.01153 26.0595 6.6044 24.6493 5.75282 22.193C4.90124 19.7368 1.81903 20.273 1.81903 20.273L0.617928 16.5522L27.0868 5.67442L28.3959 8.8987C28.3959 8.8987 25.5743 10.6929 26.4513 13.2353C27.3283 15.7776 30.4232 15.1817 30.4232 15.1817L31.6179 18.6046Z" stroke="#125676"/>
<path d="M6.61793 14.6744L8.61793 16.6744" stroke="#125676" stroke-dasharray="112.5 50"/>
<path d="M8.61793 18.6744V21.6744" stroke="#125676" stroke-dasharray="112.5 50"/>
<path d="M9.61793 23.6744L11.6179 26.6744" stroke="#125676" stroke-dasharray="112.5 50"/>
<path d="M0.617931 15.6744L21.4281 0.674423L23.6179 3.23003C23.6179 3.23003 21.3698 5.67862 22.97 7.73065" stroke="#125676"/>
<circle cx="36.9914" cy="10.3009" r="9.62644" fill="#4299C1"/>
<path fill-rule="evenodd" clip-rule="evenodd" d="M43.0776 9.5371C43.3252 11.4924 42.4195 13.3884 40.7392 14.556C40.6072 14.6477 40.419 14.624 40.3189 14.5031C40.2188 14.3821 40.2446 14.2097 40.3767 14.118C41.8895 13.0668 42.7045 11.3606 42.4816 9.60048C42.4185 9.10266 42.2768 8.63076 42.0692 8.19394L37.7677 12.1351C37.5922 12.296 37.356 12.3803 37.1174 12.3778C36.872 12.3803 36.6358 12.296 36.4603 12.1351L34.2255 10.0875C34.1083 9.98014 34.1083 9.8061 34.2255 9.69877C34.3426 9.59144 34.5326 9.59144 34.6497 9.69877L36.8846 11.7464C36.9435 11.8004 37.0235 11.829 37.1174 11.8281C37.2045 11.829 37.2845 11.8004 37.3435 11.7464L41.7835 7.67825C40.735 6.03329 38.6924 5.02362 36.4948 5.25777C33.5326 5.57335 31.4106 8.02922 31.7545 10.7437C32.0364 12.9653 33.9055 14.7215 36.2872 15.0622C36.344 15.0711 36.4452 15.085 36.5737 15.0989C36.6753 15.1099 36.7773 15.119 36.8771 15.1254C37.0424 15.136 37.167 15.2674 37.1554 15.4188C37.1438 15.5702 37.0004 15.6844 36.8352 15.6737C36.7252 15.6667 36.6138 15.6568 36.5032 15.6448C36.3633 15.6296 36.252 15.6144 36.1901 15.6046C33.5483 15.2268 31.4718 13.2758 31.1585 10.8071C30.7764 7.79108 33.1342 5.06238 36.4255 4.71174C38.8117 4.45749 41.0336 5.52315 42.2208 7.27768L42.6009 6.92933C42.7181 6.822 42.908 6.822 43.0252 6.92933C43.1423 7.03666 43.1423 7.2107 43.0252 7.31803L42.5217 7.77935C42.8058 8.3182 42.998 8.90911 43.0776 9.5371Z" fill="white"/>
</svg>
