<svg width="31" height="34" viewBox="0 0 31 34" fill="none" xmlns="http://www.w3.org/2000/svg">
<path d="M5.22764 14.1592V27.4417C5.22764 29.6469 5.22764 30.7495 5.97577 31.6861C6.7239 32.6227 7.61806 32.7872 9.40638 33.1161C11.0595 33.4202 13.154 33.6667 15.5999 33.6667C18.0457 33.6667 20.1402 33.4202 21.7933 33.1161C23.5816 32.7872 24.4758 32.6227 25.2239 31.6861C25.9721 30.7495 25.9721 29.6469 25.9721 27.4417V14.1592C25.9721 13.0196 25.9721 12.4497 26.1911 11.9488C26.41 11.448 26.8213 11.0771 27.6438 10.3354L27.9526 10.057C29.713 8.46954 30.5932 7.67583 30.5998 6.52691C30.6064 5.378 29.8257 4.65655 28.2644 3.21367C28.028 2.99525 27.7939 2.79095 27.5678 2.60974C26.7821 1.98 25.6717 1.29074 24.8218 0.792798C24.0265 0.326854 23.0922 0.219494 22.2091 0.45176L21.3923 0.666589C20.7454 0.836714 20.1821 1.25437 19.8123 1.83801C17.8083 5.00029 13.3914 5.00029 11.3875 1.83801C11.0176 1.25437 10.4543 0.836714 9.80742 0.666588L8.9906 0.451759C8.10749 0.219493 7.17319 0.326854 6.37791 0.792798C5.52801 1.29074 4.41756 1.98 3.63191 2.60974C3.40583 2.79095 3.17169 2.99525 2.93533 3.21367C1.37396 4.65655 0.593272 5.378 0.599895 6.52691C0.606518 7.67583 1.48672 8.46954 3.24711 10.057L3.55591 10.3354C4.37842 11.0771 4.78967 11.448 5.00865 11.9488C5.22764 12.4497 5.22764 13.0196 5.22764 14.1592Z" fill="black"/>
</svg>
