<svg viewBox="0 0 67 31" fill="none" xmlns="http://www.w3.org/2000/svg">
<path d="M49.541 18.7266C52.6808 18.7266 55.2261 21.2719 55.2261 24.4115C55.2261 27.5513 52.6808 30.0966 49.541 30.0966C46.8539 30.0966 44.6025 28.2325 44.009 25.7271C44.3769 25.7219 44.7374 25.717 45.091 25.7119C45.6532 27.6387 47.4327 29.0464 49.541 29.0464C52.1007 29.0464 54.1759 26.9713 54.1759 24.4115C54.1759 21.852 52.1007 19.7768 49.541 19.7768C46.9811 19.7768 44.9063 21.852 44.9063 24.4115C44.9063 24.4962 44.9083 24.5805 44.9129 24.664C44.5694 24.6689 44.2189 24.6738 43.8622 24.6788C43.8581 24.5903 43.856 24.5012 43.856 24.4115C43.856 21.2719 46.401 18.7266 49.541 18.7266ZM35.1894 5.89499C37.4225 5.89499 39.6308 6.04877 41.4864 6.41813C45.7634 7.26912 48.1035 9.25301 50.3407 11.1821C53.1681 11.8916 56.1934 12.6487 57.6562 13.9179C58.6224 14.7559 58.9054 15.7878 59.0145 16.6884C59.0512 16.9918 59.0691 17.287 59.0853 17.5517C59.1001 17.7975 59.1135 18.0121 59.137 18.2073C59.1996 18.7229 59.3381 19.1261 59.4893 19.5622C59.6351 19.9818 59.7975 20.4444 59.8566 21.0092C59.9724 22.1138 59.6866 23.558 59.5131 24.2853C59.4937 24.3663 59.4622 24.5043 59.3945 24.6384C59.3363 24.7542 59.2541 24.8635 59.138 24.9592C58.7201 25.3029 57.7347 25.4433 55.1157 25.5308C55.1845 25.1875 55.2219 24.8328 55.2256 24.4699C57.6341 24.3887 58.2742 24.2944 58.4608 24.1558C58.4659 24.1424 58.4745 24.1129 58.4916 24.0418C58.6643 23.3173 58.9075 22.028 58.8124 21.1186C58.7673 20.6903 58.6459 20.3346 58.4972 19.9065C58.3463 19.4718 58.1718 18.9729 58.0946 18.3336C58.0664 18.1013 58.0514 17.8539 58.0369 17.6153C58.0206 17.3467 58.0043 17.0821 57.972 16.8148C57.8782 16.0401 57.6559 15.3078 56.968 14.7109C55.7232 13.6309 52.9583 12.9219 49.9643 12.1705C49.8847 12.1506 49.8111 12.1123 49.7493 12.0588L49.7446 12.055C47.4981 10.1171 45.3296 8.25339 41.2815 7.44824C39.5168 7.09696 37.3824 6.9452 35.1894 6.9452H35.1891C32.3029 6.9452 29.3461 7.20803 27.0453 7.60869C23.0248 8.30923 21.0119 9.429 19.2583 10.5446C17.4797 11.6758 15.9765 12.7991 14.4574 13.9347C14.3918 13.9838 14.3156 14.0169 14.2349 14.0311L14.2114 14.0352C10.9498 14.6158 7.74815 15.1878 5.54646 15.9098C3.35528 16.6284 2.25792 17.4635 1.67107 18.5637C1.06221 19.7049 0.949323 21.2277 1.12552 22.4526C1.28011 23.5277 1.65259 24.3406 2.07637 25.1782C3.35033 25.1636 4.62419 25.1492 5.89482 25.1348H5.89522C6.24832 25.1306 6.60111 25.1267 6.95381 25.1228C7.00995 25.4875 7.1089 25.8382 7.24481 26.1697C6.87384 26.1739 6.50236 26.1781 6.13079 26.1823L6.13048 26.1824C4.6773 26.1989 3.21987 26.2155 1.76245 26.232C1.76043 26.232 1.75841 26.232 1.75639 26.232C1.55949 26.232 1.37886 26.1218 1.28899 25.9461C0.807357 25.0047 0.285939 23.9922 0.0860146 22.6021C-0.110072 21.2388 -0.00304241 19.4704 0.744451 18.0695C1.51386 16.6271 2.90918 15.6695 5.21922 14.9118C7.48421 14.1691 10.7277 13.5888 13.928 13.0192H13.9283C15.4125 11.9097 16.9177 10.7884 18.6946 9.65831C20.536 8.48734 22.6778 7.30345 26.8651 6.57423C29.2295 6.16227 32.2468 5.89499 35.1894 5.89499ZM11.5345 18.7266C14.6743 18.7266 17.2196 21.2719 17.2196 24.4115C17.2196 24.6123 17.2093 24.8103 17.1889 25.0057H17.1886C16.8368 25.0096 16.484 25.0138 16.1301 25.0178C16.156 24.8193 16.1694 24.617 16.1694 24.4115C16.1694 21.852 14.0942 19.7768 11.5345 19.7768C8.97496 19.7768 6.89979 21.852 6.89979 24.4115C6.89979 24.6534 6.91817 24.891 6.95381 25.1228C6.60111 25.1267 6.24832 25.1306 5.89522 25.1348C5.86513 24.898 5.84958 24.6566 5.84958 24.4115C5.84958 21.2719 8.39488 18.7266 11.5345 18.7266ZM16.9775 26.0583C16.2713 28.395 14.1018 30.0966 11.5345 30.0966C9.01313 30.0966 6.87525 28.455 6.13079 26.1823C6.50236 26.1781 6.87384 26.1739 7.24481 26.1697C7.93758 27.8577 9.59735 29.0464 11.5345 29.0464C13.5096 29.0464 15.1959 27.8112 15.8634 26.0712C16.2358 26.0669 16.607 26.0626 16.9772 26.0583H16.9775ZM44.9129 24.664C44.9323 25.0259 44.9934 25.3768 45.091 25.7119C44.7374 25.717 44.3769 25.7219 44.009 25.7271C36.9984 25.8237 27.4033 25.9382 16.9775 26.0583H16.9772C16.607 26.0626 16.2358 26.0669 15.8634 26.0712C15.9918 25.7369 16.0823 25.3842 16.1301 25.0178C16.484 25.0138 16.8368 25.0096 17.1886 25.0057H17.1889C27.463 24.8871 36.9154 24.7744 43.8622 24.6788C44.2189 24.6738 44.5694 24.6689 44.9129 24.664Z" fill="#D6E7EF"/>
<path d="M33.0546 8.67606L33.0329 13.0889L33.0308 13.4966C33.0293 13.7855 32.7946 14.019 32.5058 14.019C32.505 14.019 32.504 14.019 32.503 14.019C32.2132 14.0177 31.9792 13.7812 31.9806 13.4914L31.9824 13.1153L32.0041 8.70968C32.3539 8.69282 32.7043 8.68171 33.0546 8.67606ZM33.5948 7.62141C35.7204 7.62141 37.8053 7.82123 39.5264 8.22906C43.3471 9.13457 45.3152 11.0541 47.2045 12.8917C47.3559 13.039 47.4045 13.2629 47.3273 13.4596C47.2502 13.6563 47.0628 13.7877 46.8516 13.793L17.8111 14.5209C17.8067 14.5212 17.8023 14.5212 17.7979 14.5212C17.5805 14.5212 17.3851 14.387 17.3072 14.1834C17.2279 13.9753 17.2884 13.7398 17.4582 13.5958C19.7962 11.6106 22.2107 9.55512 26.2352 8.48633C28.4137 7.90777 31.0498 7.62141 33.5948 7.62141ZM33.5948 8.67142C33.415 8.67142 33.2347 8.67293 33.0546 8.67606C32.7043 8.68171 32.3539 8.69282 32.0041 8.70968C30.0538 8.80349 28.1335 9.06864 26.5048 9.5014C23.3469 10.3402 21.2507 11.8144 19.2837 13.4335L31.9824 13.1153L31.9806 13.4914C31.9792 13.7812 32.2132 14.0177 32.503 14.019C32.504 14.019 32.505 14.019 32.5058 14.019C32.7946 14.019 33.0293 13.7855 33.0308 13.4966L33.0329 13.0889L45.5664 12.7746C43.978 11.2878 42.2399 9.95143 39.2842 9.25089C37.6629 8.8668 35.663 8.67142 33.5948 8.67142Z" fill="#D6E7EF"/>
<circle cx="57.3736" cy="9.62644" r="9.62644" fill="#4299C1"/>
<mask id="mask0_31_15" style="mask-type:luminance" maskUnits="userSpaceOnUse" x="51" y="3" width="12" height="13">
<path d="M62.636 3.85057V15.2955H51.5977V3.85057H62.636Z" fill="white"/>
</mask>
<g mask="url(#mask0_31_15)">
<mask id="mask1_31_15" style="mask-type:luminance" maskUnits="userSpaceOnUse" x="51" y="3" width="12" height="13">
<path fill-rule="evenodd" clip-rule="evenodd" d="M55.6772 6.91991C55.6772 6.06909 54.6502 5.64332 54.0517 6.24191C53.4545 6.83901 53.8766 7.86739 54.7297 7.86739C55.2484 7.86739 55.6772 7.46222 55.6772 6.91991ZM59.5162 12.704L60.762 13.9475L59.9964 14.7131L59.7177 13.8307C59.6898 13.7657 59.6434 13.7193 59.5784 13.7006L58.761 13.4591L59.5162 12.704ZM57.4606 6.99431C57.4606 5.49846 56.2556 4.26343 54.7297 4.26343C53.996 4.26343 53.3086 4.55136 52.7977 5.06224C51.7295 6.13046 51.7295 7.86743 52.7977 8.93559C54.501 10.6389 57.4606 9.45326 57.4606 6.99431ZM57.1285 9.03078L62.1513 14.0629C62.3844 14.2961 62.0293 14.6561 61.7891 14.4159L56.7656 9.39242L57.1285 9.03078ZM51.5995 6.99431C51.5995 9.50683 54.3848 10.9648 56.4407 9.6339L59.228 12.4163L58.2316 13.4127C58.1396 13.5046 58.1522 13.6888 58.3152 13.7378L59.374 14.0722L59.727 15.1589C59.7721 15.3068 59.9562 15.3292 60.0521 15.2333L61.0502 14.2351L61.5104 14.6946C61.7705 14.9453 62.1792 14.9453 62.4392 14.6946C62.7039 14.444 62.6953 14.0217 62.4392 13.7657L57.3746 8.70107C58.1642 7.48444 58.0258 5.84108 56.959 4.77431C56.3646 4.17982 55.5751 3.85475 54.739 3.85475C52.9883 3.85475 51.5995 5.27715 51.5995 6.99431ZM53.3643 6.91991C53.3643 5.72788 54.8209 5.10699 55.6772 5.96324C56.5369 6.82302 55.9065 8.27607 54.7205 8.27607C53.9597 8.27607 53.3643 7.65097 53.3643 6.91991Z" fill="white"/>
</mask>
<g mask="url(#mask1_31_15)">
<path d="M62.7039 3.85474H51.5995V15.3292H62.7039V3.85474Z" fill="#D6E7EF"/>
</g>
</g>
</svg>
