<svg viewBox="0 0 82 29" fill="none" xmlns="http://www.w3.org/2000/svg">
<path d="M3.9423 0.25H68.5576C70.5969 0.25 72.25 1.25287 72.25 2.48994V26.0099C72.25 27.2471 70.5969 28.25 68.5576 28.25H3.9423C1.90308 28.25 0.25 27.2471 0.25 26.0099V2.48994C0.25 1.25287 1.90308 0.25 3.9423 0.25Z" stroke="#125676" stroke-width="0.5"/>
<path d="M26.6706 21.1019L29.7657 8.50768H34.7165L31.6191 21.1019H26.6706ZM49.5037 8.779C48.5228 8.52385 46.9862 8.25 45.0668 8.25C40.1752 8.25 36.7295 9.95813 36.7002 12.4062C36.6725 14.2159 39.16 15.2255 41.0377 15.8279C42.9647 16.4452 43.6125 16.8388 43.6033 17.3901C43.5911 18.2343 42.0644 18.62 40.6417 18.62C38.6603 18.62 37.6075 18.4291 35.9818 17.9589L35.3439 17.7587L34.649 20.578C35.8054 20.9296 37.9436 21.2342 40.1635 21.25C45.3672 21.25 48.7454 19.5614 48.7839 16.9472C48.8025 15.5145 47.4837 14.4241 44.6275 13.5253C42.8972 12.9428 41.8374 12.5539 41.8488 11.964C41.8488 11.4406 42.7456 10.8807 44.6836 10.8807C46.3026 10.8633 47.4751 11.1081 48.3888 11.3632L48.8325 11.5086L49.5036 8.77879M62.243 8.50727H58.4178C57.2328 8.50727 56.346 8.73159 55.8254 9.55177L48.4736 21.0937H53.6718C53.6718 21.0937 54.5217 19.5416 54.7141 19.201C55.2822 19.201 60.3321 19.2064 61.0541 19.2064C61.2021 19.6473 61.6563 21.0937 61.6563 21.0937H66.25L62.243 8.50693V8.50727ZM56.1739 16.6399C56.5833 15.9143 58.1462 13.1193 58.1462 13.1193C58.117 13.1529 58.5526 12.3901 58.8028 11.9174L59.1372 13.0032C59.1372 13.0032 60.0852 16.0095 60.2833 16.6399H56.1739ZM22.4691 8.50727L17.6224 17.0955L17.106 15.35C16.2038 13.3381 13.3926 11.1582 10.25 10.0669L14.6815 21.0813L19.9192 21.0771L27.7129 8.50679H22.4691" fill="#125676"/>
<path d="M14.2784 8.25H6.31302L6.25 8.51777C12.4469 9.58299 16.547 12.157 18.25 15.25L16.5179 9.33636C16.2189 8.52162 15.3517 8.27849 14.2788 8.25" fill="#125676"/>
<circle cx="71.6235" cy="9.87644" r="9.62644" fill="#4299C1"/>
<path d="M77.236 12.0989C77.2205 11.8739 77.1968 11.6439 77.11 11.4318C77.0601 11.3078 77.008 11.1853 76.9349 11.0725C76.8872 10.9982 76.8303 10.9293 76.766 10.8682C76.6954 10.8014 76.6056 10.7486 76.521 10.7003C76.4198 10.6425 76.32 10.5907 76.2114 10.5475C76.1545 10.525 76.0924 10.5125 76.0333 10.4978C75.9656 10.4814 75.8988 10.4646 75.8319 10.4482C75.7229 10.4221 75.6154 10.4007 75.5041 10.3871C75.4602 10.3818 75.4166 10.38 75.3726 10.38C75.3338 10.38 75.2946 10.3814 75.2555 10.3821C75.0611 10.3864 74.8675 10.3864 74.6735 10.3961C74.2508 10.4175 73.8284 10.4411 73.405 10.4493C73.3806 10.4039 73.3558 10.3593 73.3337 10.3128C73.2878 10.1978 73.2546 10.0803 73.2332 9.95963C73.2084 9.73248 73.2254 9.49927 73.2542 9.27284C73.2738 9.13713 73.2956 8.99927 73.3377 8.86892C73.3584 8.80427 73.3854 8.74213 73.4105 8.68034C73.4393 8.60927 73.4652 8.53677 73.4933 8.4657C73.5476 8.35392 73.6152 8.2482 73.6732 8.13856C73.7471 7.9982 73.8162 7.85785 73.8791 7.71178C73.933 7.58642 73.9821 7.46106 74.0172 7.32963C74.0549 7.18785 74.0934 7.04463 74.1192 6.89999C74.1484 6.73428 74.1529 6.57106 74.1499 6.40285C74.1477 6.24249 74.1347 6.08499 74.1107 5.92571C74.0911 5.8025 74.0542 5.67857 74.0106 5.56071C73.977 5.47 73.9385 5.38107 73.8953 5.29428C73.8617 5.22678 73.8292 5.15535 73.7856 5.0925C73.7087 4.98036 73.616 4.86607 73.5136 4.77393C73.4246 4.69393 73.3241 4.62678 73.2243 4.55928C73.153 4.51107 73.0783 4.46857 73.0015 4.43C72.9401 4.39964 72.8762 4.37429 72.8086 4.36179C72.7565 4.35143 72.704 4.34179 72.6512 4.33071C72.5152 4.30036 72.3814 4.27571 72.2433 4.25929C72.1912 4.25286 72.1405 4.25 72.0906 4.25C72.009 4.25 71.9288 4.2575 71.8446 4.27071C71.7492 4.28571 71.6594 4.32571 71.5682 4.35464C71.4599 4.38929 71.355 4.42857 71.2526 4.47536C71.1399 4.52643 71.0361 4.58964 70.9378 4.66178C70.8816 4.70321 70.8258 4.74428 70.7782 4.79464C70.722 4.85393 70.6729 4.92 70.6245 4.98536C70.4408 5.23464 70.2767 5.505 70.2091 5.80642C70.1744 5.96285 70.1456 6.12107 70.1315 6.27928C70.1186 6.41749 70.1293 6.55678 70.14 6.69428C70.1629 6.97106 70.2054 7.25321 70.3059 7.51392C70.3355 7.59178 70.3684 7.6682 70.402 7.74499C70.4016 7.74428 70.4016 7.74392 70.4013 7.7432C70.4367 7.82428 70.4674 7.90856 70.4996 7.99178C70.5339 8.08249 70.5753 8.16927 70.616 8.25785C70.6559 8.35285 70.6921 8.44963 70.7235 8.54713C70.7597 8.65892 70.7793 8.77534 70.7977 8.89106C70.821 9.09641 70.8114 9.30248 70.7867 9.50713C70.7612 9.67284 70.725 9.84106 70.6644 9.99784C70.6296 10.0657 70.5857 10.1282 70.5421 10.1903C70.4815 10.2771 70.422 10.3636 70.3651 10.4521C70.1947 10.46 70.0233 10.4607 69.854 10.4607C69.7657 10.4614 69.6774 10.4607 69.5891 10.46C69.4332 10.4593 69.2765 10.4578 69.1206 10.4614C68.9875 10.465 68.8549 10.465 68.7226 10.4668C68.5715 10.4689 68.4141 10.4682 68.2674 10.5075C68.1706 10.5336 68.08 10.5853 67.9962 10.6375C67.9163 10.6871 67.841 10.7421 67.7656 10.7986C67.6828 10.8607 67.6159 10.9418 67.5528 11.0211C67.5084 11.0768 67.4681 11.1332 67.4323 11.1946C67.388 11.2696 67.3569 11.3543 67.3285 11.4361C67.3056 11.5007 67.2871 11.5661 67.2749 11.6336C67.2464 11.7857 67.2479 11.9385 67.2527 12.0928C67.2612 12.3785 67.3432 12.6518 67.4238 12.9243C67.4596 13.045 67.5709 13.126 67.6946 13.136C67.7342 13.1553 67.7767 13.1689 67.8232 13.1689C67.8358 13.1689 67.8487 13.1685 67.8613 13.1685C67.8565 13.2864 67.8524 13.4046 67.8561 13.5232C67.8587 13.6146 67.8631 13.7068 67.8532 13.7975C67.8402 13.8889 67.8343 13.9807 67.8894 14.065C67.9806 14.2032 68.1236 14.2468 68.2855 14.2496C68.4252 14.2518 68.5656 14.2446 68.7049 14.2371C69.0134 14.2207 69.3208 14.2053 69.6294 14.1985C70.2498 14.1853 70.8705 14.1925 71.4909 14.1703C71.6513 14.165 71.8106 14.16 71.9709 14.1571C72.1198 14.1543 72.2687 14.1564 72.418 14.1496C72.7243 14.1346 73.0307 14.1221 73.3366 14.116C73.9249 14.105 74.5124 14.0721 75.1006 14.0828C75.2721 14.0864 75.4439 14.0857 75.615 14.0925C75.6819 14.0953 75.7487 14.0978 75.8164 14.1C75.8485 14.1014 75.8803 14.1028 75.9124 14.105C75.952 14.1085 75.9878 14.1064 76.0248 14.1021C76.1024 14.1507 76.2025 14.1696 76.289 14.1468C76.3688 14.1253 76.4379 14.0739 76.48 14.0043C76.5277 13.9257 76.5247 13.8528 76.5121 13.766C76.5121 13.7657 76.5121 13.7653 76.5121 13.765C76.5158 13.7896 76.5192 13.8139 76.5221 13.8385C76.5107 13.7325 76.5077 13.6246 76.4992 13.5178C76.4874 13.3785 76.4663 13.24 76.4471 13.101C76.5661 13.1046 76.6858 13.1089 76.8052 13.1068C76.841 13.11 76.8757 13.1107 76.9101 13.1035C76.9825 13.0968 77.0472 13.0768 77.1015 13.025C77.1551 12.9728 77.1854 12.901 77.1854 12.8275C77.2183 12.705 77.2393 12.5807 77.2478 12.4535C77.2545 12.3357 77.2445 12.2164 77.236 12.0989ZM75.751 13.4793C75.6519 13.4785 75.5522 13.48 75.4531 13.4807C75.1853 13.4835 74.9177 13.4925 74.6498 13.4971C74.345 13.5032 74.0402 13.5096 73.7353 13.52C73.4404 13.5296 73.1448 13.546 72.85 13.5571C72.237 13.58 71.6243 13.6246 71.0113 13.6343C70.698 13.6389 70.3846 13.6446 70.0713 13.6489C69.765 13.6528 69.4587 13.655 69.1527 13.6668C68.9288 13.6757 68.7023 13.6925 68.4776 13.6828C68.4758 13.6489 68.4721 13.615 68.4699 13.5814C68.4592 13.441 68.4662 13.3028 68.4739 13.1628C68.5545 13.1614 68.635 13.1621 68.7152 13.1603C68.985 13.1543 69.2551 13.1396 69.5255 13.1335C69.796 13.1275 70.0683 13.1293 70.3388 13.1343C70.6152 13.1396 70.8916 13.1393 71.1676 13.15C71.4518 13.1625 71.7367 13.1707 72.0208 13.1596C72.3105 13.1485 72.6006 13.1353 72.8903 13.1321C73.4456 13.126 74.0006 13.1225 74.556 13.1182C74.7718 13.1168 74.9883 13.1132 75.2041 13.1107C75.2961 13.1093 75.3877 13.1114 75.4797 13.1071C75.5803 13.1025 75.6808 13.0993 75.7816 13.0978C75.7942 13.1789 75.8075 13.2589 75.8201 13.3396C75.826 13.386 75.8282 13.4332 75.8319 13.48C75.8049 13.48 75.7768 13.4793 75.751 13.4793ZM76.347 12.5443C76.3 12.5443 76.2531 12.545 76.2058 12.5443C75.9287 12.5435 75.6512 12.5525 75.3748 12.5682C75.0844 12.5846 74.791 12.5828 74.4995 12.5807C74.2131 12.5778 73.926 12.5793 73.64 12.58C73.3728 12.5814 73.1064 12.5932 72.8396 12.6014C72.6966 12.6064 72.5525 12.6064 72.4095 12.6103C72.2591 12.615 72.1091 12.6228 71.9587 12.6282C71.6783 12.6393 71.3967 12.6171 71.117 12.6068C70.9747 12.6014 70.8321 12.6007 70.6891 12.5978C70.5565 12.5957 70.4242 12.5896 70.2912 12.5875C70.1009 12.5846 69.9102 12.5896 69.7199 12.5925C69.5078 12.596 69.2953 12.5939 69.0832 12.5993C68.8911 12.6043 68.7001 12.615 68.5079 12.6135C68.3243 12.6118 68.1406 12.6078 67.957 12.6046C67.9393 12.5496 67.9215 12.495 67.9049 12.44C67.8779 12.3521 67.8591 12.2628 67.8443 12.1725C67.8269 12.0271 67.8203 11.8753 67.8343 11.7296C67.8521 11.6464 67.875 11.565 67.9038 11.485C67.9345 11.425 67.9699 11.3693 68.0095 11.3143C68.0545 11.2621 68.1011 11.2143 68.155 11.1696C68.2267 11.1186 68.2995 11.0689 68.3775 11.0282C68.4026 11.02 68.4277 11.0132 68.4536 11.0078C68.5815 10.9968 68.7104 10.9975 68.839 10.9982C68.8859 10.9989 68.9329 10.9989 68.9802 10.9982C69.1568 10.9961 69.3341 10.9946 69.5108 10.9996C69.6903 11.0043 69.8688 11.01 70.0484 11.0114C70.1422 11.0121 70.2365 11.0107 70.3303 11.0086C70.4157 11.0064 70.4992 10.9975 70.5838 10.9914C70.6614 10.9861 70.729 10.9653 70.7859 10.91C70.8159 10.8811 70.8362 10.8453 70.8502 10.8071C70.8665 10.7911 70.885 10.7771 70.8979 10.7568C71.0416 10.5289 71.1976 10.3032 71.2748 10.0436C71.3494 9.78963 71.3952 9.51891 71.4045 9.25463C71.413 8.99642 71.3945 8.72749 71.3354 8.47463C71.2836 8.25606 71.1843 8.05249 71.0922 7.84785C71.032 7.70142 70.9799 7.55178 70.9223 7.40428C70.8609 7.24749 70.8151 7.08749 70.7904 6.92178C70.7597 6.66999 70.7456 6.42071 70.7726 6.16749C70.7959 6.02571 70.8295 5.88714 70.882 5.75285C70.9566 5.59821 71.0557 5.45214 71.161 5.31535C71.2079 5.26107 71.2585 5.21107 71.3151 5.16643C71.362 5.1325 71.41 5.09928 71.461 5.07214C71.5013 5.05035 71.5438 5.03 71.5866 5.01143C71.6484 4.98964 71.7145 4.97714 71.7773 4.96071C71.8442 4.94286 71.9085 4.9225 71.9761 4.90893C72.0585 4.90357 72.1394 4.9075 72.2215 4.91643C72.3005 4.92964 72.3785 4.94678 72.4572 4.96286C72.527 4.97714 72.5987 4.98678 72.6674 5.0075C72.7702 5.05821 72.8651 5.12428 72.9586 5.18928C73.0384 5.25428 73.1105 5.32678 73.177 5.40464C73.2424 5.49357 73.296 5.59321 73.3422 5.6925C73.4009 5.83571 73.4486 5.98428 73.4737 6.13607C73.4981 6.34785 73.5029 6.56285 73.4818 6.77499C73.4375 7.03035 73.358 7.27785 73.2568 7.51678C73.208 7.6232 73.1559 7.7282 73.0987 7.8307C73.0318 7.95106 72.9597 8.0682 72.905 8.19427C72.8422 8.3382 72.7931 8.48534 72.7384 8.63213C72.7221 8.67677 72.7062 8.72106 72.6937 8.76642C72.6752 8.83534 72.6689 8.90892 72.6582 8.97963C72.5743 9.55177 72.5337 10.1911 72.8511 10.7089C72.8655 10.7321 72.8803 10.7557 72.8947 10.7796C72.9494 10.8678 73.0469 10.915 73.1478 10.9196C73.2029 10.985 73.2823 11.0296 73.3739 11.0271C73.7571 11.0175 74.1388 10.9782 74.522 10.9678C74.6942 10.9628 74.866 10.9603 75.0382 10.9575C75.1804 10.9557 75.3264 10.9496 75.4687 10.9632C75.6394 10.9896 75.8134 11.0296 75.9756 11.0875C76.0218 11.1093 76.0658 11.1346 76.1094 11.1614C76.1766 11.2021 76.245 11.2414 76.31 11.2853C76.33 11.3036 76.3485 11.3221 76.3662 11.3421C76.402 11.3939 76.4331 11.4482 76.4608 11.5046C76.4966 11.5928 76.5299 11.6843 76.5469 11.7771C76.5731 12.0018 76.5842 12.2303 76.5624 12.4553C76.5561 12.4853 76.5484 12.515 76.5402 12.5446C76.5169 12.5443 76.4937 12.5439 76.4704 12.5439C76.4286 12.5435 76.3876 12.5439 76.347 12.5443ZM72.4047 7.79178C72.258 7.70856 72.2137 7.52749 72.2942 7.3857C72.312 7.35571 72.3279 7.32499 72.343 7.29392C72.3826 7.19678 72.4195 7.09856 72.4553 6.99963C72.4871 6.91071 72.5078 6.81856 72.5233 6.72499C72.5392 6.57249 72.5341 6.41285 72.5156 6.26071C72.4838 6.09571 72.4062 5.945 72.3404 5.79107C72.3112 5.72214 72.3342 5.62571 72.3711 5.56464C72.411 5.49928 72.4764 5.45035 72.5525 5.42964C72.5784 5.42285 72.6054 5.41928 72.632 5.41928C72.6859 5.41928 72.7395 5.43285 72.7861 5.45893C72.8607 5.50107 72.8943 5.56 72.9257 5.63464C72.997 5.80392 73.0839 5.97535 73.1131 6.15714C73.1408 6.32999 73.1578 6.50964 73.15 6.68499C73.1345 7.03963 72.9919 7.37392 72.8245 7.68535C72.7473 7.82856 72.5437 7.87035 72.4047 7.79178Z" fill="white"/>
</svg>
