<svg width="24" height="25" viewBox="0 0 24 25"  xmlns="http://www.w3.org/2000/svg">
<g clip-path="url(#clip0_1333_159275)">
<path d="M4.27482 0.487017C4.34363 0.486804 4.41243 0.486592 4.48333 0.486373C4.71231 0.485783 4.94128 0.485856 5.17026 0.485934C5.33509 0.485653 5.49992 0.485334 5.66475 0.48498C6.11143 0.484153 6.55811 0.483932 7.00479 0.483872C7.28416 0.483805 7.56353 0.483605 7.8429 0.483356C8.81838 0.48249 9.79387 0.482106 10.7694 0.48218C11.6773 0.482236 12.5852 0.481247 13.4931 0.479767C14.2738 0.478539 15.0544 0.478038 15.8351 0.478098C16.3009 0.478122 16.7666 0.477857 17.2323 0.476862C17.6706 0.475952 18.1088 0.475949 18.547 0.47663C18.7073 0.476727 18.8676 0.476508 19.0279 0.475939C21.3521 0.468231 21.3521 0.468231 22.2178 1.24955C22.7665 1.91685 22.996 2.50086 22.9942 3.36538C22.9947 3.44615 22.9953 3.52692 22.9958 3.61013C22.9975 3.88072 22.9978 4.15129 22.998 4.42188C22.9989 4.61593 22.9998 4.80999 23.0009 5.00404C23.0033 5.53132 23.0045 6.05859 23.0054 6.58587C23.0059 6.91553 23.0067 7.24518 23.0075 7.57484C23.0101 8.6069 23.0119 9.63897 23.0126 10.671C23.0135 11.8611 23.0167 13.0512 23.0222 14.2413C23.0262 15.162 23.0281 16.0826 23.0284 17.0032C23.0286 17.5527 23.0297 18.1022 23.033 18.6517C23.0361 19.169 23.0365 19.6863 23.0349 20.2037C23.0347 20.3929 23.0355 20.5822 23.0374 20.7714C23.0479 21.9052 23.0372 22.8601 22.236 23.7501C21.5289 24.4246 20.6608 24.5109 19.7233 24.5121C19.6545 24.5123 19.5857 24.5125 19.5148 24.5127C19.2858 24.5133 19.0569 24.5132 18.8279 24.5132C18.663 24.5135 18.4982 24.5138 18.3334 24.5141C17.8867 24.515 17.44 24.5152 16.9933 24.5152C16.714 24.5153 16.4346 24.5155 16.1552 24.5157C15.1798 24.5166 14.2043 24.517 13.2288 24.5169C12.3209 24.5169 11.413 24.5179 10.505 24.5193C9.72437 24.5206 8.94369 24.5211 8.16302 24.521C7.69728 24.521 7.23155 24.5212 6.76581 24.5222C6.32758 24.5232 5.88936 24.5232 5.45113 24.5225C5.29082 24.5224 5.13051 24.5226 4.9702 24.5232C2.64606 24.5309 2.64606 24.5309 1.78032 23.7496C1.23168 23.0823 1.00212 22.4982 1.00398 21.6337C1.00343 21.553 1.00287 21.4722 1.0023 21.389C1.00067 21.1184 1.00038 20.8478 1.0001 20.5772C0.999237 20.3832 0.998295 20.1891 0.997284 19.9951C0.994825 19.4678 0.993615 18.9405 0.992782 18.4132C0.992232 18.0836 0.991462 17.7539 0.990625 17.4243C0.988061 16.3922 0.986248 15.3601 0.985524 14.3281C0.984685 13.138 0.981397 11.9479 0.975962 10.7578C0.971903 9.83715 0.970017 8.91652 0.969767 7.99587C0.969571 7.44638 0.96847 6.89692 0.965113 6.34744C0.962014 5.83009 0.961623 5.31281 0.963264 4.79545C0.963408 4.60619 0.962601 4.41693 0.960741 4.22769C0.950257 3.09388 0.960972 2.13899 1.76211 1.24898C2.46919 0.574535 3.33738 0.488218 4.27482 0.487017ZM2.31901 1.9091C2.27853 1.97182 2.23804 2.03454 2.19633 2.09916C2.15367 2.16212 2.11101 2.22509 2.06706 2.28996C1.52668 3.26105 1.87407 4.3022 1.87407 5.4683C3.82313 5.4683 5.77219 5.4683 7.78032 5.4683C7.78032 4.10705 7.78032 2.7458 7.78032 1.3433C7.18325 1.33466 6.5864 1.3272 5.98932 1.3227C5.78655 1.32083 5.58379 1.31827 5.38104 1.31501C5.08826 1.31042 4.79554 1.30833 4.50273 1.30668C4.41324 1.30475 4.32375 1.30281 4.23154 1.30082C3.53239 1.30059 2.85242 1.42746 2.31901 1.9091ZM8.62407 1.3433C8.62407 2.70455 8.62407 4.0658 8.62407 5.4683C13.0791 5.4683 17.5341 5.4683 22.1241 5.4683C22.3416 3.40917 22.3416 3.40917 21.5381 1.78276C20.812 1.33716 20.1865 1.30361 19.3522 1.31137C19.236 1.31133 19.1197 1.31129 19 1.31125C18.6833 1.31141 18.3667 1.31281 18.0501 1.31479C17.7184 1.31655 17.3867 1.31671 17.055 1.31704C16.4278 1.31791 15.8006 1.32022 15.1735 1.32305C14.4591 1.3262 13.7447 1.32774 13.0302 1.32915C11.5615 1.33208 10.0928 1.33724 8.62407 1.3433ZM1.87407 6.31205C1.86633 8.92627 1.8586 11.5405 1.85063 14.2339C1.84722 15.0591 1.8438 15.8844 1.84028 16.7346C1.83903 17.4748 1.83903 17.4748 1.83828 18.215C1.83793 18.5445 1.83652 18.874 1.83448 19.2035C1.8319 19.6242 1.83113 20.0448 1.83167 20.4655C1.83155 20.6196 1.83081 20.7738 1.82936 20.9279C1.81259 22.18 1.81259 22.18 2.46 23.2163C3.01751 23.5585 3.54499 23.698 4.20072 23.6915C4.3054 23.6922 4.3054 23.6922 4.4122 23.6928C4.64393 23.694 4.87561 23.6931 5.10734 23.6922C5.27434 23.6926 5.44133 23.6931 5.60833 23.6937C6.06042 23.695 6.51249 23.6945 6.96458 23.6936C7.43844 23.6929 7.91229 23.6935 8.38615 23.694C9.1818 23.6945 9.97744 23.6938 10.7731 23.6925C11.692 23.6909 12.611 23.6914 13.5299 23.693C14.3199 23.6943 15.1099 23.6944 15.8999 23.6937C16.3713 23.6933 16.8427 23.6932 17.314 23.6941C17.7573 23.695 18.2005 23.6944 18.6437 23.6928C18.8061 23.6924 18.9684 23.6925 19.1308 23.6931C19.353 23.6939 19.5752 23.6929 19.7974 23.6915C19.893 23.6925 19.893 23.6925 19.9904 23.6934C20.5711 23.6864 21.0484 23.5168 21.5381 23.2163C22.2472 22.4876 22.1756 21.6523 22.1666 20.7014C22.1665 20.5417 22.1666 20.3821 22.1668 20.2224C22.1669 19.7963 22.1647 19.3702 22.162 18.9441C22.1599 18.5437 22.1598 18.1433 22.1595 17.7429C22.1576 16.5732 22.1523 15.4036 22.1475 14.2339C22.1398 11.6197 22.132 9.00549 22.1241 6.31205C15.4416 6.31205 8.75907 6.31205 1.87407 6.31205Z"  fill-opacity="0.6"/>
<path d="M15.6472 9.97168C16.9325 10.9713 17.7684 12.3104 18.0938 13.9059C18.1337 14.2567 18.1431 14.6019 18.1407 14.9547C18.1402 15.0483 18.1396 15.1419 18.1391 15.2383C18.1021 16.7872 17.5061 18.1918 16.4397 19.3284C15.1388 20.5214 13.5089 21.2122 11.7262 21.1503C10.0291 20.9995 8.41379 20.3339 7.28439 19.0133C6.05381 17.4679 5.76963 15.826 5.90634 13.9059C6.12128 12.3179 7.11292 10.9362 8.353 9.97168C10.546 8.43392 13.4542 8.43392 15.6472 9.97168ZM8.06259 11.3746C6.9563 12.721 6.60957 14.1674 6.75009 15.8746C6.97942 17.1056 7.57272 17.9947 8.43759 18.8746C8.49064 18.9289 8.5437 18.9832 8.59836 19.0391C9.57443 19.9531 10.963 20.3488 12.2784 20.3073C13.7184 20.1736 14.8334 19.6161 15.8438 18.5934C15.935 18.5053 15.935 18.5053 16.028 18.4154C17.0104 17.3965 17.2891 16.0736 17.2844 14.7105C17.271 14.0428 17.162 13.4823 16.8751 12.8746C16.8342 12.7864 16.7934 12.6982 16.7513 12.6073C16.0754 11.2666 14.9943 10.392 13.5938 9.87463C11.6701 9.27986 9.41635 9.88306 8.06259 11.3746Z"  fill-opacity="0.6"/>
<path d="M11.8128 10.7178C12.0003 10.9053 12.0003 10.9053 12.0121 11.1983C12.0082 11.2872 12.0043 11.3762 12.0003 11.4678C11.9288 11.491 11.8573 11.5142 11.7835 11.5381C11.6124 11.5961 11.6124 11.5961 11.4378 11.6553C11.3155 11.6963 11.3155 11.6963 11.1907 11.7381C10.2888 12.0506 9.65383 12.4621 9.09409 13.2491C8.936 13.5848 8.82336 13.9247 8.71909 14.2803C8.68042 14.3944 8.64175 14.5085 8.60191 14.626C8.5787 14.6976 8.5555 14.7691 8.53159 14.8428C8.3148 14.9014 8.3148 14.9014 8.06284 14.9366C7.97003 14.8747 7.87722 14.8128 7.78159 14.7491C7.65708 13.913 8.08509 13.0809 8.56162 12.417C9.30974 11.4706 10.5271 10.5666 11.8128 10.7178Z"  fill-opacity="0.6"/>
<path d="M20.3797 2.3982C20.714 2.74843 20.7955 2.96487 20.8484 3.44117C20.7962 3.94636 20.6214 4.27027 20.239 4.6189C19.8333 4.76884 19.459 4.7801 19.032 4.71851C18.6189 4.51573 18.3603 4.30497 18.1883 3.87476C18.1212 3.42768 18.1425 3.11933 18.3523 2.71461C18.896 2.08033 19.6649 1.84109 20.3797 2.3982ZM19.1902 3.03687C19.0112 3.2093 19.0112 3.2093 18.9969 3.45875C19.0115 3.7037 19.0115 3.7037 19.2195 3.87476C19.5008 3.91383 19.5008 3.91383 19.782 3.87476C19.9931 3.61651 19.9931 3.61651 19.9636 3.35328C19.8945 3.10677 19.8945 3.10677 19.659 2.98414C19.4067 2.91216 19.4067 2.91216 19.1902 3.03687Z"  fill-opacity="0.6"/>
<path d="M16.7217 2.39811C17.0584 2.75082 17.1408 2.96545 17.1846 3.44694C17.1407 3.94801 17.0024 4.22444 16.6338 4.56608C16.2012 4.7706 15.8447 4.79342 15.3741 4.71842C15.0179 4.55008 14.8566 4.40941 14.6358 4.08561C14.5082 3.71696 14.4603 3.41637 14.5303 3.03092C14.7547 2.60615 14.9994 2.30758 15.4444 2.11686C15.9284 2.06308 16.3348 2.09656 16.7217 2.39811ZM15.5323 3.06608C15.4801 3.11635 15.4278 3.16663 15.3741 3.21842C15.3999 3.57637 15.3999 3.57637 15.5616 3.87467C15.8389 3.90593 15.8389 3.90593 16.1241 3.87467C16.3352 3.61642 16.3352 3.61642 16.3057 3.35319C16.2366 3.10668 16.2366 3.10668 16.001 2.98405C15.7444 2.90766 15.7444 2.90766 15.5323 3.06608Z"  fill-opacity="0.6"/>
<path d="M13.0661 2.40409C13.4139 2.76016 13.4887 2.89477 13.529 3.39433C13.5171 3.7716 13.4343 4.02699 13.2184 4.34355C12.8883 4.64948 12.6274 4.74556 12.1872 4.76542C11.7469 4.74556 11.486 4.64948 11.1559 4.34355C10.882 3.93257 10.8222 3.61438 10.8747 3.1248C11.0378 2.68695 11.2348 2.44402 11.6247 2.1873C12.1009 1.97383 12.669 2.08779 13.0661 2.40409ZM11.8766 3.0662C11.8244 3.11648 11.7722 3.16675 11.7184 3.21855C11.7443 3.5765 11.7443 3.5765 11.9059 3.8748C12.1833 3.90605 12.1833 3.90605 12.4684 3.8748C12.6795 3.61654 12.6795 3.61654 12.6501 3.35331C12.581 3.1068 12.581 3.1068 12.3454 2.98417C12.0888 2.90778 12.0888 2.90778 11.8766 3.0662Z"  fill-opacity="0.6"/>
<path d="M3.63954 3.00236C3.71386 3.00244 3.78818 3.00253 3.86475 3.00262C3.94103 3.00221 4.01731 3.00181 4.09591 3.0014C4.2573 3.00086 4.4187 3.00081 4.58009 3.00122C4.82765 3.00152 5.07509 2.99932 5.32263 2.99694C5.47925 2.99673 5.63586 2.99666 5.79248 2.99676C5.8668 2.99589 5.94112 2.99503 6.01769 2.99414C6.22626 2.99591 6.22626 2.99591 6.56299 3.03081C6.75049 3.31206 6.75049 3.31206 6.72705 3.55816C6.70385 3.63163 6.68064 3.70511 6.65674 3.78081C6.36698 3.92569 6.06105 3.88984 5.74304 3.89031C5.63519 3.89078 5.63519 3.89078 5.52517 3.89126C5.37299 3.89173 5.22082 3.89195 5.06864 3.89194C4.83572 3.89214 4.60285 3.89384 4.36993 3.89562C4.22217 3.8959 4.0744 3.89608 3.92664 3.89617C3.8569 3.89684 3.78717 3.89752 3.71532 3.89821C3.36301 3.89665 3.20748 3.88756 2.90674 3.68706C2.87744 3.45269 2.87744 3.45269 2.90674 3.21831C3.14773 2.97733 3.31088 3.00662 3.63954 3.00236Z"  fill-opacity="0.6"/>
</g>
<defs>
<clipPath id="clip0_1333_159275">
<rect width="24" height="24" fill="white" transform="translate(0 0.5)"/>
</clipPath>
</defs>
</svg>
