<svg width="24" height="25" viewBox="0 0 24 25" xmlns="http://www.w3.org/2000/svg">
<g clip-path="url(#clip0_1333_159238)">
<path d="M1.96949 0.486217C2.05807 0.485872 2.14665 0.485528 2.23792 0.485173C2.5366 0.484135 2.83527 0.483777 3.13396 0.483421C3.34735 0.482833 3.56075 0.48221 3.77415 0.481554C4.35525 0.479919 4.93635 0.478932 5.51746 0.478159C5.88026 0.477677 6.24306 0.477107 6.60586 0.476518C7.61018 0.474936 8.61449 0.473564 9.61881 0.472885C9.8795 0.472706 10.1402 0.472526 10.4009 0.472343C10.4657 0.472297 10.5304 0.472252 10.5972 0.472205C11.6468 0.471427 12.6964 0.469052 13.746 0.466007C14.8234 0.462907 15.9008 0.461249 16.9782 0.460918C17.5833 0.460698 18.1883 0.459853 18.7933 0.4575C19.3624 0.455323 19.9315 0.454919 20.5006 0.455884C20.7096 0.455931 20.9186 0.455334 21.1276 0.454051C21.4127 0.452397 21.6978 0.453052 21.9829 0.454288C22.1072 0.452746 22.1072 0.452746 22.234 0.451172C22.8209 0.457322 23.1658 0.605196 23.5917 1.02809C23.9885 1.53503 24.0139 1.83716 24.0138 2.46949C24.0142 2.55807 24.0145 2.64665 24.0149 2.73792C24.0159 3.0366 24.0163 3.33527 24.0166 3.63396C24.0172 3.84735 24.0178 4.06075 24.0185 4.27415C24.0201 4.85525 24.0211 5.43636 24.0219 6.01746C24.0224 6.38026 24.0229 6.74306 24.0235 7.10586C24.0251 8.11018 24.0265 9.1145 24.0271 10.1188C24.0273 10.3795 24.0275 10.6402 24.0277 10.9009C24.0277 10.9657 24.0278 11.0304 24.0278 11.0972C24.0286 12.1468 24.031 13.1964 24.034 14.246C24.0371 15.3234 24.0388 16.4008 24.0391 17.4782C24.0393 18.0833 24.0402 18.6883 24.0425 19.2933C24.0447 19.8624 24.0451 20.4315 24.0441 21.0006C24.0441 21.2096 24.0447 21.4186 24.046 21.6276C24.0476 21.9127 24.047 22.1978 24.0457 22.4829C24.0473 22.6072 24.0473 22.6072 24.0489 22.734C24.0427 23.3209 23.8948 23.6658 23.4719 24.0917C22.965 24.4885 22.6629 24.5139 22.0305 24.5138C21.942 24.5142 21.8534 24.5145 21.7621 24.5149C21.4634 24.5159 21.1648 24.5163 20.8661 24.5166C20.6527 24.5172 20.4393 24.5178 20.2259 24.5185C19.6448 24.5201 19.0637 24.5211 18.4826 24.5219C18.1198 24.5224 17.757 24.5229 17.3942 24.5235C16.3899 24.5251 15.3855 24.5265 14.3812 24.5271C14.1205 24.5273 13.8598 24.5275 13.5992 24.5277C13.5344 24.5277 13.4696 24.5278 13.4028 24.5278C12.3532 24.5286 11.3036 24.531 10.254 24.534C9.17659 24.5371 8.09919 24.5388 7.02178 24.5391C6.41677 24.5393 5.81177 24.5402 5.20677 24.5425C4.63765 24.5447 4.06856 24.5451 3.49944 24.5441C3.29044 24.5441 3.08145 24.5447 2.87246 24.546C2.58731 24.5476 2.30226 24.547 2.01711 24.5457C1.89282 24.5473 1.89282 24.5473 1.76601 24.5489C1.17913 24.5427 0.834269 24.3948 0.40834 23.9719C0.0115465 23.465 -0.0139135 23.1629 -0.0137829 22.5305C-0.0143 22.3977 -0.0142999 22.3977 -0.0148274 22.2621C-0.015865 21.9634 -0.016223 21.6648 -0.0165796 21.3661C-0.0171667 21.1527 -0.0177898 20.9393 -0.0184464 20.7259C-0.0200806 20.1448 -0.0210683 19.5637 -0.0218406 18.9826C-0.022323 18.6198 -0.0228927 18.257 -0.0234823 17.8942C-0.0250641 16.8899 -0.0264363 15.8855 -0.0271151 14.8812C-0.0272942 14.6205 -0.0274741 14.3598 -0.0276574 14.0992C-0.0277028 14.0344 -0.0277482 13.9696 -0.027795 13.9028C-0.0285731 12.8532 -0.0309484 11.8036 -0.0339932 10.754C-0.0370931 9.67659 -0.0387509 8.59919 -0.0390817 7.52178C-0.0393024 6.91677 -0.040147 6.31177 -0.0424999 5.70677C-0.0446774 5.13765 -0.0450814 4.56856 -0.044116 3.99944C-0.0440694 3.79044 -0.0446659 3.58145 -0.0459494 3.37246C-0.0476028 3.08731 -0.0469481 2.80226 -0.0457119 2.51711C-0.0467403 2.43425 -0.0477686 2.35139 -0.0488281 2.26601C-0.0426782 1.67913 0.105196 1.33427 0.528091 0.90834C1.03503 0.511547 1.33716 0.486087 1.96949 0.486217ZM0.937514 1.62501C0.701866 2.01464 0.723339 2.39527 0.724943 2.83857C0.724518 2.92424 0.724094 3.00992 0.723656 3.0982C0.722467 3.38593 0.722623 3.67366 0.722777 3.96139C0.722217 4.16743 0.721579 4.37347 0.720869 4.5795C0.719211 5.13968 0.718773 5.69985 0.718654 6.26002C0.718476 6.72739 0.717786 7.19475 0.717121 7.66211C0.715681 8.7016 0.715121 9.74109 0.715247 10.7806C0.715255 10.8429 0.715262 10.9053 0.71527 10.9696C0.715278 11.032 0.715285 11.0945 0.715293 11.1588C0.71537 12.1708 0.713575 13.1828 0.710932 14.1948C0.708238 15.2341 0.706978 16.2734 0.707105 17.3126C0.707153 17.8961 0.706616 18.4795 0.704635 19.0629C0.702822 19.6115 0.702803 20.1602 0.704169 20.7088C0.704365 20.9103 0.70392 21.1117 0.702789 21.3131C0.701345 21.588 0.70221 21.8628 0.703657 22.1377C0.702211 22.2574 0.702211 22.2574 0.700735 22.3795C0.70654 22.878 0.785571 23.1724 1.12501 23.5625C1.51464 23.7982 1.89527 23.7767 2.33857 23.7751C2.42424 23.7755 2.50992 23.7759 2.5982 23.7764C2.88593 23.7776 3.17366 23.7774 3.46139 23.7773C3.66743 23.7778 3.87347 23.7785 4.0795 23.7792C4.63968 23.7808 5.19985 23.7813 5.76002 23.7814C6.22739 23.7816 6.69475 23.7822 7.16211 23.7829C8.2016 23.7843 9.24109 23.7849 10.2806 23.7848C10.3429 23.7848 10.4053 23.7848 10.4696 23.7848C10.5632 23.7847 10.5632 23.7847 10.6588 23.7847C11.6708 23.7847 12.6828 23.7865 13.6948 23.7891C14.7341 23.7918 15.7734 23.793 16.8126 23.7929C17.3961 23.7929 17.9795 23.7934 18.5629 23.7954C19.1115 23.7972 19.6602 23.7972 20.2088 23.7959C20.4103 23.7957 20.6117 23.7961 20.8131 23.7972C21.088 23.7987 21.3628 23.7978 21.6377 23.7964C21.7574 23.7978 21.7574 23.7978 21.8795 23.7993C22.378 23.7935 22.6724 23.7145 23.0625 23.375C23.2982 22.9854 23.2767 22.6048 23.2751 22.1615C23.2757 22.0329 23.2757 22.0329 23.2764 21.9018C23.2776 21.6141 23.2774 21.3264 23.2773 21.0386C23.2778 20.8326 23.2785 20.6266 23.2792 20.4205C23.2808 19.8603 23.2813 19.3002 23.2814 18.74C23.2816 18.2726 23.2822 17.8053 23.2829 17.3379C23.2843 16.2984 23.2849 15.2589 23.2848 14.2194C23.2848 14.1259 23.2848 14.1259 23.2848 14.0305C23.2847 13.9368 23.2847 13.9368 23.2847 13.8412C23.2847 12.8292 23.2865 11.8172 23.2891 10.8052C23.2918 9.76593 23.293 8.72666 23.2929 7.68738C23.2929 7.10396 23.2934 6.52056 23.2954 5.93714C23.2972 5.38849 23.2972 4.83986 23.2959 4.29121C23.2957 4.08977 23.2961 3.88834 23.2972 3.6869C23.2987 3.41203 23.2978 3.13725 23.2964 2.86238C23.2973 2.78256 23.2983 2.70274 23.2993 2.62051C23.2935 2.12201 23.2145 1.82759 22.875 1.43751C22.4854 1.20187 22.1048 1.22334 21.6615 1.22494C21.5758 1.22452 21.4901 1.22409 21.4018 1.22366C21.1141 1.22247 20.8264 1.22262 20.5386 1.22278C20.3326 1.22222 20.1266 1.22158 19.9205 1.22087C19.3603 1.21921 18.8002 1.21877 18.24 1.21865C17.7726 1.21848 17.3053 1.21779 16.8379 1.21712C15.7984 1.21568 14.7589 1.21512 13.7194 1.21525C13.6571 1.21525 13.5947 1.21526 13.5305 1.21527C13.4368 1.21528 13.4368 1.21528 13.3412 1.21529C12.3292 1.21537 11.3172 1.21358 10.3052 1.21093C9.26593 1.20824 8.22666 1.20698 7.18738 1.20711C6.60396 1.20715 6.02056 1.20662 5.43714 1.20463C4.88849 1.20282 4.33986 1.2028 3.79121 1.20417C3.58977 1.20437 3.38834 1.20392 3.1869 1.20279C2.91203 1.20135 2.63725 1.20221 2.36238 1.20366C2.28256 1.20269 2.20274 1.20173 2.12051 1.20073C1.62201 1.20654 1.32759 1.28557 0.937514 1.62501Z"  fill-opacity="0.6"/>
<path d="M2.30853 2.35214C2.41344 2.35231 2.51835 2.35248 2.62644 2.35266C2.7466 2.3524 2.86676 2.35215 2.99056 2.35188C3.12448 2.35255 3.25839 2.35323 3.3923 2.35392C3.53272 2.35398 3.67314 2.35395 3.81356 2.35384C4.19552 2.35379 4.57746 2.35489 4.95941 2.3562C5.3583 2.35737 5.75718 2.35748 6.15607 2.3577C6.91175 2.35829 7.66743 2.35983 8.42312 2.36171C9.28329 2.3638 10.1435 2.36483 11.0036 2.36577C12.7734 2.36774 14.5432 2.37104 16.3129 2.37521C16.4057 2.60724 16.4057 2.60724 16.5004 2.84396C16.3327 3.06257 16.2496 3.12094 15.9723 3.15982C15.8723 3.15956 15.7723 3.1593 15.6693 3.15903C15.5547 3.15942 15.4402 3.15981 15.3222 3.16021C15.1946 3.15921 15.067 3.15819 14.9394 3.15714C14.8032 3.15705 14.6671 3.15709 14.531 3.15724C14.166 3.15731 13.801 3.15567 13.4361 3.1537C13.0938 3.1521 12.7515 3.15202 12.4091 3.15182C11.4077 3.15034 10.4062 3.14641 9.40471 3.14279C7.16754 3.13699 4.93037 3.13119 2.62541 3.12521C2.62541 9.31271 2.62541 15.5002 2.62541 21.8752C8.81291 21.8752 15.0004 21.8752 21.3754 21.8752C21.3754 15.6877 21.3754 9.50021 21.3754 3.12521C20.107 3.12521 18.8385 3.12521 17.5317 3.12521C17.4388 3.0788 17.4388 3.0788 17.3442 3.03146C17.3402 2.844 17.3403 2.65642 17.3442 2.46896C17.4939 2.31921 17.6513 2.36253 17.8587 2.36159C17.9929 2.36069 17.9929 2.36069 18.1298 2.35978C18.2759 2.35962 18.2759 2.35962 18.4248 2.35946C18.5242 2.35915 18.6235 2.35884 18.7258 2.35852C18.9363 2.35804 19.1468 2.35782 19.3573 2.35784C19.6803 2.35763 20.0034 2.35593 20.3264 2.35415C20.5304 2.35388 20.7345 2.35369 20.9385 2.3536C21.0843 2.35259 21.0843 2.35259 21.233 2.35156C21.3228 2.35185 21.4125 2.35214 21.505 2.35244C21.5843 2.3523 21.6635 2.35217 21.7452 2.35203C21.9379 2.37521 21.9379 2.37521 22.1254 2.56271C22.144 2.82438 22.1506 3.07675 22.1492 3.33853C22.1497 3.46031 22.1497 3.46031 22.1501 3.58455C22.1509 3.8582 22.1503 4.13183 22.1497 4.40548C22.1499 4.60102 22.1503 4.79655 22.1507 4.99208C22.1515 5.52435 22.1512 6.05662 22.1506 6.58889C22.1501 7.14484 22.1506 7.70079 22.1509 8.25674C22.1512 9.19052 22.1507 10.1243 22.1499 11.0581C22.1488 12.139 22.1492 13.2199 22.1502 14.3009C22.151 15.2275 22.1512 16.1541 22.1507 17.0807C22.1504 17.6347 22.1503 18.1888 22.151 18.7428C22.1515 19.2636 22.1511 19.7844 22.15 20.3052C22.1498 20.4968 22.1499 20.6884 22.1503 20.88C22.1508 21.1407 22.1502 21.4013 22.1492 21.6619C22.1498 21.7769 22.1498 21.7769 22.1505 21.8942C22.1468 22.4163 22.1468 22.4163 21.9379 22.6252C21.6762 22.6438 21.4239 22.6504 21.1621 22.649C21.0809 22.6493 20.9997 22.6496 20.9161 22.6499C20.6424 22.6507 20.3688 22.6501 20.0951 22.6495C19.8996 22.6497 19.7041 22.6501 19.5085 22.6505C18.9763 22.6513 18.444 22.651 17.9117 22.6504C17.3558 22.6499 16.7998 22.6504 16.2439 22.6507C15.3101 22.651 14.3763 22.6505 13.4425 22.6497C12.3616 22.6486 11.2807 22.649 10.1997 22.65C9.27314 22.6508 8.34655 22.651 7.41996 22.6505C6.86589 22.6502 6.31183 22.6501 5.75777 22.6508C5.23698 22.6513 4.7162 22.6509 4.19542 22.6498C4.0038 22.6496 3.81219 22.6497 3.62057 22.6501C3.35995 22.6506 3.09935 22.65 2.83873 22.649C2.72374 22.6496 2.72374 22.6496 2.60643 22.6503C2.08431 22.6466 2.08431 22.6466 1.87541 22.4377C1.85687 22.176 1.85017 21.9237 1.8516 21.6619C1.85131 21.5807 1.85102 21.4995 1.85071 21.4159C1.84996 21.1422 1.85056 20.8686 1.85115 20.5949C1.85089 20.3994 1.85056 20.2039 1.85015 20.0083C1.8493 19.4761 1.84963 18.9438 1.85022 18.4115C1.8507 17.8556 1.85026 17.2996 1.84996 16.7437C1.84962 15.8099 1.85007 14.8761 1.85097 13.9423C1.85199 12.8614 1.85166 11.7805 1.85062 10.6995C1.84977 9.77294 1.84965 8.84635 1.85014 7.91976C1.85044 7.36569 1.85047 6.81163 1.84985 6.25757C1.84931 5.73678 1.84969 5.216 1.85077 4.69522C1.85102 4.5036 1.85095 4.31199 1.85054 4.12037C1.85003 3.85975 1.85066 3.59915 1.8516 3.33853C1.85118 3.26187 1.85076 3.18521 1.85033 3.10623C1.85534 2.39471 1.85534 2.39471 2.30853 2.35214Z"  fill-opacity="0.6"/>
<path d="M7.03128 4.43848C7.27738 4.47363 7.27738 4.47363 7.50003 4.53223C7.72683 5.15068 7.87052 5.76539 7.98636 6.41309C8.00298 6.50318 8.01959 6.59327 8.03671 6.6861C8.07711 6.90555 8.11696 7.12508 8.15628 7.34473C8.34669 7.05911 8.42329 6.8368 8.51956 6.5094C8.55195 6.40118 8.58434 6.29296 8.61771 6.18146C8.68519 5.95273 8.75257 5.72397 8.81986 5.49518C8.85224 5.38708 8.88463 5.27898 8.918 5.1676C8.94725 5.06826 8.97649 4.96891 9.00662 4.86655C9.09378 4.62598 9.09378 4.62598 9.28128 4.43848C9.52738 4.42676 9.52738 4.42676 9.75003 4.43848C10.0584 5.07944 10.2762 5.73151 10.4766 6.41309C10.5062 6.51212 10.5358 6.61116 10.5663 6.7132C10.6385 6.95481 10.7101 7.19657 10.7813 7.43848C10.9151 6.9172 11.0462 6.39612 11.1581 5.86963C11.1743 5.79384 11.1906 5.71805 11.2073 5.63997C11.2394 5.48864 11.271 5.33718 11.3019 5.18559C11.4168 4.64667 11.4168 4.64667 11.625 4.43848C12.0521 4.49056 12.0521 4.49056 12.1875 4.62598C12.2172 5.15471 12.1356 5.63658 12.0301 6.15344C12.0139 6.23486 11.9977 6.31628 11.981 6.40016C11.9467 6.57127 11.9122 6.74232 11.8774 6.91331C11.8243 7.1748 11.7724 7.43653 11.7206 7.6983C11.6871 7.86501 11.6536 8.03169 11.6199 8.19836C11.6045 8.2764 11.589 8.35443 11.5731 8.43483C11.5581 8.50776 11.5431 8.58069 11.5277 8.65583C11.5148 8.71964 11.5019 8.78344 11.4886 8.84918C11.4309 9.05592 11.3635 9.22468 11.25 9.40723C10.9746 9.49512 10.9746 9.49512 10.6875 9.50098C10.3667 9.27718 10.3033 8.95942 10.1942 8.59753C10.1759 8.53759 10.1576 8.47764 10.1387 8.41587C10.0806 8.22508 10.0237 8.03395 9.96683 7.84277C9.92754 7.71305 9.88818 7.58335 9.84873 7.45367C9.75239 7.13639 9.65717 6.81878 9.56253 6.50098C9.37233 6.78628 9.29739 7.00573 9.20255 7.33301C9.17058 7.44081 9.13862 7.5486 9.10568 7.65967C9.03918 7.88711 8.97302 8.11465 8.9072 8.34229C8.87511 8.45008 8.84303 8.55788 8.80997 8.66895C8.78121 8.7678 8.75246 8.86666 8.72283 8.96851C8.62593 9.21743 8.55966 9.3461 8.34378 9.50098C8.05667 9.48926 8.05667 9.48926 7.78128 9.40723C7.6106 9.15121 7.56019 9.03932 7.50365 8.75162C7.48865 8.6768 7.47365 8.60199 7.45819 8.5249C7.44275 8.44434 7.42731 8.36377 7.41141 8.28076C7.39503 8.1974 7.37865 8.11404 7.36177 8.02815C7.32727 7.85169 7.29309 7.67516 7.2592 7.49858C7.20748 7.2297 7.15443 6.9611 7.10123 6.6925C7.06782 6.52077 7.0345 6.34902 7.00125 6.17725C6.97753 6.05753 6.97753 6.05753 6.95332 5.9354C6.86968 5.49431 6.80952 5.07712 6.84378 4.62598C6.90566 4.5641 6.96753 4.50223 7.03128 4.43848Z"  fill-opacity="0.6"/>
<path d="M5.08108 10.7077C5.14234 10.7076 5.20361 10.7074 5.26674 10.7073C5.47352 10.7069 5.6803 10.7072 5.88708 10.7075C6.03473 10.7073 6.18237 10.7072 6.33001 10.707C6.73212 10.7066 7.13422 10.7067 7.53633 10.707C7.95619 10.7073 8.37606 10.707 8.79592 10.7069C9.50114 10.7067 10.2064 10.7069 10.9116 10.7074C11.7281 10.7079 12.5447 10.7077 13.3612 10.7072C14.061 10.7068 14.7607 10.7067 15.4605 10.707C15.879 10.7071 16.2975 10.7071 16.716 10.7068C17.1094 10.7066 17.5027 10.7067 17.8961 10.7073C18.0409 10.7074 18.1856 10.7074 18.3304 10.7072C18.5273 10.7069 18.7241 10.7072 18.9209 10.7077C19.0865 10.7078 19.0865 10.7078 19.2554 10.7078C19.501 10.7196 19.501 10.7196 19.5947 10.8134C19.6064 11.0946 19.6064 11.0946 19.5947 11.3759C19.4232 11.5474 19.151 11.4814 18.9209 11.4815C18.829 11.4817 18.829 11.4817 18.7352 11.482C18.5284 11.4823 18.3217 11.482 18.1149 11.4817C17.9672 11.4819 17.8196 11.482 17.6719 11.4822C17.2698 11.4827 16.8677 11.4825 16.4656 11.4822C16.0458 11.482 15.6259 11.4822 15.206 11.4823C14.5008 11.4825 13.7956 11.4823 13.0904 11.4818C12.2738 11.4813 11.4573 11.4815 10.6408 11.482C9.941 11.4824 9.24124 11.4825 8.54148 11.4822C8.12297 11.4821 7.70447 11.4821 7.28596 11.4824C6.8926 11.4827 6.49925 11.4825 6.10589 11.4819C5.9611 11.4818 5.81631 11.4818 5.67152 11.482C5.4747 11.4823 5.27789 11.482 5.08108 11.4815C4.91547 11.4815 4.91547 11.4815 4.74651 11.4814C4.50098 11.4696 4.50098 11.4696 4.40723 11.3759C4.39551 11.0946 4.39551 11.0946 4.40723 10.8134C4.57872 10.6419 4.85098 10.7078 5.08108 10.7077Z"  fill-opacity="0.6"/>
<path d="M7.89159 15.4689C7.96765 15.4683 8.04371 15.4677 8.12208 15.467C8.28308 15.4661 8.44408 15.4656 8.60509 15.4657C8.85163 15.4653 9.09802 15.4619 9.34454 15.4583C9.50085 15.4578 9.65716 15.4574 9.81347 15.4572C9.8873 15.4559 9.96114 15.4545 10.0372 15.4531C10.5451 15.4574 10.5451 15.4574 10.7825 15.67C10.9252 15.989 10.8681 16.2837 10.8216 16.6196C10.8123 16.6948 10.803 16.77 10.7934 16.8476C10.7718 17.0187 10.7494 17.1898 10.7263 17.3608C10.6817 17.6955 10.6408 18.0305 10.5997 18.3657C10.5684 18.6118 10.5369 18.8579 10.5052 19.1039C10.4905 19.2234 10.4757 19.3428 10.4605 19.4659C10.4454 19.5784 10.4303 19.6908 10.4148 19.8067C10.3952 19.9576 10.3952 19.9576 10.3753 20.1115C10.3059 20.4003 10.2487 20.5484 10.0306 20.7504C9.78802 20.7989 9.78802 20.7989 9.50036 20.8002C9.39679 20.8007 9.29322 20.8012 9.18652 20.8017C9.07836 20.8002 8.9702 20.7988 8.85876 20.7973C8.7506 20.7987 8.64244 20.8002 8.531 20.8017C8.42743 20.8012 8.32386 20.8007 8.21716 20.8002C8.07476 20.7996 8.07476 20.7996 7.9295 20.7989C7.68688 20.7504 7.68688 20.7504 7.53641 20.5863C7.39716 20.3618 7.3551 20.2131 7.32058 19.953C7.30327 19.8286 7.30327 19.8286 7.2856 19.7017C7.27445 19.6129 7.26331 19.524 7.25182 19.4324C7.23951 19.3404 7.2272 19.2484 7.21452 19.1536C7.18878 18.9593 7.1636 18.7649 7.13894 18.5704C7.1011 18.2731 7.06125 17.9762 7.02111 17.6792C6.99633 17.4902 6.97167 17.3012 6.94714 17.1121C6.93523 17.0234 6.92333 16.9347 6.91106 16.8434C6.89552 16.7185 6.89552 16.7185 6.87966 16.5912C6.87031 16.5184 6.86096 16.4457 6.85132 16.3707C6.84194 16.1256 6.8712 15.9241 6.93688 15.6879C7.21499 15.4098 7.51867 15.47 7.89159 15.4689ZM7.68688 16.2504C7.75155 16.7695 7.81646 17.2885 7.882 17.8074C7.90424 17.9841 7.92634 18.1608 7.94829 18.3375C7.9798 18.5909 8.01181 18.8443 8.04394 19.0977C8.05371 19.1772 8.06348 19.2567 8.07354 19.3386C8.08938 19.6994 8.08938 19.6994 8.24938 20.0004C8.68251 20.0004 9.11563 20.0004 9.56188 20.0004C9.71657 18.7629 9.87126 17.5254 10.0306 16.2504C9.25719 16.2504 8.48376 16.2504 7.68688 16.2504Z"  fill-opacity="0.6"/>
<path d="M14.4982 15.4507C14.6018 15.4502 14.7053 15.4497 14.812 15.4492C14.9202 15.4507 15.0283 15.4521 15.1398 15.4536C15.2479 15.4522 15.3561 15.4507 15.4675 15.4492C15.5711 15.4497 15.6747 15.4502 15.7814 15.4507C15.9238 15.4513 15.9238 15.4513 16.069 15.452C16.3117 15.5005 16.3117 15.5005 16.4621 15.6646C16.6014 15.8891 16.6434 16.0378 16.678 16.2979C16.6895 16.3808 16.7011 16.4637 16.7129 16.5492C16.7297 16.6825 16.7297 16.6825 16.7467 16.8185C16.759 16.9105 16.7713 17.0025 16.784 17.0973C16.8098 17.2916 16.8349 17.486 16.8596 17.6805C16.8974 17.9778 16.9373 18.2747 16.9774 18.5717C17.0022 18.7607 17.0269 18.9498 17.0514 19.1388C17.0633 19.2275 17.0752 19.3162 17.0875 19.4075C17.0978 19.4908 17.1082 19.574 17.1189 19.6597C17.1282 19.7325 17.1376 19.8053 17.1472 19.8802C17.1566 20.1253 17.1273 20.3268 17.0617 20.563C16.7836 20.8411 16.4799 20.7809 16.1069 20.782C16.0309 20.7826 15.9548 20.7832 15.8765 20.7839C15.7155 20.7848 15.5545 20.7853 15.3935 20.7852C15.1469 20.7856 14.9005 20.789 14.654 20.7926C14.4977 20.7932 14.3414 20.7935 14.1851 20.7937C14.0743 20.7957 14.0743 20.7957 13.9613 20.7978C13.4544 20.7935 13.4544 20.7935 13.2158 20.5837C13.1166 20.3584 13.0988 20.2425 13.1278 20.0001C13.1359 19.9307 13.144 19.8613 13.1524 19.7897C13.1624 19.7181 13.1724 19.6465 13.1828 19.5728C13.1906 19.5008 13.1985 19.4288 13.2066 19.3547C13.2556 18.9697 13.2999 18.7551 13.5929 18.5005C13.8214 18.5708 13.8214 18.5708 14.0617 18.688C14.1554 19.063 14.1554 19.063 13.9679 20.0005C14.7413 20.0005 15.5148 20.0005 16.3117 20.0005C16.2498 19.7221 16.1879 19.4436 16.1242 19.1567C16.0876 18.9247 16.0541 18.6921 16.0238 18.4591C16.0158 18.3979 16.0077 18.3366 15.9994 18.2736C15.9742 18.0817 15.9496 17.8897 15.9249 17.6978C15.9078 17.5661 15.8906 17.4344 15.8733 17.3028C15.8315 16.9833 15.7903 16.6638 15.7492 16.3442C15.0995 16.2978 15.0995 16.2978 14.4367 16.2505C14.4405 16.3607 14.4444 16.4709 14.4484 16.5845C14.4498 16.9746 14.3721 17.2878 14.2492 17.6567C14.0851 17.7271 14.0851 17.7271 13.8742 17.7505C13.6702 17.6113 13.6702 17.6113 13.4992 17.3755C13.4949 17.105 13.5093 16.8883 13.5519 16.6255C13.5602 16.5588 13.5685 16.4921 13.577 16.4233C13.6703 15.7695 13.8097 15.4538 14.4982 15.4507Z"  fill-opacity="0.6"/>
<path d="M16.6872 4.7021C16.8743 4.8116 16.8743 4.8116 17.0618 5.09285C17.0133 5.42259 17.0133 5.42259 16.8743 5.5616C16.5465 5.52517 16.2502 5.47854 15.9368 5.3741C15.2694 5.30927 14.7825 5.32474 14.2493 5.7491C13.9303 6.1433 13.7894 6.55256 13.7806 7.0616C13.8781 7.64767 14.0929 7.99895 14.557 8.36531C14.9742 8.63086 15.4603 8.62978 15.9368 8.5616C16.1283 8.45649 16.282 8.33747 16.4492 8.19758C16.5931 8.09285 16.5931 8.09285 16.8626 8.05769C17.0618 8.09285 17.0618 8.09285 17.1556 8.1866C17.1966 8.44441 17.1966 8.44441 17.1556 8.7491C16.6867 9.25316 16.1537 9.46952 15.4739 9.53425C14.6995 9.49788 14.0615 9.17928 13.4993 8.65535C12.9493 7.96052 12.8475 7.27189 12.9368 6.40535C13.1123 5.75922 13.4924 5.14376 14.0673 4.78486C14.9604 4.32767 15.7598 4.3148 16.6872 4.7021Z"  fill-opacity="0.6"/>
<path d="M15.5623 12.6884C16.0232 12.9103 16.236 13.1441 16.4061 13.6259C16.4567 14.031 16.4365 14.2256 16.242 14.5869C15.9532 14.9399 15.7903 15.0905 15.3455 15.208C14.8402 15.2251 14.5051 15.0745 14.1209 14.7509C13.8641 14.4348 13.8426 14.1255 13.8484 13.7255C13.9048 13.3122 14.1491 13.056 14.4549 12.7939C14.8315 12.6432 15.1623 12.6256 15.5623 12.6884ZM14.7186 13.6259C14.6795 13.9072 14.6795 13.9072 14.7186 14.1884C14.8898 14.3993 14.8898 14.3993 15.1404 14.3994C15.391 14.3993 15.391 14.3993 15.5623 14.1884C15.532 13.8512 15.532 13.8512 15.4686 13.5322C15.0769 13.4207 15.0769 13.4207 14.7186 13.6259Z"  fill-opacity="0.6"/>
<path d="M9.28125 12.6871C9.69226 12.8926 9.94977 13.1025 10.125 13.5308C10.1794 13.9029 10.1634 14.192 10.0137 14.5386C9.7285 14.8926 9.50204 15.0893 9.05859 15.2125C8.64737 15.2195 8.41952 15.1391 8.0625 14.9371C7.7693 14.6207 7.60357 14.4084 7.57031 13.9761C7.60463 13.4614 7.73873 13.1853 8.12109 12.8394C8.52564 12.6446 8.84004 12.6088 9.28125 12.6871ZM8.56055 13.5484C8.39649 13.7749 8.40239 13.9132 8.4375 14.1871C8.60878 14.3979 8.60878 14.3979 8.85938 14.398C9.10997 14.3979 9.10997 14.3979 9.28125 14.1871C9.32031 13.9058 9.32031 13.9058 9.28125 13.6246C8.92586 13.3867 8.92586 13.3867 8.56055 13.5484Z"  fill-opacity="0.6"/>
</g>
<defs>
<clipPath id="clip0_1333_159238">
<rect width="24" height="24" fill="white" transform="translate(0 0.5)"/>
</clipPath>
</defs>
</svg>
