<svg width="24" height="25" viewBox="0 0 24 25"  xmlns="http://www.w3.org/2000/svg">
<g clip-path="url(#clip0_1333_159285)">
<path d="M22.6884 7.53107C22.917 7.74187 23.1322 7.96052 23.3447 8.18732C23.4752 8.30914 23.4752 8.30914 23.6083 8.43342C24.0292 8.89032 24.0482 9.36901 24.0357 9.96784C23.9717 10.487 23.7467 10.7972 23.3736 11.1496C22.8469 11.5444 22.2937 11.5596 21.6572 11.4686C21.0829 11.2469 20.6989 10.8199 20.252 10.4047C19.7894 9.98758 19.2739 9.6478 18.7509 9.31232C18.6519 9.24864 18.553 9.18495 18.451 9.11933C16.0094 7.63706 13.3663 7.30128 10.5643 7.34943C10.3134 7.34357 10.3134 7.34357 10.2197 7.24982C10.2158 7.06236 10.2157 6.87478 10.2197 6.68732C10.8153 6.46542 11.3482 6.46749 11.9775 6.47053C12.0908 6.47106 12.2042 6.47159 12.321 6.47213C13.24 6.48449 14.1085 6.56193 15.0009 6.78107C15.1118 6.80827 15.1118 6.80827 15.225 6.83601C17.3772 7.3842 19.2461 8.3828 20.9149 9.84626C20.9642 9.88894 21.0136 9.93163 21.0645 9.9756C21.2048 10.0972 21.3438 10.2202 21.4828 10.3432C21.888 10.6272 22.1833 10.6443 22.665 10.5721C22.9866 10.4664 22.9866 10.4664 23.1103 10.1854C23.1751 9.75574 23.1938 9.42849 22.9565 9.04646C21.3044 7.00224 18.4908 5.70137 16.0322 4.99982C15.8705 4.95269 15.8705 4.95269 15.7055 4.90461C14.4915 4.57702 13.2744 4.49527 12.0243 4.50178C11.9192 4.50208 11.9192 4.50208 11.8118 4.50239C10.758 4.50726 9.74425 4.5504 8.71966 4.81232C8.64212 4.83145 8.56458 4.85057 8.48469 4.87028C7.35571 5.15402 6.29978 5.52805 5.25091 6.03107C5.16366 6.07156 5.0764 6.11204 4.98651 6.15376C3.6591 6.78833 1.61092 7.92026 0.905084 9.27497C0.796527 9.67894 0.902653 10.0488 1.03216 10.4373C1.48786 10.573 1.83557 10.6736 2.29193 10.5076C2.69195 10.2306 3.03819 9.87814 3.39422 9.54816C4.65004 8.42177 6.30108 7.59483 7.89935 7.08576C7.9614 7.06597 8.02346 7.04618 8.0874 7.02579C9.13295 6.70647 9.13295 6.70647 9.46966 6.87482C9.48138 7.14436 9.48138 7.14436 9.46966 7.43732C9.26598 7.64101 9.17771 7.66879 8.90643 7.73981C8.83012 7.76071 8.75381 7.7816 8.67519 7.80312C8.59318 7.8255 8.51118 7.84787 8.42669 7.87092C7.52572 8.12959 6.72122 8.47558 5.90716 8.93732C5.85195 8.96853 5.79673 8.99974 5.73985 9.0319C4.84598 9.54433 4.06525 10.1491 3.3056 10.8416C2.71826 11.3615 2.2878 11.5301 1.49835 11.5067C0.982188 11.4361 0.67138 11.2134 0.319879 10.8413C-0.0754838 10.3137 -0.0809004 9.76222 0.000909697 9.12482C0.157655 8.67109 0.403332 8.41798 0.75091 8.09357C0.796349 8.04306 0.841789 7.99254 0.888605 7.9405C6.35421 2.00287 16.4836 2.45456 22.6884 7.53107Z"  fill-opacity="0.6"/>
<path d="M18.2774 11.381C18.5057 11.559 18.7235 11.7428 18.9384 11.9366C19.0089 11.9994 19.0794 12.0623 19.1519 12.127C19.6715 12.6155 19.9356 12.9845 20.0048 13.712C19.9812 14.2014 19.8724 14.6375 19.5401 15.0084C19.0433 15.4543 18.6076 15.6427 17.9365 15.6207C17.315 15.5409 16.9129 15.175 16.4541 14.7725C14.9958 13.5 13.1592 13.0296 11.2509 13.1553C9.77322 13.3518 8.43464 13.9477 7.33688 14.96C6.82063 15.4323 6.36521 15.6534 5.65121 15.6254C5.15008 15.5487 4.7533 15.3208 4.41891 14.9424C4.05247 14.4143 3.95073 13.9795 4.03219 13.3428C4.36381 12.1253 5.72107 11.3142 6.75094 10.7178C10.433 8.68945 14.855 8.97398 18.2774 11.381ZM5.06344 13.0616C4.83289 13.4074 4.79945 13.6914 4.87594 14.0928C5.03949 14.3761 5.23529 14.6006 5.53219 14.7491C5.84168 14.8121 5.98339 14.8303 6.28219 14.7491C6.52183 14.5785 6.74012 14.3941 6.95986 14.1988C8.41764 12.9077 10.3417 12.2331 12.2899 12.3203C14.2792 12.4624 16.0063 13.1827 17.4619 14.5674C17.759 14.7768 17.9285 14.8179 18.2855 14.796C18.6185 14.7112 18.7943 14.524 19.0322 14.2803C19.1876 13.9695 19.1944 13.6763 19.1259 13.3428C18.2359 11.7913 16.0321 10.8934 14.3795 10.4362C11.0079 9.6275 7.53783 10.6089 5.06344 13.0616Z"  fill-opacity="0.6"/>
<path d="M13.6879 15.2196C14.4108 15.7381 15.0146 16.3774 15.182 17.2762C15.184 17.371 15.1859 17.4657 15.1879 17.5633C15.0004 17.7508 15.0004 17.7508 14.7543 17.7625C14.6808 17.7587 14.6073 17.7548 14.5316 17.7508C14.493 17.6694 14.4543 17.5879 14.4145 17.504C13.995 16.6669 13.603 16.1427 12.7152 15.7879C11.9657 15.5732 11.2931 15.7361 10.619 16.1018C10.0399 16.5082 9.74481 17.0949 9.58633 17.7684C9.53395 18.5672 9.7289 19.1003 10.2191 19.7196C10.2191 19.7814 10.2191 19.8433 10.2191 19.9071C10.3004 19.9473 10.3004 19.9473 10.3832 19.9884C10.5153 20.0549 10.6464 20.1234 10.7758 20.1949C11.4311 20.53 12.0919 20.6024 12.8057 20.4011C13.6885 20.0412 14.1332 19.3374 14.5316 18.5008C14.7173 18.5008 14.9029 18.5008 15.0941 18.5008C15.2387 19.0878 15.0844 19.3923 14.8067 19.9093C14.2925 20.7008 13.5572 21.1617 12.6508 21.3836C11.5487 21.4774 10.6179 21.2835 9.75039 20.5633C9.15495 20.0091 8.76233 19.2548 8.7001 18.4386C8.68193 17.2907 8.94281 16.5279 9.73318 15.6967C10.7978 14.6837 12.3942 14.4871 13.6879 15.2196Z"  fill-opacity="0.6"/>
</g>
<defs>
<clipPath id="clip0_1333_159285">
<rect width="24" height="24" fill="white" transform="translate(0 0.5)"/>
</clipPath>
</defs>
</svg>
